<svg xmlns="http://www.w3.org/2000/svg">
<defs>
<font id="2eadc12db366f128d4c29fb370be9bc1" horiz-adv-x='1024' >
  <font-face 
    font-family="PTSerif-Regular"
    font-weight="400"
    font-stretch="normal"
    units-per-em="2048"
    panose-1="2 10 6 3 4 5 5 2 2 4"
    ascent="1638"
    descent="-410"
    x-height="1024"
    cap-height="1434"
    bbox="-770 -557 2345 2052.27"
    underline-thickness="102"
    underline-position="-102"
    unicode-range="U+0020-FB02"
  />
<missing-glyph horiz-adv-x="1452" 
d="M471 106q14 0 12 -14h-26q0 14 14 14zM471 66q-14 0 -14 14h43v14q0 27 -31 27t-31 -35t33 -35q16 0 25 8l-7 11q-4 -4 -18 -4zM399 141q-33 0 -32 -26q0 -15 14 -21t21.5 -9t7.5 -10t-14 -7t-25 6l-6 -19q16 -4 30 -4q33 0 33 29q0 14 -14.5 20t-21.5 9.5t-6.5 9.5
t12.5 6t24 -4l4 16q-16 4 -27 4zM217 127q18 0 18.5 -12.5t-5 -13.5t-15.5 -1h-8v27h10zM217 84q37 0 37 29q0 20 -12.5 24t-26.5 4h-27v-86h19v29h10zM1325 109q14 0 12 -15h-26q0 15 14 15zM1325 68q-14 0 -14 14h43v14q0 27 -31 27t-31 -35t33 -35q16 0 25 8l-7 11
q-4 -4 -18 -4zM1237 96q0 13 13 13q14 0 14 -21t-19 -20q-4 0 -8 4v24zM1219 31h18v26q4 -4 12 -4q33 0 33 35t-27 35q-12 0 -20 -10h-4l-2 8h-10v-90zM1165 31q12 0 21 30l24 60h-18l-12 -37v-12h-2l-2 12l-15 37h-20l28 -66q-4 -10 -10 -10l-4 2l-4 -14q2 -2 14 -2z
M1141 141h-74v-14h29v-72h16v72h29v14zM1041 68q-9 0 -9 9t12 9l13 -2v-6q-7 -10 -16 -10zM1073 72v26q0 25 -24 25q-10 0 -16.5 -3t-12.5 -5l2 -11q20 4 27 4t8 -10v-4l-13 2q-31 0 -30 -24q0 -18 20 -19q16 0 23 13h2l2 -11h14q-2 2 -2 17zM1000 123q-8 0 -13 -12h-2
l-2 10h-14v-66h18v41q0 10 14 10l5 -2h2l4 17q-4 2 -12 2zM921.5 68q-10.5 0 -10.5 9t13 9l10 -2v-6q-2 -10 -12.5 -10zM925 109q9 0 9 -11v-4l-10 2q-31 0 -31 -24q0 -18 20 -19q14 0 21 13l6 -11h14q-2 2 -2 17v26q0 25 -24 25q-15 0 -31 -8l4 -11q15 5 24 5zM852 127
q18 0 18 -12.5t-5 -13.5t-15 -1h-8v27h10zM852 84q37 0 37 29q0 20 -12.5 24t-26.5 4h-27v-86h19v29h10zM728 80q-7 0 -7 10t10 10h6l6 11q-8 4 -18 4q-20 0 -20 -25t20 -24q10 0 18 4l-4 12q-4 -2 -11 -2zM692 91q0 36 34 36t34 -36t-34 -36t-34 36zM678 92q0 -51 48 -51

<glyph glyph-name="fi" unicode="fi" horiz-adv-x="1228" 
d="M1151 0h-455v51q63 35 135 49v822h-428v-822q99 -7 193 -49v-51h-512v51q63 37 135 49v822h-156v53q72 45 156 67v72q0 233 131.5 329.5t337.5 96.5q141 0 229.5 -26.5t108.5 -40.5q-6 -68 -18.5 -107t-26.5 -84h-61l-170 176q-237 0 -292 -112.5t-55 -219.5v-102h215
q222 0 347 25h51v-949q88 -21 135 -49v-51z" />
    <glyph glyph-name="fl" unicode="fl" horiz-adv-x="1253" 
d="M662 1456q-70 0 -164.5 -25t-94.5 -307v-100h236v-102h-236v-822q106 -12 193 -49v-51h-512v51q63 37 135 49v822h-156v53q72 45 156 67v72q0 346 158 386t237 40t197 -39q37 10 78 22.5t82 16.5h51v-1440q100 -23 154 -49v-51h-471v51q84 41 133 49v1297
q-106 59 -176 59z" />
    <glyph glyph-name=".notdef" horiz-adv-x="1452" 
d="M471 106q14 0 12 -14h-26q0 14 14 14zM471 66q-14 0 -14 14h43v14q0 27 -31 27t-31 -35t33 -35q16 0 25 8l-7 11q-4 -4 -18 -4zM399 141q-33 0 -32 -26q0 -15 14 -21t21.5 -9t7.5 -10t-14 -7t-25 6l-6 -19q16 -4 30 -4q33 0 33 29q0 14 -14.5 20t-21.5 9.5t-6.5 9.5
t12.5 6t24 -4l4 16q-16 4 -27 4zM217 127q18 0 18.5 -12.5t-5 -13.5t-15.5 -1h-8v27h10zM217 84q37 0 37 29q0 20 -12.5 24t-26.5 4h-27v-86h19v29h10zM1325 109q14 0 12 -15h-26q0 15 14 15zM1325 68q-14 0 -14 14h43v14q0 27 -31 27t-31 -35t33 -35q16 0 25 8l-7 11
q-4 -4 -18 -4zM1237 96q0 13 13 13q14 0 14 -21t-19 -20q-4 0 -8 4v24zM1219 31h18v26q4 -4 12 -4q33 0 33 35t-27 35q-12 0 -20 -10h-4l-2 8h-10v-90zM1165 31q12 0 21 30l24 60h-18l-12 -37v-12h-2l-2 12l-15 37h-20l28 -66q-4 -10 -10 -10l-4 2l-4 -14q2 -2 14 -2z
M1141 141h-74v-14h29v-72h16v72h29v14zM1041 68q-9 0 -9 9t12 9l13 -2v-6q-7 -10 -16 -10zM1073 72v26q0 25 -24 25q-10 0 -16.5 -3t-12.5 -5l2 -11q20 4 27 4t8 -10v-4l-13 2q-31 0 -30 -24q0 -18 20 -19q16 0 23 13h2l2 -11h14q-2 2 -2 17zM1000 123q-8 0 -13 -12h-2
l-2 10h-14v-66h18v41q0 10 14 10l5 -2h2l4 17q-4 2 -12 2zM921.5 68q-10.5 0 -10.5 9t13 9l10 -2v-6q-2 -10 -12.5 -10zM925 109q9 0 9 -11v-4l-10 2q-31 0 -31 -24q0 -18 20 -19q14 0 21 13l6 -11h14q-2 2 -2 17v26q0 25 -24 25q-15 0 -31 -8l4 -11q15 5 24 5zM852 127
q18 0 18 -12.5t-5 -13.5t-15 -1h-8v27h10zM852 84q37 0 37 29q0 20 -12.5 24t-26.5 4h-27v-86h19v29h10zM728 80q-7 0 -7 10t10 10h6l6 11q-8 4 -18 4q-20 0 -20 -25t20 -24q10 0 18 4l-4 12q-4 -2 -11 -2zM692 91q0 36 34 36t34 -36t-34 -36t-34 36zM678 92q0 -51 48 -51
t48 49t-49 49q-20 0 -33.5 -12t-13.5 -35zM637 141h-19q-2 0 -7 -3.5t-5 -14.5v-4h-10v-15h10v-51h17v51h16v15h-16q0 8 8 8h12l2 12q0 2 -8 2zM565 53h19v66h-19v-66zM574 141q-10 0 -9 -9q0 -9 9 -9t10 8q0 10 -10 10zM551 119q-14 0 -23 -8v8h-14v-66h16v41q6 10 12 10
t11 -2l2 17h-4zM332 139h-72v-14h27v-72h18v72h27v14zM1167 1331l-399 -444l-399 444l-103 -102l404 -451l-404 -450l103 -103l399 445l399 -445l103 103l-406 450l406 451zM102 1434h1332v-1434h-1332v1434z" />
    <glyph glyph-name=".null" horiz-adv-x="0" 
 />
    <glyph glyph-name="nonmarkingreturn" horiz-adv-x="497" 
 />
    <glyph glyph-name="space" unicode=" " horiz-adv-x="497" 
 />
    <glyph glyph-name="exclam" unicode="!" horiz-adv-x="669" 
d="M244 118q0 60 39 97t101 37t101 -37t39 -97t-39 -97t-101 -37t-101 37t-39 97zM383 1436q47 0 92 -23v-606l-65 -361h-54l-65 361v606q45 23 92 23z" />
    <glyph glyph-name="quotedbl" unicode="&#x22;" horiz-adv-x="778" 
d="M424 1372q22 60 87 61q64 1 87 -61l-66 -340h-40zM178 1372q22 60 87 61q64 1 87 -61l-65 -340h-41z" />
    <glyph glyph-name="numbersign" unicode="#" 
d="M360 571h291l74 308h-291zM631 477h-291l-86 -358h-109l86 358h-163l28 94h156l74 308h-156l29 94h149l82 342h107l-80 -342h291l81 342h107l-82 -342h164l-35 -94h-152l-73 -308h157l-34 -94h-144l-86 -358h-106z" />
    <glyph glyph-name="dollar" unicode="$" 
d="M291 1144q0 -116 53 -181.5t145 -112.5v500q-92 -10 -145 -73t-53 -133zM807 348q0 102 -61.5 164.5t-149.5 103.5v-524q92 25 151.5 89.5t59.5 166.5zM991 369q0 -161 -104.5 -263t-290.5 -124v-125h-107v118q-166 0 -257 43t-111 62q2 20 7.5 109.5t25.5 132.5h51
l123 -199q62 -37 161 -41v584q-8 0 -12 4l-65 30q-146 67 -200 126t-80 120.5t-26 140.5q0 148 105.5 252.5t277.5 116.5v100h107v-100q166 -10 297 -72q-3 -88 -49 -184h-53l-103 139q-44 8 -92 11v-547l59 -27q63 -31 199.5 -106t136.5 -301z" />
    <glyph glyph-name="percent" unicode="%" horiz-adv-x="1652" 
d="M1382 1454l72 -63l-1198 -1405l-70 65zM279 1110q0 -123 47 -198t137 -74q184 0 184 271t-184 271t-184 -270zM106 1106q0 157 102 256q102 98 255 96q249 0 330 -194q27 -66 27 -150q-1 -163 -101 -258q-100 -96 -256 -94q-78 0 -142 21q-135 45 -188 173
q-27 66 -27 150zM1001 326q-1 -123 47 -198t138 -75q184 -1 184 271t-184 272t-185 -270zM1186 674q250 0 330 -195q26 -65 26 -149q-1 -164 -100 -259q-99 -94 -257 -94t-257 89t-99 251t101 260q100 97 256 97z" />
    <glyph glyph-name="ampersand" unicode="&#x26;" horiz-adv-x="1779" 
d="M704 -25q-96 0 -184 33t-183 118.5t-95 254.5q0 168 95 280t228 205q-59 66 -100 154t-41 152q0 125 85 205.5t223 80.5t221 -58.5t83 -168.5q0 -175 -106.5 -270t-151.5 -130q148 -184 428 -436q86 124 110.5 283.5t18.5 243.5q-61 12 -121 49v53h416v-53
q-55 -35 -135 -49q-43 -287 -117.5 -429.5t-91.5 -166.5q177 -143 320 -226l112 -49v-51h-291q-43 29 -108.5 71t-142.5 117q-107 -144 -241.5 -178.5t-230.5 -34.5zM627 1036.5q49 -85.5 108 -153.5q173 143 156 334q-4 66 -41.5 110.5t-99.5 44.5t-91.5 -15.5t-55 -50.5
t-25.5 -110q0 -74 49 -159.5zM451 462q0 -169 95.5 -274.5t246.5 -105.5q192 0 313 170q-195 176 -326 340t-164 211q-88 -86 -126.5 -166.5t-38.5 -174.5z" />
    <glyph glyph-name="quotesingle" unicode="'" horiz-adv-x="454" 
d="M265 1434q64 0 87 -62l-65 -340h-41l-68 340q23 62 87 62z" />
    <glyph glyph-name="parenleft" unicode="(" horiz-adv-x="702" 
d="M297 498q0 -530 367 -887l-50 -41q-234 171 -363.5 390.5t-129.5 537.5q0 439 197.5 646.5t302.5 293.5l43 -37q-185 -199 -276 -404.5t-91 -498.5z" />
    <glyph glyph-name="parenright" unicode=")" horiz-adv-x="702" 
d="M403 520q0 288 -90 488t-274 393l43 37q242 -186 371 -398t129 -522q0 -597 -494 -948l-49 41q256 250 310 501.5t54 407.5z" />
    <glyph glyph-name="asterisk" unicode="*" horiz-adv-x="952" 
d="M397 1509q18 27 76.5 27t79.5 -27l-45 -266q-31 -20 -64 0zM750 1399q34 -4 60 -55t15 -84l-254 -97q-29 20 -28 54zM823 1047q16 -28 -14 -81t-64 -57l-200 172q0 28 26 52zM555 797q-21 -25 -77 -25t-79 23l47 266q33 16 66 0zM205 909q-32 4 -61.5 55t-18.5 83l256 88
q31 -16 31 -50zM127 1262q-13 31 15.5 80t64.5 57l205 -178q0 -38 -29 -54z" />
    <glyph glyph-name="plus" unicode="+" 
d="M86 758h406v430h108v-430h406v-109h-406v-440h-108v440h-406v109z" />
    <glyph glyph-name="comma" unicode="," horiz-adv-x="579" 
d="M444 27q0 -114 -83 -234t-216 -160l-41 62q76 27 133.5 109t49.5 169q-55 51 -137 78q-19 72 23.5 137.5t90.5 69.5q72 -10 126 -63.5t54 -167.5z" />
    <glyph glyph-name="hyphen" unicode="-" horiz-adv-x="870" 
d="M145 641h578v-129h-578v129z" />
    <glyph glyph-name="period" unicode="." horiz-adv-x="571" 
d="M145 118q0 60 39.5 97t101.5 37t101 -37t39 -97t-39 -97t-101 -37t-101.5 37t-39.5 97z" />
    <glyph glyph-name="slash" unicode="/" horiz-adv-x="704" 
d="M670 1458l86 -37l-748 -1687l-84 39z" />
    <glyph glyph-name="zero" unicode="0" 
d="M268 717q0 -658 264 -658q162 0 228.5 160t66.5 492t-63 496.5t-217 164.5t-216.5 -158.5t-62.5 -496.5zM72 717q0 369 122.5 555t361.5 186t353.5 -183t114.5 -555t-124 -558.5t-365 -186.5q-358 0 -410.5 283t-52.5 459z" />
    <glyph glyph-name="one" unicode="1" 
d="M870 0h-598v59q101 46 209 70v1006l8 120q-110 -44 -245 -38l-11 49q241 79 381 192h52v-1329q102 -24 204 -70v-59z" />
    <glyph glyph-name="two" unicode="2" 
d="M135 1325q157 133 370 133t311.5 -100.5t98.5 -253.5q0 -203 -157 -429.5t-369 -430.5l-86 -80v-8l115 12h352l100 229h52q22 -248 22 -397h-846v66q172 180 398.5 445t226.5 550q0 125 -63 208t-175 83q-66 0 -147 -25l-66 -293h-51q-44 112 -86 291z" />
    <glyph glyph-name="three" unicode="3" 
d="M523 72q114 0 194 95t80 233q0 137 -86 215.5t-215 78.5h-134v56l345 460l69 72v8l-110 -12h-347l-79 -209h-52q-43 231 -43 365h801v-64l-342 -457l-88 -90v-4l70 15q189 -8 298 -122.5t109 -299.5q0 -186 -147 -311.5t-348 -125.5q-154 0 -249 40t-126 65l57 184h41
q20 -23 64.5 -68.5t99.5 -107.5q80 -16 138 -16z" />
    <glyph glyph-name="four" unicode="4" 
d="M633 502v526l22 148h-6l-80 -148l-344 -473l-82 -68l146 15h344zM977 0h-533v59q100 35 189 50v286h-625v47l758 1016h55v-956h260v-107h-260v-286q80 -16 156 -50v-59z" />
    <glyph glyph-name="five" unicode="5" 
d="M473 877q209 0 335 -112.5t126 -322.5t-143 -338.5t-338 -128.5q-138 0 -224 41t-114 64l59 184h41q42 -49 84.5 -103.5t58.5 -72.5q20 -4 38 -10t70 -6t108.5 26.5t120 97.5t63.5 223q0 151 -111.5 230.5t-275.5 75.5l-146 -2l82 711h488l88 112h51q-13 -196 -41 -274
h-504l-49 -395h133z" />
    <glyph glyph-name="six" unicode="6" 
d="M563 745q-96 0 -164.5 -48t-97.5 -107q-4 -29 -4 -38v-91q0 -146 75.5 -268.5t204.5 -122.5t191.5 101.5t62.5 245.5t-70.5 236t-197.5 92zM901.5 107.5q-126.5 -132.5 -338.5 -132.5q-213 0 -338 149t-125 388q0 365 169 563.5t305.5 280.5t283.5 114l23 -61
q-225 -80 -386 -268.5t-186 -435.5q33 55 117 101t184 46t175 -28.5t159 -112.5t84 -277q0 -194 -126.5 -326.5z" />
    <glyph glyph-name="seven" unicode="7" 
d="M133 1434h848v-60q-195 -347 -278.5 -621t-159.5 -753h-205q146 573 448 1188l62 98l-107 -10h-434l-80 -209h-51q-43 231 -43 367z" />
    <glyph glyph-name="eight" unicode="8" 
d="M408 941q76 -74 202 -136q86 70 121 139.5t35 175.5t-56.5 174t-155.5 68t-160.5 -69.5t-61.5 -173.5t76 -178zM724.5 528q-88.5 85 -243.5 160q-156 -92 -180.5 -197.5t-24.5 -149.5q0 -107 69 -189t199 -82t199.5 73.5t69.5 186.5t-88.5 198zM993 348
q0 -160 -122.5 -266.5t-333.5 -106.5t-324 100t-113 247q0 204 129 288t201 109q-134 73 -204 164t-70 234t110 242t291 99q182 0 282.5 -91t100.5 -222q0 -237 -281 -367q334 -172 334 -430z" />
    <glyph glyph-name="nine" unicode="9" 
d="M549 686q196 0 268 119q4 27 4 37v92q0 171 -69 299.5t-199 128.5q-131 0 -195.5 -97.5t-64.5 -243.5t74 -240.5t182 -94.5zM216.5 1330q120.5 128 342.5 128t338.5 -144.5t116.5 -410.5q0 -371 -150.5 -564.5t-280.5 -269t-280 -94.5l-37 60q233 63 368 238.5t171 422.5
q-47 -49 -111 -82.5t-166 -33.5t-180 27.5t-165 111.5t-87 283.5t120.5 327.5z" />
    <glyph glyph-name="colon" unicode=":" horiz-adv-x="669" 
d="M244 906q0 60 39 98t101 36q62 0 101 -36t39 -98q0 -60 -39 -97t-101 -37t-101 37t-39 97zM524 118q0 -60 -39 -98t-101 -36q-62 0 -101 37t-39 97t39 97t101 37t101 -37t39 -97z" />
    <glyph glyph-name="semicolon" unicode=";" horiz-adv-x="679" 
d="M254 906q0 60 39 98t101 36q62 0 102 -36q39 -38 39 -98t-39 -97q-40 -37 -102 -37t-101 37t-39 97zM553 27q0 -115 -84 -235t-215 -159l-41 62q77 28 133 109q57 81 49 169q-57 52 -137 78q-19 72 23 137t92 70q72 -10 126 -63t54 -168z" />
    <glyph glyph-name="less" unicode="&#x3c;" 
d="M90 664v63l789 481l51 -90l-512 -309l-176 -82l174 -63l542 -320l-81 -133z" />
    <glyph glyph-name="equal" unicode="=" 
d="M86 922h922v-109h-922v109zM86 594h922v-109h-922v109z" />
    <glyph glyph-name="greater" unicode="&#x3e;" 
d="M1004 756v-64l-789 -481l-49 90l512 309l176 82l-174 64l-543 319l80 133z" />
    <glyph glyph-name="question" unicode="?" horiz-adv-x="968" 
d="M293 118q0 60 39 97t101 37t101 -37t39 -97t-38.5 -97t-100.5 -37t-101.5 37t-39.5 97zM143 1372q143 86 367 86q195 0 291 -92t96 -242q0 -204 -183.5 -352t-228.5 -232.5t-45 -170.5h-41q-14 59 -14 125t23.5 122t58.5 103t76 89t99 116t58 177t-57.5 177t-177.5 74
q-119 0 -158 -37l-47 -252h-51q-51 175 -66 309z" />
    <glyph glyph-name="at" unicode="@" horiz-adv-x="2179" 
d="M1186 913q-82 0 -151.5 -54t-150.5 -186t-81 -327q0 -98 30.5 -153.5t116.5 -55.5q108 0 204.5 176t129.5 254l51 305q-67 41 -149 41zM1096 -369q-393 0 -648 222.5t-255 629.5q0 223 73.5 403.5t201.5 307.5t300 195.5t362 68.5q383 0 628 -212.5t245 -577.5
q0 -266 -125 -408.5t-227.5 -196t-188.5 -53.5t-175 39.5t-23 325.5h-9q-49 -141 -159 -253t-227 -112q-118 0 -184.5 85t-66.5 221t44.5 261t119 223.5t173 158t189.5 59.5t134 -12t92 -35q76 35 154 33l-105 -586q-40 -224 -8.5 -262.5t83.5 -38.5t123 38t170 156t99 357
q0 156 -59.5 282.5t-218.5 264t-482 137.5q-367 0 -592 -245t-225 -613q0 -353 222 -554.5t587 -201.5q147 0 273 57l32 -90q-130 -74 -327 -74z" />
    <glyph glyph-name="A" unicode="A" horiz-adv-x="1398" 
d="M455 590h413l-161 434l-39 176h-4l-52 -180zM455 0h-455v59q74 33 147 50l519 1349h59l518 -1349q108 -21 156 -50v-59h-525v59q77 30 168 50l-139 374h-489l-135 -374q86 -12 176 -50v-59z" />
    <glyph glyph-name="B" unicode="B" horiz-adv-x="1259" 
d="M599 1339q-130 0 -187 -8v-549h102q94 0 162 11q94 33 154.5 105.5t60.5 170.5q0 135 -81 202.5t-211 67.5zM954 397q0 279 -389 279h-153v-565q62 -17 165 -17q180 0 278.5 85.5t98.5 217.5zM59 0v59q82 39 168 50v1214q-75 15 -168 51v60h217l336 12q475 0 475 -340
q0 -183 -101 -252.5t-171 -85.5v-8q225 -37 280.5 -151.5t55.5 -212.5t-49 -178.5t-164.5 -155t-345.5 -74.5l-336 12h-197z" />
    <glyph glyph-name="C" unicode="C" horiz-adv-x="1318" 
d="M311 724q0 -300 143.5 -471t397.5 -171q142 0 172 37l96 254h54q29 -166 22 -314q-104 -84 -358 -84q-533 0 -631 274.5t-98 471.5q0 373 193 555t493 182q247 0 389 -69q0 -152 -31 -353h-53l-107 295q-40 21 -160 21q-237 0 -379.5 -164t-142.5 -464z" />
    <glyph glyph-name="D" unicode="D" horiz-adv-x="1449" 
d="M461 88h143q263 0 391.5 183t128.5 442q0 415 -192.5 522.5t-337.5 107.5t-182 -8v-1241q30 -6 49 -6zM59 0v59q72 33 168 50v1214q-87 18 -168 51v60h209l353 16q348 0 535 -186.5t187 -527.5t-193.5 -547.5t-571.5 -206.5l-322 18h-197z" />
    <glyph glyph-name="E" unicode="E" horiz-adv-x="1191" 
d="M424 1327v-543h334l80 152h51q12 -203 0 -414h-51l-80 156h-334v-572h471l100 246h52q30 -182 22 -352h-1010v59q72 33 168 50v1214q-75 15 -168 51v60h971q-5 -185 -22 -332h-54l-84 225h-446z" />
    <glyph glyph-name="F" unicode="F" horiz-adv-x="1114" 
d="M897 688q0 -113 -8 -207h-47l-84 158h-355v-530q90 -12 177 -50v-59h-521v59q70 32 148 50v1214q-78 17 -148 51v60h961q-5 -193 -23 -332h-53l-84 225h-457v-584h355l84 152h47q8 -94 8 -207z" />
    <glyph glyph-name="G" unicode="G" horiz-adv-x="1409" 
d="M819 -25q-513 0 -611.5 274.5t-98.5 471.5q0 373 199.5 555t468.5 182t411 -69q0 -162 -31 -353h-53l-107 295q-40 21 -161 21q-240 0 -382.5 -164.5t-142.5 -459.5q0 -296 148.5 -471t374.5 -175q114 0 170.5 31.5t64.5 40.5v413q-65 5 -197 49v60h502v-60
q-43 -30 -127 -49v-469q-124 -73 -250.5 -98t-177.5 -25z" />
    <glyph glyph-name="H" unicode="H" horiz-adv-x="1490" 
d="M578 0h-519v59q82 33 168 50v1214q-96 14 -168 51v60h519v-60q-66 -34 -154 -51v-535h643v535q-86 20 -154 51v60h519v-60q-56 -30 -168 -51v-1214q100 -17 168 -50v-59h-519v59q74 33 154 50v573h-643v-573q85 -17 154 -50v-59z" />
    <glyph glyph-name="I" unicode="I" horiz-adv-x="720" 
d="M623 0h-525v59q80 37 164 50v1214q-67 13 -164 51v60h525v-60q-80 -35 -164 -51v-1214q99 -18 164 -50v-59z" />
    <glyph glyph-name="J" unicode="J" horiz-adv-x="698" 
d="M80 1434h520v-60q-87 -37 -156 -51v-1147q0 -427 -315 -504l-23 31q69 60 105.5 156t36.5 295v1169q-103 23 -168 51v60z" />
    <glyph glyph-name="K" unicode="K" horiz-adv-x="1323" 
d="M782 1434h453v-60q-78 -34 -156 -51l-411 -545q152 -203 317.5 -399.5t239.5 -278.5l98 -49v-51h-256l-70 49q-206 240 -473 637h-100v-577q94 -16 154 -50v-59h-519v59q82 33 168 50v1214q-92 12 -168 51v60h519v-60q-79 -34 -154 -51v-567l123 28l383 539
q-86 21 -148 51v60z" />
    <glyph glyph-name="L" unicode="L" horiz-adv-x="1124" 
d="M59 1434h562v-60q-110 -40 -197 -51v-1217h471l121 330h53q23 -165 23 -278t-2 -158h-1031v59q65 31 168 50v1214q-90 15 -168 51v60z" />
    <glyph glyph-name="M" unicode="M" horiz-adv-x="1775" 
d="M1714 0h-508v59q56 22 166 50v921l8 240h-16l-68 -219l-419 -1051h-54l-399 1051l-74 239h-18l2 -260v-921q80 -16 155 -50v-59h-428v59q86 35 166 52v1212q-71 13 -168 51v60h420l357 -936l69 -211h2l70 215l369 932h370v-60q-87 -38 -155 -51v-1217q91 -17 153 -47v-59
z" />
    <glyph glyph-name="N" unicode="N" horiz-adv-x="1499" 
d="M997 1434h443v-60q-86 -57 -168 -82v-1317h-117l-743 1129l-80 160h-6l18 -160v-973q84 -23 158 -72v-59h-443v59q68 42 168 72v1174q-79 31 -155 71v58h346l645 -973l94 -176h8l-10 176v831q-82 35 -158 82v60z" />
    <glyph glyph-name="O" unicode="O" horiz-adv-x="1515" 
d="M443.5 260.5q115.5 -178.5 324.5 -178.5t314.5 179.5t105.5 535t-166 455.5t-280 100t-192.5 -50.5t-150 -176t-71.5 -406t115.5 -459zM109 717q0 160 44 296t126.5 235.5t203.5 154.5t274.5 55t274.5 -55t204 -154.5t127 -235.5t44 -296t-44 -296t-127 -235.5t-204 -155
t-274.5 -55.5t-274.5 55.5t-203.5 155t-126.5 235.5t-44 296z" />
    <glyph glyph-name="P" unicode="P" horiz-adv-x="1220" 
d="M563 1343q-91 0 -139 -10v-663q10 -4 29.5 -5t41 -3.5t26.5 -2.5h48q240 0 296.5 128t56.5 221q0 168 -95.5 251.5t-263.5 83.5zM621 0h-562v59q49 24 168 50v1214q-75 13 -168 51v60h185l362 16q365 0 450 -157.5t85 -281.5q0 -230 -162.5 -344t-396.5 -114h-59
q-59 0 -99 8v-452q97 -11 197 -50v-59z" />
    <glyph glyph-name="Q" unicode="Q" horiz-adv-x="1515" 
d="M443.5 260.5q115.5 -178.5 324.5 -178.5t314.5 179.5t105.5 535t-166 455.5t-280 100t-192.5 -50.5t-150 -176t-71.5 -406t115.5 -459zM109 717q0 160 44 296t126.5 235.5t203.5 154.5t274.5 55t274.5 -55t204 -154.5t127 -235.5t44 -296t-44 -296t-127 -235.5t-204 -155
t-274.5 -55.5t-274.5 55.5t-203.5 155t-126.5 235.5t-44 296zM1323 -244q113 0 223 37l10 -29q-82 -74 -167 -126t-177 -51t-184 32t-196.5 74t-222 90t-255.5 82l62 41q46 6 118 6t171.5 -24.5t200 -53.5t202.5 -53.5t215 -24.5z" />
    <glyph glyph-name="R" unicode="R" horiz-adv-x="1304" 
d="M563 1343q-94 0 -139 -10v-612h147q141 0 224.5 90t83.5 240t-88.5 221t-227.5 71zM598 0h-539v59q58 26 168 50v1214q-86 16 -168 51v60h181q82 0 179 8t193 8q213 0 341 -99t128 -302q0 -150 -78.5 -248.5t-214.5 -141.5q176 -278 386 -548l110 -60v-51h-248l-78 57
q-157 199 -231 347.5t-111 230.5h-192v-526q110 -23 174 -50v-59z" />
    <glyph glyph-name="S" unicode="S" horiz-adv-x="1097" 
d="M307 141q59 -59 188 -59t217.5 70.5t88.5 189.5q0 82 -50.5 137.5t-125 98.5t-162.5 83.5t-163 97t-125 136t-50 181.5q0 187 117.5 284.5t308.5 97.5q250 0 391 -67q0 -139 -49 -353h-53l-82 281q-76 33 -197 33q-120 0 -184 -59t-64 -153t50.5 -151t126 -102t162.5 -87
t163 -97.5t126 -131t50 -177.5q0 -199 -131.5 -309t-363.5 -110q-129 0 -231.5 31t-145.5 66q12 202 51 370h53z" />
    <glyph glyph-name="T" unicode="T" horiz-adv-x="1267" 
d="M922 0h-576v59q96 34 191 50v1218h-314l-108 -293h-52q-24 164 -24 400h1190q0 -102 -8.5 -229.5t-14.5 -170.5h-53l-106 293h-314v-1218q132 -25 189 -50v-59z" />
    <glyph glyph-name="U" unicode="U" horiz-adv-x="1376" 
d="M188 453v870q-84 12 -168 51v60h521v-60q-71 -29 -156 -51v-838q0 -302 135 -341.5t219 -39.5q162 0 252 89.5t90 293.5v818q-97 33 -161 69v60h436v-60q-87 -51 -160 -69v-822q0 -250 -127.5 -375.5t-353.5 -125.5q-527 0 -527 471z" />
    <glyph glyph-name="V" unicode="V" horiz-adv-x="1400" 
d="M940 1434h461v-60q-59 -33 -148 -51l-462 -1323l-113 -25l-522 1348q-60 15 -156 51v60h543v-60q-81 -33 -168 -51l350 -936l43 -164h4l41 168l303 932q-66 14 -176 51v60z" />
    <glyph glyph-name="W" unicode="W" horiz-adv-x="1912" 
d="M1454 1434h459v-60q-70 -31 -148 -51l-342 -1323l-127 -25l-329 1115l-324 -1090l-125 -25l-362 1348q-87 21 -156 51v60h532v-60q-106 -38 -167 -51l202 -825l45 -267h4l72 271l277 932h69l297 -932l60 -266h4l47 270l188 817q-67 9 -176 51v60z" />
    <glyph glyph-name="X" unicode="X" horiz-adv-x="1372" 
d="M494 0h-474v59q48 25 152 50l401 612l-385 602q-81 24 -161 51v60h542v-60q-66 -26 -155 -51l286 -463l279 463q-84 18 -170 51v60h471v-60q-86 -34 -154 -51l-360 -555l420 -659q98 -16 168 -50v-59h-545v59q74 37 156 50l-324 514l-311 -517q110 -15 164 -47v-59z" />
    <glyph glyph-name="Y" unicode="Y" horiz-adv-x="1318" 
d="M868 1434h451v-60q-78 -39 -156 -51l-387 -713v-501q80 -10 156 -50v-59h-520v59q74 37 168 50v499l-414 715q-71 12 -166 51v60h543v-60q-87 -34 -158 -51l336 -602l315 602q-76 16 -168 51v60z" />
    <glyph glyph-name="Z" unicode="Z" horiz-adv-x="1249" 
d="M80 0v104l852 1223h-631l-125 -287h-51q-25 179 -25 394h1047v-107l-848 -1221h668l125 287h53q31 -211 22 -393h-1087z" />
    <glyph glyph-name="bracketleft" unicode="[" horiz-adv-x="628" 
d="M170 1434h387v-86h-213v-1735h213v-84h-387v1905z" />
    <glyph glyph-name="backslash" unicode="\" horiz-adv-x="782" 
d="M838 -219l-84 -47l-850 1679l86 45z" />
    <glyph glyph-name="bracketright" unicode="]" horiz-adv-x="628" 
d="M459 -471h-387v84h213v1735h-213v86h387v-1905z" />
    <glyph glyph-name="asciicircum" unicode="^" horiz-adv-x="1024" 
d="M477 1456h66l348 -567h-180l-181 309l-49 137l-65 -139l-205 -307h-115z" />
    <glyph glyph-name="underscore" unicode="_" horiz-adv-x="839" 
d="M0 -293h840v-108h-840v108z" />
    <glyph glyph-name="grave" unicode="`" horiz-adv-x="671" 
d="M549 1214l-45 -34l-381 305v41q38 31 115 39t94 6z" />
    <glyph glyph-name="a" unicode="a" horiz-adv-x="1034" 
d="M430 102q104 0 160 60t76 119v215q-230 0 -310 -49t-80 -149q0 -99 45 -147.5t109 -48.5zM80 236q0 108 38 168.5t111.5 95.5t182 50t252.5 23q17 191 -20.5 288t-154.5 97q-85 0 -135 -20l-96 -246h-53q-48 147 -55 256q168 101 370 101t266 -92t64 -234l-10 -455
q0 -45 2 -77.5t4 -69.5l141 -21v-43q-102 -54 -233 -77h-52q-20 47 -24 103t-6 124h-10q-18 -92 -98.5 -162t-203.5 -70t-201.5 76.5t-78.5 184.5z" />
    <glyph glyph-name="b" unicode="b" horiz-adv-x="1116" 
d="M551 72q129 0 207 117.5t78 340.5q0 272 -89 332t-171 60t-143.5 -67t-90.5 -169v-571q80 -43 209 -43zM342 1540v-719h4q35 104 118 166t183 62q186 0 285.5 -126.5t99.5 -394.5t-136 -407t-392 -139q-159 0 -241.5 31.5t-104.5 45.5v1338l-156 16v53q63 27 142 43.5
t147 30.5h51z" />
    <glyph glyph-name="c" unicode="c" horiz-adv-x="954" 
d="M556 -25q-230 0 -351 144t-121 399q0 254 127 392.5t332 138.5t327 -64q-16 -181 -63 -291h-55l-86 244q-28 20 -95 20q-139 0 -214.5 -101t-75.5 -343q0 -168 92 -290t279 -122q107 0 196 70l26 -29q-37 -72 -119.5 -120t-198.5 -48z" />
    <glyph glyph-name="d" unicode="d" horiz-adv-x="1136" 
d="M567 952q-139 0 -212.5 -121.5t-73.5 -324.5q0 -277 90.5 -340.5t173.5 -63.5t143 63.5t82 172.5v577q-64 37 -203 37zM487 -25q-203 0 -303 128.5t-100 396.5t128 405t345 137q122 0 213 -32v387l-156 16v53q100 43 289 74h51v-1423l136 -17v-43q-123 -61 -248 -77h-51
l-19 223h-8q-21 -93 -97 -160.5t-180 -67.5z" />
    <glyph glyph-name="e" unicode="e" horiz-adv-x="1030" 
d="M741 672q-1 286 -209 286q-110 0 -171.5 -78.5t-73.5 -277.5h450q4 36 4 70zM934 677q0 -93 -14 -165h-639q0 -181 89.5 -295.5t258.5 -114.5q72 0 145.5 20.5t110.5 53.5l28 -33q-31 -69 -131 -118.5t-214 -49.5q-233 0 -358.5 145.5t-125.5 399.5t121 391.5t342 137.5
q261 0 324 -139.5t63 -232.5z" />
    <glyph glyph-name="f" unicode="f" horiz-adv-x="700" 
d="M403 1126v-102h236v-102h-236v-822q106 -12 197 -49v-51h-516v51q63 37 135 49v822h-156v53q72 45 156 67v72q0 347 161 386.5t263 39.5t172 -27q-12 -133 -45 -231h-51l-90 176q-125 0 -175.5 -64t-50.5 -268z" />
    <glyph glyph-name="g" unicode="g" horiz-adv-x="1077" 
d="M283 719q0 -170 79.5 -206t143.5 -36q119 0 170 69.5t51 176.5t-50 171t-173 64t-172 -62t-49 -177zM549 -344q260 0 260 178q0 66 -44 104.5t-109.5 63.5t-141.5 41t-141 37q-78 -47 -102.5 -99.5t-24.5 -107.5q0 -217 303 -217zM219 242q0 47 40 93t81 73
q-117 31 -179.5 116.5t-62.5 175.5q0 162 106.5 255.5t310.5 93.5t304 -88q121 82 252 118q31 -45 31 -116l-27 -50h-215q51 -73 51 -207t-103 -226.5t-302 -92.5q-57 0 -119 8q-10 -18 -23.5 -40.5t-13.5 -55.5t47 -56.5t118 -42t272 -65.5t206 -254q4 -146 -130 -230.5
t-354 -84.5t-334 75.5t-114 190.5q0 151 99.5 198.5t163.5 67.5q-105 47 -105 144z" />
    <glyph glyph-name="h" unicode="h" horiz-adv-x="1202" 
d="M1167 0h-442v51q49 27 123 49v480q0 160 -45 251t-152 91t-181.5 -66t-100.5 -158v-598q81 -20 120 -49v-51h-440v51q63 33 135 49v1297l-155 16v53q99 42 288 74h52v-723h2q43 96 124 164t179 68t228 -39.5t130 -391.5v-518q97 -22 135 -49v-51z" />
    <glyph glyph-name="i" unicode="i" horiz-adv-x="616" 
d="M539 0h-455v51q55 29 135 49v805l-135 17v53q100 42 268 74h51v-949q90 -22 136 -49v-51zM180 1372q0 55 36 88t95 33t95 -33t34 -88q0 -55 -34 -87t-94 -32t-96 32t-36 87z" />
    <glyph glyph-name="j" unicode="j" horiz-adv-x="589" 
d="M401 1049v-961q0 -250 -122 -397q-82 -99 -183 -125l-24 39q96 46 132 260q13 78 13 184v856l-135 17v53q92 45 268 74h51zM178 1372q0 55 36 88t95 33t94 -33t35 -88t-35 -87t-94 -32t-95 32t-36 87z" />
    <glyph glyph-name="k" unicode="k" horiz-adv-x="1056" 
d="M614 1024h396v-53q-86 -35 -156 -49q-94 -124 -181 -218t-114 -120q31 -41 143.5 -191t239.5 -293l115 -49v-51h-254l-55 49q-137 170 -312 438l-67 21v-408q68 -12 133 -49v-51h-453v51q68 33 135 49v1297l-155 16v53q57 27 137 43.5t151 30.5h52v-979h53
q171 192 293 361q-51 14 -101 49v53z" />
    <glyph glyph-name="l" unicode="l" horiz-adv-x="616" 
d="M403 1540v-1440q68 -16 136 -49v-51h-455v51q68 33 135 49v1297l-156 16v53q90 43 289 74h51z" />
    <glyph glyph-name="m" unicode="m" horiz-adv-x="1767" 
d="M383 1049v-232h2q33 96 111.5 164t195.5 68q176 0 223.5 -87.5t59.5 -164.5q37 113 119 182.5t223 69.5t209.5 -91.5t68.5 -343.5v-514q70 -12 136 -49v-51h-441v51q61 33 121 49v510q0 162 -27.5 215.5t-64.5 75t-98 21.5q-98 0 -152.5 -68t-79.5 -172v-582
q72 -20 133 -49v-51h-438v51q55 33 121 49v473q0 181 -26.5 241t-63.5 84t-89 24q-92 0 -155 -65t-88 -155v-602q77 -23 121 -49v-51h-441v51q58 28 136 49v805l-136 17v53q107 47 269 74h51z" />
    <glyph glyph-name="n" unicode="n" horiz-adv-x="1216" 
d="M383 1049v-230h2q43 94 124 162t179 68t228.5 -39.5t130.5 -391.5v-518q82 -14 135 -49v-51h-441v51q55 29 121 49v486q0 156 -45 246t-164 90q-145 0 -200.5 -90.5t-69.5 -133.5v-598q63 -12 123 -49v-51h-443v51q51 27 136 49v805l-136 17v53q88 38 269 74h51z" />
    <glyph glyph-name="o" unicode="o" horiz-adv-x="1132" 
d="M281 512q0 -315 116.5 -380.5t202.5 -65.5q111 0 181.5 108.5t70.5 337.5q0 311 -111.5 378.5t-191.5 67.5q-121 0 -194.5 -108.5t-73.5 -337.5zM215 908q131 141 350 141q365 0 424.5 -208t59.5 -329q0 -258 -131.5 -397.5t-361.5 -139.5t-351 144t-121 396t131 393z
" />
    <glyph glyph-name="p" unicode="p" horiz-adv-x="1159" 
d="M879 535q0 387 -252 387q-190 0 -244 -238v-573q72 -45 205 -45t212 132.5t79 336.5zM518 -410h-455v52q70 33 136 49v1214l-136 17v53q107 47 269 74h51v-230h2q91 230 307 230q383 0 383 -514q0 -261 -130 -410.5t-349 -149.5q-76 0 -119 9.5t-94 31.5v-325
q66 -8 135 -49v-52z" />
    <glyph glyph-name="q" unicode="q" horiz-adv-x="1122" 
d="M281 510q0 -286 88.5 -347t158.5 -61q187 0 242 234v588q-86 28 -203 28q-286 0 -286 -442zM1090 -410h-455v52q63 33 135 49v491h-8q-29 -82 -100.5 -144.5t-182.5 -62.5q-395 0 -395 531q0 266 132 401t380 135q111 0 211 -20.5t147 -42.5v-1288q72 -12 136 -49v-52z
" />
    <glyph glyph-name="r" unicode="r" horiz-adv-x="786" 
d="M547 0h-484v51q54 29 136 49v805l-136 17v53q104 46 269 74h51v-218h8q38 87 133 158.5t201 59.5q24 -46 47 -125v-54h-272q-23 -12 -56.5 -50t-60.5 -111v-609q93 -9 164 -49v-51z" />
    <glyph glyph-name="s" unicode="s" horiz-adv-x="886" 
d="M406 66q87 0 142.5 48t55.5 112t-36 104.5t-91 75t-208.5 115.5t-153.5 272q0 109 93 182.5t214 73.5q190 0 328 -48q-19 -159 -52 -268h-51l-78 209q-40 16 -98 16q-89 0 -130.5 -44t-41.5 -101t36 -97t91 -74t117.5 -66.5t153.5 -99.5t91 -202q0 -134 -110 -216.5
t-264 -82.5t-320 60q8 142 56 274h51l90 -223q28 -20 115 -20z" />
    <glyph glyph-name="t" unicode="t" horiz-adv-x="759" 
d="M379 1292v-268h307v-102h-307v-594q0 -123 39 -174.5t117 -51.5q116 0 186 25l14 -31q-34 -38 -118 -79.5t-189 -41.5t-169 70t-64 225v652h-164v53q78 49 164 69v175q31 26 133 73h51z" />
    <glyph glyph-name="u" unicode="u" horiz-adv-x="1175" 
d="M513 -25q-99 0 -227 40t-128 391l12 499l-135 17v53q114 43 268 74h51l-12 -607q0 -174 46.5 -257t151.5 -83t167.5 67t97.5 173v563l-133 17v53q108 43 266 74h51v-932l135 -17v-43q-129 -59 -245 -77h-52l-14 243h-8q-22 -96 -107.5 -172t-184.5 -76z" />
    <glyph glyph-name="v" unicode="v" horiz-adv-x="1038" 
d="M711 1024h348v-53q-40 -28 -117 -49l-362 -922l-93 -25l-399 947q-59 20 -108 49v53h428v-51q-75 -39 -117 -51l237 -617l41 -127h4l31 129l219 615q-65 16 -112 49v53z" />
    <glyph glyph-name="w" unicode="w" horiz-adv-x="1490" 
d="M1163 1024h348v-53q-43 -29 -116 -49l-291 -922l-109 -25l-202 580l-39 170h-6l-48 -170l-184 -555l-106 -25l-322 947q-76 26 -108 49v53h426v-51q-69 -38 -117 -51l178 -598l27 -148h4l30 152l222 676l61 20l236 -698l36 -150h4l31 150l158 596q-55 10 -113 49v53z" />
    <glyph glyph-name="x" unicode="x" horiz-adv-x="1062" 
d="M664 1024h342v-53q-39 -27 -115 -49l-281 -373l324 -449q76 -26 108 -49v-51h-419v49q79 44 102 51l-227 336l-230 -336q50 -17 103 -49v-51h-351v51q57 35 115 49l305 408l-307 414q-60 21 -100 49v53h411v-51q-64 -41 -100 -51l213 -308l209 308q-70 23 -102 49v53z
" />
    <glyph glyph-name="y" unicode="y" horiz-adv-x="1034" 
d="M-23 1024h429v-51q-43 -29 -117 -51l262 -607l39 -127h4l31 129l194 605q-61 12 -112 49v53h350v-53q-43 -29 -117 -49l-319 -922q-128 -341 -223 -385.5t-148 -54.5q-34 58 -70 176l27 49h213q45 60 92 215l-426 922q-53 14 -109 49v53z" />
    <glyph glyph-name="z" unicode="z" horiz-adv-x="999" 
d="M88 0v51l584 883h-387l-90 -242h-52q-22 121 -22 332h770v-53l-586 -881h400l110 260h51q32 -196 25 -350h-803z" />
    <glyph glyph-name="braceleft" unicode="{" horiz-adv-x="712" 
d="M276 227q0 104 -43 164t-120 60v61q78 0 120.5 62.5t42.5 152.5v490q0 98 49.5 157.5t147.5 59.5h184v-86h-98q-55 0 -80.5 -29t-25.5 -94v-477q0 -124 -69.5 -185.5t-156.5 -70.5v-13q87 -10 156.5 -76.5t69.5 -187.5v-479q0 -63 24.5 -93t83.5 -30h96v-84h-184
q-92 0 -144.5 54.5t-52.5 160.5v483z" />
    <glyph glyph-name="bar" unicode="|" horiz-adv-x="485" 
d="M190 1434h107v-1700h-107v1700z" />
    <glyph glyph-name="braceright" unicode="}" horiz-adv-x="712" 
d="M487 737q0 -104 43 -163.5t121 -59.5v-61q-78 0 -121 -62.5t-43 -152.5v-492q0 -98 -49 -157.5t-147 -59.5h-185v84h101q55 0 80.5 28.5t25.5 94.5v481q0 179 84 215.5t121 40.5v12q-134 15 -169.5 107t-35.5 158v475q0 63 -24.5 93t-83.5 30h-99v86h187q92 0 143 -54.5
t51 -160.5v-482z" />
    <glyph glyph-name="asciitilde" unicode="~" horiz-adv-x="1085" 
d="M389 854q74 0 159 -48t133 -69.5t99 -21.5q85 0 158 69l27 -43q-108 -157 -232 -157q-53 0 -103 21.5t-99.5 48t-98.5 48t-98 21.5q-101 0 -184 -113l-31 49q130 195 270 195z" />
    <glyph glyph-name="uni00A0" unicode="&#xa0;" horiz-adv-x="497" 
 />
    <glyph glyph-name="exclamdown" unicode="&#xa1;" horiz-adv-x="669" 
d="M426 914q0 -60 -39 -97t-101 -37t-101.5 37t-39.5 97t39.5 97.5t101.5 37.5t101 -37.5t39 -97.5zM313 586l66 -361v-606q-90 -48 -184 0v606l65 361h53z" />
    <glyph glyph-name="cent" unicode="&#xa2;" 
d="M324 514q0 -117 60 -221.5t177 -155.5v805q-237 -72 -237 -428zM668 -348h-109v332q-215 31 -323.5 171t-108.5 359t116.5 356t315.5 170v312h109v-303q190 0 311 -64q-16 -178 -66 -291h-51l-84 244q-28 20 -92 20h-20v-849q37 -6 73 -7q128 0 215 70l29 -29
q-41 -74 -123 -120t-192 -48v-323z" />
    <glyph glyph-name="sterling" unicode="&#xa3;" 
d="M61 676v104h175q-31 66 -53.5 138t-22.5 166q0 178 116 276t308 98q125 0 229.5 -20.5t163.5 -48.5q-11 -174 -51 -351h-52l-81 281q-80 33 -187 33q-195 0 -241 -133q-16 -45 -15 -140t78 -299h320v-104h-283q86 -315 -84 -455l-68 -57v-8l115 12h408l100 229h51
q23 -259 23 -397h-942v63q131 57 195.5 137.5t65.5 218.5t-46 257h-222z" />
    <glyph glyph-name="currency" unicode="&#xa4;" 
d="M547 541q74 0 124 47t50 120.5t-50 122t-124 49.5t-124 -48.5t-50 -123t50 -120.5t124 -47zM262 708q0 105 53 171l-71 22l-168 170l110 111l168 -170l25 -70q71 55 168 55q106 -4 168 -55l26 70l168 168l109 -111l-170 -168l-66 -22q47 -70 48 -168t-48 -174l66 -21
l168 -170l-109 -110l-168 167l-24 70q-70 -49 -161.5 -49t-178.5 49l-21 -67l-170 -168l-110 110l170 168l71 23q-53 64 -53 169z" />
    <glyph glyph-name="yen" unicode="&#xa5;" 
d="M735 1434h451v-60q-82 -39 -156 -51l-328 -637h295v-106h-333v-129h333v-107h-333v-235q80 -10 155 -50v-59h-520v59q74 37 168 50v235h-334v107h334v129h-334v106h291l-350 637q-71 12 -166 51v60h543v-60q-87 -34 -158 -51l315 -604l295 604q-76 16 -168 51v60z" />
    <glyph glyph-name="brokenbar" unicode="&#xa6;" horiz-adv-x="485" 
d="M297 778h-107v656h107v-656zM190 389h107v-655h-107v655z" />
    <glyph glyph-name="section" unicode="&#xa7;" horiz-adv-x="1079" 
d="M774 651q0 81 -66 122t-225 106q-70 -33 -124 -89.5t-54 -115.5q0 -101 74.5 -153.5t222.5 -106.5q62 36 102.5 86.5t55 81t14.5 69.5zM711 86q0 66 -44 102.5t-109.5 64.5t-141.5 53.5t-141.5 63.5t-109.5 97t-44 159t77.5 173t190.5 121q-98 46 -151.5 112t-53.5 174
q0 109 95 180.5t223 71.5q231 0 354 -47q-9 -77 -25 -125.5t-26 -81.5h-51l-115 148q-40 16 -114 16t-115 -47t-41 -104t44 -97.5t109.5 -71t250.5 -98t185 -260.5q0 -152 -110.5 -222.5t-153.5 -90.5q96 -42 148.5 -96.5t52.5 -141.5q0 -143 -108.5 -225t-284.5 -82
t-338 59q4 82 22.5 132.5t28.5 82.5h51l131 -161q23 -18 44.5 -20.5t50.5 -2.5q98 0 158.5 49t60.5 115z" />
    <glyph glyph-name="dieresis" unicode="&#xa8;" horiz-adv-x="921" 
d="M578 1359q0 48 30.5 77.5t79.5 29.5t80 -29.5t31 -77.5t-31 -77t-80 -29t-79.5 29t-30.5 77zM123 1359q0 48 30.5 77.5t80 29.5t80 -29.5t30.5 -77.5t-30.5 -77t-80 -29t-80 29t-30.5 77z" />
    <glyph glyph-name="copyright" unicode="&#xa9;" horiz-adv-x="1652" 
d="M1102 886.5q0 -76.5 -19 -130.5h-51l-61 170q-17 12 -105 12q-117 0 -181 -91t-64 -251q0 -239 97 -291.5t171 -52.5t98 24l57 146h52q8 -31 12 -93.5t-2 -111.5q-63 -49 -195 -49q-238 0 -362.5 113t-124.5 313q0 201 129.5 315.5t294.5 114.5q164 0 252 -43
q2 -18 2 -94.5zM211 594q0 -141 48 -257t132 -197t196.5 -126t239.5 -45t240 45t196 126t131 197t48 257t-51.5 257t-136.5 196.5t-196.5 126t-238.5 45.5t-240.5 -45.5t-194.5 -127t-127 -196.5t-46 -256zM104 594q0 170 60.5 304t161 226.5t230.5 141.5t271.5 49
t271.5 -49t229 -141.5t159.5 -226.5t60.5 -304t-60.5 -304t-159.5 -226.5t-229.5 -141.5t-274.5 -49t-276 49t-230.5 141.5t-156 226.5t-57.5 304z" />
    <glyph glyph-name="ordfeminine" unicode="&#xaa;" horiz-adv-x="880" 
d="M368 864q131 0 189 131v107q-23 2 -28 2h-56q-142 0 -175.5 -47t-33.5 -85t28 -73t76 -35zM479 1450q131 0 179.5 -53.5t48.5 -153.5l-7 -338l103 -20v-54q-84 -49 -174 -57h-35q-22 56 -27 137h-8q-78 -141 -244 -141q-94 0 -154.5 52t-60.5 129t57 148.5t345 71.5
l55 -2q2 12 2 17v49q0 137 -145 137q-59 0 -111 -18l-45 -115h-55q-47 54 -51 145q125 66 327 66z" />
    <glyph glyph-name="guillemotleft" unicode="&#xab;" horiz-adv-x="964" 
d="M49 530l436 424l54 -41l-287 -370l299 -387l-53 -43zM446 530l347 420l51 -39l-217 -366l229 -387l-49 -41z" />
    <glyph glyph-name="logicalnot" unicode="&#xac;" horiz-adv-x="1044" 
d="M88 793h870v-387h-127v258h-743v129z" />
    <glyph glyph-name="uni00AD" unicode="&#xad;" horiz-adv-x="870" 
d="M145 641h578v-129h-578v129z" />
    <glyph glyph-name="registered" unicode="&#xae;" horiz-adv-x="1433" 
d="M714 1188q-48 0 -67 -6v-215h66q123 0 118 114q-2 53 -35.5 80t-81.5 27zM723 633h-254v49q35 12 72 18v478q-43 4 -72 22v45h78l172 8q160 0 195.5 -63.5t35.5 -117.5t-44 -91t-101 -55q37 -59 70.5 -115.5t93.5 -110.5l47 -24v-43h-103l-57 22q-74 89 -135 252h-74
v-207q41 -3 76 -18v-49zM395.5 590.5q129.5 -127.5 324.5 -127.5t321 124t126 334t-131.5 337.5t-318.5 123.5q-194 4 -322.5 -122.5t-128.5 -334t129.5 -335zM327 1321.5q157 146.5 393 146.5q235 0 389.5 -146t154.5 -399t-158 -399.5t-392 -146.5q-235 0 -389.5 146
t-154.5 399t157 399.5z" />
    <glyph glyph-name="macron" unicode="&#xaf;" horiz-adv-x="763" 
d="M123 1305v106h518v-106h-518z" />
    <glyph glyph-name="degree" unicode="&#xb0;" horiz-adv-x="868" 
d="M285 1170q0 -85 52 -137t127 -52t124 49t49 137t-49 139.5t-127 51.5t-127 -51.5t-49 -136.5zM668 1383.5q82 -74.5 82 -209.5t-82 -214t-206.5 -79t-208 78t-83.5 208t85 210.5t208 80.5t205 -74.5z" />
    <glyph glyph-name="plusminus" unicode="&#xb1;" 
d="M86 471h920v-109h-920v109zM86 1004h406v430h108v-430h406v-109h-406v-315h-108v315h-406v109z" />
    <glyph glyph-name="twosuperior" unicode="&#xb2;" horiz-adv-x="882" 
d="M428 1665q309 0 309 -238q0 -131 -125 -267t-327 -242v-13l63 15h281l90 137h45q18 -130 18 -266h-694v67q184 103 331 259q146 156 146 284q0 78 -35 122t-125 44t-141 -31l-41 -227h-47q-41 58 -66 148q-26 89 -28 110q175 98 346 98z" />
    <glyph glyph-name="threesuperior" unicode="&#xb3;" horiz-adv-x="882" 
d="M564 914q46 48 46 122t-49 111t-164 37h-67v53l176 223l90 86v4l-127 -8h-182l-74 -188h-45q-31 71 -44 170q-13 100 -13 123h628v-74l-186 -217l-80 -82v-2l64 8q103 0 174 -63t71 -186t-105 -191t-278 -68q-84 0 -171 28t-140 66l70 189h37q10 -11 22 -31
q13 -20 27 -44t27 -48t24 -45q63 -21 143 -21t126 48z" />
    <glyph glyph-name="acute" unicode="&#xb4;" horiz-adv-x="673" 
d="M362 1571q59 7 118 -14t71 -31v-39l-383 -309l-45 36z" />
    <glyph glyph-name="mu" unicode="&#xb5;" horiz-adv-x="1175" 
d="M991 1049v-932l135 -17v-43q-128 -59 -247 -77h-52l-14 243h-8q-22 -95 -106 -171.5t-211 -76.5t-201 56h-13l72 -389v-52q-98 -29 -188 0v1315l-123 17v53q114 43 268 74h51l-12 -607q0 -174 46.5 -257t151.5 -83q188 0 267 240v563l-135 17v53q106 42 268 74h51z" />
    <glyph glyph-name="mu" unicode="&#x3bc;" horiz-adv-x="1175" 
d="M991 1049v-932l135 -17v-43q-128 -59 -247 -77h-52l-14 243h-8q-22 -95 -106 -171.5t-211 -76.5t-201 56h-13l72 -389v-52q-98 -29 -188 0v1315l-123 17v53q114 43 268 74h51l-12 -607q0 -174 46.5 -257t151.5 -83q188 0 267 240v563l-135 17v53q106 42 268 74h51z" />
    <glyph glyph-name="paragraph" unicode="&#xb6;" horiz-adv-x="1046" 
d="M674 193v1140h-90v-1284q0 -188 -54 -287q86 35 115 141.5t29 289.5zM487 49v586q-147 0 -255.5 95t-108.5 284t104.5 304.5t307.5 115.5h389v-62q-79 -36 -154 -49v-1130q-4 -259 -56 -337.5t-100.5 -103t-107.5 -37.5q-67 -108 -203 -149l-24 41q154 62 181 199t27 243
z" />
    <glyph glyph-name="periodcentered" unicode="&#xb7;" horiz-adv-x="491" 
d="M109 630q0 60 38 97q39 37 101 37t102 -37q39 -37 39 -97t-39 -98t-101 -36q-62 0 -102 36q-38 38 -38 98z" />
    <glyph glyph-name="cedilla" unicode="&#xb8;" horiz-adv-x="581" 
d="M240 -139q213 -8 217 -146q4 -109 -103.5 -171t-230.5 -58v61q173 21 171 129q-1 58 -42 80.5t-127 28.5l76 217h92z" />
    <glyph glyph-name="onesuperior" unicode="&#xb9;" horiz-adv-x="882" 
d="M748 791h-574v43q120 50 207 69v506l8 92q-93 -27 -229 -22v59q148 31 319 127h64v-762q122 -28 205 -69v-43z" />
    <glyph glyph-name="ordmasculine" unicode="&#xba;" horiz-adv-x="890" 
d="M260 1110q0 -123 47 -197.5t137 -74.5q184 0 184 271t-184 271t-184 -270zM703.5 1369.5q97.5 -88.5 97.5 -253.5t-100 -259.5t-257.5 -94.5t-256.5 88t-99 252t101 260t259 96t255.5 -88.5z" />
    <glyph glyph-name="guillemotright" unicode="&#xbb;" horiz-adv-x="964" 
d="M467 113l-53 43l297 376l-287 381l53 41l436 -424zM158 117l-49 41l229 377l-219 376l51 39l348 -420z" />
    <glyph glyph-name="onequarter" unicode="&#xbc;" horiz-adv-x="1921" 
d="M711 578h-574v43q128 53 207 69v506l8 92q-93 -27 -229 -22v59q148 31 319 127h64v-762q128 -29 205 -69v-43zM1542 1454l72 -63l-1198 -1405l-70 65zM1430 336v266l20 88h-6l-72 -88l-227 -233l-74 -47l129 14h230zM1712 0h-432v43q75 34 150 49v148h-500v49l588 585h73
v-538h193v-96h-193v-148q70 -14 121 -49v-43z" />
    <glyph glyph-name="onehalf" unicode="&#xbd;" horiz-adv-x="2056" 
d="M711 578h-574v43q128 53 207 69v506l8 92q-93 -27 -229 -22v59q148 31 319 127h64v-762q128 -29 205 -69v-43zM1542 1454l72 -63l-1198 -1405l-70 65zM1915 0h-694v68q188 105 333 260q144 155 144 282q0 78 -35 122t-125 44t-141 -31l-41 -227h-47q-23 33 -55 117
t-40 141q178 100 345 99t238 -64t72 -184t-122 -256t-330 -244v-12l64 14h280l90 137h45q19 -138 19 -266z" />
    <glyph glyph-name="threequarters" unicode="&#xbe;" horiz-adv-x="2029" 
d="M1649 1454l71 -63l-1198 -1405l-69 65zM1536 336v266l20 88h-6l-71 -88l-228 -233l-73 -47l129 14h229zM1819 0h-433v43q75 34 150 49v148h-500v49l588 585h74v-538h192v-96h-192v-148q68 -14 121 -49v-43zM614 700q46 47 47 122t-49 112t-163 37h-68v53l176 223l90 86v4
l-127 -8h-182l-74 -188h-45q-31 71 -44 170q-13 100 -13 123h629v-74l-187 -217l-80 -82v-2l64 8q103 0 174 -62t71 -187q1 -124 -105 -192t-277 -67q-84 0 -171 28t-141 66l70 189h37q10 -10 22 -30t34 -57q22 -36 44 -81q63 -21 143 -21q79 0 125 47z" />
    <glyph glyph-name="questiondown" unicode="&#xbf;" horiz-adv-x="968" 
d="M676 914q0 -60 -38 -97t-100 -37t-101.5 37t-39.5 97t39.5 97.5t101.5 37.5t100 -37.5t38 -97.5zM825 -340q-143 -86 -367 -86q-194 0 -290 92t-96 245t84 245t143 140t144 134.5t85 231.5h41q59 -230 -85 -377.5t-180 -216t-36 -126.5q0 -114 56.5 -187.5t178.5 -73.5
q121 0 159 36l47 252h51q52 -179 65 -309z" />
    <glyph glyph-name="Agrave" unicode="&#xc0;" horiz-adv-x="1398" 
d="M455 590h413l-161 434l-39 176h-4l-52 -180zM455 0h-455v59q74 33 147 50l519 1349h59l518 -1349q108 -21 156 -50v-59h-525v59q77 30 168 50l-139 374h-489l-135 -374q86 -12 176 -50v-59zM758 1575l-37 -39l-461 186v41q23 27 92 49t109 17z" />
    <glyph glyph-name="Aacute" unicode="&#xc1;" horiz-adv-x="1398" 
d="M455 590h413l-161 434l-39 176h-4l-52 -180zM455 0h-455v59q74 33 147 50l519 1349h59l518 -1349q108 -21 156 -50v-59h-525v59q77 30 168 50l-139 374h-489l-135 -374q86 -12 176 -50v-59zM924 1829q77 9 160 -38q26 -13 38 -28v-41l-463 -186l-34 39z" />
    <glyph glyph-name="Acircumflex" unicode="&#xc2;" horiz-adv-x="1398" 
d="M455 590h413l-161 434l-39 176h-4l-52 -180zM455 0h-455v59q74 33 147 50l519 1349h59l518 -1349q108 -21 156 -50v-59h-525v59q77 30 168 50l-139 374h-489l-135 -374q86 -12 176 -50v-59zM442 1540l-28 39l260 229q28 17 53 0l256 -223l-31 -43l-260 115z" />
    <glyph glyph-name="Atilde" unicode="&#xc3;" horiz-adv-x="1398" 
d="M455 590h413l-161 434l-39 176h-4l-52 -180zM455 0h-455v59q74 33 147 50l519 1349h59l518 -1349q108 -21 156 -50v-59h-525v59q77 30 168 50l-139 374h-489l-135 -374q86 -12 176 -50v-59zM535 1636q-65 0 -121 -51l-39 60q136 122 250 120q52 0 109 -22q58 -23 88 -33
t75 -10t102 41l27 -60q-116 -116 -225 -114q-53 -1 -112 23q-60 24 -91 35t-63 11z" />
    <glyph glyph-name="Adieresis" unicode="&#xc4;" horiz-adv-x="1398" 
d="M455 590h413l-161 434l-39 176h-4l-52 -180zM455 0h-455v59q74 33 147 50l519 1349h59l518 -1349q108 -21 156 -50v-59h-525v59q77 30 168 50l-139 374h-489l-135 -374q86 -12 176 -50v-59zM813 1617q0 48 33 73q33 24 83 24t83 -24q32 -24 32 -73q0 -48 -32 -73
q-32 -24 -83 -24q-50 0 -83 24t-33 73zM356 1617q0 48 33 73q33 24 83 24t83 -24t33 -73q0 -48 -33 -73q-33 -24 -83 -24t-83 24t-33 73z" />
    <glyph glyph-name="Aring" unicode="&#xc5;" horiz-adv-x="1398" 
d="M696 1536q119 0 119 76q0 53 -37 73.5t-82 20.5q-110 0 -110 -92q0 -41 35.5 -59.5t74.5 -18.5zM455 590h413l-161 434l-39 176h-4l-52 -180zM455 0h-455v59q74 33 147 50l517 1345q-86 8 -139.5 49t-53.5 116t69 123t160 48t141 -30.5t69.5 -62.5t19.5 -77
q0 -76 -60.5 -119t-142.5 -49l516 -1343q108 -21 156 -50v-59h-525v59q77 30 168 50l-139 374h-489l-135 -374q86 -12 176 -50v-59z" />
    <glyph glyph-name="AE" unicode="&#xc6;" horiz-adv-x="1886" 
d="M924 631v620h-4l-84 -190l-252 -430h340zM1120 1327v-543h332l82 152h49q16 -203 0 -414h-49l-82 156h-332v-572h471l99 246h53q29 -205 22 -352h-1009v59q72 33 168 50v415h-402l-237 -415q84 -12 174 -50v-59h-459v59q74 33 147 50l725 1226q-76 21 -118 39v60h970
q-5 -215 -22 -332h-51l-86 225h-445z" />
    <glyph glyph-name="Ccedilla" unicode="&#xc7;" horiz-adv-x="1318" 
d="M311 724q0 -300 143.5 -471t397.5 -171q142 0 172 37l96 254h54q29 -166 22 -314q-109 -84 -393 -84l-49 -129q123 -2 181 -46t58 -110q0 -117 -116 -182t-254 -65v68q194 28 190 137q-2 57 -47 82.5t-137 31.5l73 222q-283 31 -438 208t-155 540t193 544.5t493 181.5
q247 0 389 -69q0 -152 -31 -353h-53l-107 295q-40 21 -160 21q-237 0 -379.5 -164t-142.5 -464z" />
    <glyph glyph-name="Egrave" unicode="&#xc8;" horiz-adv-x="1191" 
d="M424 1327v-543h334l80 152h51q12 -203 0 -414h-51l-80 156h-334v-572h471l100 246h52q30 -182 22 -352h-1010v59q72 33 168 50v1214q-75 15 -168 51v60h971q-5 -185 -22 -332h-54l-84 225h-446zM729 1575l-37 -39l-461 186v41q23 27 93 49t108 17z" />
    <glyph glyph-name="Eacute" unicode="&#xc9;" horiz-adv-x="1191" 
d="M424 1327v-543h334l80 152h51q12 -203 0 -414h-51l-80 156h-334v-572h471l100 246h52q30 -182 22 -352h-1010v59q72 33 168 50v1214q-75 15 -168 51v60h971q-5 -185 -22 -332h-54l-84 225h-446zM739 1829q41 5 108 -16q67 -20 91 -50v-41l-463 -186l-35 39z" />
    <glyph glyph-name="Ecircumflex" unicode="&#xca;" horiz-adv-x="1191" 
d="M424 1327v-543h334l80 152h51q12 -203 0 -414h-51l-80 156h-334v-572h471l100 246h52q30 -182 22 -352h-1010v59q72 33 168 50v1214q-75 15 -168 51v60h971q-5 -185 -22 -332h-54l-84 225h-446zM358 1540l-28 39l260 229q28 17 53 0l256 -223l-31 -43l-260 115z" />
    <glyph glyph-name="Edieresis" unicode="&#xcb;" horiz-adv-x="1191" 
d="M424 1327v-543h334l80 152h51q12 -203 0 -414h-51l-80 156h-334v-572h471l100 246h52q30 -182 22 -352h-1010v59q72 33 168 50v1214q-75 15 -168 51v60h971q-5 -185 -22 -332h-54l-84 225h-446zM700 1617q0 48 33 73q33 24 83 24t83 -24t33 -73q0 -48 -33 -73
q-33 -24 -83 -24t-83 24t-33 73zM244 1617q0 48 32 73q33 24 83 24t83 -24t33 -73q0 -48 -33 -73q-33 -24 -83 -24t-83 24q-32 25 -32 73z" />
    <glyph glyph-name="Igrave" unicode="&#xcc;" horiz-adv-x="720" 
d="M623 0h-525v59q80 37 164 50v1214q-67 13 -164 51v60h525v-60q-70 -30 -164 -51v-1214q99 -18 164 -50v-59zM571 1575l-36 -39l-461 186v41q23 27 92 49t108 17z" />
    <glyph glyph-name="Iacute" unicode="&#xcd;" horiz-adv-x="720" 
d="M623 0h-525v59q80 37 164 50v1214q-67 13 -164 51v60h525v-60q-70 -30 -164 -51v-1214q99 -18 164 -50v-59zM492 1829q77 9 160 -38q26 -13 38 -28v-41l-463 -186l-34 39z" />
    <glyph glyph-name="Icircumflex" unicode="&#xce;" horiz-adv-x="720" 
d="M623 0h-525v59q80 37 164 50v1214q-67 13 -164 51v60h525v-60q-70 -30 -164 -51v-1214q99 -18 164 -50v-59zM106 1540l-28 39l260 229q29 18 53 0l256 -223l-31 -43l-260 115z" />
    <glyph glyph-name="Idieresis" unicode="&#xcf;" horiz-adv-x="720" 
d="M623 0h-525v59q80 37 164 50v1214q-67 13 -164 51v60h525v-60q-70 -30 -164 -51v-1214q99 -18 164 -50v-59zM475 1617q0 48 33 73q33 24 83 24t83 -24t33 -73q0 -48 -33 -73q-33 -24 -83 -24t-83 24t-33 73zM18 1617q0 48 33 73q33 24 83 24t83 -24t33 -73q0 -48 -33 -73
q-33 -24 -83 -24t-83 24t-33 73z" />
    <glyph glyph-name="Eth" unicode="&#xd0;" horiz-adv-x="1452" 
d="M461 88h145q264 0 391 183.5t127 442.5t-130 444t-402 185q-143 0 -180 -8v-549h342v-106h-342v-586q30 -6 49 -6zM59 0v59q72 33 168 50v571h-182v106h182v537q-87 18 -168 51v60h209l353 16q345 0 533.5 -187t188.5 -528q0 -340 -193.5 -546.5t-571.5 -206.5l-322 18
h-197z" />
    <glyph glyph-name="Ntilde" unicode="&#xd1;" horiz-adv-x="1499" 
d="M997 1434h443v-60q-86 -57 -168 -82v-1317h-117l-743 1129l-80 160h-6l18 -160v-973q84 -23 158 -72v-59h-443v59q61 38 168 72v1174q-93 36 -155 71v58h346l645 -973l94 -176h8l-10 176v831q-92 38 -158 82v60zM584 1636q-65 0 -121 -51l-39 60q136 122 250 120
q52 0 109 -22q57 -23 87 -33t76 -10q45 0 103 41l26 -60q-116 -116 -225 -114q-53 -1 -112 23q-60 24 -91 35t-63 11z" />
    <glyph glyph-name="Ograve" unicode="&#xd2;" horiz-adv-x="1515" 
d="M328 717q0 -131 28 -247q57 -241 222 -338q84 -50 193 -50t187 50t128 136q102 175 102 452t-109 445q-120 187 -336 187t-321 -187q-94 -165 -94 -448zM109 717q0 160 44 296q90 278 330 390q121 55 275 55q304 0 476 -207q173 -207 173 -533q0 -327 -173 -534
t-476 -208q-304 -1 -477 206q-172 207 -172 535zM897 1575l-37 -39l-461 186v41q23 27 93 49t108 17z" />
    <glyph glyph-name="Oacute" unicode="&#xd3;" horiz-adv-x="1515" 
d="M328 717q0 -131 28 -247q57 -241 222 -338q84 -50 193 -50t187 50t128 136q102 175 102 452t-109 445q-120 187 -336 187t-321 -187q-94 -165 -94 -448zM109 717q0 160 44 296q90 278 330 390q121 55 275 55q304 0 476 -207q173 -207 173 -533q0 -327 -173 -534
t-476 -208q-304 -1 -477 206q-172 207 -172 535zM864 1829q41 5 108 -16q67 -20 91 -50v-41l-463 -186l-35 39z" />
    <glyph glyph-name="Ocircumflex" unicode="&#xd4;" horiz-adv-x="1515" 
d="M328 717q0 -131 28 -247q57 -241 222 -338q84 -50 193 -50t187 50t128 136q102 175 102 452t-109 445q-120 187 -336 187t-321 -187q-94 -165 -94 -448zM109 717q0 160 44 296q90 278 330 390q121 55 275 55q304 0 476 -207q173 -207 173 -533q0 -327 -173 -534
t-476 -208q-304 -1 -477 206q-172 207 -172 535zM502 1540l-29 39l260 229q29 18 53 0l256 -223l-30 -43l-260 115z" />
    <glyph glyph-name="Otilde" unicode="&#xd5;" horiz-adv-x="1515" 
d="M328 717q0 -131 28 -247q57 -241 222 -338q84 -50 193 -50t187 50t128 136q102 175 102 452t-109 445q-120 187 -336 187t-321 -187q-94 -165 -94 -448zM109 717q0 160 44 296q90 278 330 390q121 55 275 55q304 0 476 -207q173 -207 173 -533q0 -327 -173 -534
t-476 -208q-304 -1 -477 206q-172 207 -172 535zM592 1636q-63 0 -121 -51l-39 60q136 122 250 120q55 -1 137 -33q82 -33 131 -32q49 0 107 41l26 -60q-116 -116 -225 -114q-53 -1 -112 23q-60 24 -91 35t-63 11z" />
    <glyph glyph-name="Odieresis" unicode="&#xd6;" horiz-adv-x="1515" 
d="M328 717q0 -131 28 -247q57 -241 222 -338q84 -50 193 -50t187 50t128 136q102 175 102 452t-109 445q-120 187 -336 187t-321 -187q-94 -165 -94 -448zM109 717q0 160 44 296q90 278 330 390q121 55 275 55q304 0 476 -207q173 -207 173 -533q0 -327 -173 -534
t-476 -208q-304 -1 -477 206q-172 207 -172 535zM870 1617q0 48 33 73q33 24 83 24t83 -24t33 -73q0 -48 -33 -73q-33 -24 -83 -24t-83 24t-33 73zM414 1617q0 48 32 73q33 24 83 24t83 -24t33 -73q0 -48 -33 -73q-33 -24 -83 -24t-83 24q-32 25 -32 73z" />
    <glyph glyph-name="multiply" unicode="&#xd7;" 
d="M180 418l287 287l-283 284l76 76l285 -283l286 287l76 -76l-286 -286l292 -293l-77 -78l-293 293l-287 -287z" />
    <glyph glyph-name="Oslash" unicode="&#xd8;" horiz-adv-x="1515" 
d="M776 82q201 0 306.5 179.5t105.5 444.5t-96 429l-592 -945q108 -108 276 -108zM741 1352q-212 0 -312.5 -176t-100.5 -445q0 -270 98 -438l594 948q-111 111 -279 111zM109 717q0 326 172 533.5t477 207.5q188 0 342 -92l57 94l105 -59l-70 -109q215 -207 215 -575
q0 -327 -173.5 -534.5t-475.5 -207.5q-184 0 -340 88l-58 -90l-96 60l62 100q-217 205 -217 584z" />
    <glyph glyph-name="Ugrave" unicode="&#xd9;" horiz-adv-x="1376" 
d="M20 1434h521v-60q-55 -22 -156 -51v-838q0 -303 204 -361q67 -19 150 -20q342 0 342 383v818q-105 36 -161 69v60h436v-60q-87 -51 -160 -69v-822q0 -249 -128 -376t-353 -125q-525 0 -527 471v870q-84 12 -168 51v60zM821 1575l-37 -39l-460 186v41q24 28 93 49
q69 22 107 17z" />
    <glyph glyph-name="Uacute" unicode="&#xda;" horiz-adv-x="1376" 
d="M20 1434h521v-60q-55 -22 -156 -51v-838q0 -303 204 -361q67 -19 150 -20q342 0 342 383v818q-105 36 -161 69v60h436v-60q-87 -51 -160 -69v-822q0 -249 -128 -376t-353 -125q-525 0 -527 471v870q-84 12 -168 51v60zM952 1829q41 5 108 -16q67 -20 91 -50v-41
l-463 -186l-35 39z" />
    <glyph glyph-name="Ucircumflex" unicode="&#xdb;" horiz-adv-x="1376" 
d="M20 1434h521v-60q-55 -22 -156 -51v-838q0 -303 204 -361q67 -19 150 -20q342 0 342 383v818q-105 36 -161 69v60h436v-60q-87 -51 -160 -69v-822q0 -249 -128 -376t-353 -125q-525 0 -527 471v870q-84 12 -168 51v60zM475 1540l-29 39l261 229q28 17 53 0l256 -223
l-31 -43l-260 115z" />
    <glyph glyph-name="Udieresis" unicode="&#xdc;" horiz-adv-x="1376" 
d="M20 1434h521v-60q-55 -22 -156 -51v-838q0 -303 204 -361q67 -19 150 -20q342 0 342 383v818q-105 36 -161 69v60h436v-60q-87 -51 -160 -69v-822q0 -249 -128 -376t-353 -125q-525 0 -527 471v870q-84 12 -168 51v60zM844 1617q0 48 33 73q33 24 83 24t82 -24
q33 -24 33 -73q0 -48 -33 -73q-33 -24 -83 -24q-51 0 -83 24t-32 73zM387 1617q0 48 33 73q33 24 83 24t83 -24q32 -24 32 -73q0 -48 -32 -73q-32 -24 -83 -24q-50 0 -83 24t-33 73z" />
    <glyph glyph-name="Yacute" unicode="&#xdd;" horiz-adv-x="1318" 
d="M868 1434h451v-60q-78 -39 -156 -51l-387 -713v-501q80 -10 156 -50v-59h-520v59q74 37 168 50v499l-414 715q-71 12 -166 51v60h543v-60q-75 -29 -158 -51l336 -602l315 602q-76 16 -168 51v60zM952 1829q41 5 108 -16q67 -20 91 -50v-41l-463 -186l-35 39z" />
    <glyph glyph-name="Thorn" unicode="&#xde;" horiz-adv-x="1218" 
d="M458 465h111q240 0 296.5 124t56.5 212q0 160 -95.5 242.5t-263.5 82.5q-96 0 -139 -12v-641q20 -8 34 -8zM482 358q-13 0 -58 9v-258q115 -16 197 -52v-57h-562v57q41 23 84 33t84 19v1216q-84 16 -164 51v58h525v-58q-65 -32 -164 -51v-100q94 8 189 8
q224 0 376 -101.5t152 -325.5t-164 -336t-395 -112h-100z" />
    <glyph glyph-name="germandbls" unicode="&#xdf;" horiz-adv-x="1306" 
d="M1042 232q0 68 -35.5 115.5t-90 87.5t-208 132t-153.5 307q0 113 75 197t257 137q0 89 -64 165.5t-145 76.5q-132 0 -203.5 -73.5t-71.5 -299.5v-1077h-319v51q63 37 135 49v822h-156v53q72 45 156 67v72q0 228 137 327t327 99t286.5 -103.5t101.5 -260.5
q-248 -32 -290 -121t-42 -155t36 -112.5t90.5 -86t208 -131.5t153.5 -288q0 -142 -98.5 -224.5t-274.5 -82.5t-338 60q7 93 49 174h51l134 -127q37 -16 114 -16q78 0 128 49t50 117z" />
    <glyph glyph-name="agrave" unicode="&#xe0;" horiz-adv-x="1034" 
d="M430 102q142 0 213 128q16 30 23 51v215q-119 0 -195 -13q-145 -23 -178 -105q-17 -40 -17 -110t45 -118t109 -48zM80 236q0 108 38 168t112 96t182 50q109 15 252 23q26 284 -75 358q-37 27 -83 27q-103 -1 -152 -20l-96 -246h-53q-48 147 -55 256q168 101 369 101
t278 -107q53 -75 53 -219l-10 -455q0 -45 2 -78t4 -69l141 -21v-43q-102 -54 -233 -77h-52q-20 47 -24 103t-6 124h-10q-18 -92 -98 -161t-203 -70q-125 -1 -203 75q-78 77 -78 185zM647 1214l-45 -34l-381 305v41q37 31 163 44q30 3 46 1z" />
    <glyph glyph-name="aacute" unicode="&#xe1;" horiz-adv-x="1034" 
d="M430 102q142 0 213 128q16 30 23 51v215q-119 0 -195 -13q-145 -23 -178 -105q-17 -40 -17 -110t45 -118t109 -48zM80 236q0 108 38 168t112 96t182 50q109 15 252 23q26 284 -75 358q-37 27 -83 27q-103 -1 -152 -20l-96 -246h-53q-48 147 -55 256q168 101 369 101
t278 -107q53 -75 53 -219l-10 -455q0 -45 2 -78t4 -69l141 -21v-43q-102 -54 -233 -77h-52q-20 47 -24 103t-6 124h-10q-18 -92 -98 -161t-203 -70q-125 -1 -203 75q-78 77 -78 185zM625 1571q32 4 97 -10t91 -35v-39l-383 -309l-45 36z" />
    <glyph glyph-name="acircumflex" unicode="&#xe2;" horiz-adv-x="1034" 
d="M430 102q142 0 213 128q16 30 23 51v215q-119 0 -195 -13q-145 -23 -178 -105q-17 -40 -17 -110t45 -118t109 -48zM80 236q0 108 38 168t112 96t182 50q109 15 252 23q26 284 -75 358q-37 27 -83 27q-103 -1 -152 -20l-96 -246h-53q-48 147 -55 256q168 101 369 101
t278 -107q53 -75 53 -219l-10 -455q0 -45 2 -78t4 -69l141 -21v-43q-102 -54 -233 -77h-52q-20 47 -24 103t-6 124h-10q-18 -92 -98 -161t-203 -70q-125 -1 -203 75q-78 77 -78 185zM322 1208l-60 33l225 381q28 17 52 0l233 -379l-55 -35l-211 219z" />
    <glyph glyph-name="atilde" unicode="&#xe3;" horiz-adv-x="1034" 
d="M430 102q142 0 213 128q16 30 23 51v215q-119 0 -195 -13q-145 -23 -178 -105q-17 -40 -17 -110t45 -118t109 -48zM80 236q0 108 38 168t112 96t182 50q109 15 252 23q26 284 -75 358q-37 27 -83 27q-103 -1 -152 -20l-96 -246h-53q-48 147 -55 256q168 101 369 101
t278 -107q53 -75 53 -219l-10 -455q0 -45 2 -78t4 -69l141 -21v-43q-102 -54 -233 -77h-52q-20 47 -24 103t-6 124h-10q-18 -92 -98 -161t-203 -70q-125 -1 -203 75q-78 77 -78 185zM321 1329q-45 0 -100 -49l-39 57q130 123 242 121q58 0 130 -32t123 -33q50 0 107 41
l27 -58q-118 -118 -221 -116q-48 0 -106 23t-88 35t-75 11z" />
    <glyph glyph-name="adieresis" unicode="&#xe4;" horiz-adv-x="1034" 
d="M430 102q142 0 213 128q16 30 23 51v215q-119 0 -195 -13q-145 -23 -178 -105q-17 -40 -17 -110t45 -118t109 -48zM80 236q0 108 38 168t112 96t182 50q109 15 252 23q26 284 -75 358q-37 27 -83 27q-103 -1 -152 -20l-96 -246h-53q-48 147 -55 256q168 101 369 101
t278 -107q53 -75 53 -219l-10 -455q0 -45 2 -78t4 -69l141 -21v-43q-102 -54 -233 -77h-52q-20 47 -24 103t-6 124h-10q-18 -92 -98 -161t-203 -70q-125 -1 -203 75q-78 77 -78 185zM612 1359q0 48 31 78q31 29 80 29t80 -30t31 -77q0 -48 -31 -77t-80 -29t-80 29t-31 77z
M158 1359q0 48 30 78q31 29 80 29t80 -30t31 -77q0 -48 -31 -77t-80 -29t-80 29q-30 29 -30 77z" />
    <glyph glyph-name="aring" unicode="&#xe5;" horiz-adv-x="1034" 
d="M430 102q142 0 213 128q16 30 23 51v215q-119 0 -195 -13q-145 -23 -178 -105q-17 -40 -17 -110t45 -118t109 -48zM80 236q0 108 38 168t112 96t182 50q109 15 252 23q26 284 -75 358q-37 27 -83 27q-103 -1 -152 -20l-96 -246h-53q-48 147 -55 256q168 101 369 101
t278 -107q53 -75 53 -219l-10 -455q0 -45 2 -78t4 -69l141 -21v-43q-102 -54 -233 -77h-52q-20 47 -24 103t-6 124h-10q-18 -92 -98 -161t-203 -70q-125 -1 -203 75q-78 77 -78 185zM399 1403q0 -53 28 -79q27 -26 65 -26t64 24t26 77t-25 84t-65 30q-93 0 -93 -110z
M293 1398q0 85 58 142q59 57 143 57t140 -51t56 -138t-57 -140q-57 -52 -143 -53t-142 49t-55 134z" />
    <glyph glyph-name="ae" unicode="&#xe6;" horiz-adv-x="1593" 
d="M1305 672q-1 286 -209 286q-110 0 -170 -78q-61 -78 -74 -278h448q5 45 5 70zM430 102q140 0 211 123q16 29 23 49v222q-119 0 -195 -13q-146 -23 -177 -105q-16 -40 -16 -110t45 -118t109 -48zM530 1049q212 0 269 -121q56 61 120 90t164 30q190 2 292 -83
q122 -102 122 -306q0 -75 -14 -147h-635q0 -180 88 -295t256 -115q111 0 209 44q29 13 47 30l31 -33q-31 -69 -130 -117q-98 -49 -181 -50q-236 -3 -371 115q-49 44 -80 110q-33 -96 -128 -160t-223 -65q-130 -1 -208 75q-78 77 -78 185t38 168t112 96t182 50q109 15 252 23
q6 63 6 119q0 125 -39 196q-39 70 -133 70t-144 -20l-96 -246h-53q-48 147 -55 256q168 101 380 101z" />
    <glyph glyph-name="ccedilla" unicode="&#xe7;" horiz-adv-x="954" 
d="M84 534q0 238 127 376.5t332 138.5t327 -64q-16 -181 -63 -291h-55l-86 244q-28 20 -95 20q-139 0 -214.5 -101t-75.5 -343q0 -168 92 -290t279 -122q107 0 196 70l26 -29q-39 -74 -122.5 -121t-200.5 -47l-43 -114q209 -7 217 -146q4 -110 -103.5 -171.5t-230.5 -57.5
v61q174 21 170 129q-2 58 -42 80.5t-126 28.5l70 199q-190 29 -284.5 170.5t-94.5 379.5z" />
    <glyph glyph-name="egrave" unicode="&#xe8;" horiz-adv-x="1030" 
d="M741 672q-1 286 -209 286q-110 0 -172 -78q-61 -79 -73 -278h450q4 36 4 70zM934 677q0 -93 -14 -165h-639q0 -182 90 -296q90 -115 258 -114q71 0 145 20t111 54l28 -33q-32 -69 -128 -118q-97 -48 -214 -49q-235 -2 -361 145t-126 400t121 390t342 138q261 0 353 -204
q34 -75 34 -168zM666 1214l-45 -34l-381 305v41q21 18 97 34t112 11z" />
    <glyph glyph-name="eacute" unicode="&#xe9;" horiz-adv-x="1030" 
d="M741 672q-1 286 -209 286q-110 0 -172 -78q-61 -79 -73 -278h450q4 36 4 70zM934 677q0 -93 -14 -165h-639q0 -182 90 -296q90 -115 258 -114q71 0 145 20t111 54l28 -33q-32 -69 -128 -118q-97 -48 -214 -49q-235 -2 -361 145t-126 400t121 390t342 138q261 0 353 -204
q34 -75 34 -168zM659 1571q32 4 97 -10q66 -14 92 -35v-39l-383 -309l-45 36z" />
    <glyph glyph-name="ecircumflex" unicode="&#xea;" horiz-adv-x="1030" 
d="M741 672q-1 286 -209 286q-110 0 -172 -78q-61 -79 -73 -278h450q4 36 4 70zM934 677q0 -93 -14 -165h-639q0 -182 90 -296q90 -115 258 -114q71 0 145 20t111 54l28 -33q-32 -69 -128 -118q-97 -48 -214 -49q-235 -2 -361 145t-126 400t121 390t342 138q261 0 353 -204
q34 -75 34 -168zM340 1208l-59 33l225 381q28 17 51 0l234 -379l-56 -35l-211 219z" />
    <glyph glyph-name="edieresis" unicode="&#xeb;" horiz-adv-x="1030" 
d="M741 672q-1 286 -209 286q-110 0 -172 -78q-61 -79 -73 -278h450q4 36 4 70zM934 677q0 -93 -14 -165h-639q0 -182 90 -296q90 -115 258 -114q71 0 145 20t111 54l28 -33q-32 -69 -128 -118q-97 -48 -214 -49q-235 -2 -361 145t-126 400t121 390t342 138q261 0 353 -204
q34 -75 34 -168zM645 1359q0 48 31 78q31 29 80 29t80 -30q30 -30 30 -77q0 -48 -30 -77t-80 -29q-49 0 -80 29t-31 77zM190 1359q0 48 31 78q31 29 80 29t80 -30t31 -77q0 -48 -31 -77t-80 -29t-80 29t-31 77z" />
    <glyph glyph-name="igrave" unicode="&#xec;" horiz-adv-x="616" 
d="M539 0h-455v51q55 29 135 49v805l-135 17v53q100 42 268 74h51v-949q90 -22 136 -49v-51zM414 1214l-45 -34l-381 305v41q21 18 97 34t112 11z" />
    <glyph glyph-name="iacute" unicode="&#xed;" horiz-adv-x="616" 
d="M539 0h-455v51q55 29 135 49v805l-135 17v53q100 42 268 74h51v-949q90 -22 136 -49v-51zM408 1571q32 4 97 -10t91 -35v-39l-383 -309l-45 36z" />
    <glyph glyph-name="icircumflex" unicode="&#xee;" horiz-adv-x="616" 
d="M539 0h-455v51q55 29 135 49v805l-135 17v53q100 42 268 74h51v-949q90 -22 136 -49v-51zM113 1208l-60 33l226 381q28 17 51 0l233 -379l-55 -35l-211 219z" />
    <glyph glyph-name="idieresis" unicode="&#xef;" horiz-adv-x="616" 
d="M539 0h-455v51q55 29 135 49v805l-135 17v53q100 42 268 74h51v-949q90 -22 136 -49v-51zM426 1359q0 48 31 78q31 29 80 29t79 -30t31 -77q0 -48 -31 -77q-32 -29 -80 -29t-79 29t-31 77zM-29 1359q0 48 31 78q31 29 80 29t80 -30t31 -77q0 -48 -31 -77t-80 -29t-80 29
t-31 77z" />
    <glyph glyph-name="eth" unicode="&#xf0;" horiz-adv-x="1095" 
d="M551 70q270 0 270 523q0 144 -20 230q-31 51 -97.5 85t-162.5 34q-125 0 -206 -111.5t-81 -312.5t81 -324.5t216 -123.5zM309 1536h125q137 -39 252 -152l225 95l39 -88l-190 -78q111 -129 184.5 -311.5t73.5 -435.5t-124 -422t-351 -169t-356.5 144t-129.5 391
t133.5 393t311.5 146q109 0 175 -34t114 -83q-57 178 -168 323l-258 -106l-41 88l233 94q-117 121 -248 170v35z" />
    <glyph glyph-name="ntilde" unicode="&#xf1;" horiz-adv-x="1216" 
d="M383 1049v-230h2q43 94 124 162t179 68q98 1 164 -19q196 -59 195 -412v-518q82 -14 135 -49v-51h-441v51q55 29 121 49v486q0 156 -45 246t-164 90q-146 0 -231 -141q-25 -40 -39 -83v-598q63 -12 123 -49v-51h-443v51q51 27 136 49v805l-136 17v53q88 38 269 74h51z
M449 1329q-61 0 -115 -49l-39 57q130 123 242 121q55 0 129 -32t124 -33q50 0 107 41l27 -58q-118 -118 -222 -116q-53 0 -193 58q-30 11 -60 11z" />
    <glyph glyph-name="ograve" unicode="&#xf2;" horiz-adv-x="1132" 
d="M281 512q0 -312 172 -412q61 -35 147 -34q112 0 182 108t70 338q0 307 -166 412q-57 35 -137 34q-121 0 -195 -108q-73 -109 -73 -338zM84 516q0 125 34 224q69 201 250 273q88 36 206 36q237 0 356 -144t119 -398q0 -253 -131 -392t-353 -140q-355 0 -451 317
q-30 99 -30 224zM696 1214l-45 -34l-381 305v41q37 31 163 44q30 3 46 1z" />
    <glyph glyph-name="oacute" unicode="&#xf3;" horiz-adv-x="1132" 
d="M281 512q0 -312 172 -412q61 -35 147 -34q112 0 182 108t70 338q0 307 -166 412q-57 35 -137 34q-121 0 -195 -108q-73 -109 -73 -338zM84 516q0 125 34 224q69 201 250 273q88 36 206 36q237 0 356 -144t119 -398q0 -253 -131 -392t-353 -140q-355 0 -451 317
q-30 99 -30 224zM674 1571q32 4 97 -10t91 -35v-39l-383 -309l-45 36z" />
    <glyph glyph-name="ocircumflex" unicode="&#xf4;" horiz-adv-x="1132" 
d="M281 512q0 -312 172 -412q61 -35 147 -34q112 0 182 108t70 338q0 307 -166 412q-57 35 -137 34q-121 0 -195 -108q-73 -109 -73 -338zM84 516q0 125 34 224q69 201 250 273q88 36 206 36q237 0 356 -144t119 -398q0 -253 -131 -392t-353 -140q-355 0 -451 317
q-30 99 -30 224zM369 1208l-60 33l226 381q28 17 51 0l233 -379l-55 -35l-211 219z" />
    <glyph glyph-name="otilde" unicode="&#xf5;" horiz-adv-x="1132" 
d="M281 512q0 -312 172 -412q61 -35 147 -34q112 0 182 108t70 338q0 307 -166 412q-57 35 -137 34q-121 0 -195 -108q-73 -109 -73 -338zM84 516q0 125 34 224q69 201 250 273q88 36 206 36q237 0 356 -144t119 -398q0 -253 -131 -392t-353 -140q-355 0 -451 317
q-30 99 -30 224zM389 1329q-45 0 -100 -49l-39 57q130 123 242 121q55 0 129 -32t124 -33q50 0 107 41l27 -58q-118 -118 -222 -116q-53 0 -193 58q-30 11 -75 11z" />
    <glyph glyph-name="odieresis" unicode="&#xf6;" horiz-adv-x="1132" 
d="M281 512q0 -312 172 -412q61 -35 147 -34q112 0 182 108t70 338q0 307 -166 412q-57 35 -137 34q-121 0 -195 -108q-73 -109 -73 -338zM84 516q0 125 34 224q69 201 250 273q88 36 206 36q237 0 356 -144t119 -398q0 -253 -131 -392t-353 -140q-355 0 -451 317
q-30 99 -30 224zM682 1359q0 48 31 78q31 29 80 29t79 -30t31 -77q0 -48 -31 -77q-32 -29 -80 -29t-79 29t-31 77zM227 1359q0 48 31 78q31 29 80 29t80 -30t31 -77q0 -48 -31 -77t-80 -29t-80 29t-31 77z" />
    <glyph glyph-name="divide" unicode="&#xf7;" 
d="M86 762h922v-109h-922v109zM406 1097q0 60 38 97q40 37 102 37t101 -37t39 -97q0 -59 -39 -97t-101 -38t-102 37q-38 38 -38 98zM406 316q0 60 38 98q40 37 102 37t101 -37q39 -38 39 -98t-39 -97t-101 -37t-102 37q-38 37 -38 97z" />
    <glyph glyph-name="oslash" unicode="&#xf8;" horiz-adv-x="1132" 
d="M852 512q0 156 -51 268l-410 -635q74 -79 197 -79t193.5 108.5t70.5 337.5zM353.5 849.5q-72.5 -108.5 -72.5 -307.5t55 -309l414 637q-76 88 -200 88t-196.5 -108.5zM238 84q-154 142 -154 412t131 411.5t350 141.5q158 0 262 -62l95 146l77 -54l-96 -145
q146 -142 146 -411t-131.5 -408.5t-352.5 -139.5q-142 0 -250 56l-102 -158l-78 55z" />
    <glyph glyph-name="ugrave" unicode="&#xf9;" horiz-adv-x="1175" 
d="M512 -25q-98 -1 -160 19q-194 60 -194 412l12 499l-135 17v53q114 43 268 74h51l-12 -607q0 -174 46 -257t152 -83q105 0 168 67q62 67 97 173v563l-133 17v53q106 42 266 74h51v-932l135 -17v-43q-130 -60 -245 -77h-52l-14 243h-8q-22 -96 -109 -172q-86 -76 -184 -76z
M719 1214l-45 -34l-381 305v41q21 18 97 34t112 11z" />
    <glyph glyph-name="uacute" unicode="&#xfa;" horiz-adv-x="1175" 
d="M512 -25q-98 -1 -160 19q-194 60 -194 412l12 499l-135 17v53q114 43 268 74h51l-12 -607q0 -174 46 -257t152 -83q105 0 168 67q62 67 97 173v563l-133 17v53q106 42 266 74h51v-932l135 -17v-43q-130 -60 -245 -77h-52l-14 243h-8q-22 -96 -109 -172q-86 -76 -184 -76z
M692 1571q32 4 97 -10q66 -14 92 -35v-39l-383 -309l-45 36z" />
    <glyph glyph-name="ucircumflex" unicode="&#xfb;" horiz-adv-x="1175" 
d="M512 -25q-98 -1 -160 19q-194 60 -194 412l12 499l-135 17v53q114 43 268 74h51l-12 -607q0 -174 46 -257t152 -83q105 0 168 67q62 67 97 173v563l-133 17v53q106 42 266 74h51v-932l135 -17v-43q-130 -60 -245 -77h-52l-14 243h-8q-22 -96 -109 -172q-86 -76 -184 -76z
M389 1208l-59 33l225 381q29 17 51 0l234 -379l-56 -35l-211 219z" />
    <glyph glyph-name="udieresis" unicode="&#xfc;" horiz-adv-x="1175" 
d="M512 -25q-98 -1 -160 19q-194 60 -194 412l12 499l-135 17v53q114 43 268 74h51l-12 -607q0 -174 46 -257t152 -83q105 0 168 67q62 67 97 173v563l-133 17v53q106 42 266 74h51v-932l135 -17v-43q-130 -60 -245 -77h-52l-14 243h-8q-22 -96 -109 -172q-86 -76 -184 -76z
M702 1359q0 48 31 78q31 29 80 29t80 -30t31 -77q0 -48 -31 -77t-80 -29t-80 29t-31 77zM358 1253q-50 0 -80 29t-30 77t31 78q31 29 79 29t80 -30q31 -30 31 -77q0 -48 -31 -77t-80 -29z" />
    <glyph glyph-name="yacute" unicode="&#xfd;" horiz-adv-x="1034" 
d="M-23 1024h429v-51q-43 -29 -117 -51l262 -607l39 -127h4l31 129l194 605q-61 12 -112 49v53h350v-53q-43 -29 -117 -49l-319 -922q-91 -242 -174 -332q-83 -89 -197 -108q-34 58 -70 176l27 49h213q34 46 55 104q20 58 37 111l-426 922q-53 14 -109 49v53zM645 1571
q32 4 98 -10t91 -35v-39l-383 -309l-45 36z" />
    <glyph glyph-name="thorn" unicode="&#xfe;" horiz-adv-x="1159" 
d="M874 535q0 387 -251 387q-100 0 -160 -63.5t-84 -174.5v-573q72 -45 205 -45t211.5 131.5t78.5 337.5zM379 1540v-721h2q91 230 307 230q383 0 383 -514q0 -261 -130 -410.5t-349 -149.5q-76 0 -119 9.5t-94 31.5v-325q66 -8 135 -49v-52h-455v52q70 33 136 49v1706
l-156 16v53q90 43 289 74h51z" />
    <glyph glyph-name="ydieresis" unicode="&#xff;" horiz-adv-x="1034" 
d="M-23 1024h429v-51q-43 -29 -117 -51l262 -607l39 -127h4l31 129l194 605q-61 12 -112 49v53h350v-53q-43 -29 -117 -49l-319 -922q-91 -242 -174 -332q-83 -89 -197 -108q-34 58 -70 176l27 49h213q34 46 55 104q20 58 37 111l-426 922q-53 14 -109 49v53zM655 1359
q0 48 31 78q31 29 80 29t80 -30t31 -77q0 -48 -31 -77t-80 -29t-80 29t-31 77zM201 1359q0 48 30 78q31 29 80 29t80 -30t31 -77q0 -48 -31 -77t-80 -29t-80 29q-30 29 -30 77z" />
    <glyph glyph-name="Amacron" unicode="&#x100;" horiz-adv-x="1398" 
d="M455 590h413l-161 434l-39 176h-4l-52 -180zM455 0h-455v59q74 33 147 50l519 1349h59l518 -1349q108 -21 156 -50v-59h-525v59q77 30 168 50l-139 374h-489l-135 -374q86 -12 176 -50v-59zM393 1614v106h617v-106h-617z" />
    <glyph glyph-name="amacron" unicode="&#x101;" horiz-adv-x="1034" 
d="M430 102q142 0 213 128q16 30 23 51v215q-119 0 -195 -13q-145 -23 -178 -105q-17 -40 -17 -110t45 -118t109 -48zM80 236q0 108 38 168t112 96t182 50q109 15 252 23q26 284 -75 358q-37 27 -83 27q-103 -1 -152 -20l-96 -246h-53q-48 147 -55 256q168 101 369 101
t278 -107q53 -75 53 -219l-10 -455q0 -45 2 -78t4 -69l141 -21v-43q-102 -54 -233 -77h-52q-20 47 -24 103t-6 124h-10q-18 -92 -98 -161t-203 -70q-125 -1 -203 75q-78 77 -78 185zM256 1305v106h518v-106h-518z" />
    <glyph glyph-name="Abreve" unicode="&#x102;" horiz-adv-x="1398" 
d="M455 590h413l-161 434l-39 176h-4l-52 -180zM455 0h-455v59q74 33 147 50l519 1349h59l518 -1349q108 -21 156 -50v-59h-525v59q77 30 168 50l-139 374h-489l-135 -374q86 -12 176 -50v-59zM709 1698q160 -5 235 110q33 4 66 -28q-61 -152 -205 -207q-47 -18 -98 -19
q-111 0 -194 60t-122 170q25 39 86 31q40 -72 166 -108q35 -9 66 -9z" />
    <glyph glyph-name="abreve" unicode="&#x103;" horiz-adv-x="1034" 
d="M430 102q142 0 213 128q16 30 23 51v215q-119 0 -195 -13q-145 -23 -178 -105q-17 -40 -17 -110t45 -118t109 -48zM80 236q0 108 38 168t112 96t182 50q109 15 252 23q26 284 -75 358q-37 27 -83 27q-103 -1 -152 -20l-96 -246h-53q-48 147 -55 256q168 101 369 101
t278 -107q53 -75 53 -219l-10 -455q0 -45 2 -78t4 -69l141 -21v-43q-102 -54 -233 -77h-52q-20 47 -24 103t-6 124h-10q-18 -92 -98 -161t-203 -70q-125 -1 -203 75q-78 77 -78 185zM795 1473q-44 -111 -92 -158t-90 -70t-95 -23t-96 20q-126 56 -184 235l57 26
q26 -50 96 -91q70 -42 131 -42q139 -4 223 125z" />
    <glyph glyph-name="Aogonek" unicode="&#x104;" horiz-adv-x="1398" 
d="M455 590h413l-161 434l-39 176h-4l-52 -180zM455 0h-455v59q74 33 147 50l519 1349h59l518 -1349q108 -21 156 -50v-59h-86q-207 -115 -207 -276q0 -57 37 -94.5t100.5 -37.5t112.5 13v-60q-74 -59 -179 -59t-172 56.5t-67 146.5q0 145 102.5 212.5t159.5 98.5h-326v59
q77 30 168 50l-139 374h-489l-135 -374q86 -12 176 -50v-59z" />
    <glyph glyph-name="aogonek" unicode="&#x105;" horiz-adv-x="1034" 
d="M430 102q104 0 160 60t76 119v215q-230 0 -310 -49t-80 -149q0 -99 45 -147.5t109 -48.5zM717 -242q0 -45 30.5 -84t79.5 -39t117 19v-68q-74 -41 -175 -41t-162.5 51.5t-61.5 129.5q0 147 192 254h-35q-20 47 -24 103t-6 124h-10q-18 -92 -98.5 -162t-203.5 -70
t-201.5 76.5t-78.5 184.5t38 168.5t111.5 95.5t182 50t252.5 23q17 191 -20.5 288t-154.5 97q-85 0 -135 -20l-96 -246h-53q-48 147 -55 256q168 101 370 101t266 -92t64 -234l-10 -455q0 -45 2 -77.5t4 -69.5l141 -21v-43q-20 -11 -59 -26q-211 -110 -211 -273z" />
    <glyph glyph-name="Cacute" unicode="&#x106;" horiz-adv-x="1318" 
d="M311 724q0 -300 144 -471t397 -171q142 0 172 37l96 254h54q29 -166 22 -314q-97 -78 -358 -84q-533 0 -679 409q-50 140 -50 337q0 373 204 566q181 171 482 171q251 0 389 -69q0 -152 -31 -353h-53l-107 295q-40 21 -160 21q-235 0 -379 -164q-143 -164 -143 -464z
M901 1829q41 5 108 -16q67 -20 91 -50v-41l-463 -186l-35 39z" />
    <glyph glyph-name="cacute" unicode="&#x107;" horiz-adv-x="954" 
d="M652 102q107 0 196 70l26 -29q-38 -71 -120 -119t-198 -48q-230 -1 -351 144t-121 399q0 253 127 391t332 138t327 -63q-16 -187 -63 -291h-55l-86 244q-28 20 -95 20q-139 0 -215 -101t-75 -343q0 -78 21 -152q46 -157 176 -225q66 -35 174 -35zM645 1571q32 4 98 -10
t91 -35v-39l-383 -309l-45 36z" />
    <glyph glyph-name="Ccircumflex" unicode="&#x108;" horiz-adv-x="1318" 
d="M311 724q0 -300 144 -471t397 -171q142 0 172 37l96 254h54q29 -166 22 -314q-97 -78 -358 -84q-533 0 -679 409q-50 140 -50 337q0 373 204 566q181 171 482 171q251 0 389 -69q0 -152 -31 -353h-53l-107 295q-40 21 -160 21q-235 0 -379 -164q-143 -164 -143 -464z
M504 1540l-29 39l260 229q29 18 53 0l256 -223l-30 -43l-260 115z" />
    <glyph glyph-name="ccircumflex" unicode="&#x109;" horiz-adv-x="954" 
d="M652 102q107 0 196 70l26 -29q-38 -71 -120 -119t-198 -48q-230 -1 -351 144t-121 399q0 253 127 391t332 138t327 -63q-16 -187 -63 -291h-55l-86 244q-28 20 -95 20q-139 0 -215 -101t-75 -343q0 -78 21 -152q46 -157 176 -225q66 -35 174 -35zM342 1208l-59 33
l225 381q29 17 51 0l234 -379l-56 -35l-211 219z" />
    <glyph glyph-name="Ccaron" unicode="&#x10c;" horiz-adv-x="1318" 
d="M311 724q0 -300 144 -471t397 -171q142 0 172 37l96 254h54q29 -166 22 -314q-97 -78 -358 -84q-533 0 -679 409q-50 140 -50 337q0 373 204 566q181 171 482 171q251 0 389 -69q0 -152 -31 -353h-53l-107 295q-40 21 -160 21q-235 0 -379 -164q-143 -164 -143 -464z
M504 1778q23 40 51 41l240 -113l227 113q36 0 51 -35l-260 -230q-29 -12 -53 0z" />
    <glyph glyph-name="ccaron" unicode="&#x10d;" horiz-adv-x="954" 
d="M652 102q107 0 196 70l26 -29q-38 -71 -120 -119t-198 -48q-230 -1 -351 144t-121 399q0 253 127 391t332 138t327 -63q-16 -187 -63 -291h-55l-86 244q-28 20 -95 20q-139 0 -215 -101t-75 -343q0 -78 21 -152q46 -157 176 -225q66 -35 174 -35zM735 1630q17 2 35 -8
t25 -25l-254 -378q-30 -12 -52 0l-247 376q8 17 28 27t41 8l219 -217z" />
    <glyph glyph-name="Dcaron" unicode="&#x10e;" horiz-adv-x="1449" 
d="M517 88h87q264 0 401 196q121 174 120 431t-118 425q-62 89 -165 146t-248 57t-182 -8v-1241q30 -6 105 -6zM59 0v59q72 33 168 50v1214q-87 18 -168 51v60h209l353 16q348 0 535 -186t187 -528t-194 -548t-571 -206l-322 18h-197zM326 1778q23 40 51 41l239 -113
l228 113q34 0 51 -35l-260 -230q-29 -12 -53 0z" />
    <glyph glyph-name="dcaron" unicode="&#x10f;" horiz-adv-x="1136" 
d="M567 952q-139 0 -213 -122t-73 -324q0 -277 136 -372q45 -32 128 -32t143 64t82 172v577q-64 37 -203 37zM84 500q0 268 128 405t345 137q122 0 213 -32v387l-156 16v53q88 37 289 74h51v-1423l136 -17v-43q-124 -61 -248 -77h-51l-19 223h-8q-20 -91 -95 -159
q-75 -67 -182 -69q-203 0 -303 129q-100 128 -100 396zM1038 1112q43 92 66 200t22 191l25 33q56 8 132 -28q22 -9 34 -19q-28 -161 -167 -325q-38 -44 -71 -74z" />
    <glyph glyph-name="Dcroat" unicode="&#x110;" horiz-adv-x="1452" 
d="M518 88h88q265 0 400 196q120 175 119 432q-1 256 -118 424q-141 203 -415 203q-143 0 -180 -8v-549h342v-106h-342v-586q30 -6 106 -6zM59 0v59q72 33 168 50v571h-182v106h182v537q-87 18 -168 51v60h209l353 16q345 0 533 -186q189 -186 189 -528q0 -341 -194 -548
q-194 -206 -571 -206l-322 18h-197z" />
    <glyph glyph-name="dcroat" unicode="&#x111;" horiz-adv-x="1136" 
d="M567 952q-139 0 -212.5 -121.5t-73.5 -324.5q0 -277 90.5 -340.5t173.5 -63.5t143 63.5t82 172.5v577q-64 37 -203 37zM557 1042q122 0 213 -32v159h-313v107h313v121l-156 16v53q100 43 289 74h51v-264h189v-107h-189v-1052l136 -17v-43q-123 -61 -248 -77h-51l-19 223
h-8q-21 -93 -97 -160.5t-180 -67.5q-203 0 -303 128.5t-100 396.5t128 405t345 137z" />
    <glyph glyph-name="Emacron" unicode="&#x112;" horiz-adv-x="1191" 
d="M424 1327v-543h334l80 152h51q12 -203 0 -414h-51l-80 156h-334v-572h471l100 246h52q30 -182 22 -352h-1010v59q72 33 168 50v1214q-75 15 -168 51v60h971q-5 -185 -22 -332h-54l-84 225h-446zM309 1614v106h617v-106h-617z" />
    <glyph glyph-name="emacron" unicode="&#x113;" horiz-adv-x="1030" 
d="M741 672q-1 286 -209 286q-110 0 -172 -78q-61 -79 -73 -278h450q4 36 4 70zM934 677q0 -93 -14 -165h-639q0 -182 90 -296q90 -115 258 -114q71 0 145 20t111 54l28 -33q-32 -69 -128 -118q-97 -48 -214 -49q-235 -2 -361 145t-126 400t121 390t342 138q261 0 353 -204
q34 -75 34 -168zM274 1305v106h519v-106h-519z" />
    <glyph glyph-name="Edotaccent" unicode="&#x116;" horiz-adv-x="1191" 
d="M424 1327v-543h334l80 152h51q12 -203 0 -414h-51l-80 156h-334v-572h471l100 246h52q30 -182 22 -352h-1010v59q72 33 168 50v1214q-75 15 -168 51v60h971q-5 -185 -22 -332h-54l-84 225h-446zM463 1673q0 53 39 82t94 29t92 -29t37 -82t-37 -82t-92 -29t-94 30
q-39 28 -39 81z" />
    <glyph glyph-name="edotaccent" unicode="&#x117;" horiz-adv-x="1030" 
d="M741 672q-1 286 -209 286q-110 0 -172 -78q-61 -79 -73 -278h450q4 36 4 70zM934 677q0 -93 -14 -165h-639q0 -182 90 -296q90 -115 258 -114q71 0 145 20t111 54l28 -33q-32 -69 -128 -118q-97 -48 -214 -49q-235 -2 -361 145t-126 400t121 390t342 138q261 0 353 -204
q34 -75 34 -168zM401 1372q0 55 36 88t95 33q58 0 94 -33t36 -88t-35 -87t-95 -32t-95 32q-36 32 -36 87z" />
    <glyph glyph-name="Eogonek" unicode="&#x118;" horiz-adv-x="1191" 
d="M424 1327v-543h334l80 152h51q12 -203 0 -414h-51l-80 156h-334v-572h471l100 246h52q22 -99 22 -128v-224h-90q-207 -118 -207 -276q0 -57 37 -94.5t101 -37.5t114 13v-60q-74 -59 -179 -59t-173 56.5t-68 146.5q0 144 103.5 212t160.5 99h-809v59q72 33 168 50v1214
q-75 15 -168 51v60h971q-5 -185 -22 -332h-54l-84 225h-446z" />
    <glyph glyph-name="eogonek" unicode="&#x119;" horiz-adv-x="1030" 
d="M538.5 958q-116.5 0 -178 -78.5t-73.5 -277.5h450q14 160 -34 258t-164.5 98zM403 -274q0 143 185 249q-250 0 -377 141.5t-127 399.5t121 395.5t327 137.5t321 -126.5t67 -410.5h-639q0 -181 89.5 -295.5t258.5 -114.5q72 0 145.5 20.5t110.5 53.5l28 -33
q-40 -83 -161 -133q-177 -102 -177 -252q0 -80 43.5 -101.5t79.5 -21.5t105 19v-68q-74 -41 -176 -41q-101 0 -162.5 51.5t-61.5 129.5z" />
    <glyph glyph-name="Ecaron" unicode="&#x11a;" horiz-adv-x="1191" 
d="M424 1327v-543h334l80 152h51q12 -203 0 -414h-51l-80 156h-334v-572h471l100 246h52q30 -182 22 -352h-1010v59q72 33 168 50v1214q-75 15 -168 51v60h971q-5 -185 -22 -332h-54l-84 225h-446zM319 1778q23 40 52 41l239 -113l228 113q34 0 51 -35l-260 -230
q-29 -12 -54 0z" />
    <glyph glyph-name="ecaron" unicode="&#x11b;" horiz-adv-x="1030" 
d="M741 672q-1 286 -209 286q-110 0 -172 -78q-61 -79 -73 -278h450q4 36 4 70zM934 677q0 -93 -14 -165h-639q0 -182 90 -296q90 -115 258 -114q71 0 145 20t111 54l28 -33q-32 -69 -128 -118q-97 -48 -214 -49q-235 -2 -361 145t-126 400t121 390t342 138q261 0 353 -204
q34 -75 34 -168zM733 1630q17 2 35 -8t25 -25l-254 -378q-30 -12 -52 0l-247 376q8 17 28 27t41 8l219 -217z" />
    <glyph glyph-name="Gcircumflex" unicode="&#x11c;" horiz-adv-x="1409" 
d="M109 721q0 374 214 568q184 169 456 169q271 0 409 -69q0 -162 -31 -353h-53l-107 295q-40 21 -161 21q-238 0 -382 -164q-143 -164 -143 -460t149 -471t374 -175q116 0 205 51q22 12 30 21v413q-65 5 -197 49v60h502v-60q-43 -30 -127 -49v-469q-128 -76 -318 -111
q-58 -11 -110 -12q-513 0 -660 410q-50 139 -50 336zM508 1540l-29 39l260 229q29 17 54 0l256 -223l-31 -43l-260 115z" />
    <glyph glyph-name="gcircumflex" unicode="&#x11d;" horiz-adv-x="1077" 
d="M283 719q0 -239 223 -242q119 0 170 70q51 71 51 177t-50 170t-173 64t-172 -62t-49 -177zM549 -344q207 0 248 108q12 32 12 84q0 132 -295 195q-76 16 -141 37q-78 -47 -103 -99t-24 -108q0 -217 303 -217zM506 387q-59 0 -119 8q-10 -18 -23 -41q-42 -74 33 -111
q57 -29 206 -64t221 -69q166 -79 169 -227q4 -148 -131 -233q-135 -86 -354 -85t-333 77t-114 190q0 152 150 222q49 24 113 44q-105 47 -105 144q0 47 40 93t81 73q-117 30 -179 116q-63 86 -63 176q-1 161 106 255t310 94t305 -88q121 82 252 118q31 -45 31 -116l-27 -50
h-215q51 -73 51 -207t-103 -226t-302 -93zM305 1208l-59 33l225 381q29 17 51 0l234 -379l-56 -35l-211 219z" />
    <glyph glyph-name="Gbreve" unicode="&#x11e;" horiz-adv-x="1409" 
d="M109 721q0 374 214 568q184 169 456 169q271 0 409 -69q0 -162 -31 -353h-53l-107 295q-40 21 -161 21q-238 0 -382 -164q-143 -164 -143 -460t149 -471t374 -175q116 0 205 51q22 12 30 21v413q-65 5 -197 49v60h502v-60q-43 -30 -127 -49v-469q-128 -76 -318 -111
q-58 -11 -110 -12q-513 0 -660 410q-50 139 -50 336zM819 1698q161 -5 236 110q33 4 65 -28q-61 -152 -205 -207q-47 -18 -98 -19q-111 0 -193 60t-122 170q25 39 86 31q40 -72 166 -108q35 -9 65 -9z" />
    <glyph glyph-name="gbreve" unicode="&#x11f;" horiz-adv-x="1077" 
d="M283 719q0 -239 223 -242q119 0 170 70q51 71 51 177t-50 170t-173 64t-172 -62t-49 -177zM549 -344q207 0 248 108q12 32 12 84q0 132 -295 195q-76 16 -141 37q-78 -47 -103 -99t-24 -108q0 -217 303 -217zM506 387q-59 0 -119 8q-10 -18 -23 -41q-42 -74 33 -111
q57 -29 206 -64t221 -69q166 -79 169 -227q4 -148 -131 -233q-135 -86 -354 -85t-333 77t-114 190q0 152 150 222q49 24 113 44q-105 47 -105 144q0 47 40 93t81 73q-117 30 -179 116q-63 86 -63 176q-1 161 106 255t310 94t305 -88q121 82 252 118q31 -45 31 -116l-27 -50
h-215q51 -73 51 -207t-103 -226t-302 -93zM776 1473q-44 -109 -92 -157q-94 -94 -182 -93q-149 0 -238 152q-27 46 -45 102l57 26q41 -79 162 -122q35 -11 66 -11q139 -4 223 125z" />
    <glyph glyph-name="Gcommaaccent" unicode="&#x122;" horiz-adv-x="1409" 
d="M109 721q0 374 214 568q184 169 456 169q271 0 409 -69q0 -162 -31 -353h-53l-107 295q-40 21 -161 21q-238 0 -382 -164q-143 -164 -143 -460t149 -471t374 -175q116 0 205 51q22 12 30 21v413q-65 5 -197 49v60h502v-60q-43 -30 -127 -49v-469q-128 -76 -318 -111
q-58 -11 -110 -12q-513 0 -660 410q-50 139 -50 336zM657 -487q37 16 73 55t30 98q-40 31 -135 66q-18 60 24 115t90 57q70 -6 124 -52q55 -46 55 -140t-60 -167q-60 -74 -170 -102z" />
    <glyph glyph-name="gcommaaccent" unicode="&#x123;" horiz-adv-x="1077" 
d="M283 719q0 -239 223 -242q119 0 170 70q51 71 51 177t-50 170t-173 64t-172 -62t-49 -177zM549 -344q207 0 248 108q12 32 12 84q0 132 -295 195q-76 16 -141 37q-78 -47 -103 -99t-24 -108q0 -217 303 -217zM506 387q-59 0 -119 8q-10 -18 -23 -41q-42 -74 33 -111
q57 -29 206 -64t221 -69q166 -79 169 -227q4 -148 -131 -233q-135 -86 -354 -85t-333 77t-114 190q0 152 150 222q49 24 113 44q-105 47 -105 144q0 47 40 93t81 73q-117 30 -179 116q-63 86 -63 176q-1 161 106 255t310 94t305 -88q121 82 252 118q31 -45 31 -116l-27 -50
h-215q51 -73 51 -207t-103 -226t-302 -93zM395 1398q-1 94 63 169q64 76 158 98l33 -72q-63 -25 -88 -67t-24 -82q49 -38 133 -68q18 -59 -26 -115q-37 -53 -87 -55q-68 6 -115 52t-47 140z" />
    <glyph glyph-name="Hcircumflex" unicode="&#x124;" horiz-adv-x="1490" 
d="M578 0h-519v59q82 33 168 50v1214q-96 14 -168 51v60h519v-60q-66 -34 -154 -51v-535h643v535q-86 20 -154 51v60h519v-60q-56 -30 -168 -51v-1214q100 -17 168 -50v-59h-519v59q74 33 154 50v573h-643v-573q85 -17 154 -50v-59zM489 1540l-28 39l260 229q28 17 53 0
l256 -223l-31 -43l-260 115z" />
    <glyph glyph-name="hcircumflex" unicode="&#x125;" horiz-adv-x="1202" 
d="M1167 0h-442v51q49 27 123 49v480q0 160 -45 250t-152 92q-107 0 -182 -66t-100 -158v-598q81 -20 120 -49v-51h-440v51q63 33 135 49v1297l-155 16v53q88 37 288 74h52v-723h2q43 96 124 164t179 68q98 1 163 -19q198 -59 195 -412v-518q97 -22 135 -49v-51zM0 1540
l-29 39l260 229q29 17 54 0l256 -223l-31 -43l-260 115z" />
    <glyph glyph-name="Hbar" unicode="&#x126;" horiz-adv-x="1490" 
d="M1067 788v248h-643v-248h643zM578 0h-519v59q82 33 168 50v927h-166v107h166v180q-96 14 -168 51v60h519v-60q-66 -34 -154 -51v-180h643v180q-86 20 -154 51v60h519v-60q-56 -30 -168 -51v-180h166v-107h-166v-927q100 -17 168 -50v-59h-519v59q74 33 154 50v573h-643
v-573q85 -17 154 -50v-59z" />
    <glyph glyph-name="hbar" unicode="&#x127;" horiz-adv-x="1202" 
d="M489 0h-440v51q63 33 135 49v1069h-178v105h178v123l-155 16v53q99 42 288 74h52v-266h325v-105h-325v-352h2q43 96 124 164t179 68t228 -39.5t130 -391.5v-518q97 -22 135 -49v-51h-442v51q49 27 123 49v480q0 160 -45 251t-152 91t-181.5 -66t-100.5 -158v-598
q81 -20 120 -49v-51z" />
    <glyph glyph-name="Imacron" unicode="&#x12a;" horiz-adv-x="720" 
d="M623 0h-525v59q80 37 164 50v1214q-67 13 -164 51v60h525v-60q-70 -30 -164 -51v-1214q99 -18 164 -50v-59zM55 1614v106h617v-106h-617z" />
    <glyph glyph-name="imacron" unicode="&#x12b;" horiz-adv-x="616" 
d="M539 0h-455v51q55 29 135 49v805l-135 17v53q100 42 268 74h51v-949q90 -22 136 -49v-51zM49 1305v106h518v-106h-518z" />
    <glyph glyph-name="Iogonek" unicode="&#x12e;" horiz-adv-x="720" 
d="M623 0h-82q-207 -115 -207 -276q0 -57 37 -94.5t100.5 -37.5t112.5 13v-60q-74 -59 -179 -59t-172 56.5t-67 146.5q0 147 102.5 213.5t159.5 97.5h-330v59q80 37 164 50v1214q-67 13 -164 51v60h525v-60q-80 -35 -164 -51v-1214q99 -18 164 -50v-59z" />
    <glyph glyph-name="iogonek" unicode="&#x12f;" horiz-adv-x="622" 
d="M193 1366q0 53 33.5 84t87 31t86 -31t32.5 -84t-32.5 -83t-86 -30t-87 30t-33.5 83zM541 0h-80q-158 -100 -158 -242q0 -79 43 -101t81 -22t105 19v-68q-74 -41 -175 -41t-162.5 51.5t-61.5 129.5q0 170 232 274h-279v51q55 29 135 49v805l-135 17v53q100 42 268 74h52
v-949q88 -21 135 -49v-51z" />
    <glyph glyph-name="Idotaccent" unicode="&#x130;" horiz-adv-x="720" 
d="M623 0h-525v59q80 37 164 50v1214q-67 13 -164 51v60h525v-60q-70 -30 -164 -51v-1214q99 -18 164 -50v-59zM229 1673q0 53 39 82t94 29q54 0 92 -29t38 -82t-37 -82t-93 -29t-94 30q-39 28 -39 81z" />
    <glyph glyph-name="dotlessi" unicode="&#x131;" horiz-adv-x="616" 
d="M539 0h-455v51q55 29 135 49v805l-135 17v53q100 42 268 74h51v-949q90 -22 136 -49v-51z" />
    <glyph glyph-name="Jcircumflex" unicode="&#x134;" horiz-adv-x="698" 
d="M80 1434h520v-60q-79 -34 -156 -51v-1147q0 -250 -113 -384q-80 -93 -202 -120l-23 31q71 62 96 129q46 123 46 322v1169q-103 23 -168 51v60zM90 1540l-29 39l261 229q28 17 53 0l256 -223l-31 -43l-260 115z" />
    <glyph glyph-name="jcircumflex" unicode="&#x135;" horiz-adv-x="589" 
d="M401 1049v-961q0 -250 -122 -397q-82 -99 -183 -125l-24 39q96 46 132 260q13 78 13 184v856l-135 17v53q92 45 268 74h51zM111 1208l-60 33l225 381q28 17 52 0l233 -379l-55 -35l-211 219z" />
    <glyph glyph-name="Kcommaaccent" unicode="&#x136;" horiz-adv-x="1323" 
d="M782 1434h453v-60q-78 -34 -156 -51l-411 -545q110 -147 406 -505q77 -91 151 -173l98 -49v-51h-256l-70 49q-206 240 -473 637h-100v-577q94 -16 154 -50v-59h-519v59q82 33 168 50v1214q-92 12 -168 51v60h519v-60q-69 -29 -154 -51v-567l123 28l383 539
q-86 21 -148 51v60zM539 -487q37 16 73 55t29 98q-42 33 -135 66q-18 60 24 115t91 57q69 -6 123 -52t54 -140t-60 -167q-60 -74 -169 -102z" />
    <glyph glyph-name="kcommaaccent" unicode="&#x137;" horiz-adv-x="1056" 
d="M614 1024h396v-53q-86 -35 -156 -49q-75 -100 -172 -206q-96 -106 -123 -132q31 -41 110 -146q158 -210 273 -338l115 -49v-51h-254l-55 49q-151 187 -312 438l-67 21v-408q68 -12 133 -49v-51h-453v51q68 33 135 49v1297l-155 16v53q57 27 137 43t151 31h52v-979h53
q184 206 293 361q-51 14 -101 49v53zM410 -483q63 25 88 67t24 82q-49 38 -133 68q-18 59 26 115q37 53 87 55q68 -6 114 -52t48 -140q0 -94 -64 -169q-64 -76 -158 -98z" />
    <glyph glyph-name="Lacute" unicode="&#x139;" horiz-adv-x="1124" 
d="M59 1434h562v-60q-110 -40 -197 -51v-1217h471l121 330h53q23 -165 23 -278t-2 -158h-1031v59q63 30 168 50v1214q-90 15 -168 51v60zM596 1829q75 8 161 -38q26 -13 38 -28v-41l-463 -186l-35 39z" />
    <glyph glyph-name="lacute" unicode="&#x13a;" horiz-adv-x="616" 
d="M403 1540v-1440q68 -16 136 -49v-51h-455v51q68 33 135 49v1297l-156 16v53q80 38 289 74h51zM471 1829q41 5 108 -16q67 -20 91 -50v-41l-463 -186l-35 39z" />
    <glyph glyph-name="Lcommaaccent" unicode="&#x13b;" horiz-adv-x="1124" 
d="M59 1434h562v-60q-110 -40 -197 -51v-1217h471l121 330h53q23 -165 23 -278t-2 -158h-1031v59q63 30 168 50v1214q-90 15 -168 51v60zM453 -487q37 16 73 55t29 98q-42 33 -135 66q-18 60 24 115t91 57q69 -6 123 -52t54 -140t-60 -167q-60 -74 -169 -102z" />
    <glyph glyph-name="lcommaaccent" unicode="&#x13c;" horiz-adv-x="616" 
d="M403 1540v-1440q68 -16 136 -49v-51h-455v51q68 33 135 49v1297l-156 16v53q80 38 289 74h51zM455 -288q1 -94 -63 -169q-64 -76 -159 -98l-32 72q63 25 88 67t24 82q-49 38 -133 68q-18 59 26 115q37 53 87 55q68 -6 115 -52t47 -140z" />
    <glyph glyph-name="Lcaron" unicode="&#x13d;" horiz-adv-x="1124" 
d="M59 1434h562v-60q-110 -40 -197 -51v-1217h471l121 330h53q23 -165 23 -278t-2 -158h-1031v59q63 30 168 50v1214q-90 15 -168 51v60zM700 1032q88 198 88 393l25 33q33 4 97 -17t91 -50q-15 -104 -100 -219t-160 -162z" />
    <glyph glyph-name="lcaron" unicode="&#x13e;" horiz-adv-x="616" 
d="M403 1540v-1440q68 -16 136 -49v-51h-455v51q68 33 135 49v1297l-156 16v53q80 38 289 74h51zM496 1112q43 92 65 200q23 108 23 191l24 33q56 8 132 -28q22 -9 34 -19q-28 -161 -167 -325q-38 -44 -70 -74z" />
    <glyph glyph-name="Lslash" unicode="&#x141;" horiz-adv-x="1124" 
d="M59 1434h562v-60q-110 -40 -197 -51v-520l276 172v-135l-276 -172v-562h471l121 330h53q23 -165 23 -278t-2 -158h-1031v59q65 31 168 50v438l-192 -117v133l192 117v643q-90 15 -168 51v60z" />
    <glyph glyph-name="lslash" unicode="&#x142;" horiz-adv-x="665" 
d="M428 1540v-702l188 116v-135l-188 -117v-602q68 -16 135 -49v-51h-454v51q68 33 135 49v490l-195 -121v135l195 119v674l-156 16v53q90 43 289 74h51z" />
    <glyph glyph-name="Nacute" unicode="&#x143;" horiz-adv-x="1499" 
d="M997 1434h443v-60q-86 -57 -168 -82v-1317h-117l-743 1129l-80 160h-6l18 -160v-973q84 -23 158 -72v-59h-443v59q61 38 168 72v1174q-93 36 -155 71v58h346l645 -973l94 -176h8l-10 176v831q-92 38 -158 82v60zM963 1829q77 9 160 -38q26 -13 38 -28v-41l-463 -186
l-34 39z" />
    <glyph glyph-name="nacute" unicode="&#x144;" horiz-adv-x="1216" 
d="M383 1049v-230h2q43 94 124 162t179 68q98 1 164 -19q196 -59 195 -412v-518q82 -14 135 -49v-51h-441v51q55 29 121 49v486q0 156 -45 246t-164 90q-146 0 -231 -141q-25 -40 -39 -83v-598q63 -12 123 -49v-51h-443v51q51 27 136 49v805l-136 17v53q88 38 269 74h51z
M774 1571q32 4 98 -10t91 -35v-39l-383 -309l-45 36z" />
    <glyph glyph-name="Ncommaaccent" unicode="&#x145;" horiz-adv-x="1499" 
d="M997 1434h443v-60q-86 -57 -168 -82v-1317h-117l-743 1129l-80 160h-6l18 -160v-973q84 -23 158 -72v-59h-443v59q61 38 168 72v1174q-93 36 -155 71v58h346l645 -973l94 -176h8l-10 176v831q-92 38 -158 82v60zM895 -288q0 -94 -60 -167q-60 -74 -169 -102l-31 70
q37 16 73 55t29 98q-42 33 -135 66q-19 62 27 117q40 53 88 55q70 -6 124 -52t54 -140z" />
    <glyph glyph-name="ncommaaccent" unicode="&#x146;" horiz-adv-x="1216" 
d="M383 1049v-230h2q43 94 124 162t179 68q98 1 164 -19q196 -59 195 -412v-518q82 -14 135 -49v-51h-441v51q55 29 121 49v486q0 156 -45 246t-164 90q-146 0 -231 -141q-25 -40 -39 -83v-598q63 -12 123 -49v-51h-443v51q51 27 136 49v805l-136 17v53q88 38 269 74h51z
M764 -288q0 -94 -64 -169q-64 -76 -157 -98l-33 72q113 45 113 149q-48 37 -134 68q-18 59 26 115q37 53 87 55q68 -6 115 -52t47 -140z" />
    <glyph glyph-name="Ncaron" unicode="&#x147;" horiz-adv-x="1499" 
d="M997 1434h443v-60q-86 -57 -168 -82v-1317h-117l-743 1129l-80 160h-6l18 -160v-973q84 -23 158 -72v-59h-443v59q61 38 168 72v1174q-93 36 -155 71v58h346l645 -973l94 -176h8l-10 176v831q-92 38 -158 82v60zM465 1778q23 40 51 41l240 -113l227 113q36 0 51 -35
l-260 -230q-28 -11 -53 0z" />
    <glyph glyph-name="ncaron" unicode="&#x148;" horiz-adv-x="1216" 
d="M383 1049v-230h2q43 94 124 162t179 68q98 1 164 -19q196 -59 195 -412v-518q82 -14 135 -49v-51h-441v51q55 29 121 49v486q0 156 -45 246t-164 90q-146 0 -231 -141q-25 -40 -39 -83v-598q63 -12 123 -49v-51h-443v51q51 27 136 49v805l-136 17v53q88 38 269 74h51z
M827 1630q17 2 35 -8t25 -25l-254 -378q-30 -12 -51 0l-248 376q8 17 28 27t41 8l220 -217z" />
    <glyph glyph-name="Omacron" unicode="&#x14c;" horiz-adv-x="1515" 
d="M328 717q0 -131 28 -247q57 -241 222 -338q84 -50 193 -50t187 50t128 136q102 175 102 452t-109 445q-120 187 -336 187t-321 -187q-94 -165 -94 -448zM109 717q0 160 44 296q90 278 330 390q121 55 275 55q304 0 476 -207q173 -207 173 -533q0 -327 -173 -534
t-476 -208q-304 -1 -477 206q-172 207 -172 535zM449 1614v106h616v-106h-616z" />
    <glyph glyph-name="omacron" unicode="&#x14d;" horiz-adv-x="1132" 
d="M281 512q0 -312 172 -412q61 -35 147 -34q112 0 182 108t70 338q0 307 -166 412q-57 35 -137 34q-121 0 -195 -108q-73 -109 -73 -338zM84 516q0 125 34 224q69 201 250 273q88 36 206 36q237 0 356 -144t119 -398q0 -253 -131 -392t-353 -140q-355 0 -451 317
q-30 99 -30 224zM307 1305v106h518v-106h-518z" />
    <glyph glyph-name="Ohungarumlaut" unicode="&#x150;" horiz-adv-x="1515" 
d="M328 717q0 -131 28 -247q57 -241 222 -338q84 -50 193 -50t187 50t128 136q102 175 102 452t-109 445q-120 187 -336 187t-321 -187q-94 -165 -94 -448zM109 717q0 160 44 296q90 278 330 390q121 55 275 55q304 0 476 -207q173 -207 173 -533q0 -327 -173 -534
t-476 -208q-304 -1 -477 206q-172 207 -172 535zM1022 1819q33 5 95 -16q62 -20 77 -40l-2 -20l-363 -195l-43 37zM666 1819q23 4 88 -12t75 -38v-28l-268 -189l-39 37z" />
    <glyph glyph-name="ohungarumlaut" unicode="&#x151;" horiz-adv-x="1132" 
d="M281 512q0 -312 172 -412q61 -35 147 -34q112 0 182 108t70 338q0 307 -166 412q-57 35 -137 34q-121 0 -195 -108q-73 -109 -73 -338zM84 516q0 125 34 224q69 201 250 273q88 36 206 36q237 0 356 -144t119 -398q0 -253 -131 -392t-353 -140q-355 0 -451 317
q-30 99 -30 224zM858 1573q62 9 140 -32q24 -11 34 -25v-27l-407 -264l-39 37zM504 1573q27 5 93 -10q65 -14 79 -33v-31l-283 -274l-47 32z" />
    <glyph glyph-name="OE" unicode="&#x152;" horiz-adv-x="1953" 
d="M753 1352q-125 0 -203.5 -50.5t-127.5 -136.5t-71.5 -201.5t-22.5 -320t115.5 -383t332.5 -178.5q125 0 215 39v1182q-113 49 -238 49zM109 717q0 326 172 533.5t477 207.5q115 0 233 -24h803q-12 -249 -22 -332h-54l-86 225h-444v-543h332l82 152h49q16 -203 0 -414h-49
l-82 156h-332v-572h471l98 246h53q29 -210 23 -352h-838q-132 -25 -262 -25q-129 0 -250 55.5t-247.5 208t-126.5 478.5z" />
    <glyph glyph-name="oe" unicode="&#x153;" horiz-adv-x="1794" 
d="M1304 958q-116 0 -177.5 -78.5t-73.5 -277.5h448q14 160 -33.5 258t-163.5 98zM529 -25q-87 0 -177 38t-179 144t-89 358t131 393t350 141q111 0 215.5 -41t163.5 -136q80 127 198 152t184 25t146 -26t170 -127.5t41 -383.5h-636q0 -181 89.5 -295.5t256.5 -114.5
q115 0 176 29t80 45l30 -33q-32 -69 -132.5 -118.5t-210 -49.5t-226 51t-162.5 128q-98 -137 -215 -158t-204 -21zM281 512q0 -316 116.5 -382.5t202.5 -66.5q111 0 180.5 110t69.5 339q0 312 -110.5 379t-190.5 67q-123 0 -195.5 -108.5t-72.5 -337.5z" />
    <glyph glyph-name="Racute" unicode="&#x154;" horiz-adv-x="1304" 
d="M585 1343q-117 0 -161 -10v-612h147q141 0 225 90q83 90 83 240t-88 221q-89 71 -206 71zM598 0h-539v59q58 26 168 50v1214q-86 16 -168 51v60h181q82 0 179 8t193 8q327 0 434 -219q36 -76 35 -182q0 -150 -79 -248t-214 -142q176 -278 386 -548l110 -60v-51h-248
l-78 57q-156 197 -269 423q-36 73 -73 155h-192v-526q110 -23 174 -50v-59zM780 1829q41 5 108 -16q67 -20 91 -50v-41l-463 -186l-35 39z" />
    <glyph glyph-name="racute" unicode="&#x155;" horiz-adv-x="786" 
d="M547 0h-484v51q54 29 136 49v805l-136 17v53q102 45 269 74h51v-218h8q38 87 132 157t202 61q24 -46 47 -125v-54h-272q-23 -12 -57 -50t-60 -111v-609q93 -9 164 -49v-51zM561 1571q32 4 98 -10t91 -35v-39l-383 -309l-45 36z" />
    <glyph glyph-name="Rcommaaccent" unicode="&#x156;" horiz-adv-x="1304" 
d="M585 1343q-117 0 -161 -10v-612h147q141 0 225 90q83 90 83 240t-88 221q-89 71 -206 71zM598 0h-539v59q58 26 168 50v1214q-86 16 -168 51v60h181q82 0 179 8t193 8q327 0 434 -219q36 -76 35 -182q0 -150 -79 -248t-214 -142q176 -278 386 -548l110 -60v-51h-248
l-78 57q-156 197 -269 423q-36 73 -73 155h-192v-526q110 -23 174 -50v-59zM535 -487q37 16 73 55t29 98q-40 31 -135 66q-18 60 24 115t90 57q70 -6 124 -52t54 -140t-60 -167q-60 -74 -169 -102z" />
    <glyph glyph-name="rcommaaccent" unicode="&#x157;" horiz-adv-x="786" 
d="M547 0h-484v51q54 29 136 49v805l-136 17v53q102 45 269 74h51v-218h8q38 87 132 157t202 61q24 -46 47 -125v-54h-272q-23 -12 -57 -50t-60 -111v-609q93 -9 164 -49v-51zM477 -288q0 -94 -63 -169q-63 -76 -158 -98l-33 72q113 45 113 149q-46 36 -133 68
q-17 58 22 113q40 55 90 57q68 -6 115 -52t47 -140z" />
    <glyph glyph-name="Rcaron" unicode="&#x158;" horiz-adv-x="1304" 
d="M585 1343q-117 0 -161 -10v-612h147q141 0 225 90q83 90 83 240t-88 221q-89 71 -206 71zM598 0h-539v59q58 26 168 50v1214q-86 16 -168 51v60h181q82 0 179 8t193 8q327 0 434 -219q36 -76 35 -182q0 -150 -79 -248t-214 -142q176 -278 386 -548l110 -60v-51h-248
l-78 57q-156 197 -269 423q-36 73 -73 155h-192v-526q110 -23 174 -50v-59zM301 1778q23 40 51 41l240 -113l227 113q36 0 51 -35l-260 -230q-28 -11 -53 0z" />
    <glyph glyph-name="rcaron" unicode="&#x159;" horiz-adv-x="786" 
d="M547 0h-484v51q54 29 136 49v805l-136 17v53q102 45 269 74h51v-218h8q38 87 132 157t202 61q24 -46 47 -125v-54h-272q-23 -12 -57 -50t-60 -111v-609q93 -9 164 -49v-51zM666 1630q18 2 35 -8t24 -25l-254 -378q-30 -12 -51 0l-248 376q8 17 28 27t42 8l219 -217z" />
    <glyph glyph-name="Sacute" unicode="&#x15a;" horiz-adv-x="1097" 
d="M307 141q59 -59 189 -59t217 71q88 71 88 189q0 82 -50 137t-125 99t-163 84q-88 41 -163 97t-125 135q-50 80 -50 182q0 185 119 284q119 100 307 98q252 0 391 -67q0 -139 -49 -353h-53l-82 281q-71 31 -213 33q-103 0 -167 -58t-64 -154q0 -94 50 -151t126 -102
t162 -87q87 -42 163 -98t126 -131q50 -76 50 -178q0 -197 -131 -307q-131 -111 -364 -111q-130 0 -232 31t-145 66q11 196 51 370h53zM748 1829q77 9 160 -38q26 -13 38 -28v-41l-463 -186l-34 39z" />
    <glyph glyph-name="sacute" unicode="&#x15b;" horiz-adv-x="886" 
d="M406 66q86 0 142 48t56 112t-47 117t-195 130q-247 128 -247 305q0 124 92 196q92 73 214 74q190 2 329 -47q-20 -161 -52 -268h-51l-78 209q-40 16 -98 16q-124 0 -162 -94q-10 -28 -10 -68t45 -90t198 -130q153 -81 211 -169q35 -53 35 -127q-1 -137 -110 -221
q-110 -84 -264 -84t-320 60q8 142 56 274h51l90 -223q28 -20 115 -20zM571 1571q32 4 97 -10q66 -14 92 -35v-39l-383 -309l-45 36z" />
    <glyph glyph-name="Scircumflex" unicode="&#x15c;" horiz-adv-x="1097" 
d="M307 141q59 -59 189 -59t217 71q88 71 88 189q0 82 -50 137t-125 99t-163 84q-88 41 -163 97t-125 135q-50 80 -50 182q0 185 119 284q119 100 307 98q252 0 391 -67q0 -139 -49 -353h-53l-82 281q-71 31 -213 33q-103 0 -167 -58t-64 -154q0 -94 50 -151t126 -102
t162 -87q87 -42 163 -98t126 -131q50 -76 50 -178q0 -197 -131 -307q-131 -111 -364 -111q-130 0 -232 31t-145 66q11 196 51 370h53zM328 1540l-29 39l260 229q29 18 53 0l256 -223l-30 -43l-260 115z" />
    <glyph glyph-name="scircumflex" unicode="&#x15d;" horiz-adv-x="886" 
d="M406 66q86 0 142 48t56 112t-47 117t-195 130q-247 128 -247 305q0 124 92 196q92 73 214 74q190 2 329 -47q-20 -161 -52 -268h-51l-78 209q-40 16 -98 16q-124 0 -162 -94q-10 -28 -10 -68t45 -90t198 -130q153 -81 211 -169q35 -53 35 -127q-1 -137 -110 -221
q-110 -84 -264 -84t-320 60q8 142 56 274h51l90 -223q28 -20 115 -20zM250 1208l-60 33l226 381q28 17 51 0l233 -379l-55 -35l-211 219z" />
    <glyph glyph-name="Scedilla" unicode="&#x15e;" horiz-adv-x="1097" 
d="M307 141q61 -61 189 -61t216.5 70.5t88.5 191.5q0 82 -50.5 137.5t-125 98.5t-162.5 83.5t-163 97t-125 136t-50 181.5q0 187 117.5 284.5t308.5 97.5q250 0 391 -67q0 -139 -49 -353h-53l-82 281q-76 33 -197 33q-120 0 -184 -59t-64 -153t50.5 -151t126 -102t162.5 -87
t163 -97.5t126 -131t50 -188.5q0 -174 -112.5 -280.5t-317.5 -122.5l-51 -134q123 -2 181.5 -46t58.5 -110q0 -117 -116.5 -182t-254.5 -65v68q194 28 190 137q-2 57 -47 82.5t-137 31.5l72 213q-117 4 -207 34t-131 63q12 202 51 370h53z" />
    <glyph glyph-name="scedilla" unicode="&#x15f;" horiz-adv-x="925" 
d="M424 63q100 0 159.5 50t59.5 119t-39 110t-98.5 71.5t-127 58.5t-126.5 68t-98 99t-39 134q0 131 93.5 203.5t224.5 72.5q219 0 355 -48q-20 -164 -51 -268h-51l-78 209q-40 16 -133 16q-94 0 -135 -47t-41 -104t39 -96t98.5 -70t225 -98.5t165.5 -256.5
q0 -140 -100 -221t-270 -88l-43 -116q209 -7 217 -146q4 -109 -103.5 -171t-230.5 -58v61q174 21 170 129q-2 58 -43 80.5t-125 28.5l68 192q-143 10 -273 58q8 142 56 274h51l90 -223q33 -23 133 -23z" />
    <glyph glyph-name="Scaron" unicode="&#x160;" horiz-adv-x="1097" 
d="M307 141q59 -59 189 -59t217 71q88 71 88 189q0 82 -50 137t-125 99t-163 84q-88 41 -163 97t-125 135q-50 80 -50 182q0 185 119 284q119 100 307 98q252 0 391 -67q0 -139 -49 -353h-53l-82 281q-71 31 -213 33q-103 0 -167 -58t-64 -154q0 -94 50 -151t126 -102
t162 -87q87 -42 163 -98t126 -131q50 -76 50 -178q0 -197 -131 -307q-131 -111 -364 -111q-130 0 -232 31t-145 66q11 196 51 370h53zM283 1778q23 40 51 41l239 -113l228 113q34 0 51 -35l-260 -230q-29 -12 -53 0z" />
    <glyph glyph-name="scaron" unicode="&#x161;" horiz-adv-x="886" 
d="M406 66q86 0 142 48t56 112t-47 117t-195 130q-247 128 -247 305q0 124 92 196q92 73 214 74q190 2 329 -47q-20 -161 -52 -268h-51l-78 209q-40 16 -98 16q-124 0 -162 -94q-10 -28 -10 -68t45 -90t198 -130q153 -81 211 -169q35 -53 35 -127q-1 -137 -110 -221
q-110 -84 -264 -84t-320 60q8 142 56 274h51l90 -223q28 -20 115 -20zM662 1630q18 2 35 -8t24 -25l-254 -378q-30 -12 -51 0l-248 376q8 17 28 27t42 8l219 -217z" />
    <glyph glyph-name="Tcedilla" unicode="&#x162;" horiz-adv-x="1267" 
d="M922 0h-246l-60 -154q123 -2 181.5 -46t58.5 -110q0 -116 -115.5 -181.5t-255.5 -65.5v68q195 28 191 137q-2 57 -47 82.5t-137 31.5l79 238h-225v59q96 34 191 50v1218h-314l-108 -293h-52q-24 164 -24 400h1190q0 -102 -8.5 -229.5t-14.5 -170.5h-53l-106 293h-314
v-1218q132 -25 189 -50v-59z" />
    <glyph glyph-name="tcedilla" unicode="&#x163;" horiz-adv-x="739" 
d="M352 1274h27v-250h287v-102h-287v-594q0 -123 28.5 -174.5t106.5 -51.5q118 0 186 25l15 -31q-63 -71 -153.5 -96t-137.5 -25l-43 -114q209 -7 217 -146q4 -110 -103.5 -171.5t-230.5 -57.5v61q174 21 170 129q-2 58 -43 80.5t-125 28.5l70 203q-76 23 -108.5 91
t-32.5 191v652h-164v53q78 49 164 69v156q87 74 157 74z" />
    <glyph glyph-name="Tcaron" unicode="&#x164;" horiz-adv-x="1267" 
d="M922 0h-576v59q96 34 191 50v1218h-314l-108 -293h-52q-24 164 -24 400h1190q0 -235 -23 -400h-53l-106 293h-314v-1218q132 -25 189 -50v-59zM350 1778q23 40 51 41l240 -113l227 113q34 0 52 -35l-261 -230q-28 -11 -53 0z" />
    <glyph glyph-name="tcaron" unicode="&#x165;" horiz-adv-x="759" 
d="M195 922h-164v53q78 49 164 69v175q27 23 63 39t70 34h51v-268h307v-102h-307v-594q0 -123 39 -174t117 -52q116 0 186 25l14 -31q-33 -37 -115 -78t-174 -43q-253 0 -251 295v652zM477 1112q43 92 66 200t22 191l25 33q56 8 132 -28q22 -9 34 -19q-27 -155 -167 -325
q-38 -44 -71 -74z" />
    <glyph glyph-name="Umacron" unicode="&#x16a;" horiz-adv-x="1376" 
d="M20 1434h521v-60q-55 -22 -156 -51v-838q0 -303 204 -361q67 -19 150 -20q342 0 342 383v818q-105 36 -161 69v60h436v-60q-87 -51 -160 -69v-822q0 -249 -128 -376t-353 -125q-525 0 -527 471v870q-84 12 -168 51v60zM420 1614v106h616v-106h-616z" />
    <glyph glyph-name="umacron" unicode="&#x16b;" horiz-adv-x="1175" 
d="M512 -25q-98 -1 -160 19q-194 60 -194 412l12 499l-135 17v53q114 43 268 74h51l-12 -607q0 -174 46 -257t152 -83q105 0 168 67q62 67 97 173v563l-133 17v53q106 42 266 74h51v-932l135 -17v-43q-130 -60 -245 -77h-52l-14 243h-8q-22 -96 -109 -172q-86 -76 -184 -76z
M328 1305v106h518v-106h-518z" />
    <glyph glyph-name="Ubreve" unicode="&#x16c;" horiz-adv-x="1376" 
d="M20 1434h521v-60q-55 -22 -156 -51v-838q0 -303 204 -361q67 -19 150 -20q342 0 342 383v818q-105 36 -161 69v60h436v-60q-87 -51 -160 -69v-822q0 -249 -128 -376t-353 -125q-525 0 -527 471v870q-84 12 -168 51v60zM719 1698q160 -5 235 110q33 4 66 -28
q-61 -152 -205 -207q-47 -18 -98 -19q-111 0 -194 60t-122 170q25 39 86 31q40 -71 166 -108q35 -9 66 -9z" />
    <glyph glyph-name="ubreve" unicode="&#x16d;" horiz-adv-x="1175" 
d="M512 -25q-98 -1 -160 19q-194 60 -194 412l12 499l-135 17v53q114 43 268 74h51l-12 -607q0 -174 46 -257t152 -83q105 0 168 67q62 67 97 173v563l-133 17v53q106 42 266 74h51v-932l135 -17v-43q-130 -60 -245 -77h-52l-14 243h-8q-22 -96 -109 -172q-86 -76 -184 -76z
M862 1473q-44 -109 -92 -157q-94 -94 -182 -93q-149 0 -238 152q-27 46 -45 102l57 26q41 -79 162 -122q35 -11 66 -11q139 -4 223 125z" />
    <glyph glyph-name="Uring" unicode="&#x16e;" horiz-adv-x="1376" 
d="M20 1434h521v-60q-55 -22 -156 -51v-838q0 -303 204 -361q67 -19 150 -20q342 0 342 383v818q-105 36 -161 69v60h436v-60q-87 -51 -160 -69v-822q0 -249 -128 -376t-353 -125q-525 0 -527 471v870q-84 12 -168 51v60zM727 1536q119 0 119 76q0 54 -37 74t-82 20
q-111 0 -111 -92q0 -42 36 -60t75 -18zM731 1452q-100 0 -165 42q-64 42 -64 122t68 128q68 46 162 46q93 0 160 -42t68 -124t-64 -127t-165 -45z" />
    <glyph glyph-name="uring" unicode="&#x16f;" horiz-adv-x="1175" 
d="M512 -25q-98 -1 -160 19q-194 60 -194 412l12 499l-135 17v53q114 43 268 74h51l-12 -607q0 -174 46 -257t152 -83q105 0 168 67q62 67 97 173v563l-133 17v53q106 42 266 74h51v-932l135 -17v-43q-130 -60 -245 -77h-52l-14 243h-8q-22 -96 -109 -172q-86 -76 -184 -76z
M496 1403q0 -53 28 -79t65 -26t63 24t26 77t-25 84t-65 30q-92 0 -92 -110zM389 1398q0 85 58 142q59 57 143 57t140 -51t56 -138t-58 -140q-58 -52 -143 -53t-141 49t-55 134z" />
    <glyph glyph-name="Uhungarumlaut" unicode="&#x170;" horiz-adv-x="1376" 
d="M20 1434h521v-60q-55 -22 -156 -51v-838q0 -303 204 -361q67 -19 150 -20q342 0 342 383v818q-105 36 -161 69v60h436v-60q-87 -51 -160 -69v-822q0 -249 -128 -376t-353 -125q-525 0 -527 471v870q-84 12 -168 51v60zM989 1819q33 5 95 -16q62 -20 77 -40l-2 -20
l-362 -195l-43 37zM633 1819q25 4 88 -12q64 -16 76 -38v-28l-269 -189l-39 37z" />
    <glyph glyph-name="uhungarumlaut" unicode="&#x171;" horiz-adv-x="1175" 
d="M512 -25q-98 -1 -160 19q-194 60 -194 412l12 499l-135 17v53q114 43 268 74h51l-12 -607q0 -174 46 -257t152 -83q105 0 168 67q62 67 97 173v563l-133 17v53q106 42 266 74h51v-932l135 -17v-43q-130 -60 -245 -77h-52l-14 243h-8q-22 -96 -109 -172q-86 -76 -184 -76z
M858 1573q62 9 140 -32q24 -11 34 -25v-27l-407 -264l-39 37zM504 1573q27 5 93 -10q65 -14 79 -33v-31l-283 -274l-47 32z" />
    <glyph glyph-name="Uogonek" unicode="&#x172;" horiz-adv-x="1376" 
d="M715 -18q-527 0 -527 471v870q-84 12 -168 51v60h521v-60q-71 -29 -156 -51v-838q0 -302 135 -341.5t219 -39.5q162 0 252 89.5t90 293.5v818q-97 33 -161 69v60h436v-60q-87 -51 -160 -69v-822q0 -361 -264 -467q-108 -55 -173 -129t-65 -163q0 -57 36 -94.5t100 -37.5
t114 13v-60q-74 -59 -178 -59t-172 56.5t-68 150.5t63.5 162.5t168.5 128.5q-10 -2 -13 -2h-30z" />
    <glyph glyph-name="uogonek" unicode="&#x173;" horiz-adv-x="1175" 
d="M460 -25q-20 0 -38 5q-136 17 -200 115t-64 311l12 499l-135 17v53q195 74 293 74h26l-12 -607q0 -174 46.5 -257t151.5 -83t167.5 67t97.5 173v563l-133 17v53q108 43 266 74h51v-932l135 -17v-43q-31 -12 -96 -41q-188 -103 -188 -258q0 -45 30.5 -84t80 -39t118.5 19
v-68q-74 -41 -176 -41q-101 0 -162 51.5t-61 129.5q0 148 190 254h-33l-14 243h-8q-22 -93 -108 -170.5t-197 -77.5h-40z" />
    <glyph glyph-name="Ydieresis" unicode="&#x178;" horiz-adv-x="1318" 
d="M868 1434h451v-60q-78 -39 -156 -51l-387 -713v-501q80 -10 156 -50v-59h-520v59q74 37 168 50v499l-414 715q-71 12 -166 51v60h543v-60q-75 -29 -158 -51l336 -602l315 602q-76 16 -168 51v60zM819 1617q0 48 33 73q33 24 83 24t83 -24t33 -73q0 -48 -33 -73
q-33 -24 -83 -24t-83 24t-33 73zM362 1617q0 48 33 73q33 24 83 24t83 -24t33 -73q0 -48 -33 -73q-33 -24 -83 -24t-83 24t-33 73z" />
    <glyph glyph-name="Zacute" unicode="&#x179;" horiz-adv-x="1249" 
d="M80 0v104l852 1223h-631l-125 -287h-51q-25 179 -25 394h1047v-107l-848 -1221h668l125 287h53q31 -211 22 -393h-1087zM823 1829q41 5 108 -16q67 -20 91 -50v-41l-463 -186l-35 39z" />
    <glyph glyph-name="zacute" unicode="&#x17a;" horiz-adv-x="999" 
d="M88 0v51l584 883h-387l-90 -242h-52q-22 121 -22 332h770v-53l-586 -881h400l110 260h51q32 -196 25 -350h-803zM606 1571q32 4 97 -10q66 -14 92 -35v-39l-383 -309l-45 36z" />
    <glyph glyph-name="Zdotaccent" unicode="&#x17b;" horiz-adv-x="1249" 
d="M80 0v104l852 1223h-631l-125 -287h-51q-25 179 -25 394h1047v-107l-848 -1221h668l125 287h53q31 -211 22 -393h-1087zM485 1673q0 53 39 82t94 29q54 0 92 -29t38 -82t-37 -82t-93 -29t-94 30q-39 28 -39 81z" />
    <glyph glyph-name="zdotaccent" unicode="&#x17c;" horiz-adv-x="999" 
d="M88 0v51l584 883h-387l-90 -242h-52q-22 121 -22 332h770v-53l-586 -881h400l110 260h51q32 -196 25 -350h-803zM369 1372q0 55 35 88q36 33 96 33t94 -33q35 -33 35 -88t-35 -87t-94 -32t-96 32q-35 32 -35 87z" />
    <glyph glyph-name="Zcaron" unicode="&#x17d;" horiz-adv-x="1249" 
d="M80 0v104l852 1223h-631l-125 -287h-51q-25 179 -25 394h1047v-107l-848 -1221h668l125 287h53q31 -211 22 -393h-1087zM342 1778q23 40 51 41l240 -113l227 113q36 0 51 -35l-260 -230q-28 -11 -53 0z" />
    <glyph glyph-name="zcaron" unicode="&#x17e;" horiz-adv-x="999" 
d="M88 0v51l584 883h-387l-90 -242h-52q-22 121 -22 332h770v-53l-586 -881h400l110 260h51q32 -196 25 -350h-803zM719 1630q17 2 35 -8t24 -25l-254 -378q-29 -12 -51 0l-248 376q9 17 29 27t41 8l219 -217z" />
    <glyph glyph-name="longs" unicode="&#x17f;" horiz-adv-x="700" 
d="M403 1126v-1026q106 -12 197 -49v-51h-516v51q63 37 135 49v822h-156v53q72 45 156 67v72q0 347 161 386.5t263 39.5t172 -27q-12 -133 -45 -231h-51l-90 176q-125 0 -175.5 -64t-50.5 -268z" />
    <glyph glyph-name="florin" unicode="&#x192;" 
d="M920 1540q91 0 155 -33q-5 -114 -78 -176l-155 127q-37 -10 -69 -22.5t-73.5 -63t-83.5 -246.5l-20 -102h227q10 -51 -22 -102h-228l-129 -834q-39 -247 -162 -371t-233 -151l-14 39q61 30 133.5 144.5t101.5 299.5l131 873h-149v53q77 43 174 67l14 72
q74 347 231.5 386.5t248.5 39.5z" />
    <glyph glyph-name="uni01F4" unicode="&#x1f4;" horiz-adv-x="1409" 
d="M109 721q0 374 214 568q184 169 456 169q271 0 409 -69q0 -162 -31 -353h-53l-107 295q-40 21 -161 21q-238 0 -382 -164q-143 -164 -143 -460t149 -471t374 -175q116 0 205 51q22 12 30 21v413q-65 5 -197 49v60h502v-60q-43 -30 -127 -49v-469q-128 -76 -318 -111
q-58 -11 -110 -12q-513 0 -660 410q-50 139 -50 336zM961 1829q77 9 160 -38q26 -13 38 -28v-41l-463 -186l-34 39z" />
    <glyph glyph-name="uni01F5" unicode="&#x1f5;" horiz-adv-x="1077" 
d="M283 719q0 -239 223 -242q119 0 170 70q51 71 51 177t-50 170t-173 64t-172 -62t-49 -177zM549 -344q207 0 248 108q12 32 12 84q0 132 -295 195q-76 16 -141 37q-78 -47 -103 -99t-24 -108q0 -217 303 -217zM506 387q-59 0 -119 8q-10 -18 -23 -41q-42 -74 33 -111
q57 -29 206 -64t221 -69q166 -79 169 -227q4 -148 -131 -233q-135 -86 -354 -85t-333 77t-114 190q0 152 150 222q49 24 113 44q-105 47 -105 144q0 47 40 93t81 73q-117 30 -179 116q-63 86 -63 176q-1 161 106 255t310 94t305 -88q121 82 252 118q31 -45 31 -116l-27 -50
h-215q51 -73 51 -207t-103 -226t-302 -93zM684 1571q32 4 99 -10q66 -14 89 -35v-39l-383 -309l-45 36z" />
    <glyph glyph-name="Scommaaccent" unicode="&#x218;" horiz-adv-x="1097" 
d="M307 141q59 -59 189 -59t217 71q88 71 88 189q0 82 -50 137t-125 99t-163 84q-88 41 -163 97t-125 135q-50 80 -50 182q0 185 119 284q119 100 307 98q252 0 391 -67q0 -139 -49 -353h-53l-82 281q-71 31 -213 33q-103 0 -167 -58t-64 -154q0 -94 50 -151t126 -102
t162 -87q87 -42 163 -98t126 -131q50 -76 50 -178q0 -197 -131 -307q-131 -111 -364 -111q-130 0 -232 31t-145 66q11 196 51 370h53zM692 -288q0 -94 -60 -167q-60 -74 -169 -102l-31 70q37 16 73 55t30 98q-41 32 -136 66q-19 62 27 117q40 53 88 55q70 -6 124 -52
t54 -140z" />
    <glyph glyph-name="scommaaccent" unicode="&#x219;" horiz-adv-x="886" 
d="M406 66q86 0 142 48t56 112t-47 117t-195 130q-247 128 -247 305q0 124 92 196q92 73 214 74q190 2 329 -47q-20 -161 -52 -268h-51l-78 209q-40 16 -98 16q-124 0 -162 -94q-10 -28 -10 -68t45 -90t198 -130q153 -81 211 -169q35 -53 35 -127q-1 -137 -110 -221
q-110 -84 -264 -84t-320 60q8 142 56 274h51l90 -223q28 -20 115 -20zM557 -288q0 -94 -63 -169q-63 -76 -158 -98l-33 72q113 45 113 149q-46 36 -133 68q-17 58 22 113q40 55 90 57q68 -6 115 -52t47 -140z" />
    <glyph glyph-name="Tcommaaccent" unicode="&#x21a;" horiz-adv-x="1267" 
d="M922 0h-576v59q96 34 191 50v1218h-314l-108 -293h-52q-24 164 -24 400h1190q0 -235 -23 -400h-53l-106 293h-314v-1218q132 -25 189 -50v-59zM532 -487q37 16 73 55t30 98q-40 31 -135 66q-18 60 24 115t90 57q70 -6 124 -52t54 -140t-60 -167q-60 -74 -169 -102z" />
    <glyph glyph-name="tcommaaccent" unicode="&#x21b;" horiz-adv-x="759" 
d="M195 922h-164v53q78 49 164 69v175q27 23 63 39t70 34h51v-268h307v-102h-307v-594q0 -123 39 -174t117 -52q116 0 186 25l14 -31q-33 -37 -115 -78t-174 -43q-253 0 -251 295v652zM539 -288q1 -94 -63 -169q-64 -76 -159 -98l-32 72q63 25 88 67t24 82q-49 38 -133 68
q-18 59 26 115q37 53 87 55q68 -6 115 -52t47 -140z" />
    <glyph glyph-name="uni0237" unicode="&#x237;" horiz-adv-x="589" 
d="M401 1049v-961q0 -250 -102 -373t-203 -149l-24 39q94 45 119.5 191.5t25.5 252.5v856l-135 17v53q92 45 268 74h51z" />
    <glyph glyph-name="afii57929" unicode="&#x2bc;" horiz-adv-x="577" 
d="M123 971q80 25 132 84t42 137q-27 21 -135 68q-18 60 24 115t90 57q68 -6 123 -52t55 -144q0 -97 -82 -199q-83 -101 -214 -136z" />
    <glyph glyph-name="circumflex" unicode="&#x2c6;" horiz-adv-x="755" 
d="M182 1208l-59 33l225 381q29 17 51 0l234 -379l-55 -35l-211 219z" />
    <glyph glyph-name="caron" unicode="&#x2c7;" horiz-adv-x="798" 
d="M616 1630q18 2 36 -8t24 -25l-254 -378q-30 -12 -51 0l-248 376q8 16 28.5 26.5t41.5 8.5l219 -217z" />
    <glyph glyph-name="breve" unicode="&#x2d8;" horiz-adv-x="802" 
d="M404 1223q-100 0 -172.5 70t-108.5 184l57 26q25 -48 95 -90.5t133 -42.5q139 -4 223 125l49 -22q-44 -110 -91.5 -157.5t-89.5 -70t-95 -22.5z" />
    <glyph glyph-name="dotaccent" unicode="&#x2d9;" horiz-adv-x="505" 
d="M123 1372q0 55 36 88t95 33t94 -33t35 -88t-35 -87t-94 -32t-95 32t-36 87z" />
    <glyph glyph-name="ring" unicode="&#x2da;" horiz-adv-x="643" 
d="M322 1513q-93 0 -93 -110q0 -53 27.5 -79t65.5 -26t64 24t26 77t-25 83.5t-65 30.5zM123 1398q0 85 58.5 142t142.5 57t140 -51t56 -137t-58.5 -140.5t-143.5 -54.5q-84 0 -139.5 49.5t-55.5 134.5z" />
    <glyph glyph-name="ogonek" unicode="&#x2db;" horiz-adv-x="651" 
d="M123 -274q0 194 330 315h75q-107 -50 -170 -122t-63 -156t43 -106t80 -22t104 19v-68q-74 -41 -175 -41t-162.5 51.5t-61.5 129.5z" />
    <glyph glyph-name="tilde" unicode="&#x2dc;" horiz-adv-x="874" 
d="M530 1260q-48 0 -105.5 23.5t-87.5 34.5t-75 11t-100 -49l-39 57q128 121 242 121q54 0 128.5 -32.5t123.5 -32.5t108 41l27 -58q-116 -116 -222 -116z" />
    <glyph glyph-name="hungarumlaut" unicode="&#x2dd;" horiz-adv-x="931" 
d="M635 1573q55 8 109.5 -17.5t64.5 -39.5v-27l-408 -264l-39 37zM281 1573q55 9 110 -13t62 -30v-31l-283 -274l-47 32z" />
    <glyph glyph-name="acutecomb" unicode="&#x301;" horiz-adv-x="4" 
d="M-377 1571q32 4 98 -10t91 -35v-39l-383 -309l-45 36z" />
    <glyph glyph-name="uni0394" unicode="&#x394;" horiz-adv-x="1327" 
d="M627 1153l-441 -1028h863zM41 0v63l600 1371h57l588 -1371v-63h-1245z" />
    <glyph glyph-name="uni0394" unicode="&#x2206;" horiz-adv-x="1327" 
d="M627 1153l-441 -1028h863zM41 0v63l600 1371h57l588 -1371v-63h-1245z" />
    <glyph glyph-name="uni03A9" unicode="&#x3a9;" horiz-adv-x="1632" 
d="M1516 0h-578v170q49 20 106.5 69.5t139.5 176t82 366.5q0 241 -112.5 405.5t-334.5 164.5t-335 -157.5t-113 -395.5t87 -372t147.5 -186.5t109.5 -70.5v-170h-598q0 150 22 397h51l91 -241h325q-195 72 -323.5 232t-128.5 384q0 312 183 499t495 187t481.5 -179.5
t169.5 -485.5q0 -234 -133 -403.5t-306 -233.5h306l92 241h51q23 -259 23 -397z" />
    <glyph glyph-name="uni03A9" unicode="&#x2126;" horiz-adv-x="1632" 
d="M1516 0h-578v170q49 20 106.5 69.5t139.5 176t82 366.5q0 241 -112.5 405.5t-334.5 164.5t-335 -157.5t-113 -395.5t87 -372t147.5 -186.5t109.5 -70.5v-170h-598q0 150 22 397h51l91 -241h325q-195 72 -323.5 232t-128.5 384q0 312 183 499t495 187t481.5 -179.5
t169.5 -485.5q0 -234 -133 -403.5t-306 -233.5h306l92 241h51q23 -259 23 -397z" />
    <glyph glyph-name="pi" unicode="&#x3c0;" horiz-adv-x="1259" 
d="M807 -18v913h-391v-389q0 -292 -82 -506q-25 -14 -114 -11.5t-89 11.5l-10 16q88 137 142 397.5t54 481.5h-34q-119 0 -211 -121l-27 17q24 121 65.5 164.5t93.5 63t134 17.5l573 -12q144 0 189.5 9t85.5 44l28 -18q-8 -66 -53 -115t-133 -49h-24v-776l135 -17v-43
q-112 -51 -281 -77h-51z" />
    <glyph glyph-name="afii10023" unicode="&#x401;" horiz-adv-x="1191" 
d="M424 1327v-543h334l80 152h51q12 -203 0 -414h-51l-80 156h-334v-572h471l100 246h52q30 -182 22 -352h-1010v59q72 33 168 50v1214q-75 15 -168 51v60h971q-5 -185 -22 -332h-54l-84 225h-446zM715 1617q0 48 33 73q32 24 82 24t83 -24t33 -73q0 -48 -33 -73
q-33 -24 -83 -24t-82 24t-33 73zM258 1617q0 48 33 73q33 24 83 24t83 -24t33 -73q0 -48 -34 -73q-32 -24 -82 -24t-83 24t-33 73z" />
    <glyph glyph-name="afii10051" unicode="&#x402;" horiz-adv-x="1538" 
d="M713 797q163 92 352 92t291 -85.5t102 -316.5q0 -410 -164 -451.5t-256 -41.5l-12 55q119 27 177.5 115t58.5 305q0 143 -57.5 228t-204.5 85t-287 -86v-587q71 -18 145 -50v-59h-530v59q89 33 188 50v1218h-313l-107 -293h-53q-9 60 -16 209.5t-7 190.5h1188
q0 -76 -8 -213.5t-14 -180.5h-53l-107 287h-313v-530z" />
    <glyph glyph-name="afii10052" unicode="&#x403;" horiz-adv-x="1038" 
d="M59 1434h959q0 -40 -2 -94t-5 -149t-16 -171h-53l-106 307h-412v-1218q100 -16 197 -50v-59h-562v59q82 33 168 50v1214q-75 15 -168 51v60zM756 1829q77 9 160 -38q26 -13 38 -28v-41l-462 -186l-35 39z" />
    <glyph glyph-name="afii10053" unicode="&#x404;" horiz-adv-x="1316" 
d="M109 721q0 373 193 555t493 182q247 0 389 -69q0 -152 -31 -353h-53l-107 295q-40 21 -158 21q-224 0 -368.5 -149t-155.5 -435l672 29q27 -82 8 -160q-72 6 -159 11t-227.5 13.5t-293.5 8.5q12 -271 155 -429.5t386 -158.5q142 0 172 37l96 254h54q29 -166 22 -314
q-104 -84 -358 -84q-533 0 -631 274.5t-98 471.5z" />
    <glyph glyph-name="afii10054" unicode="&#x405;" horiz-adv-x="1097" 
d="M307 141q59 -59 189 -59t217 71q88 71 88 189q0 82 -50 137t-125 99t-163 84q-88 41 -163 97t-125 135q-50 80 -50 182q0 185 119 284q119 100 307 98q252 0 391 -67q0 -139 -49 -353h-53l-82 281q-71 31 -213 33q-103 0 -167 -58t-64 -154q0 -94 50 -151t126 -102
t162 -87q87 -42 163 -98t126 -131q50 -76 50 -178q0 -197 -131 -307q-131 -111 -364 -111q-130 0 -232 31t-145 66q11 196 51 370h53z" />
    <glyph glyph-name="afii10055" unicode="&#x406;" horiz-adv-x="720" 
d="M623 0h-525v59q80 37 164 50v1214q-67 13 -164 51v60h525v-60q-70 -30 -164 -51v-1214q99 -18 164 -50v-59z" />
    <glyph glyph-name="afii10056" unicode="&#x407;" horiz-adv-x="720" 
d="M623 0h-525v59q80 37 164 50v1214q-67 13 -164 51v60h525v-60q-80 -35 -164 -51v-1214q99 -18 164 -50v-59zM426 1617q0 48 33 72.5t83 24.5t81.5 -24.5t31.5 -72.5t-31.5 -72.5t-81.5 -24.5t-83 24.5t-33 72.5zM66 1617q0 48 31.5 72.5t81.5 24.5t83 -24.5t33 -72.5
t-33 -72.5t-83 -24.5t-81.5 24.5t-31.5 72.5z" />
    <glyph glyph-name="afii10057" unicode="&#x408;" horiz-adv-x="698" 
d="M80 1434h520v-60q-79 -34 -156 -51v-1147q0 -250 -113 -384q-80 -93 -202 -120l-23 31q71 62 96 129q46 123 46 322v1169q-103 23 -168 51v60z" />
    <glyph glyph-name="afii10058" unicode="&#x409;" horiz-adv-x="1886" 
d="M1587 449q0 313 -334 313q-103 0 -139 -10v-643q22 -9 36 -9h110q143 0 235 86t92 263zM762 0v59q78 37 156 50v1218h-383q-21 -834 -111 -1010t-135 -234q-84 -108 -219 -108q-27 31 -56.5 104.5t-33.5 133.5l30 51l236 -43q112 184 140 514t28 578q-127 20 -209 61v60
h1089v-60q-90 -37 -180 -51v-469q129 14 207 14q208 0 346.5 -94t138.5 -321q0 -228 -157 -343.5t-379 -115.5l-256 6h-252z" />
    <glyph glyph-name="afii10059" unicode="&#x40a;" horiz-adv-x="2035" 
d="M1300 100h109q232 0 280 118t48 202q0 141 -83 220t-249 79q-106 0 -141 -10v-600q22 -9 36 -9zM913 0v59q90 40 154 50v600h-643v-600q85 -17 154 -50v-59h-519v59q82 33 168 50v1214q-96 14 -168 51v60h519v-60q-66 -34 -154 -51v-508h643v508q-62 15 -154 51v60h531
v-60q-90 -37 -180 -51v-510q86 14 184 14q508 0 508 -407q0 -220 -156 -323t-381 -103l-256 6h-250z" />
    <glyph glyph-name="afii10060" unicode="&#x40b;" horiz-adv-x="1587" 
d="M516 1327h-313l-107 -293h-53q-9 60 -16 209.5t-7 190.5h1188q0 -76 -8 -213.5t-14 -178.5h-53l-107 285h-313v-530q163 92 342 92q178 0 271 -83.5t93 -299.5v-397q74 -12 148 -50v-59h-344v469q0 231 -82 272t-150 41q-138 0 -278 -86v-587q71 -18 145 -50v-59h-530v59
q89 33 188 50v1218z" />
    <glyph glyph-name="afii10061" unicode="&#x40c;" horiz-adv-x="1323" 
d="M782 1434h453v-60q-78 -34 -156 -51l-411 -545q110 -147 406 -505q77 -91 151 -173l98 -49v-51h-256l-70 49q-206 240 -473 637h-100v-577q94 -16 154 -50v-59h-519v59q82 33 168 50v1214q-92 12 -168 51v60h519v-60q-69 -29 -154 -51v-567l123 28l383 539
q-86 21 -148 51v60zM858 1829q41 5 108 -16q67 -20 91 -50v-41l-463 -186l-35 39z" />
    <glyph glyph-name="afii10062" unicode="&#x40e;" horiz-adv-x="1351" 
d="M895 1434h457v-60q-60 -27 -148 -51l-401 -911q-92 -237 -181 -342t-200 -80q-47 71 -66 221l31 51l211 -55q36 36 66 139l-510 977q-89 23 -154 51v60h539v-60q-73 -29 -166 -51l340 -678l43 -131h4l41 135l268 674q-102 18 -174 51v60zM721 1575q98 0 162 22v181l51 26
q31 2 75 -11t70 -34q0 -181 -194 -239q-68 -21 -164 -21q-188 0 -276 75q-87 75 -87 185q40 40 154 45l51 -26v-174q60 -29 158 -29z" />
    <glyph glyph-name="afii10145" unicode="&#x40f;" horiz-adv-x="1470" 
d="M59 1434h519v-60q-70 -31 -154 -51v-1217h623v1217q-111 25 -154 51v60h518v-60q-94 -44 -168 -51v-1214q115 -21 168 -50v-59h-580q-22 -179 -69 -391h-53q-29 145 -70 391h-580v59q82 33 168 50v1214q-96 14 -168 51v60z" />
    <glyph glyph-name="afii10017" unicode="&#x410;" horiz-adv-x="1398" 
d="M455 590h413l-161 434l-39 176h-4l-52 -180zM455 0h-455v59q74 33 147 50l519 1349h59l518 -1349q108 -21 156 -50v-59h-525v59q77 30 168 50l-139 374h-489l-135 -374q86 -12 176 -50v-59z" />
    <glyph glyph-name="afii10018" unicode="&#x411;" horiz-adv-x="1228" 
d="M901 428q0 152 -84 232.5t-252 80.5q-93 0 -141 -10v-622q23 -9 37 -9h110q233 0 281.5 122t48.5 206zM59 1434h981q4 -182 -22 -371h-53l-107 264h-434v-493q129 14 208 14q78 0 170.5 -21.5t205 -99.5t112.5 -295q0 -216 -152.5 -327t-387.5 -111l-261 6h-260v59
q80 37 168 50v1214q-75 13 -168 51v60z" />
    <glyph glyph-name="afii10019" unicode="&#x412;" horiz-adv-x="1259" 
d="M412 782h102q94 0 162 11q94 33 154 105t60 190q0 116 -80 184q-81 68 -211 68t-187 -9v-549zM565 676h-153v-565q62 -17 165 -17q264 0 351 181q26 56 26 130q-2 271 -389 271zM59 0v59q82 39 168 50v1214q-75 15 -168 51v60h217l336 12q475 0 475 -340
q0 -183 -151 -287q-51 -35 -121 -51v-8q223 -37 306 -205q30 -61 30 -159t-49 -179q-49 -80 -128 -131q-155 -100 -382 -98l-336 12h-197z" />
    <glyph glyph-name="afii10020" unicode="&#x413;" horiz-adv-x="1038" 
d="M1018 1434q0 -249 -23 -414h-53l-106 307h-412v-1218q100 -16 197 -50v-59h-562v59q82 33 168 50v1214q-75 15 -168 51v60h959z" />
    <glyph glyph-name="afii10021" unicode="&#x414;" horiz-adv-x="1402" 
d="M940 106v1221h-395q-38 -791 -246 -1221h641zM1137 106h233q0 -135 -41 -415h-53l-86 309h-1010l-86 -309h-51q-22 85 -32.5 230t-10.5 185h170q109 178 182.5 524t73.5 683q-120 23 -209 61v60h1088v-60q-89 -35 -168 -51v-1217z" />
    <glyph glyph-name="afii10022" unicode="&#x415;" horiz-adv-x="1191" 
d="M424 1327v-543h334l80 152h51q12 -203 0 -414h-51l-80 156h-334v-572h471l100 246h52q30 -182 22 -352h-1010v59q72 33 168 50v1214q-75 15 -168 51v60h971q-5 -185 -22 -332h-54l-84 225h-446z" />
    <glyph glyph-name="afii10024" unicode="&#x416;" horiz-adv-x="1939" 
d="M723 1434h475v-60q-40 -19 -133 -51v-567l139 28l344 539l-147 51v60h450v-60q-67 -29 -153 -51l-373 -545q53 -68 112.5 -151.5t167 -234.5t238.5 -292l96 -49v-51h-256l-69 51q-121 141 -220.5 304t-209.5 331h-119v-577q87 -25 133 -50v-59h-477v59q61 33 147 50v596
l-123 -31q-111 -168 -205 -324.5t-214 -298.5l-70 -51h-256v51l96 49q220 237 512 660l-385 563q-84 25 -145 51v60h452v-60q-72 -35 -139 -51l346 -551h131v551q-93 26 -145 51v60z" />
    <glyph glyph-name="afii10025" unicode="&#x417;" horiz-adv-x="1134" 
d="M460 82q108 0 170 24.5t131.5 89.5t69.5 210t-87 212.5t-224 67.5l-158 -22q-14 63 -2 118h66q93 0 166 11q194 69 194 295q0 116 -76.5 190t-207.5 74t-166 -39l-107 -250h-53q-26 143 -22 311q104 84 356 84q320 0 396.5 -123t76.5 -228t-60.5 -196.5t-191.5 -142.5v-8
q207 -34 252 -151t45 -215t-44 -179.5t-153.5 -160.5t-339.5 -79q-229 0 -389 80q0 148 52 342h53l86 -286q59 -29 167 -29z" />
    <glyph glyph-name="afii10026" unicode="&#x418;" horiz-adv-x="1513" 
d="M578 0h-519v59q82 37 168 50v1214q-99 24 -168 51v60h519v-60q-67 -32 -154 -51v-889l-23 -153l99 161l600 832v49q-82 18 -166 51v60h520v-60q-65 -28 -168 -51v-1214q96 -16 168 -50v-59h-520v59q85 36 156 50v886l20 154l-90 -154l-608 -841v-45q97 -17 166 -50v-59z
" />
    <glyph glyph-name="afii10027" unicode="&#x419;" horiz-adv-x="1513" 
d="M578 0h-519v59q82 37 168 50v1214q-99 24 -168 51v60h519v-60q-60 -29 -154 -51v-889l-23 -153l99 161l600 832v49q-82 18 -166 51v60h520v-60q-53 -23 -168 -51v-1214q96 -16 168 -50v-59h-520v59q84 36 156 50v886l20 154l-90 -154l-608 -841v-45q97 -17 166 -50v-59z
M768 1575q98 0 162 22v181l51 26q31 2 75 -11t70 -34q0 -181 -194 -239q-68 -21 -164 -21q-188 0 -275 75t-87 185q40 40 153 45l51 -26v-174q60 -29 158 -29z" />
    <glyph glyph-name="afii10028" unicode="&#x41a;" horiz-adv-x="1323" 
d="M782 1434h453v-60q-78 -34 -156 -51l-411 -545q110 -147 406 -505q77 -91 151 -173l98 -49v-51h-256l-70 49q-206 240 -473 637h-100v-577q94 -16 154 -50v-59h-519v59q82 33 168 50v1214q-92 12 -168 51v60h519v-60q-69 -29 -154 -51v-567l123 28l383 539
q-86 21 -148 51v60z" />
    <glyph glyph-name="afii10029" unicode="&#x41b;" horiz-adv-x="1341" 
d="M918 1327h-383q-21 -834 -111 -1010t-135 -234q-84 -108 -219 -108q-27 31 -56.5 104.5t-33.5 133.5l30 51l236 -43q112 184 140 514t28 578q-127 20 -209 61v60h1077v-60q-72 -37 -168 -51v-1214q96 -16 168 -50v-59h-520v59q50 21 156 50v1218z" />
    <glyph glyph-name="afii10030" unicode="&#x41c;" horiz-adv-x="1775" 
d="M1714 0h-508v59q56 22 166 50v921l8 240h-16l-68 -219l-419 -1051h-54l-399 1051l-74 239h-18l2 -260v-921q80 -16 155 -50v-59h-428v59q86 35 166 52v1212q-71 13 -168 51v60h420l357 -936l69 -211h2l70 215l369 932h370v-60q-78 -34 -155 -51v-1217q91 -17 153 -47v-59
z" />
    <glyph glyph-name="afii10031" unicode="&#x41d;" horiz-adv-x="1490" 
d="M578 0h-519v59q82 33 168 50v1214q-96 14 -168 51v60h519v-60q-66 -34 -154 -51v-535h643v535q-86 20 -154 51v60h519v-60q-56 -30 -168 -51v-1214q100 -17 168 -50v-59h-519v59q74 33 154 50v573h-643v-573q85 -17 154 -50v-59z" />
    <glyph glyph-name="afii10032" unicode="&#x41e;" horiz-adv-x="1515" 
d="M328 717q0 -131 28 -247q57 -241 222 -338q84 -50 193 -50t187 50t128 136q102 175 102 452t-109 445q-120 187 -336 187t-321 -187q-94 -165 -94 -448zM109 717q0 160 44 296q90 278 330 390q121 55 275 55q304 0 476 -207q173 -207 173 -533q0 -327 -173 -534
t-476 -208q-304 -1 -477 206q-172 207 -172 535z" />
    <glyph glyph-name="afii10033" unicode="&#x41f;" horiz-adv-x="1470" 
d="M1411 0h-518v59q45 29 154 50v1218h-623v-1218q80 -16 154 -50v-59h-519v59q64 33 168 50v1214q-75 15 -168 51v60h1352v-60q-60 -31 -168 -51v-1214q82 -10 168 -50v-59z" />
    <glyph glyph-name="afii10034" unicode="&#x420;" horiz-adv-x="1220" 
d="M546 659q178 0 277 88t99 259q0 170 -96 254t-263 83q-92 0 -139 -10v-663q27 -11 122 -11zM621 0h-562v59q49 24 168 50v1214q-75 13 -168 51v60h185l362 16q365 0 489 -230q46 -85 46 -209q0 -229 -163 -344q-163 -114 -396 -114h-32q-86 0 -126 8v-452q94 -10 197 -50
v-59z" />
    <glyph glyph-name="afii10035" unicode="&#x421;" horiz-adv-x="1318" 
d="M311 724q0 -300 144 -471t397 -171q142 0 172 37l96 254h54q29 -166 22 -314q-97 -78 -358 -84q-533 0 -679 409q-50 140 -50 337q0 373 204 566q181 171 482 171q251 0 389 -69q0 -152 -31 -353h-53l-107 295q-40 21 -160 21q-235 0 -379 -164q-143 -164 -143 -464z" />
    <glyph glyph-name="afii10036" unicode="&#x422;" horiz-adv-x="1267" 
d="M922 0h-576v59q96 34 191 50v1218h-314l-108 -293h-52q-24 164 -24 400h1190q0 -235 -23 -400h-53l-106 293h-314v-1218q132 -25 189 -50v-59z" />
    <glyph glyph-name="afii10037" unicode="&#x423;" horiz-adv-x="1351" 
d="M895 1434h457v-60q-70 -31 -148 -51l-401 -911q-92 -237 -181 -342t-200 -80q-31 47 -47.5 121.5t-18.5 99.5l31 51l211 -55q33 33 66 139l-510 977q-89 23 -154 51v60h539v-60q-84 -34 -166 -51l340 -678l43 -131h4l41 135l268 674q-102 18 -174 51v60z" />
    <glyph glyph-name="afii10038" unicode="&#x424;" horiz-adv-x="1609" 
d="M613 317q69 0 104 11v805q-49 6 -107 6q-134 0 -236 -109t-102 -305t98 -302t243 -106zM994 317q142 0 242.5 104.5t100.5 304.5q0 199 -86.5 306t-244.5 107q-71 0 -113 -13v-802q36 -7 101 -7zM574 1235q91 0 141 -8v98q-92 20 -146 49v60h461v-60q-55 -28 -135 -49
v-104q55 14 162 14q212 0 342.5 -134.5t130.5 -371.5t-148.5 -372.5t-349.5 -135.5q-101 0 -137 15v-127q85 -21 135 -50v-59h-461v59q58 30 146 47v125q-65 -10 -161 -10q-198 0 -336 123.5t-138 368.5q0 244 110.5 348t201.5 139t182 35z" />
    <glyph glyph-name="afii10039" unicode="&#x425;" horiz-adv-x="1372" 
d="M494 0h-474v59q48 25 152 50l401 612l-385 602q-81 24 -161 51v60h542v-60q-44 -17 -155 -51l286 -463l279 463q-84 18 -170 51v60h471v-60q-74 -29 -154 -51l-360 -555l420 -659q98 -16 168 -50v-59h-545v59q74 37 156 50l-324 514l-311 -517q110 -15 164 -47v-59z" />
    <glyph glyph-name="afii10040" unicode="&#x426;" horiz-adv-x="1499" 
d="M883 1434h518v-60q-82 -35 -168 -51v-1217h235q0 -112 -17 -243t-26 -172h-51l-88 309h-1227v59q57 27 168 50v1214q-80 12 -168 51v60h519v-60q-59 -27 -154 -51v-1217h612v1217q-80 17 -153 51v60z" />
    <glyph glyph-name="afii10041" unicode="&#x427;" horiz-adv-x="1302" 
d="M1243 0h-520v59q83 39 188 50v526q-163 -92 -354 -92t-291 83t-100 298v399q-65 10 -148 51v60h480v-60q-75 -36 -136 -51v-360q0 -314 252 -314q165 0 297 84v590q-54 15 -145 51v60h477v-60q-72 -35 -135 -51v-1214q83 -16 135 -50v-59z" />
    <glyph glyph-name="afii10042" unicode="&#x428;" horiz-adv-x="1904" 
d="M723 1434h463v-60q-62 -30 -133 -51v-1217h452v1217q-72 20 -135 51v60h475v-60q-78 -35 -143 -51v-1214q84 -16 143 -50v-59h-1786v59q76 37 148 50v1214q-83 21 -148 51v60h478v-60q-53 -27 -134 -51v-1217h453v1217q-53 16 -133 51v60z" />
    <glyph glyph-name="afii10043" unicode="&#x429;" horiz-adv-x="1968" 
d="M1053 106h452v1217q-74 18 -135 51v60h475v-60q-59 -37 -143 -51v-1219h235q0 -105 -17 -238.5t-26 -174.5h-51l-88 309h-1696v59q72 35 148 50v1214q-72 12 -148 51v60h478v-60q-77 -37 -134 -51v-1217h453v1217q-98 32 -133 51v60h463v-60q-47 -30 -133 -51v-1217z" />
    <glyph glyph-name="afii10044" unicode="&#x42a;" horiz-adv-x="1478" 
d="M1180 449q0 313 -357 313q-105 0 -141 -10v-643q22 -9 36 -9h109q240 0 296.5 128t56.5 221zM317 0v59q72 33 168 50v1218h-264l-106 -293h-52q-17 125 -19.5 242t-4.5 158h823v-60q-86 -33 -180 -51v-469q130 14 184 14q533 0 533 -422q0 -227 -163 -339.5t-400 -112.5
l-256 6h-263z" />
    <glyph glyph-name="afii10045" unicode="&#x42b;" horiz-adv-x="1728" 
d="M897 438q0 324 -334 324q-105 0 -139 -10v-643q23 -9 36 -9h109q143 0 235.5 86t92.5 252zM59 0v59q80 37 168 50v1214q-99 24 -168 51v60h545v-60q-90 -37 -180 -51v-469q129 14 207 14q208 0 346.5 -94t138.5 -322t-158 -343t-378 -115l-256 6h-265zM1669 0h-520v59
q55 27 160 50v1214q-117 30 -160 51v60h520v-60q-68 -33 -164 -51v-1214q90 -14 164 -50v-59z" />
    <glyph glyph-name="afii10046" unicode="&#x42c;" horiz-adv-x="1220" 
d="M922 449q0 313 -357 313q-105 0 -141 -10v-643q23 -9 37 -9h108q240 0 296.5 128t56.5 221zM59 0v59q80 37 168 50v1214q-75 15 -168 51v60h545v-60q-83 -36 -180 -51v-469q129 14 184 14q533 0 533 -422q0 -223 -161 -337.5t-400 -114.5l-258 6h-263z" />
    <glyph glyph-name="afii10047" unicode="&#x42d;" horiz-adv-x="1296" 
d="M462 82q226 0 373.5 164.5t147.5 458.5l-596 -62q-10 41 -10 81t10 79l596 -2q-16 276 -148.5 413.5t-359.5 137.5q-123 0 -164 -39l-106 -250h-53q-21 142 -21 311q104 84 356 84q701 0 701 -553t-197.5 -741.5t-463.5 -188.5t-408 70q13 213 31 354h53l106 -299
q34 -18 153 -18z" />
    <glyph glyph-name="afii10048" unicode="&#x42e;" horiz-adv-x="1982" 
d="M974 255.5q97 -173.5 308 -173.5q288 0 330.5 252t42.5 462t-96.5 383t-306.5 173t-292.5 -169.5t-82.5 -461.5t97 -465.5zM580 0h-521v59q82 33 168 50v1214q-80 12 -168 51v60h521v-60q-94 -39 -156 -51v-535h244q17 300 170 485t439 185t441.5 -204.5t155.5 -535.5
t-159.5 -537t-449.5 -206q-289 0 -442 192.5t-157 514.5h-242v-573q96 -19 156 -50v-59z" />
    <glyph glyph-name="afii10049" unicode="&#x42f;" horiz-adv-x="1302" 
d="M754 1333q-158 0 -251 -74.5t-93 -235.5q0 -331 327 -331q97 0 142 15v616q-33 10 -125 10zM1243 1434v-60q-76 -34 -168 -51v-1214q102 -14 168 -50v-59h-543v59q76 37 179 50v493h-207q-45 -74 -81 -145.5t-97 -186t-148 -219.5l-70 -51h-258v51l99 49q104 110 179 221
t115 172.5t81 120.5q-207 63 -254.5 189.5t-47.5 226.5t49.5 180t166 155t350.5 75l225 -6h262z" />
    <glyph glyph-name="afii10065" unicode="&#x430;" horiz-adv-x="1034" 
d="M430 102q142 0 213 128q16 30 23 51v215q-119 0 -195 -13q-145 -23 -178 -105q-17 -40 -17 -110t45 -118t109 -48zM80 236q0 108 38 168t112 96t182 50q109 15 252 23q26 284 -75 358q-37 27 -83 27q-103 -1 -152 -20l-96 -246h-53q-48 147 -55 256q168 101 369 101
t278 -107q53 -75 53 -219l-10 -455q0 -45 2 -78t4 -69l141 -21v-43q-102 -54 -233 -77h-52q-20 47 -24 103t-6 124h-10q-18 -92 -98 -161t-203 -70q-125 -1 -203 75q-78 77 -78 185z" />
    <glyph glyph-name="afii10066" unicode="&#x431;" horiz-adv-x="1107" 
d="M276 531q0 -237 83.5 -351t210.5 -114q251 0 251 426q0 209 -79.5 305t-221.5 96q-53 0 -115.5 -33t-105.5 -88q-23 -118 -23 -241zM84 537q0 510 130 670.5t263 205.5t311 45l134 103h53q-6 -112 -28.5 -183t-28.5 -84q-188 0 -319.5 -18.5t-217.5 -75.5t-130 -165.5
t-58 -286.5h10q83 176 211.5 223t191.5 47q418 0 418 -502q0 -242 -132 -391.5t-347 -149.5q-216 0 -338.5 152t-122.5 410z" />
    <glyph glyph-name="afii10067" unicode="&#x432;" horiz-adv-x="1081" 
d="M739 775q0 167 -215 167q-94 0 -125 -8v-389l228 20q37 18 74.5 68.5t37.5 141.5zM545 82q239 0 239 201q0 100 -71.5 150t-184.5 50h-129v-395q29 -6 40 -6h106zM924 788q0 -90 -70 -151.5t-158 -79.5q121 -8 205 -74.5t84 -183.5q0 -156 -129.5 -231.5t-323.5 -75.5
q-117 0 -169.5 4t-86.5 4h-196v51q63 33 135 49v822q-78 14 -135 49v53h184l279 8q180 0 280.5 -54t100.5 -190z" />
    <glyph glyph-name="afii10068" unicode="&#x433;" horiz-adv-x="882" 
d="M399 934v-834q117 -23 185 -49v-51h-504v51q53 30 135 49v824q-76 12 -135 47v53h764q-5 -195 -25 -336h-53l-90 246h-277z" />
    <glyph glyph-name="afii10069" unicode="&#x434;" horiz-adv-x="1173" 
d="M451 922q0 -524 -168 -822h465v822h-297zM18 100h140q110 127 145 373t35 428q-76 21 -141 70v53h870v-53q-55 -37 -135 -49v-822h182q4 -188 -22 -403h-52l-92 303h-764l-92 -303h-53q-21 210 -21 403z" />
    <glyph glyph-name="afii10070" unicode="&#x435;" horiz-adv-x="1030" 
d="M741 672q-1 286 -209 286q-110 0 -172 -78q-61 -79 -73 -278h450q4 36 4 70zM934 677q0 -93 -14 -165h-639q0 -182 90 -296q90 -115 258 -114q71 0 145 20t111 54l28 -33q-32 -69 -128 -118q-97 -48 -214 -49q-235 -2 -361 145t-126 400t121 390t342 138q261 0 353 -204
q34 -75 34 -168z" />
    <glyph glyph-name="afii10072" unicode="&#x436;" horiz-adv-x="1478" 
d="M1083 1024h355v-53q-35 -25 -117 -49q-66 -90 -135.5 -176.5t-136.5 -172.5q27 -37 126 -178.5t220 -294.5l84 -49v-51h-217l-58 47q-59 79 -158.5 243.5t-119.5 194.5h-99v-385q63 -16 123 -49v-51h-411v51q74 36 114 49v398l-112 -21q-18 -29 -49 -84t-95 -167.5
t-123 -178.5l-61 -47h-213v51l94 49q115 133 210 277.5t124 181.5q-147 166 -287 363q-53 12 -102 49v53h354v-53q-39 -29 -102 -49q55 -98 119.5 -185.5t136.5 -185.5h106v371q-68 14 -114 49v53h397v-53q-44 -35 -109 -49v-383l113 20q165 224 246 363q-71 24 -103 49v53z
" />
    <glyph glyph-name="afii10073" unicode="&#x437;" horiz-adv-x="970" 
d="M447 1049q374 0 374 -240q0 -88 -66 -157t-157 -97q113 -10 188.5 -72.5t75.5 -177.5q0 -164 -112.5 -247t-314.5 -83t-341 123l37 138h41q27 -29 59.5 -69t65.5 -79q43 -16 115 -16q127 0 188.5 69t61.5 166q0 96 -42 131t-114 47l-193 -30q-18 62 0 110h209
q72 32 93.5 98t21.5 109q0 98 -54.5 142t-140.5 44t-120 -14l-93 -231h-51q-41 120 -45 268q122 68 314 68z" />
    <glyph glyph-name="afii10074" unicode="&#x438;" horiz-adv-x="1253" 
d="M80 1024h434v-53q-57 -30 -123 -49v-562l-22 -190h10l80 154l438 700h277v-53q-66 -37 -136 -49v-822q98 -25 136 -49v-51h-435v51q57 33 123 49v586l21 162h-11l-77 -154l-435 -694h-280v51q61 28 135 49v822q-80 12 -135 49v53z" />
    <glyph glyph-name="afii10075" unicode="&#x439;" horiz-adv-x="1253" 
d="M80 1024h434v-53q-57 -30 -123 -49v-562l-22 -190h10l80 154l438 700h277v-53q-66 -37 -136 -49v-822q98 -25 136 -49v-51h-435v51q57 33 123 49v586l21 162h-11l-77 -154l-435 -694h-280v51q61 28 135 49v822q-80 12 -135 49v53zM645 1147q-185 0 -270 78
q-68 61 -70 174q56 46 154 55l51 -27v-182q53 -22 138 -22q84 0 140 16v188l52 27q95 -9 143 -55q0 -172 -173 -231q-65 -21 -165 -21z" />
    <glyph glyph-name="afii10076" unicode="&#x43a;" horiz-adv-x="1107" 
d="M666 1024h395v-53q-23 -18 -137 -58q-150 -180 -312 -342q88 -96 197.5 -232.5t202.5 -238.5l96 -49v-51h-240l-65 47q-92 111 -168 221.5t-154 216.5h-82v-385q97 -24 133 -49v-51h-452v51q55 33 135 49v822q-72 14 -135 49v53h420v-53q-46 -32 -101 -49v-383l95 20
q82 94 155.5 176t136.5 178q-81 32 -120 58v53z" />
    <glyph glyph-name="afii10077" unicode="&#x43b;" horiz-adv-x="1112" 
d="M195 1024h837v-53q-66 -37 -135 -49v-822q84 -20 135 -49v-51h-440v51q49 35 121 49v834h-271q-8 -414 -84.5 -654t-148.5 -278.5t-111 -30.5q-31 35 -58.5 91.5t-31.5 103.5l29 51l174 -41q83 140 102 382.5t19 342.5q-72 21 -137 70v53z" />
    <glyph glyph-name="afii10078" unicode="&#x43c;" horiz-adv-x="1503" 
d="M424 0h-361v51q68 33 136 49l30 801q-58 22 -135 70v53h400l211 -598l38 -141h7l43 143l219 596h387v-53q-59 -35 -135 -49l41 -822q68 -12 135 -49v-51h-434v51q58 29 122 49l-41 830h-16l-336 -930h-55l-332 930h-16l-31 -830q74 -23 123 -49v-51z" />
    <glyph glyph-name="afii10079" unicode="&#x43d;" horiz-adv-x="1253" 
d="M520 0h-440v51q44 25 135 49v822q-95 26 -135 49v53h440v-53q-47 -29 -121 -49v-359h455v359q-72 12 -123 49v53h443v-53q-55 -35 -136 -49v-822q97 -21 136 -49v-51h-443v51q51 37 123 49v373h-455v-373q77 -15 121 -49v-51z" />
    <glyph glyph-name="afii10080" unicode="&#x43e;" horiz-adv-x="1132" 
d="M281 512q0 -312 172 -412q61 -35 147 -34q112 0 182 108t70 338q0 307 -166 412q-57 35 -137 34q-121 0 -195 -108q-73 -109 -73 -338zM84 516q0 125 34 224q69 201 250 273q88 36 206 36q237 0 356 -144t119 -398q0 -253 -131 -392t-353 -140q-355 0 -451 317
q-30 99 -30 224z" />
    <glyph glyph-name="afii10081" unicode="&#x43f;" horiz-adv-x="1251" 
d="M520 0h-440v51q69 40 135 49v822q-96 22 -135 49v53h1091v-53q-73 -43 -135 -49v-822q70 -12 135 -49v-51h-440v51q46 32 121 49v834h-453v-834q67 -20 121 -49v-51z" />
    <glyph glyph-name="afii10082" unicode="&#x440;" horiz-adv-x="1159" 
d="M627 922q-190 0 -244 -238v-573q72 -45 205 -45t211 130t80 339q0 276 -135 358q-47 29 -117 29zM518 -410h-455v52q70 33 136 49v1214l-136 17v53q105 46 269 74h51v-230h2q90 228 307 230q383 0 383 -514q0 -259 -130 -410q-130 -150 -349 -150q-118 0 -213 41v-325
q68 -8 135 -49v-52z" />
    <glyph glyph-name="afii10083" unicode="&#x441;" horiz-adv-x="954" 
d="M652 102q107 0 196 70l26 -29q-38 -71 -120 -119t-198 -48q-230 -1 -351 144t-121 399q0 253 127 391t332 138t327 -63q-16 -187 -63 -291h-55l-86 244q-28 20 -95 20q-139 0 -215 -101t-75 -343q0 -78 21 -152q46 -157 176 -225q66 -35 174 -35z" />
    <glyph glyph-name="afii10084" unicode="&#x442;" horiz-adv-x="1015" 
d="M600 934v-834q96 -25 135 -49v-51h-454v51q63 33 135 49v834h-191l-90 -246h-53q-21 186 -25 336h901q-5 -200 -24 -336h-53l-90 246h-191z" />
    <glyph glyph-name="afii10085" unicode="&#x443;" horiz-adv-x="1034" 
d="M-23 1024h429v-51q-43 -29 -117 -51l262 -607l39 -127h4l31 129l194 605q-61 12 -112 49v53h350v-53q-43 -29 -117 -49l-319 -922q-91 -242 -174 -332q-83 -89 -197 -108q-34 58 -70 176l27 49h213q34 46 55 104q20 58 37 111l-426 922q-53 14 -109 49v53z" />
    <glyph glyph-name="afii10086" unicode="&#x444;" horiz-adv-x="1480" 
d="M943 76q69 0 166 52t97 390q0 339 -89 383.5t-165 44.5t-125 -43v-790q47 -37 116 -37zM276 584q0 -292 65 -400t166 -108t146 47v788q-55 35 -121 35q-124 0 -190 -97t-66 -265zM965 -410h-447v52q57 33 135 49v360q-76 -76 -170 -76q-189 0 -294 125.5t-105 396.5
t112.5 411.5t301.5 140.5q112 0 155 -66v414l-155 16v53q104 48 280 74h51v-569q65 78 191 78q174 0 276.5 -117t102.5 -385t-109 -420t-297 -152q-111 0 -164 62v-346q84 -13 136 -49v-52z" />
    <glyph glyph-name="afii10087" unicode="&#x445;" horiz-adv-x="1062" 
d="M664 1024h342v-53q-39 -27 -115 -49l-281 -373l324 -449q76 -26 108 -49v-51h-419v49q78 43 102 51l-227 336l-230 -336q55 -19 103 -49v-51h-351v51q57 35 115 49l305 408l-307 414q-60 21 -100 49v53h411v-51q-63 -41 -100 -51l213 -308l209 308q-70 23 -102 49v53z
" />
    <glyph glyph-name="afii10088" unicode="&#x446;" horiz-adv-x="1257" 
d="M80 0v51q55 33 135 49v822q-78 12 -135 49v53h440v-53q-47 -29 -121 -49v-832h432v832q-55 12 -120 49v53h440v-53q-62 -32 -135 -49v-832h182q-10 -247 -22 -393h-52l-92 303h-952z" />
    <glyph glyph-name="afii10089" unicode="&#x447;" horiz-adv-x="1142" 
d="M166 635v287q-78 14 -135 49v53h440v-53q-49 -34 -121 -49v-246q0 -213 178 -213q105 0 215 63v396q-61 12 -120 49v53h440v-53q-55 -35 -135 -49v-822q88 -21 135 -49v-51h-483v51q84 35 163 49v367q-112 -121 -286 -121q-139 0 -215 78t-76 211z" />
    <glyph glyph-name="afii10090" unicode="&#x448;" horiz-adv-x="1703" 
d="M944 90h361v832q-66 18 -111 49v53h430v-53q-64 -35 -135 -49v-822q76 -16 135 -49v-51h-1544v51q57 33 135 49v822q-73 8 -135 49v53h430v-53q-53 -31 -111 -49v-832h361v832q-82 25 -123 49v53h418v-53q-38 -29 -111 -49v-832z" />
    <glyph glyph-name="afii10091" unicode="&#x449;" horiz-adv-x="1728" 
d="M80 0v51q57 33 135 49v822q-77 15 -135 49v53h430v-53q-42 -29 -111 -49v-832h361v832q-70 18 -123 49v53h418v-53q-47 -32 -111 -49v-832h361v832q-66 18 -111 49v53h430v-53q-52 -29 -135 -49v-832h182q-1 -61 -22 -393h-54l-92 303h-1423z" />
    <glyph glyph-name="afii10092" unicode="&#x44a;" horiz-adv-x="1181" 
d="M221 0v51q57 33 135 49v834h-159l-91 -246h-53q-17 130 -22 336h633v-53q-43 -27 -123 -49v-316q35 4 79 10.5t125 6.5q168 0 263.5 -72t95.5 -229t-115.5 -243.5t-304.5 -86.5l-270 8h-193zM903 328q1 209 -241 209q-58 0 -121 -13v-436q87 -6 108 -6q254 0 254 246z
" />
    <glyph glyph-name="afii10093" unicode="&#x44b;" horiz-adv-x="1527" 
d="M1448 0h-440v51q73 35 120 49v822q-78 14 -122 49v53h442v-53q-41 -26 -135 -49v-822q83 -24 135 -49v-51zM508 82q231 0 231 246q0 204 -215 204q-84 0 -125 -8v-436q81 -6 109 -6zM80 1024h442v-53q-47 -29 -123 -49v-316q35 4 78 10.5t125 6.5q154 0 247 -72t93 -229
t-110.5 -243.5t-290.5 -86.5l-271 8h-190v51q53 30 135 49v822q-63 10 -135 49v53z" />
    <glyph glyph-name="afii10094" unicode="&#x44c;" horiz-adv-x="1040" 
d="M508 82q252 0 252 246q0 204 -230 204q-90 0 -131 -8v-436q81 -6 109 -6zM80 1024h442v-53q-49 -29 -123 -49v-316q35 4 78 10.5t125 6.5q168 0 264.5 -72t96.5 -228t-116 -243.5t-306 -87.5l-271 8h-190v51q45 23 135 49v822q-73 15 -135 49v53z" />
    <glyph glyph-name="afii10095" unicode="&#x44d;" horiz-adv-x="1005" 
d="M125 967q145 82 321 82q227 0 351.5 -123t124.5 -396t-139 -414t-344 -141t-345 123l37 138h41q37 -39 123 -148q43 -16 127 -16q135 0 218 110.5t85 298.5l-406 -30q-23 55 0 110h406q-14 397 -299 397q-84 0 -104 -14l-91 -250h-51q-38 121 -55 273z" />
    <glyph glyph-name="afii10096" unicode="&#x44e;" horiz-adv-x="1609" 
d="M1329 512q0 446 -276 446q-121 0 -189.5 -118.5t-68.5 -328.5t81 -327.5t199 -117.5q254 0 254 446zM520 0h-440v51q44 25 135 49v822q-83 24 -135 49v53h440v-53q-53 -33 -121 -49v-359h203q12 229 135 357.5t338 128.5t333 -137.5t118 -394.5t-121 -399.5t-333 -142.5
t-337 125.5t-133 372.5h-203v-373q77 -15 121 -49v-51z" />
    <glyph glyph-name="afii10097" unicode="&#x44f;" horiz-adv-x="1085" 
d="M324 728q0 -99 74.5 -163.5t232.5 -64.5h55v434q-81 12 -139 12q-127 2 -175 -58.5t-48 -159.5zM0 0v51l115 49q92 96 155.5 190.5t114.5 160.5q-169 29 -211.5 119t-42.5 156q0 142 98 226t299 84l330 -12h148v-53q-37 -33 -136 -49v-822q76 -23 136 -49v-51h-441v51
q47 28 121 49v346l-149 -20q-43 -72 -96.5 -173t-145.5 -206l-64 -47h-231z" />
    <glyph glyph-name="afii10071" unicode="&#x451;" horiz-adv-x="1030" 
d="M741 672q-1 286 -209 286q-110 0 -172 -78q-61 -79 -73 -278h450q4 36 4 70zM934 677q0 -93 -14 -165h-639q0 -182 90 -296q90 -115 258 -114q71 0 145 20t111 54l28 -33q-32 -69 -128 -118q-97 -48 -214 -49q-235 -2 -361 145t-126 400t121 390t342 138q261 0 353 -204
q34 -75 34 -168zM651 1359q0 48 31 78q31 29 80 29t80 -30q30 -30 30 -77q0 -48 -30 -77t-80 -29q-49 0 -80 29t-31 77zM197 1359q0 48 30 78q31 29 80 29t80 -30t31 -77q0 -48 -31 -77t-80 -29t-80 29q-30 29 -30 77z" />
    <glyph glyph-name="afii10099" unicode="&#x452;" horiz-adv-x="1175" 
d="M489 0h-440v51q63 33 135 49v1018h-139v107h139v172l-155 16v53q99 42 288 74h52v-315h426v-107h-426v-377h2q43 96 124 164t179 68t228 -39.5t130 -390.5v-541q0 -243 -90.5 -335t-277.5 -101l-11 57q112 33 153.5 105t41.5 274v502q0 160 -45 251t-164 91
q-146 0 -202 -90t-68 -133v-523q81 -20 120 -49v-51z" />
    <glyph glyph-name="afii10100" unicode="&#x453;" horiz-adv-x="882" 
d="M399 934v-834q117 -23 185 -49v-51h-504v51q53 30 135 49v824q-76 12 -135 47v53h764q-5 -208 -25 -336h-53l-90 246h-277zM610 1571q32 4 97 -10q66 -14 92 -35v-39l-383 -309l-45 36z" />
    <glyph glyph-name="afii10101" unicode="&#x454;" horiz-adv-x="976" 
d="M578 -25q-235 0 -364.5 146t-129.5 397q0 250 136.5 390.5t344.5 140.5t330 -64q-22 -194 -68 -289h-51l-86 244q-25 18 -95 18q-144 0 -227 -99.5t-87 -313.5l399 30q23 -55 0 -110h-395q12 -146 112 -254.5t243 -108.5t230 70l27 -29q-37 -72 -120 -120t-199 -48z" />
    <glyph glyph-name="afii10102" unicode="&#x455;" horiz-adv-x="886" 
d="M406 66q86 0 142 48t56 112t-47 117t-195 130q-247 128 -247 305q0 124 92 196q92 73 214 74q190 2 329 -47q-20 -161 -52 -268h-51l-78 209q-40 16 -98 16q-124 0 -162 -94q-10 -28 -10 -68t45 -90t198 -130q153 -81 211 -169q35 -53 35 -127q-1 -137 -110 -221
q-110 -84 -264 -84t-320 60q8 142 56 274h51l90 -223q28 -20 115 -20z" />
    <glyph glyph-name="afii10103" unicode="&#x456;" horiz-adv-x="616" 
d="M539 0h-455v51q55 29 135 49v805l-135 17v53q100 42 268 74h51v-949q90 -22 136 -49v-51zM180 1372q0 55 36 88t95 33t95 -33t34 -88q0 -55 -34 -87t-94 -32t-96 32t-36 87z" />
    <glyph glyph-name="afii10104" unicode="&#x457;" horiz-adv-x="712" 
d="M586 0h-455v51q55 29 135 49v805l-135 17v53q100 42 268 74h52v-949q88 -21 135 -49v-51zM412 1369q0 52 29.5 86t79.5 34t80 -34t30 -86t-30 -84t-80 -32t-79.5 32t-29.5 84zM80 1369q0 52 30.5 86t80 34t79 -34t29.5 -86t-29.5 -84t-79 -32t-80 32t-30.5 84z" />
    <glyph glyph-name="afii10105" unicode="&#x458;" horiz-adv-x="589" 
d="M401 1049v-961q0 -250 -122 -397q-82 -99 -183 -125l-24 39q96 46 132 260q13 78 13 184v856l-135 17v53q92 45 268 74h51zM176 1372q0 55 36 88t95 33t94 -33t35 -88t-35 -87t-94 -32t-95 32t-36 87z" />
    <glyph glyph-name="afii10106" unicode="&#x459;" horiz-adv-x="1517" 
d="M1006 82q121 0 177 60.5t56 176.5t-60.5 164.5t-149.5 48.5q-88 0 -132 -8v-436q87 -6 109 -6zM1100 623q156 0 248 -72t92 -228t-108.5 -243.5t-293.5 -87.5l-270 8h-176v51q49 35 121 49v834h-271q-8 -414 -84.5 -654t-148.5 -278.5t-111 -30.5q-31 35 -58.5 91.5
t-31.5 103.5l29 51l174 -41q83 140 102 382.5t19 342.5q-72 21 -137 70v53h837v-53q-41 -25 -135 -49v-316q35 4 78 10.5t125 6.5z" />
    <glyph glyph-name="afii10107" unicode="&#x45a;" horiz-adv-x="1658" 
d="M1378 328q0 209 -222 209q-50 0 -118 -13v-436q81 -6 109 -6q231 0 231 246zM731 0v51q51 37 123 49v373h-455v-373q77 -15 121 -49v-51h-440v51q44 25 135 49v822q-95 26 -135 49v53h440v-53q-47 -29 -121 -49v-359h455v359q-72 12 -123 49v53h443v-53q-40 -24 -136 -49
v-316q35 4 78 10.5t125 6.5q154 0 247 -72t93 -229t-110.5 -243.5t-290.5 -86.5l-271 8h-178z" />
    <glyph glyph-name="afii10108" unicode="&#x45b;" horiz-adv-x="1196" 
d="M489 0h-440v51q63 33 135 49v1018h-139v107h139v172l-155 16v53q99 42 288 74h52v-315h426v-107h-426v-377h2q43 96 124 164t179 68t228 -39.5t130 -390.5v-424l129 -19v-43q-120 -55 -262 -77h-51v524q0 160 -45 251t-152 91t-182 -66.5t-100 -156.5v-523
q81 -20 120 -49v-51z" />
    <glyph glyph-name="afii10109" unicode="&#x45c;" horiz-adv-x="1107" 
d="M666 1024h395v-53q-23 -18 -137 -58q-150 -180 -312 -342q98 -106 211 -248q113 -141 189 -223l96 -49v-51h-240l-65 47q-92 111 -168 221t-154 217h-82v-385q97 -24 133 -49v-51h-452v51q55 33 135 49v822q-72 14 -135 49v53h420v-53q-46 -32 -101 -49v-383l95 20
q82 94 155 176q74 82 137 178q-81 32 -120 58v53zM702 1571q32 4 97 -10q66 -14 92 -35v-39l-383 -309l-45 36z" />
    <glyph glyph-name="afii10110" unicode="&#x45e;" horiz-adv-x="1034" 
d="M-23 1024h429v-51q-43 -29 -117 -51l262 -607l39 -127h4l31 129l194 605q-61 12 -112 49v53h350v-53q-43 -29 -117 -49l-319 -922q-91 -242 -174 -332q-83 -89 -197 -108q-34 58 -70 176l27 49h213q34 46 55 104q20 58 37 111l-426 922q-53 14 -109 49v53zM555 1147
q-185 0 -270 78q-70 63 -70 174q56 46 154 55l51 -27v-182q53 -22 138 -22q84 0 140 16v188l52 27q93 -9 143 -55q0 -172 -173 -231q-65 -21 -165 -21z" />
    <glyph glyph-name="afii10193" unicode="&#x45f;" horiz-adv-x="1232" 
d="M399 90h435v832q-82 18 -123 49v53h442v-53q-66 -37 -135 -49v-822q67 -6 135 -49v-51h-446q-26 -207 -64 -371h-53l-64 371h-446v51q47 28 135 49v822q-66 9 -135 49v53h440v-53q-59 -31 -121 -49v-832z" />
    <glyph glyph-name="afii10146" unicode="&#x462;" horiz-adv-x="1460" 
d="M698 100h111q242 0 297 122t55 214q0 166 -96 234.5t-262 68.5q-106 0 -141 -10v-620q22 -9 36 -9zM851 846q529 0 529 -410q0 -226 -161 -334t-402 -108l-258 6h-262v59q80 37 168 50v1048h-262l-107 -291h-53q-8 58 -15.5 207.5t-7.5 190.5h445v104q-93 18 -168 51v58
h547v-58q-89 -36 -182 -51v-104h524q-5 -181 -25 -353h-51l-106 246h-342v-326q92 15 189 15z" />
    <glyph glyph-name="afii10194" unicode="&#x463;" horiz-adv-x="1196" 
d="M915 328q0 107 -61.5 155.5t-154.5 48.5t-144 -10v-434q81 -6 109 -6q251 0 251 246zM555 934v-328q35 4 78 10.5t125 6.5q168 0 264 -72t96 -228t-115.5 -243.5t-306.5 -87.5l-270 8h-190v51q45 23 135 49v834h-172l-90 -246h-54q-20 175 -24 336h340v373l-156 16v53
q90 43 289 74h51v-516h379q5 -88 -21 -289h-53l-115 199h-190z" />
    <glyph glyph-name="afii10147" unicode="&#x472;" horiz-adv-x="1515" 
d="M326 705q128 155 286 155q49 0 99.5 -22.5t99.5 -48t98 -47t103 -21.5q121 0 176 39q-9 262 -122 427t-326 165t-313.5 -180t-100.5 -467zM541 713q-131 0 -213 -88q17 -242 134 -392.5t313 -150.5q195 0 300.5 166t114.5 434q-55 -59 -118.5 -85t-114.5 -26t-103.5 22.5
t-104 48.5t-103.5 48.5t-105 22.5zM109 717q0 160 44 296t126.5 235.5t203.5 154.5t274.5 55t274.5 -55t204 -154.5t127 -235.5t44 -296t-44 -296t-127 -235.5t-204 -155t-274.5 -55.5t-274.5 55.5t-203.5 155t-126.5 235.5t-44 296z" />
    <glyph glyph-name="afii10195" unicode="&#x473;" horiz-adv-x="1132" 
d="M388 500q-42 0 -107 -51q13 -273 126 -328t193 -55q109 0 179.5 106.5t72.5 329.5q-100 -82 -201 -82q-52 0 -107 27.5t-84.5 40t-71.5 12.5zM487 618q56 0 127.5 -36.5t124.5 -36.5t109 41q-20 260 -123.5 316t-175.5 56q-119 0 -192.5 -102t-77.5 -317q103 79 208 79z
M215 908q131 141 350 141q365 0 424.5 -208t59.5 -329q0 -258 -131.5 -397.5t-361.5 -139.5t-351 144t-121 396t131 393z" />
    <glyph glyph-name="afii10148" unicode="&#x474;" horiz-adv-x="1433" 
d="M0 1434h543v-60q-81 -33 -168 -51l317 -881l45 -163h4l27 163q119 441 277.5 705t214 285.5t94.5 25.5q41 -17 78.5 -100.5t37.5 -143.5l-32 -49l-197 56q-136 -194 -282.5 -556.5t-204.5 -689.5h-80l-518 1348q-60 15 -156 51v60z" />
    <glyph glyph-name="afii10196" unicode="&#x475;" horiz-adv-x="1046" 
d="M-20 1024h428v-51q-75 -39 -117 -51l237 -617l29 -108h4l21 122q39 162 94 328t141 297q39 59 89 83t89 15q55 -43 72.5 -106.5t19.5 -87.5l-30 -53l-172 43q-82 -134 -197 -484l-108 -354l-93 -25l-399 947q-59 20 -108 49v53z" />
    <glyph glyph-name="uni048A" unicode="&#x48a;" horiz-adv-x="1519" 
d="M758 1499q-188 0 -275.5 75t-87.5 185q40 40 154 45l51 -26v-174q60 -29 158 -29t162 22v181l51 26q33 2 76 -11t69 -34q0 -180 -131 -220t-227 -40zM578 0h-519v59q82 37 168 50v1214q-99 24 -168 51v60h519v-60q-67 -32 -154 -51v-889l-23 -153l99 161l600 832v49
q-82 18 -166 51v60h520v-60q-65 -28 -168 -51v-1217h225l17 -14q-22 -106 -99 -234t-106 -167h-55l59 309h-393v59q85 36 156 50v886l20 154l-90 -154l-608 -841v-45q97 -17 166 -50v-59z" />
    <glyph glyph-name="uni048B" unicode="&#x48b;" horiz-adv-x="1269" 
d="M647 1147q-183 0 -261.5 70.5t-78.5 181.5q61 46 154 55l51 -27v-182q53 -22 137 -22t142 16v188l51 27q93 -14 143 -55q0 -173 -119 -212.5t-219 -39.5zM80 1024h434v-53q-57 -30 -123 -49v-562l-22 -190h10l80 154l438 700h277v-53q-66 -37 -136 -49v-832h195l10 -16
q-30 -149 -98 -253t-86 -124h-55l55 303h-320v51q57 33 123 49v586l21 162h-11l-77 -154l-435 -694h-280v51q61 28 135 49v822q-80 12 -135 49v53z" />
    <glyph glyph-name="uni048C" unicode="&#x48c;" horiz-adv-x="1282" 
d="M983 449q0 313 -358 313q-106 0 -142 -10v-643q23 -9 37 -9h111q151 0 251.5 87t100.5 262zM119 0v59q80 37 168 50v948h-267v106h267v160q-75 15 -168 51v60h547v-60q-89 -37 -183 -51v-160h396v-106h-396v-203q130 14 187 14q532 0 532 -422q0 -224 -162.5 -338
t-400.5 -114l-258 6h-262z" />
    <glyph glyph-name="uni048D" unicode="&#x48d;" horiz-adv-x="1019" 
d="M508 82q231 0 231 246q0 204 -215 204q-84 0 -125 -8v-436q81 -6 109 -6zM215 918h-211v106h211v373l-156 16v53q57 27 138.5 43.5t150.5 30.5h51v-516h295v-106h-295v-312q35 4 78 10.5t125 6.5q154 0 247 -72t93 -229t-110.5 -243.5t-290.5 -86.5l-271 8h-190v51
q53 30 135 49v818z" />
    <glyph glyph-name="uni048E" unicode="&#x48e;" horiz-adv-x="1220" 
d="M922 994q0 182 -95.5 265.5t-263.5 83.5q-91 0 -139 -10v-663q10 -4 29.5 -5t41 -3.5t26.5 -2.5h48q68 0 127 19l-145 229l92 56l148 -242q131 91 131 273zM621 0h-562v59q49 24 168 50v1214q-75 13 -168 51v60h181l366 16q365 0 450 -158t85 -300t-78 -239.5
t-197 -146.5l105 -164l-97 -59l-118 190q-82 -20 -135 -20h-79q-78 0 -118 8v-452q97 -11 197 -50v-59z" />
    <glyph glyph-name="uni048F" unicode="&#x48f;" horiz-adv-x="1159" 
d="M879 535q0 387 -252 387q-195 0 -244 -242v-569q72 -45 203 -45q48 0 76 10l-127 184l83 59l130 -188q131 131 131 404zM518 -410h-455v52q70 33 136 49v1214l-136 17v53q168 74 291 74h29v-230q43 102 114.5 165t190.5 65q41 0 86 -9q301 -53 301 -505
q0 -186 -67.5 -315.5t-186.5 -190.5l129 -187l-90 -55l-143 205q-66 -17 -154 -17t-180 41v-325q66 -8 135 -49v-52z" />
    <glyph glyph-name="afii10050" unicode="&#x490;" horiz-adv-x="1036" 
d="M59 1434h779l108 278h53q12 -85 13.5 -166.5t2.5 -130.5t1 -88h-592v-1218q100 -16 197 -50v-59h-562v59q82 33 168 50v1214q-75 15 -168 51v60z" />
    <glyph glyph-name="afii10098" unicode="&#x491;" horiz-adv-x="839" 
d="M80 1024h594q2 2 2 8l90 240h53q19 -159 23 -338h-443v-834q117 -23 185 -49v-51h-504v51q53 30 135 49v824q-76 12 -135 47v53z" />
    <glyph glyph-name="uni0492" unicode="&#x492;" horiz-adv-x="1112" 
d="M1053 1434q0 -249 -23 -414h-53l-107 307h-411v-545h307v-106h-307v-567q100 -16 196 -50v-59h-561v59q82 33 168 50v567h-182v106h182v541q-75 15 -168 51v60h959z" />
    <glyph glyph-name="uni0493" unicode="&#x493;" horiz-adv-x="880" 
d="M399 934v-379h230v-106h-230v-349q117 -23 185 -49v-51h-504v51q53 30 135 49v349h-152v106h152v369q-76 12 -135 47v53h764q-5 -195 -25 -336h-53l-90 246h-277z" />
    <glyph glyph-name="uni0494" unicode="&#x494;" horiz-adv-x="1249" 
d="M424 754q163 92 353 92t291 -106t101 -343q0 -307 -97 -453t-355 -169l-12 55q173 61 215.5 161.5t57.5 318.5t-57.5 323.5t-216.5 105.5t-280 -84v-546q104 -16 192 -50v-59h-557v59q84 35 168 50v1214q-75 15 -168 51v60h959q0 -247 -23 -412h-53l-106 305h-412v-573z
" />
    <glyph glyph-name="uni0495" unicode="&#x495;" horiz-adv-x="1122" 
d="M399 934v-479q109 118 287 118q139 0 216 -77.5t77 -210.5v-283q0 -242 -89 -334.5t-276 -101.5l-10 57q114 33 152.5 106.5t38.5 272.5v242q0 213 -181 213q-105 0 -215 -64v-293q113 -18 181 -49v-51h-500v51q53 30 135 49v824q-76 12 -135 47v53h764q-4 -173 -23 -330
h-53l-92 240h-277z" />
    <glyph glyph-name="uni0496" unicode="&#x496;" horiz-adv-x="2007" 
d="M723 1434h473v-60q-45 -23 -131 -51v-567l139 28l344 539l-147 51v60h450v-60q-67 -29 -153 -51l-373 -545q51 -68 110.5 -150.5t172 -237.5t231.5 -284h160q0 -104 -17.5 -239t-25.5 -176h-51l-86 309h-136l-69 51q-121 141 -220.5 304t-209.5 331h-119v-577
q83 -24 131 -50v-59h-475v59q61 33 147 50v596l-123 -31q-111 -168 -205 -324.5t-214 -298.5l-70 -51h-256v51l96 49q220 237 512 660l-385 563q-84 25 -145 51v60h452v-60q-72 -35 -139 -51l346 -551h131v551q-93 26 -145 51v60z" />
    <glyph glyph-name="uni0497" unicode="&#x497;" horiz-adv-x="1531" 
d="M827 485v-385q63 -16 123 -49v-51h-411v51q74 36 114 49v398l-110 -21q-18 -29 -110 -192.5t-159 -237.5l-61 -47h-213v51l94 49q100 115 203.5 268.5t132.5 190.5q-157 178 -289 363q-53 12 -102 49v53h354v-53q-39 -29 -102 -49q55 -98 120.5 -185.5t137.5 -185.5h104
v371q-68 14 -114 49v53h397v-53q-44 -35 -109 -49v-383l113 20q165 224 246 363q-71 24 -103 49v53h355v-53q-35 -25 -117 -49q-66 -90 -136.5 -176.5t-137.5 -172.5q208 -286 366 -485h119q-10 -253 -23 -391h-51l-92 303h-104l-58 47q-75 100 -133.5 199.5t-92.5 154
t-52 84.5h-99z" />
    <glyph glyph-name="uni0498" unicode="&#x498;" horiz-adv-x="1134" 
d="M1028 402q0 -179 -117 -285.5t-303 -132.5q-25 -184 -67 -375h-54q-16 94 -32.5 185t-30.5 183q-184 12 -322 78q0 148 52 342h53l86 -286q63 -31 169 -31t168 24.5t131.5 91t69.5 210.5t-87 212t-224 68l-158 -22q-14 63 -2 118h66q93 0 166 11q194 69 194 295
q0 116 -76.5 190t-207.5 74t-166 -39l-107 -250h-53q-26 143 -22 311q104 84 356 84q320 0 396.5 -123t76.5 -228t-60.5 -196.5t-191.5 -142.5v-8q207 -34 252 -151t45 -207z" />
    <glyph glyph-name="uni0499" unicode="&#x499;" horiz-adv-x="970" 
d="M447 1049q374 0 374 -240q0 -88 -66 -157t-157 -97q113 -10 188.5 -72.5t75.5 -191.5t-88 -211t-235 -98q-29 -224 -60 -351h-53q-27 141 -59 349q-170 19 -273 118l37 138h41q27 -29 59.5 -69t65.5 -79q43 -16 115 -16q127 0 188.5 69t61.5 166q0 96 -42 131t-114 47
l-193 -30q-18 62 0 110h209q72 32 93.5 98t21.5 109q0 98 -54.5 142t-140.5 44t-120 -14l-93 -231h-51q-41 120 -45 268q122 68 314 68z" />
    <glyph glyph-name="uni049A" unicode="&#x49a;" horiz-adv-x="1384" 
d="M782 1434h453v-60q-78 -34 -156 -51l-411 -545q272 -362 553 -674h155q0 -193 -43 -413h-51l-86 309h-129l-70 49q-206 240 -473 637h-100v-577q94 -16 154 -50v-59h-519v59q82 33 168 50v1214q-92 12 -168 51v60h519v-60q-79 -34 -154 -51v-567l123 28l383 539
q-86 21 -148 51v60z" />
    <glyph glyph-name="uni049B" unicode="&#x49b;" horiz-adv-x="1134" 
d="M399 485v-385q97 -24 133 -49v-51h-452v51q55 33 135 49v822q-72 14 -135 49v53h420v-53q-46 -32 -101 -49v-383l95 20q82 94 155.5 176t136.5 178q-81 32 -120 58v53h395v-53q-23 -18 -137 -58q-150 -180 -312 -342q91 -99 203 -237.5t211 -245.5h111q-2 -46 -23 -391
h-53l-92 303h-101l-65 47q-92 111 -168 221.5t-154 216.5h-82z" />
    <glyph glyph-name="uni049C" unicode="&#x49c;" horiz-adv-x="1460" 
d="M922 1434h450v-60q-76 -34 -155 -51l-410 -543q289 -385 555 -680l98 -49v-51h-256l-69 49q-208 242 -469 641h-41v-317h-105v317h-96v-581q94 -16 154 -50v-59h-519v59q82 33 168 50v1214q-92 12 -168 51v60h519v-60q-79 -34 -154 -51v-569l96 10v330h105v-320l61 8
l383 541q-88 21 -147 51v60z" />
    <glyph glyph-name="uni049D" unicode="&#x49d;" horiz-adv-x="1294" 
d="M852 1024h395v-53q-44 -35 -137 -58q-155 -186 -311 -342q75 -81 198 -233t201 -238l96 -49v-51h-239l-66 47q-92 111 -168 221.5t-153 216.5h-50v-256h-98v256h-121v-385q97 -24 133 -49v-51h-452v51q55 33 135 49v822q-72 14 -135 49v53h420v-53q-46 -32 -101 -49v-383
l121 8v284h98v-276l62 4q82 94 155.5 176t137.5 178q-79 32 -121 58v53z" />
    <glyph glyph-name="uni049E" unicode="&#x49e;" horiz-adv-x="1368" 
d="M838 1434h452v-60q-74 -33 -157 -51l-408 -543q338 -450 545 -680l98 -49v-51h-256l-70 49q-181 211 -460 637h-111v-577q94 -16 154 -50v-59h-519v59q82 33 168 50v983h-254v98h254v133q-96 12 -168 51v60h519v-60q-79 -34 -154 -51v-133h225v-98h-225v-336l133 28
l381 539q-80 20 -147 51v60z" />
    <glyph glyph-name="uni049F" unicode="&#x49f;" horiz-adv-x="1056" 
d="M6 1276h178v121l-155 16v53q57 27 137 43.5t151 30.5h52v-264h321v-107h-321v-608h53q171 192 293 361q-51 14 -101 49v53h396v-53q-86 -35 -156 -49q-94 -124 -181 -218t-114 -120q31 -41 143.5 -191t239.5 -293l115 -49v-51h-254l-55 49q-137 170 -312 438l-67 21v-408
q68 -12 133 -49v-51h-453v51q68 33 135 49v1069h-178v107z" />
    <glyph glyph-name="uni04A0" unicode="&#x4a0;" horiz-adv-x="1560" 
d="M1020 1434h453v-60q-76 -33 -158 -51l-410 -543q259 -345 557 -680l99 -49v-51h-256l-70 49q-227 265 -471 637h-102v-577q92 -16 155 -50v-59h-520v59q82 33 168 50v1218h-264l-105 -289h-53q-12 83 -15 168.5t-5.5 136t-2.5 91.5h797v-60q-89 -36 -155 -51v-567l122 28
l383 539q-76 19 -147 51v60z" />
    <glyph glyph-name="uni04A1" unicode="&#x4a1;" horiz-adv-x="1251" 
d="M809 1024h395v-53q-25 -20 -135 -58q-145 -174 -313 -342q61 -67 200 -235t201 -236l94 -49v-51h-237l-66 47q-92 111 -169 221.5t-154 216.5h-82v-385q84 -18 133 -49v-51h-453v51q55 33 135 49v834h-161l-91 -225h-51q-20 155 -24 315h614v-53q-41 -29 -102 -49v-383
l94 20q197 207 295 354q-85 34 -123 58v53z" />
    <glyph glyph-name="uni04A2" unicode="&#x4a2;" horiz-adv-x="1521" 
d="M578 0h-519v59q82 33 168 50v1214q-96 14 -168 51v60h519v-60q-66 -34 -154 -51v-535h643v535q-86 20 -154 51v60h519v-60q-56 -30 -168 -51v-1217h225q0 -135 -41 -415h-53l-86 309h-396v59q74 33 154 50v573h-643v-573q85 -17 154 -50v-59z" />
    <glyph glyph-name="uni04A3" unicode="&#x4a3;" horiz-adv-x="1255" 
d="M520 0h-440v51q44 25 135 49v822q-95 26 -135 49v53h440v-53q-47 -29 -121 -49v-359h455v359q-72 12 -123 49v53h443v-53q-55 -35 -136 -49v-834h162q-10 -243 -22 -391h-52l-92 303h-303v51q51 37 123 49v373h-455v-373q77 -15 121 -49v-51z" />
    <glyph glyph-name="uni04A4" unicode="&#x4a4;" horiz-adv-x="1878" 
d="M424 788h643v535q-47 6 -96 23.5t-58 27.5v60h945q0 -101 -7.5 -236t-13.5 -178h-53l-107 307h-413v-1218q106 -16 196 -50v-59h-547v59q35 18 77 25.5t77 24.5v573h-643v-573q85 -17 154 -50v-59h-519v59q82 33 168 50v1214q-96 14 -168 51v60h519v-60q-66 -34 -154 -51
v-535z" />
    <glyph glyph-name="uni04A5" unicode="&#x4a5;" horiz-adv-x="1521" 
d="M1038 934v-834q117 -23 185 -49v-51h-492v51q51 37 123 49v373h-455v-373q77 -15 121 -49v-51h-440v51q44 25 135 49v822q-95 26 -135 49v53h440v-53q-47 -29 -121 -49v-359h455v359q-72 12 -123 49v53h752q-5 -195 -25 -336h-53l-90 246h-277z" />
    <glyph glyph-name="uni04A6" unicode="&#x4a6;" horiz-adv-x="2068" 
d="M1522 739q-143 0 -279 -84v-546q84 -10 166 -50v-59h-516v59q45 29 154 50v1218h-623v-1218q80 -16 154 -50v-59h-519v59q64 33 168 50v1214q-75 15 -168 51v60h1352v-60q-60 -31 -168 -51v-569q163 92 353 92t291.5 -106.5t101.5 -342.5q0 -308 -97.5 -453.5
t-355.5 -168.5l-12 55q174 62 216 162t57 317t-58.5 323.5t-216.5 106.5z" />
    <glyph glyph-name="uni04A7" unicode="&#x4a7;" horiz-adv-x="1785" 
d="M1350 700q163 0 246 -95t83 -337v-205q0 -256 -96 -371.5t-272 -125.5l-11 57q161 47 178 191.5t17 248.5v170q0 160 -45.5 250t-155.5 90t-169.5 -56t-88.5 -138v-279q70 -12 135 -49v-51h-440v51q46 32 121 49v834h-453v-834q67 -20 121 -49v-51h-440v51q69 40 135 49
v822q-96 22 -135 49v53h1091v-53q-73 -43 -135 -49v-430q64 139 154 173.5t160 34.5z" />
    <glyph glyph-name="uni04A8" unicode="&#x4a8;" horiz-adv-x="1730" 
d="M935 381.5q77 -146.5 189 -223.5q128 71 204.5 228t76.5 351q0 352 -95.5 427t-165.5 75t-125.5 -41t-108 -146.5t-52.5 -314.5t77 -355.5zM1087 51q-87 -76 -297 -76q-125 0 -257 55.5t-278 210t-146 469.5t124.5 471t240.5 216.5t257 60.5t191 -84l-17 -37
q-34 15 -123 15q-90 0 -178 -49.5t-182 -181t-94 -405.5t149 -454t402 -180q74 0 114 20q-143 72 -248.5 241t-105.5 410t110.5 370.5t202.5 176t188 46.5q201 0 342.5 -162t141.5 -453q0 -222 -130.5 -393.5t-270.5 -228.5q58 -29 120 -29q135 0 224 78l24 -29
q-23 -68 -89 -111t-154 -43q-156 0 -261 76z" />
    <glyph glyph-name="uni04A9" unicode="&#x4a9;" horiz-adv-x="1349" 
d="M715 508q0 -293 176 -393q78 42 134 155t56 265q0 208 -64.5 258.5t-115.5 50.5q-92 0 -139 -97t-47 -239zM1047 61h108q68 0 121 29l14 -24q-26 -65 -86.5 -78t-81.5 -13q-156 0 -221 50q-106 -50 -231 -50q-257 0 -421.5 150t-164.5 378t140.5 387t342.5 159
q150 0 150 -88l-10 -15q-132 35 -213.5 -10t-145 -135.5t-63.5 -284.5t113.5 -322t287.5 -128q97 0 129 12q-121 33 -209 154.5t-88 248.5q0 229 115 341t269 112q153 0 264.5 -106.5t111.5 -309.5q0 -148 -94 -275.5t-203 -166.5q53 -15 66 -15z" />
    <glyph glyph-name="uni04AA" unicode="&#x4aa;" horiz-adv-x="1318" 
d="M311 724q0 -300 143.5 -471t397.5 -171q142 0 172 37l96 254h54q29 -166 22 -314q-89 -70 -326 -84q-19 -168 -65 -366h-53q-18 96 -34 190.5t-32 186.5q-274 35 -425.5 212t-151.5 537t193 541.5t493 181.5q247 0 389 -69q0 -152 -31 -353h-53l-107 295q-40 21 -160 21
q-237 0 -379.5 -164t-142.5 -464z" />
    <glyph glyph-name="uni04AB" unicode="&#x4ab;" horiz-adv-x="954" 
d="M84 512q0 260 127 398.5t332 138.5t327 -64q-16 -181 -63 -291h-55l-86 244q-28 20 -95 20q-139 0 -214.5 -101t-75.5 -343q0 -168 92 -290t279 -122q107 0 196 70l26 -29q-35 -66 -105.5 -110.5t-168.5 -55.5q-29 -215 -59 -346h-54q-25 139 -59 359q-174 39 -259 176
t-85 346z" />
    <glyph glyph-name="uni04AC" unicode="&#x4ac;" horiz-adv-x="1267" 
d="M537 1327h-314l-108 -293h-52q-24 164 -24 400h1190q0 -102 -8.5 -229.5t-14.5 -170.5h-53l-106 293h-314v-1221h225q0 -112 -17 -243t-26 -172h-51l-86 309h-432v59q96 34 191 50v1218z" />
    <glyph glyph-name="uni04AD" unicode="&#x4ad;" horiz-adv-x="1017" 
d="M281 0v51q63 33 135 49v834h-191l-90 -246h-53q-21 186 -25 336h901q-5 -187 -22 -336h-53l-90 246h-193v-844h180q-4 -101 -22 -393h-51l-93 303h-333z" />
    <glyph glyph-name="uni04AE" unicode="&#x4ae;" horiz-adv-x="1318" 
d="M868 1434h451v-60q-78 -39 -156 -51l-387 -713v-501q80 -10 156 -50v-59h-520v59q74 37 168 50v499l-414 715q-71 12 -166 51v60h543v-60q-75 -29 -158 -51l336 -602l315 602q-76 16 -168 51v60z" />
    <glyph glyph-name="uni04AF" unicode="&#x4af;" horiz-adv-x="1038" 
d="M756 -410h-455v52q55 29 135 49v397l-348 834q-59 20 -108 49v53h428v-51q-75 -39 -117 -51l237 -617l41 -133h4l33 135l217 615q-65 16 -112 49v53h348v-53q-40 -28 -117 -49l-321 -830v-401q83 -20 135 -49v-52z" />
    <glyph glyph-name="uni04B0" unicode="&#x4b0;" horiz-adv-x="1318" 
d="M870 1434h449v-60q-78 -39 -156 -51l-387 -713h297v-106h-297v-395q80 -10 156 -50v-59h-520v59q74 37 168 50v395h-297v106h295l-412 713q-71 12 -166 51v60h543v-60q-87 -34 -158 -51l336 -602l315 602q-82 18 -166 51v60z" />
    <glyph glyph-name="uni04B1" unicode="&#x4b1;" horiz-adv-x="1038" 
d="M436 0h-250v106h244l-342 816q-59 20 -108 49v53h428v-51q-75 -39 -117 -51l186 -486l88 -264h4l82 266l172 484q-65 16 -112 49v53h348v-53q-40 -28 -117 -49l-317 -816h247v-106h-249l-2 -309q83 -20 135 -49v-52h-455v52q55 29 135 49v309z" />
    <glyph glyph-name="uni04B2" unicode="&#x4b2;" horiz-adv-x="1404" 
d="M494 0h-474v59q48 25 152 50l401 612l-385 602q-81 24 -161 51v60h542v-60q-79 -29 -157 -51l286 -463l279 463q-80 18 -168 51v60h471v-60q-86 -34 -154 -51l-360 -555l426 -662h205q0 -135 -41 -415h-53l-86 309h-408v59q74 37 154 50l-324 514l-311 -517
q113 -16 166 -47v-59z" />
    <glyph glyph-name="uni04B3" unicode="&#x4b3;" horiz-adv-x="1062" 
d="M371 0h-351v51q57 35 115 49l305 408l-307 414q-60 21 -100 49v53h411v-51q-64 -41 -100 -51l213 -308l209 308q-70 23 -102 49v53h342v-53q-39 -27 -115 -49l-281 -373l332 -461h150q-9 -219 -23 -391h-51l-92 303h-303v49q79 44 102 51l-227 338l-230 -338
q50 -17 103 -49v-51z" />
    <glyph glyph-name="uni04B4" unicode="&#x4b4;" horiz-adv-x="1812" 
d="M346 0v59q99 35 191 50v1218h-314l-108 -293h-52q-24 164 -24 400h1081q0 -77 -8 -217t-14 -183h-54l-106 293h-207v-1221h619v1217q-84 23 -131 51v60h495v-60q-97 -38 -168 -51v-1217h236q-9 -182 -43 -415h-53l-87 309h-1253z" />
    <glyph glyph-name="uni04B5" unicode="&#x4b5;" horiz-adv-x="1587" 
d="M600 934v-844h561v832q-43 9 -121 49v53h441v-53q-62 -32 -135 -49v-832h182q-9 -222 -23 -393h-51l-92 303h-1081v51q55 33 135 49v834h-191l-90 -246h-53q-21 186 -25 336h899q-5 -187 -22 -336h-53l-90 246h-191z" />
    <glyph glyph-name="uni04B6" unicode="&#x4b6;" horiz-adv-x="1366" 
d="M911 635q-163 -92 -354 -92t-291 83t-100 298v399q-65 10 -148 51v60h480v-60q-75 -36 -136 -51v-360q0 -314 252 -314q165 0 297 84v590q-54 15 -145 51v60h477v-60q-72 -35 -135 -51v-1217h227q0 -195 -43 -415h-51l-86 309h-432v59q83 39 188 50v526z" />
    <glyph glyph-name="uni04B7" unicode="&#x4b7;" horiz-adv-x="1142" 
d="M166 635v287q-78 14 -135 49v53h440v-53q-49 -34 -121 -49v-246q0 -213 178 -213q105 0 215 63v396q-61 12 -120 49v53h440v-53q-55 -35 -135 -49v-834h170q-2 -46 -23 -391h-53l-92 303h-350v51q84 35 163 49v367q-112 -121 -286 -121q-139 0 -215 78t-76 211z" />
    <glyph glyph-name="uni04B8" unicode="&#x4b8;" horiz-adv-x="1359" 
d="M729 262h-106v283q-12 -2 -15 -2h-37q-193 0 -299 84.5t-106 296.5v399q-65 10 -148 51v60h498v-60q-56 -27 -154 -51v-360q0 -141 65 -226.5t196 -87.5v314h106v-308q143 21 240 78v590q-57 15 -146 51v60h477v-60q-72 -35 -135 -51v-1214q78 -15 135 -50v-59h-520v59
q82 39 189 50v526q-77 -48 -240 -78v-295z" />
    <glyph glyph-name="uni04B9" unicode="&#x4b9;" horiz-adv-x="1269" 
d="M674 188h-96v160q-16 -2 -20 -2h-38q-280 0 -317 111.5t-37 177.5v287q-78 14 -135 49v53h440v-53q-49 -34 -121 -49v-246q0 -94 49.5 -151.5t178.5 -61.5v328h96v-322q133 20 196 57v396q-66 12 -122 49v53h442v-53q-55 -35 -135 -49v-822q88 -21 135 -49v-51h-483v51
q84 35 163 49v367q-61 -65 -196 -100v-179z" />
    <glyph glyph-name="uni04BA" unicode="&#x4ba;" horiz-adv-x="1302" 
d="M59 1434h521v-60q-86 -40 -189 -49v-526q163 92 355 92q191 0 281 -76q110 -91 110 -305v-399q67 -11 147 -52v-59h-479v59q74 36 135 52v360q0 143 -58 228t-208 85q-151 0 -283 -84v-589q67 -18 146 -52v-59h-478v59q68 33 136 52v1214q-79 16 -136 49v60z" />
    <glyph glyph-name="uni04BB" unicode="&#x4bb;" horiz-adv-x="1202" 
d="M1167 0h-442v51q49 27 123 49v480q0 160 -45 250t-152 92q-107 0 -182 -66t-100 -158v-598q81 -20 120 -49v-51h-440v51q63 33 135 49v1297l-155 16v53q88 37 288 74h52v-723h2q43 96 124 164t179 68q98 1 163 -19q198 -59 195 -412v-518q97 -22 135 -49v-51z" />
    <glyph glyph-name="uni04BC" unicode="&#x4bc;" horiz-adv-x="1671" 
d="M1360 916q0 71 -28.5 157t-107.5 182.5t-257 96.5t-298 -147t-132 -406h819q4 46 4 117zM1563 881q0 -118 -13 -189h-1013q0 -276 153 -426t373.5 -152t390.5 128l21 -43q-82 -117 -206 -170.5t-256 -53.5t-257 45.5t-269.5 186t-152.5 485.5q-162 4 -249 91t-87 208
q0 43 15.5 99.5t52.5 97.5q47 0 104 -20.5t98 -47.5l17 -33l-168 -161q43 -122 219 -127q23 314 204 486.5t445 172.5t379 -114.5t157 -229.5t42 -233z" />
    <glyph glyph-name="uni04BD" unicode="&#x4bd;" horiz-adv-x="1236" 
d="M948 672q0 286 -208 286q-110 0 -171 -78.5t-73 -277.5h448q4 36 4 70zM0 758q0 100 63 174q45 4 96 -26.5t68 -80.5l-123 -116q20 -95 191 -107q23 217 140.5 332t318.5 115q261 0 324 -138.5t63 -229.5t-15 -169h-639q0 -181 89.5 -295.5t261.5 -114.5q113 0 174 29
t80 45l30 -33q-32 -69 -132.5 -118.5t-214.5 -49.5q-229 0 -356.5 145t-127.5 392q-152 4 -221.5 75t-69.5 171z" />
    <glyph glyph-name="uni04BE" unicode="&#x4be;" horiz-adv-x="1671" 
d="M1360 916q0 71 -28.5 157t-107.5 182.5t-257 96.5t-298 -147t-132 -406h819q4 46 4 117zM1563 881q0 -118 -13 -189h-1013q0 -276 153 -426t373.5 -152t390.5 128l21 -43q-74 -104 -179.5 -157.5t-216.5 -64.5q-27 -204 -65 -368h-53q-20 96 -36 190.5t-32 186.5
q-41 5 -131 34q-192 62 -308 236.5t-120 435.5q-162 4 -249 91t-87 208q0 43 15.5 99.5t52.5 97.5q47 0 104 -20.5t98 -47.5l17 -33l-168 -161q43 -122 219 -127q23 314 204 486.5t445 172.5t379 -114.5t157 -229.5t42 -233z" />
    <glyph glyph-name="uni04BF" unicode="&#x4bf;" horiz-adv-x="1236" 
d="M948 670q0 131 -49 209.5t-159 78.5t-171 -78.5t-73 -277.5h448q4 36 4 68zM0 758q0 100 63 174q45 4 96 -26.5t68 -80.5l-123 -116q20 -95 191 -107q23 217 140.5 332t318.5 115q261 0 324 -138.5t63 -229.5t-15 -169h-639q0 -181 89.5 -295.5t261.5 -114.5
q113 0 174 29t80 45l30 -33q-31 -63 -112.5 -109t-180.5 -57q-23 -204 -57 -346h-53q-20 98 -32.5 180.5t-27.5 174.5q-184 35 -275 174t-93 352q-152 4 -221.5 75t-69.5 171z" />
    <glyph glyph-name="uni04C0" unicode="&#x4c0;" horiz-adv-x="720" 
d="M623 0h-525v59q80 37 164 50v1214q-67 13 -164 51v60h525v-60q-70 -30 -164 -51v-1214q99 -18 164 -50v-59z" />
    <glyph glyph-name="uni04C3" unicode="&#x4c3;" horiz-adv-x="1323" 
d="M1030 2q0 202 -139 372t-219 231t-117 81h-131v-577q94 -16 154 -50v-59h-519v59q82 33 168 50v1214q-92 12 -168 51v60h519v-60q-79 -34 -154 -51v-567l123 28l381 539q-82 20 -146 51v60h451v-60q-78 -34 -156 -51l-409 -543q90 -41 188 -118.5t234.5 -243
t136.5 -385.5q0 -221 -130 -336.5t-339 -128.5l-13 55q285 60 285 379z" />
    <glyph glyph-name="uni04C4" unicode="&#x4c4;" horiz-adv-x="1107" 
d="M666 1024h395v-53q-23 -18 -137 -58q-150 -180 -312 -342q57 -25 132 -82t185.5 -195.5t110.5 -328.5t-94 -289.5t-270 -109.5l-10 57q109 33 149.5 103t40.5 178t-39 200.5t-96 169t-123 133t-117 78.5h-82v-385q97 -24 133 -49v-51h-452v51q55 33 135 49v822
q-72 14 -135 49v53h420v-53q-46 -32 -101 -49v-383l95 20q82 94 155.5 176t136.5 178q-81 32 -120 58v53z" />
    <glyph glyph-name="uni04C5" unicode="&#x4c5;" horiz-adv-x="1343" 
d="M918 1327h-383q-21 -834 -111 -1010t-135 -234q-84 -108 -219 -108q-27 31 -56.5 104.5t-33.5 133.5l30 51l236 -43q112 184 140 514t28 578q-127 20 -209 61v60h1077v-60q-72 -37 -168 -51v-1217h225l17 -18q-21 -104 -98.5 -230t-106.5 -165h-55l59 307h-393v59
q50 21 156 50v1218z" />
    <glyph glyph-name="uni04C6" unicode="&#x4c6;" horiz-adv-x="1118" 
d="M193 1024h837v-53q-66 -37 -135 -49v-832h201l10 -16q-29 -143 -97.5 -250t-86.5 -127h-56l56 303h-332v51q49 35 121 49v834h-271q-8 -414 -84.5 -654t-148.5 -278.5t-111 -30.5q-31 35 -58.5 91.5t-31.5 103.5l29 51l174 -41q83 140 102 382.5t19 342.5q-72 21 -137 70
v53z" />
    <glyph glyph-name="uni04C7" unicode="&#x4c7;" horiz-adv-x="1490" 
d="M578 0h-519v59q82 33 168 50v1214q-96 14 -168 51v60h519v-60q-66 -34 -154 -51v-535h643v535q-86 20 -154 51v60h519v-60q-56 -30 -168 -51v-1323q0 -260 -78 -330.5t-151.5 -86t-168.5 -15.5l-12 55q115 26 164 104t49 273v682h-643v-573q85 -17 154 -50v-59z" />
    <glyph glyph-name="uni04C8" unicode="&#x4c8;" horiz-adv-x="1253" 
d="M520 0h-440v51q44 25 135 49v822q-95 26 -135 49v53h440v-53q-47 -29 -121 -49v-359h455v359q-72 12 -123 49v53h443v-53q-55 -35 -136 -49v-922q0 -240 -89 -333t-275 -101l-10 57q114 33 152 105.5t38 273.5v471h-455v-373q77 -15 121 -49v-51z" />
    <glyph glyph-name="uni04C9" unicode="&#x4c9;" horiz-adv-x="1495" 
d="M578 0h-519v59q82 33 168 50v1214q-96 14 -168 51v60h519v-60q-66 -34 -154 -51v-535h643v535q-86 20 -154 51v60h519v-60q-56 -30 -168 -51v-1217h227l16 -18q-13 -65 -74.5 -182t-132.5 -213h-55l62 307h-394v59q74 33 154 50v573h-643v-573q85 -17 154 -50v-59z" />
    <glyph glyph-name="uni04CA" unicode="&#x4ca;" horiz-adv-x="1259" 
d="M520 0h-440v51q44 25 135 49v822q-95 26 -135 49v53h440v-53q-47 -29 -121 -49v-359h455v359q-72 12 -123 49v53h443v-53q-55 -35 -136 -49v-832h185l10 -16q-29 -143 -97.5 -250t-86.5 -127h-54l54 303h-318v51q51 37 123 49v373h-455v-373q77 -15 121 -49v-51z" />
    <glyph glyph-name="uni04CB" unicode="&#x4cb;" horiz-adv-x="1302" 
d="M1243 0h-377l-86 -309h-51q-25 127 -34 251t-9 164h225v529q-163 -92 -354 -92t-291 83t-100 298v399q-65 10 -148 51v60h480v-60q-75 -36 -136 -51v-360q0 -314 252 -314q165 0 297 84v590q-54 15 -145 51v60h477v-60q-72 -35 -135 -51v-1214q83 -16 135 -50v-59z" />
    <glyph glyph-name="uni04CC" unicode="&#x4cc;" horiz-adv-x="1142" 
d="M166 635v287q-78 14 -135 49v53h440v-53q-49 -34 -121 -49v-246q0 -213 178 -213q105 0 215 63v396q-61 12 -120 49v53h440v-53q-55 -35 -135 -49v-822q88 -21 135 -49v-51h-336l-92 -303h-53q-21 341 -23 393h184v377q-112 -121 -286 -121q-139 0 -215 78t-76 211z" />
    <glyph glyph-name="uni04CD" unicode="&#x4cd;" horiz-adv-x="1781" 
d="M1561 106h223l16 -14q-24 -115 -100 -237.5t-105 -161.5h-55l59 307h-393v59q56 22 166 50v921l8 240h-16l-68 -219l-419 -1051h-54l-399 1051l-74 239h-18l2 -260v-921q80 -16 155 -50v-59h-428v59q86 35 166 52v1212q-71 13 -168 51v60h420l357 -936l69 -211h2l70 215
l369 932h370v-60q-87 -38 -155 -51v-1217z" />
    <glyph glyph-name="uni04CE" unicode="&#x4ce;" horiz-adv-x="1527" 
d="M424 0h-361v51q68 33 136 49l30 801q-58 22 -135 70v53h400l208 -600l39 -141h7l43 143l221 598h387v-53q-59 -35 -135 -49l45 -832h190l10 -16q-18 -88 -76.5 -202t-107.5 -175h-55l55 303h-319v51q58 29 122 49l-41 830h-16l-336 -930h-57l-330 930h-16l-31 -830
q74 -23 123 -49v-51z" />
    <glyph glyph-name="uni04CF" unicode="&#x4cf;" horiz-adv-x="622" 
d="M543 0h-463v51q41 20 143 49v1231q-105 22 -143 49v54h463v-54q-41 -26 -135 -49v-1231q83 -24 135 -49v-51z" />
    <glyph glyph-name="uni04D0" unicode="&#x4d0;" horiz-adv-x="1398" 
d="M455 590h413l-161 434l-39 176h-4l-52 -180zM455 0h-455v59q74 33 147 50l519 1349h59l518 -1349q108 -21 156 -50v-59h-525v59q77 30 168 50l-139 374h-489l-135 -374q86 -12 176 -50v-59zM710 1575q99 0 160 22v181l52 26q30 2 74 -11t71 -34q0 -182 -195 -239
q-67 -21 -163 -21q-188 0 -276 75q-87 75 -87 185q40 40 154 45l51 -26v-174q60 -29 159 -29z" />
    <glyph glyph-name="uni04D1" unicode="&#x4d1;" horiz-adv-x="1034" 
d="M430 102q142 0 213 128q16 30 23 51v215q-119 0 -195 -13q-145 -23 -178 -105q-17 -40 -17 -110t45 -118t109 -48zM80 236q0 108 38 168t112 96t182 50q109 15 252 23q26 284 -75 358q-37 27 -83 27q-103 -1 -152 -20l-96 -246h-53q-48 147 -55 256q168 101 369 101
t278 -107q53 -75 53 -219l-10 -455q0 -45 2 -78t4 -69l141 -21v-43q-102 -54 -233 -77h-52q-20 47 -24 103t-6 124h-10q-18 -92 -98 -161t-203 -70q-125 -1 -203 75q-78 77 -78 185zM522 1147q-185 0 -270 78q-68 61 -70 174q56 46 154 55l51 -27v-182q53 -22 137 -22
t142 16v188l51 27q95 -9 143 -55q0 -172 -173 -231q-65 -21 -165 -21z" />
    <glyph glyph-name="uni04D2" unicode="&#x4d2;" horiz-adv-x="1398" 
d="M455 590h413l-161 434l-39 176h-4l-52 -180zM455 0h-455v59q74 33 147 50l519 1349h59l518 -1349q108 -21 156 -50v-59h-525v59q77 30 168 50l-139 374h-489l-135 -374q86 -12 176 -50v-59zM809 1617q0 48 33 73q33 24 83 24t83 -24q32 -24 32 -73q0 -48 -32 -73
q-32 -24 -83 -24q-50 0 -83 24t-33 73zM352 1617q0 48 33 73q33 24 83 24t83 -24t33 -73q0 -48 -33 -73q-33 -24 -83 -24t-83 24t-33 73z" />
    <glyph glyph-name="uni04D3" unicode="&#x4d3;" horiz-adv-x="1034" 
d="M430 102q142 0 213 128q16 30 23 51v215q-119 0 -195 -13q-145 -23 -178 -105q-17 -40 -17 -110t45 -118t109 -48zM80 236q0 108 38 168t112 96t182 50q109 15 252 23q26 284 -75 358q-37 27 -83 27q-103 -1 -152 -20l-96 -246h-53q-48 147 -55 256q168 101 369 101
t278 -107q53 -75 53 -219l-10 -455q0 -45 2 -78t4 -69l141 -21v-43q-102 -54 -233 -77h-52q-20 47 -24 103t-6 124h-10q-18 -92 -98 -161t-203 -70q-125 -1 -203 75q-78 77 -78 185zM627 1359q0 48 30 78q31 29 80 29t80 -30t31 -77q0 -48 -31 -77t-80 -29t-80 29
q-30 29 -30 77zM172 1359q0 48 31 78q31 29 80 29t79 -30t31 -77q0 -48 -31 -77q-32 -29 -80 -29t-79 29t-31 77z" />
    <glyph glyph-name="uni04D4" unicode="&#x4d4;" horiz-adv-x="1886" 
d="M924 631v620h-4l-84 -190l-252 -430h340zM1120 1327v-543h332l82 152h49q16 -203 0 -414h-49l-82 156h-332v-572h471l99 246h53q29 -205 22 -352h-1009v59q72 33 168 50v415h-402l-237 -415q84 -12 174 -50v-59h-459v59q74 33 147 50l725 1226q-76 21 -118 39v60h970
q-5 -215 -22 -332h-51l-86 225h-445z" />
    <glyph glyph-name="uni04D5" unicode="&#x4d5;" horiz-adv-x="1593" 
d="M1305 672q-1 286 -209 286q-110 0 -171 -78.5t-73 -277.5h448q5 45 5 70zM430 102q103 0 158.5 57.5t75.5 114.5v222q-230 0 -309 -48.5t-79 -148.5t45 -148.5t109 -48.5zM530 1049q212 0 269 -121q55 60 121.5 90.5t164.5 30.5q189 0 300.5 -92t111.5 -298
q0 -75 -14 -147h-635q0 -180 88 -295t256 -115q113 0 175.5 29t80.5 45l31 -33q-32 -70 -133.5 -119t-312 -49t-316.5 226q-33 -96 -129.5 -161t-223.5 -65t-205.5 76.5t-78.5 184.5t38 168.5t111.5 95.5t182 50t252.5 23q6 63 6 119q0 125 -39 195.5t-133 70.5t-144 -20
l-96 -246h-53q-48 147 -55 256q168 101 380 101z" />
    <glyph glyph-name="uni04D6" unicode="&#x4d6;" horiz-adv-x="1191" 
d="M424 1327v-543h334l80 152h51q12 -203 0 -414h-51l-80 156h-334v-572h471l100 246h52q30 -182 22 -352h-1010v59q72 33 168 50v1214q-75 15 -168 51v60h971q-5 -185 -22 -332h-54l-84 225h-446zM600 1575q98 0 162 22v181l51 26q31 2 75 -11t70 -34q0 -181 -194 -239
q-68 -21 -164 -21q-188 0 -275 75t-87 185q40 40 153 45l51 -26v-174q60 -29 158 -29z" />
    <glyph glyph-name="uni04D7" unicode="&#x4d7;" horiz-adv-x="1030" 
d="M741 672q-1 286 -209 286q-110 0 -172 -78q-61 -79 -73 -278h450q4 36 4 70zM934 677q0 -93 -14 -165h-639q0 -182 90 -296q90 -115 258 -114q71 0 145 20t111 54l28 -33q-32 -69 -128 -118q-97 -48 -214 -49q-235 -2 -361 145t-126 400t121 390t342 138q261 0 353 -204
q34 -75 34 -168zM543 1147q-184 0 -262 70t-78 182q56 46 153 55l52 -27v-182q53 -22 137 -22q83 0 141 16v188l51 27q94 -9 144 -55q0 -172 -173 -231q-65 -21 -165 -21z" />
    <glyph glyph-name="uni04D8" unicode="&#x4d8;" horiz-adv-x="1454" 
d="M1026 222q107 140 117 433h-819q-21 -147 15 -255.5t121 -213t272 -104.5t294 140zM109 639q0 57 6 123h1028q-8 275 -140 432.5t-382 157.5q-157 0 -220 -29l-108 -297h-51q-39 198 -29 348q72 35 184.5 59.5t231.5 24.5q356 0 536.5 -186.5t180.5 -548.5t-164.5 -555
t-449.5 -193q-293 0 -458 168t-165 496z" />
    <glyph glyph-name="afii10846" unicode="&#x4d9;" horiz-adv-x="1062" 
d="M523 66q240 0 259 385h-489q-14 -176 50 -280.5t180 -104.5zM96 373q0 88 15 168h675q0 299 -102 358t-189 59t-137 -20l-98 -244h-51q-43 137 -51 256q78 47 160.5 73t202.5 26q235 0 346.5 -143t111.5 -399q0 -257 -122 -394.5t-341 -137.5q-163 0 -252.5 74
t-128.5 155t-39 169z" />
    <glyph glyph-name="uni04DA" unicode="&#x4da;" horiz-adv-x="1454" 
d="M733 82q186 0 293 140q106 140 117 433h-819q-21 -147 15 -255q68 -206 221 -280q77 -38 173 -38zM109 639q0 57 6 123h1028q-8 277 -140 433q-132 157 -382 157q-162 0 -220 -29l-108 -297h-51q-39 199 -29 348q73 35 185 60t231 24q715 0 717 -741q0 -359 -165 -550
q-165 -192 -453 -192q-289 0 -454 167t-165 497zM793 1617q0 48 32 73q33 24 83 24t83 -24t33 -73q0 -48 -33 -73q-33 -24 -83 -24t-83 24q-32 25 -32 73zM336 1617q0 48 33 73q33 24 83 24t83 -24t33 -73q0 -48 -34 -73q-32 -24 -82 -24t-83 24t-33 73z" />
    <glyph glyph-name="uni04DB" unicode="&#x4db;" horiz-adv-x="1062" 
d="M523 66q242 0 259 385h-489q-14 -177 50 -281t180 -104zM96 373q0 88 15 168h675q0 194 -59 296q-71 121 -233 121q-86 0 -136 -20l-98 -244h-51q-43 137 -51 256q78 47 160 73t203 26q235 0 347 -144q111 -144 111 -399q0 -256 -122 -393t-341 -138q-162 0 -282 98
q-60 50 -99 131t-39 169zM649 1359q0 48 31 78q31 29 80 29t80 -30q30 -30 30 -77q0 -48 -30 -77t-80 -29q-49 0 -80 29t-31 77zM195 1359q0 48 30 78q31 29 80 29t80 -30t31 -77q0 -48 -31 -77t-80 -29t-80 29q-30 29 -30 77z" />
    <glyph glyph-name="uni04DC" unicode="&#x4dc;" horiz-adv-x="1939" 
d="M723 1434h475v-60q-21 -10 -133 -51v-567l139 28l344 539q-15 4 -147 51v60h450v-60q-52 -23 -153 -51l-373 -545q53 -68 166 -226q215 -302 352 -452l96 -49v-51h-256l-69 51q-121 141 -220 304t-210 331h-119v-577q90 -26 133 -50v-59h-477v59q61 33 147 50v596
l-123 -31q-111 -168 -205 -325t-214 -298l-70 -51h-256v51l96 49q201 217 408 511q57 81 104 149l-385 563q-84 25 -145 51v60h452v-60q-64 -31 -139 -51l346 -551h131v551q-97 27 -145 51v60zM1079 1617q0 48 33 73q33 24 83 24t83 -24t33 -73q0 -48 -33 -73
q-33 -24 -83 -24t-83 24t-33 73zM623 1617q0 48 32 73q33 24 83 24t83 -24t33 -73q0 -48 -33 -73q-33 -24 -83 -24t-83 24q-32 25 -32 73z" />
    <glyph glyph-name="uni04DD" unicode="&#x4dd;" horiz-adv-x="1478" 
d="M1083 1024h355v-53q-35 -25 -117 -49q-65 -90 -135 -176t-137 -173q27 -37 139 -197t207 -276l84 -49v-51h-217l-58 47q-64 85 -153 234t-125 204h-99v-385q63 -16 123 -49v-51h-411v51q74 36 114 49v398l-112 -21q-19 -31 -112 -195t-155 -235l-61 -47h-213v51l94 49
q120 139 270 368q36 54 64 91q-147 166 -287 363q-53 12 -102 49v53h354v-53q-39 -29 -102 -49q55 -98 120 -186t136 -185h106v371q-68 14 -114 49v53h397v-53q-44 -35 -109 -49v-383l113 20q165 224 246 363q-71 24 -103 49v53zM856 1359q0 48 31 78q31 29 80 29t80 -30
t31 -77q0 -48 -32 -77q-30 -29 -79 -29t-80 29t-31 77zM401 1359q0 48 31 78q31 29 80 29t80 -30t31 -77q0 -48 -31 -77t-80 -29t-80 29t-31 77z" />
    <glyph glyph-name="uni04DE" unicode="&#x4de;" horiz-adv-x="1134" 
d="M460 82q108 0 170 24t107 67q96 90 95 233q-1 144 -87 212t-225 68l-158 -22q-14 63 -2 118h66q93 0 166 11q194 69 194 295q0 116 -76 190q-77 74 -208 74t-166 -39l-107 -250h-53q-26 143 -22 311q48 39 147 61q100 23 196 23q216 0 331 -68q155 -90 155 -284
q0 -104 -60 -196t-192 -142v-8q206 -34 274 -207q23 -61 23 -159t-44 -179q-44 -82 -118 -135q-147 -105 -373 -105t-391 80q0 148 52 342h53l86 -286q59 -29 167 -29zM657 1617q0 48 33 73q33 24 83 24t83 -24t33 -73q0 -48 -33 -73q-33 -24 -83 -24t-83 24t-33 73z
M201 1617q0 48 32 73q33 24 83 24t83 -24t33 -73q0 -48 -33 -73q-33 -24 -83 -24t-83 24q-32 25 -32 73z" />
    <glyph glyph-name="uni04DF" unicode="&#x4df;" horiz-adv-x="970" 
d="M447 1049q374 0 374 -240q0 -90 -66 -158t-157 -96q112 -11 188 -73t76 -177q0 -164 -112 -247t-315 -83q-202 0 -341 123l37 138h41q28 -29 60 -69t65 -79q43 -16 115 -16q128 0 188 68t61 166q1 97 -41 132t-114 47l-193 -30q-18 62 0 110h209q69 31 104 129
q11 35 11 78q0 98 -54 142t-140 44t-121 -14l-93 -231h-51q-40 120 -45 268q122 68 314 68zM588 1359q0 48 30 78q31 29 80 29t80 -30t31 -77q0 -48 -31 -77t-80 -29t-80 29q-30 29 -30 77zM133 1359q0 48 31 78q31 29 80 29t80 -30q30 -30 30 -77q0 -48 -30 -77t-80 -29
q-49 0 -80 29t-31 77z" />
    <glyph glyph-name="uni04E0" unicode="&#x4e0;" horiz-adv-x="1136" 
d="M460 82q108 0 170 24.5t131.5 91t69.5 209.5t-98 216t-235 73l-156 -22q-14 63 -2 121l137 2l264 428l60 71v9l-113 -13h-407l-80 -221h-51q-44 236 -44 363h863v-64l-312 -473l-82 -104q213 0 333 -104.5t120 -278.5q0 -213 -157 -324t-383 -111t-386 80q0 93 20.5 198
t31.5 144h53l86 -286q59 -29 167 -29z" />
    <glyph glyph-name="uni04E1" unicode="&#x4e1;" horiz-adv-x="960" 
d="M881 -14q0 -198 -131.5 -309t-341.5 -111q-94 0 -185.5 34.5t-150.5 88.5l37 137h41q47 -50 122 -148q43 -16 121 -16q148 0 225.5 92.5t77.5 235.5t-85.5 222t-213.5 79l-118 -21q-14 68 0 113h98l237 426l56 88v8l-111 -12h-321l-80 -205h-52q-37 176 -43 336h760v-63
l-268 -476l-82 -104q293 0 350.5 -148.5t57.5 -246.5z" />
    <glyph glyph-name="uni04E2" unicode="&#x4e2;" horiz-adv-x="1513" 
d="M578 0h-519v59q82 37 168 50v1214q-99 24 -168 51v60h519v-60q-60 -29 -154 -51v-889l-23 -153l99 161l600 832v49q-82 18 -166 51v60h520v-60q-53 -23 -168 -51v-1214q96 -16 168 -50v-59h-520v59q84 36 156 50v886l20 154l-90 -154l-608 -841v-45q97 -17 166 -50v-59z
M453 1614v106h616v-106h-616z" />
    <glyph glyph-name="uni04E3" unicode="&#x4e3;" horiz-adv-x="1253" 
d="M80 1024h434v-53q-57 -30 -123 -49v-562l-22 -190h10l80 154l438 700h277v-53q-66 -37 -136 -49v-822q98 -25 136 -49v-51h-435v51q57 33 123 49v586l21 162h-11l-77 -154l-435 -694h-280v51q61 28 135 49v822q-80 12 -135 49v53zM373 1305v106h518v-106h-518z" />
    <glyph glyph-name="uni04E4" unicode="&#x4e4;" horiz-adv-x="1513" 
d="M578 0h-519v59q82 37 168 50v1214q-99 24 -168 51v60h519v-60q-60 -29 -154 -51v-889l-23 -153l99 161l600 832v49q-82 18 -166 51v60h520v-60q-53 -23 -168 -51v-1214q96 -16 168 -50v-59h-520v59q84 36 156 50v886l20 154l-90 -154l-608 -841v-45q97 -17 166 -50v-59z
M874 1617q0 48 33 73q33 24 83 24t83 -24t33 -73q0 -48 -33 -73q-33 -24 -83 -24t-83 24t-33 73zM418 1617q0 48 33 73q33 24 83 24t82 -24t33 -73q0 -48 -33 -73q-32 -24 -82 -24t-83 24t-33 73z" />
    <glyph glyph-name="uni04E5" unicode="&#x4e5;" horiz-adv-x="1253" 
d="M80 1024h434v-53q-57 -30 -123 -49v-562l-22 -190h10l80 154l438 700h277v-53q-66 -37 -136 -49v-822q98 -25 136 -49v-51h-435v51q57 33 123 49v586l21 162h-11l-77 -154l-435 -694h-280v51q61 28 135 49v822q-80 12 -135 49v53zM743 1359q0 48 31 78q31 29 80 29
t80 -30t31 -77q0 -48 -31 -77t-80 -29t-80 29t-31 77zM289 1359q0 48 30 78q31 29 80 29t80 -30t31 -77q0 -48 -31 -77t-80 -29t-80 29q-30 29 -30 77z" />
    <glyph glyph-name="uni04E6" unicode="&#x4e6;" horiz-adv-x="1515" 
d="M328 717q0 -131 28 -247q57 -241 222 -338q84 -50 193 -50t187 50t128 136q102 175 102 452t-109 445q-120 187 -336 187t-321 -187q-94 -165 -94 -448zM109 717q0 160 44 296q90 278 330 390q121 55 275 55q304 0 476 -207q173 -207 173 -533q0 -327 -173 -534
t-476 -208q-304 -1 -477 206q-172 207 -172 535zM870 1617q0 48 33 73q33 24 83 24t83 -24t33 -73q0 -48 -33 -73q-33 -24 -83 -24t-83 24t-33 73zM414 1617q0 48 32 73q33 24 83 24t83 -24t33 -73q0 -48 -33 -73q-33 -24 -83 -24t-83 24q-32 25 -32 73z" />
    <glyph glyph-name="uni04E7" unicode="&#x4e7;" horiz-adv-x="1132" 
d="M281 512q0 -312 172 -412q61 -35 147 -34q112 0 182 108t70 338q0 307 -166 412q-57 35 -137 34q-121 0 -195 -108q-73 -109 -73 -338zM84 516q0 125 34 224q69 201 250 273q88 36 206 36q237 0 356 -144t119 -398q0 -253 -131 -392t-353 -140q-355 0 -451 317
q-30 99 -30 224zM786 1253q-50 0 -80 29t-30 77t31 78q31 29 79 29t80 -30q31 -30 31 -77q0 -48 -31 -77t-80 -29zM221 1359q0 48 31 78q31 29 80 29t80 -30q30 -30 30 -77q0 -48 -30 -77t-80 -29q-49 0 -80 29t-31 77z" />
    <glyph glyph-name="uni04E8" unicode="&#x4e8;" horiz-adv-x="1515" 
d="M440.5 1197.5q-99.5 -154.5 -112.5 -404.5h860q-17 248 -129.5 403.5t-315.5 155.5t-302.5 -154.5zM772 82q195 0 301.5 165t114.5 423h-860q13 -404 176.5 -496t267.5 -92zM109 717q0 160 44 296t126.5 235.5t203.5 154.5t274.5 55t274.5 -55t204 -154.5t127 -235.5
t44 -296t-44 -296t-127 -235.5t-204 -155t-274.5 -55.5t-274.5 55.5t-203.5 155t-126.5 235.5t-44 296z" />
    <glyph glyph-name="uni04E9" unicode="&#x4e9;" horiz-adv-x="1132" 
d="M611 66q93 0 164 97t77 304h-571q13 -286 125 -343.5t205 -57.5zM549 958q-115 0 -186.5 -93t-81.5 -292h571q-20 271 -124.5 328t-178.5 57zM215 908q131 141 350 141q365 0 424.5 -208t59.5 -329q0 -258 -131.5 -397.5t-361.5 -139.5t-351 144t-121 396t131 393z" />
    <glyph glyph-name="uni04EA" unicode="&#x4ea;" horiz-adv-x="1515" 
d="M439 1195q-101 -157 -111 -402h860q-17 248 -125 397q-117 162 -320 162t-304 -157zM447 253q121 -171 320 -171t306 165t115 423h-860q9 -263 119 -417zM109 717q0 160 44 296q90 278 330 390q121 55 275 55q304 0 476 -207q173 -207 173 -533q0 -327 -173 -534
t-476 -208q-304 -1 -477 206q-172 207 -172 535zM870 1617q0 48 33 73q33 24 83 24t83 -24t33 -73q0 -48 -33 -73q-33 -24 -83 -24t-83 24t-33 73zM414 1617q0 48 32 73q33 24 83 24t83 -24t33 -73q0 -48 -33 -73q-33 -24 -83 -24t-83 24q-32 25 -32 73z" />
    <glyph glyph-name="uni04EB" unicode="&#x4eb;" horiz-adv-x="1132" 
d="M611 66q93 0 164 97t77 304h-571q13 -287 177 -371q60 -30 153 -30zM549 958q-115 0 -187 -93t-81 -292h571q-20 270 -175 356q-54 29 -128 29zM84 516q0 125 34 224q69 201 250 273q88 36 206 36q237 0 356 -144t119 -398q0 -253 -131 -392t-353 -140q-355 0 -451 317
q-30 99 -30 224zM682 1359q0 48 31 78q31 29 80 29t79 -30t31 -77q0 -48 -31 -77q-32 -29 -80 -29t-79 29t-31 77zM227 1359q0 48 31 78q31 29 80 29t80 -30t31 -77q0 -48 -31 -77t-80 -29t-80 29t-31 77z" />
    <glyph glyph-name="uni04EC" unicode="&#x4ec;" horiz-adv-x="1296" 
d="M131 1374q104 84 385 84q137 0 267 -42q131 -42 221 -131t137 -229t47 -337t-58 -337q-111 -271 -369 -364q-122 -43 -253 -43q-245 0 -389 70q13 213 31 354h53l106 -299q34 -18 153 -18q227 0 365 156q156 174 156 467l-596 -62q-10 41 -10 81t10 79l596 -2
q-16 276 -148 413t-360 138q-123 0 -164 -39l-106 -250h-53q-21 142 -21 311zM674 1617q0 48 33 73q33 24 83 24t82 -24q33 -24 33 -73q0 -48 -33 -73q-33 -24 -83 -24q-51 0 -83 24t-32 73zM217 1617q0 48 33 73q33 24 83 24t83 -24t33 -73q0 -48 -33 -73q-33 -24 -83 -24
t-83 24t-33 73z" />
    <glyph glyph-name="uni04ED" unicode="&#x4ed;" horiz-adv-x="1005" 
d="M125 967q145 82 321 82q476 0 476 -517q0 -274 -140 -415q-140 -142 -344 -142q-205 0 -344 123l37 138h41q37 -39 123 -148q43 -16 127 -16q135 0 218 110t85 299l-406 -30q-23 55 0 110h406q-14 397 -299 397q-84 0 -104 -14l-91 -250h-51q-38 121 -55 273zM573 1359
q0 48 31 78q31 29 80 29t80 -30t31 -77q0 -48 -31 -77t-80 -29t-80 29t-31 77zM229 1253q-49 0 -79 29t-31 77q0 48 31 78q32 29 80 29t79 -30t31 -77q0 -48 -31 -77t-80 -29z" />
    <glyph glyph-name="uni04EE" unicode="&#x4ee;" horiz-adv-x="1351" 
d="M895 1434h457v-60q-60 -27 -148 -51l-401 -911q-92 -237 -181 -342t-200 -80q-47 71 -66 221l31 51l211 -55q36 36 66 139l-510 977q-89 23 -154 51v60h539v-60q-73 -29 -166 -51l340 -678l43 -131h4l41 135l268 674q-102 18 -174 51v60zM395 1614v106h617v-106h-617z
" />
    <glyph glyph-name="uni04EF" unicode="&#x4ef;" horiz-adv-x="1034" 
d="M-23 1024h429v-51q-43 -29 -117 -51l262 -607l39 -127h4l31 129l194 605q-61 12 -112 49v53h350v-53q-43 -29 -117 -49l-319 -922q-91 -242 -174 -332q-83 -89 -197 -108q-34 58 -70 176l27 49h213q34 46 55 104q20 58 37 111l-426 922q-53 14 -109 49v53zM295 1305v106
h518v-106h-518z" />
    <glyph glyph-name="uni04F0" unicode="&#x4f0;" horiz-adv-x="1351" 
d="M895 1434h457v-60q-60 -27 -148 -51l-401 -911q-92 -237 -181 -342t-200 -80q-47 71 -66 221l31 51l211 -55q36 36 66 139l-510 977q-89 23 -154 51v60h539v-60q-73 -29 -166 -51l340 -678l43 -131h4l41 135l268 674q-102 18 -174 51v60zM840 1617q0 48 32 73
q33 24 83 24t83 -24t33 -73q0 -48 -33 -73q-33 -24 -83 -24t-83 24q-32 25 -32 73zM383 1617q0 48 33 73q33 24 83 24t83 -24q32 -24 32 -73q0 -48 -32 -73q-32 -24 -83 -24q-50 0 -83 24t-33 73z" />
    <glyph glyph-name="uni04F1" unicode="&#x4f1;" horiz-adv-x="1034" 
d="M-23 1024h429v-51q-43 -29 -117 -51l262 -607l39 -127h4l31 129l194 605q-61 12 -112 49v53h350v-53q-43 -29 -117 -49l-319 -922q-91 -242 -174 -332q-83 -89 -197 -108q-34 58 -70 176l27 49h213q34 46 55 104q20 58 37 111l-426 922q-53 14 -109 49v53zM786 1253
q-50 0 -80 29t-30 77t31 78q31 29 79 29t80 -30q31 -30 31 -77q0 -48 -31 -77t-80 -29zM221 1359q0 48 31 78q31 29 80 29t80 -30q30 -30 30 -77q0 -48 -30 -77t-80 -29q-49 0 -80 29t-31 77z" />
    <glyph glyph-name="uni04F2" unicode="&#x4f2;" horiz-adv-x="1351" 
d="M895 1434h457v-60q-60 -27 -148 -51l-401 -911q-92 -237 -181 -342t-200 -80q-47 71 -66 221l31 51l211 -55q36 36 66 139l-510 977q-89 23 -154 51v60h539v-60q-73 -29 -166 -51l340 -678l43 -131h4l41 135l268 674q-102 18 -174 51v60zM981 1819q33 5 95 -16
q62 -20 77 -40l-2 -20l-363 -195l-43 37zM625 1819q25 4 89 -12t74 -38v-28l-268 -189l-39 37z" />
    <glyph glyph-name="uni04F3" unicode="&#x4f3;" horiz-adv-x="1034" 
d="M-23 1024h429v-51q-43 -29 -117 -51l262 -607l39 -127h4l31 129l194 605q-61 12 -112 49v53h350v-53q-43 -29 -117 -49l-319 -922q-91 -242 -174 -332q-83 -89 -197 -108q-34 58 -70 176l27 49h213q34 46 55 104q20 58 37 111l-426 922q-53 14 -109 49v53zM797 1573
q62 9 140 -32q24 -11 34 -25v-27l-408 -264l-39 37zM442 1573q27 4 93 -10q67 -14 79 -33v-31l-282 -274l-47 32z" />
    <glyph glyph-name="uni04F4" unicode="&#x4f4;" horiz-adv-x="1302" 
d="M1243 0h-520v59q83 39 188 50v526q-166 -94 -356 -93t-280 76q-109 90 -109 306v399q-71 12 -148 51v60h480v-60q-68 -33 -136 -51v-360q0 -314 252 -314q161 0 297 84v590q-54 15 -145 51v60h477v-60q-64 -31 -135 -51v-1214q83 -16 135 -50v-59zM750 1617q0 48 32 73
q33 24 83 24t83 -24t33 -73q0 -48 -33 -73q-33 -24 -83 -24t-83 24q-32 25 -32 73zM293 1617q0 48 33 73q33 24 83 24t83 -24q32 -24 32 -73q0 -48 -32 -73q-32 -24 -83 -24q-50 0 -83 24t-33 73z" />
    <glyph glyph-name="uni04F5" unicode="&#x4f5;" horiz-adv-x="1142" 
d="M166 635v287q-78 14 -135 49v53h440v-53q-49 -34 -121 -49v-246q0 -213 178 -213q109 0 215 63v396q-61 12 -120 49v53h440v-53q-55 -35 -135 -49v-822q88 -21 135 -49v-51h-483v51q84 35 163 49v367q-112 -121 -286 -121q-139 0 -215 78t-76 211zM670 1359q0 48 30 78
q31 29 80 29t80 -30t31 -77q0 -48 -31 -77t-80 -29t-80 29q-30 29 -30 77zM215 1359q0 48 31 78q31 29 80 29t80 -30q30 -30 30 -77q0 -48 -30 -77t-80 -29q-49 0 -80 29t-31 77z" />
    <glyph glyph-name="uni04F6" unicode="&#x4f6;" horiz-adv-x="1038" 
d="M59 1434h959q0 -249 -23 -414h-53l-106 307h-412v-1221h207q0 -104 -17.5 -239t-25.5 -176h-51l-86 309h-392v59q82 33 168 50v1214q-75 15 -168 51v60z" />
    <glyph glyph-name="uni04F7" unicode="&#x4f7;" horiz-adv-x="880" 
d="M399 934v-844h199q-10 -257 -23 -393h-51l-92 303h-352v51q53 30 135 49v824q-76 12 -135 47v53h764q-5 -195 -25 -336h-53l-90 246h-277z" />
    <glyph glyph-name="uni04F8" unicode="&#x4f8;" horiz-adv-x="1728" 
d="M897 438q0 324 -334 324q-107 0 -139 -10v-643q23 -9 78 -9h67q143 0 236 86q92 86 92 252zM59 0v59q80 37 168 50v1214q-99 24 -168 51v60h545v-60q-82 -34 -180 -51v-469q129 14 207 14q337 0 443 -213q42 -82 42 -206q0 -224 -160 -340q-160 -117 -376 -115l-256 6
h-265zM1669 0h-520v59q55 27 160 50v1214q-39 10 -79 20t-81 31v60h520v-60q-68 -33 -164 -51v-1214q90 -14 164 -50v-59zM991 1617q0 48 33 73q33 24 83 24t83 -24t33 -73q0 -48 -33 -73q-33 -24 -83 -24t-83 24t-33 73zM535 1617q0 48 32 73q33 24 83 24t83 -24t33 -73
q0 -48 -33 -73q-33 -24 -83 -24t-83 24q-32 25 -32 73z" />
    <glyph glyph-name="uni04F9" unicode="&#x4f9;" horiz-adv-x="1527" 
d="M1448 0h-440v51q73 35 120 49v822q-78 14 -122 49v53h442v-53q-41 -26 -135 -49v-822q83 -24 135 -49v-51zM524 532q-84 0 -125 -8v-436l54 -4t55 -2q231 0 231 246q0 204 -215 204zM80 1024h442v-53q-47 -29 -123 -49v-316q35 4 78 10t125 7q154 0 247 -72t93 -228
t-111 -245q-111 -88 -290 -86l-271 8h-190v51q53 30 135 49v822q-67 10 -135 49v53zM997 1253q-49 0 -79 29t-31 77q0 48 31 78q32 29 80 29t79 -30t31 -77q0 -48 -31 -77t-80 -29zM432 1359q0 48 31 78q31 29 80 29t80 -30t31 -77q0 -48 -32 -77q-30 -29 -79 -29t-80 29
t-31 77z" />
    <glyph glyph-name="uni04FC" unicode="&#x4fc;" horiz-adv-x="1372" 
d="M492 0h-472v59q44 24 152 50l401 612l-385 602q-81 24 -161 51v60h542v-60q-79 -29 -157 -51l286 -463l281 463q-84 18 -170 51v60h471v-60q-83 -33 -156 -51l-358 -555q125 -184 213 -306t141.5 -211t78 -158.5t24.5 -154.5q0 -170 -108 -272t-275 -98l-13 55
q96 41 147.5 101.5t51.5 162.5t-80.5 267t-306.5 469l-313 -517q113 -16 166 -47v-59z" />
    <glyph glyph-name="uni04FD" unicode="&#x4fd;" horiz-adv-x="1062" 
d="M664 1024h342v-53q-39 -27 -115 -49l-281 -373q41 -55 203 -252.5t162 -398.5q0 -154 -94.5 -238t-270.5 -94l-10 57q111 35 151 98t40 153t-35 167.5t-83 152t-97.5 138t-77.5 106.5l-230 -338q50 -17 103 -49v-51h-351v51q57 35 115 49l305 408l-307 414
q-60 21 -100 49v53h411v-51q-64 -41 -100 -51l213 -308l209 308q-70 23 -102 49v53z" />
    <glyph glyph-name="uni0510" unicode="&#x510;" horiz-adv-x="1116" 
d="M410 768q-256 84 -256 322q0 200 137.5 284t311.5 84t258.5 -33.5t115.5 -58.5q4 -175 -23 -311h-53l-106 252q-39 45 -166 45t-203 -67.5t-76 -219.5q0 -98 52.5 -169t146.5 -103q91 -11 166 -11h65q12 -55 -2 -118l-157 22q-134 0 -226 -78t-92 -221t85 -224t219 -81
t216 41l86 285h54q8 -39 29.5 -139t21.5 -201q-186 -93 -393 -93q-356 0 -435.5 150.5t-79.5 248.5q0 174 87.5 269.5t216.5 116.5v8z" />
    <glyph glyph-name="uni0511" unicode="&#x511;" horiz-adv-x="962" 
d="M868 143q-90 -168 -374 -168q-162 0 -275 80t-113 217q0 194 250 254q-96 39 -152.5 109t-56.5 156q0 131 109 194.5t281 63.5t299 -68q-3 -87 -64 -266h-53l-72 229q-35 14 -117 14q-198 0 -198 -210q0 -99 49 -148t68 -57l206 32q19 -52 0 -110l-190 -2
q-156 -18 -156 -175q0 -89 75.5 -137.5t206.5 -48.5t179.5 28t69.5 42z" />
    <glyph glyph-name="uni0512" unicode="&#x512;" horiz-adv-x="1341" 
d="M918 1327h-383q-21 -834 -111 -1010t-135 -234q-84 -108 -219 -108q-27 31 -56.5 104.5t-33.5 133.5l30 51l236 -43q112 184 140 514t28 578q-127 20 -209 61v60h1077v-60q-72 -37 -168 -51v-1321q0 -260 -94.5 -347t-302.5 -87l-12 55q115 26 164 104t49 273v1327z" />
    <glyph glyph-name="uni0513" unicode="&#x513;" horiz-adv-x="1107" 
d="M193 1024h837v-53q-66 -37 -135 -49v-922q0 -240 -89 -332.5t-276 -101.5l-10 57q113 33 152 104.5t39 272.5v934h-271q-8 -414 -84.5 -654t-148.5 -278.5t-111 -30.5q-31 35 -58.5 91.5t-31.5 103.5l29 51l174 -41q83 140 102 382.5t19 342.5q-72 21 -137 70v53z" />
    <glyph glyph-name="uni051C" unicode="&#x51c;" horiz-adv-x="1912" 
d="M1454 1434h459v-60q-70 -31 -148 -51l-342 -1323l-127 -25l-329 1115l-324 -1090l-125 -25l-362 1348q-87 21 -156 51v60h532v-60q-95 -34 -167 -51l202 -825l45 -267h4l72 271l277 932h69l297 -932l60 -266h4l47 270l188 817q-76 11 -176 51v60z" />
    <glyph glyph-name="uni051D" unicode="&#x51d;" horiz-adv-x="1490" 
d="M1163 1024h348v-53q-43 -29 -116 -49l-291 -922l-109 -25l-202 580l-39 170h-6l-48 -170l-184 -555l-106 -25l-322 947q-76 26 -108 49v53h426v-51q-69 -38 -117 -51l178 -598l27 -148h4l30 152l222 676l61 20l236 -698l36 -150h4l31 150l158 596q-55 10 -113 49v53z" />
    <glyph glyph-name="uni0524" unicode="&#x524;" horiz-adv-x="1501" 
d="M1243 106h227q0 -112 -17 -243t-26 -172h-51l-88 309h-395v59q45 29 154 50v1218h-623v-1218q80 -16 154 -50v-59h-519v59q64 33 168 50v1214q-75 15 -168 51v60h1352v-60q-60 -31 -168 -51v-1217z" />
    <glyph glyph-name="uni0525" unicode="&#x525;" horiz-adv-x="1253" 
d="M852 934h-453v-834q67 -20 121 -49v-51h-440v51q69 40 135 49v822q-96 22 -135 49v53h1091v-53q-73 -43 -135 -49v-834h164q-4 -95 -22 -391h-54l-92 303h-301v51q46 32 121 49v834z" />
    <glyph glyph-name="uni0526" unicode="&#x526;" horiz-adv-x="1374" 
d="M940 471q0 143 -57.5 228t-203.5 85t-288 -86v-589q73 -19 146 -50v-59h-478v59q58 28 136 50v1214q-67 13 -136 51v60h521v-60q-96 -41 -189 -51v-524q163 92 354 92q190 0 291 -83.5t101 -297.5v-406h225q0 -133 -41 -413h-53l-86 309h-377v59q64 31 135 50v362z" />
    <glyph glyph-name="uni0527" unicode="&#x527;" horiz-adv-x="1218" 
d="M725 0v51q49 27 123 49v480q0 160 -45 251t-152 91t-181.5 -66t-100.5 -158v-598q81 -20 120 -49v-51h-440v51q63 33 135 49v1297l-155 16v53q99 42 288 74h52v-723h2q43 96 124 164t179 68t228 -39.5t130 -391.5v-530h168q-4 -95 -22 -391h-54l-92 303h-307z" />
    <glyph glyph-name="uni1E30" unicode="&#x1e30;" horiz-adv-x="1323" 
d="M782 1434h453v-60q-78 -34 -156 -51l-411 -545q110 -147 406 -505q77 -91 151 -173l98 -49v-51h-256l-70 49q-206 240 -473 637h-100v-577q94 -16 154 -50v-59h-519v59q82 33 168 50v1214q-92 12 -168 51v60h519v-60q-69 -29 -154 -51v-567l123 28l383 539
q-86 21 -148 51v60zM864 1829q41 5 108 -16q67 -20 91 -50v-41l-463 -186l-35 39z" />
    <glyph glyph-name="uni1E31" unicode="&#x1e31;" horiz-adv-x="1056" 
d="M614 1024h396v-53q-86 -35 -156 -49q-75 -100 -172 -206q-96 -106 -123 -132q31 -41 110 -146q158 -210 273 -338l115 -49v-51h-254l-55 49q-151 187 -312 438l-67 21v-408q68 -12 133 -49v-51h-453v51q68 33 135 49v1297l-155 16v53q57 27 137 43t151 31h52v-979h53
q184 206 293 361q-51 14 -101 49v53zM741 1571q32 4 97 -10q66 -14 92 -35v-39l-383 -309l-45 36z" />
    <glyph glyph-name="uni1E3E" unicode="&#x1e3e;" horiz-adv-x="1775" 
d="M1714 0h-508v59q56 22 166 50v921l8 240h-16l-68 -219l-419 -1051h-54l-399 1051l-74 239h-18l2 -260v-921q80 -16 155 -50v-59h-428v59q86 35 166 52v1212q-71 13 -168 51v60h420l357 -936l69 -211h2l70 215l369 932h370v-60q-78 -34 -155 -51v-1217q91 -17 153 -47v-59
zM1071 1829q41 5 108 -16q67 -20 91 -50v-41l-463 -186l-35 39z" />
    <glyph glyph-name="uni1E3F" unicode="&#x1e3f;" horiz-adv-x="1767" 
d="M383 1049v-232h2q33 96 112 164t195 68q174 0 244 -125q27 -49 39 -127q37 113 119 183t223 69q141 0 209 -91q69 -91 69 -344v-514q70 -12 136 -49v-51h-441v51q61 33 121 49v510q1 161 -27 215q-28 53 -65 75t-98 22q-99 0 -153 -68t-79 -172v-582q72 -20 133 -49v-51
h-438v51q55 33 121 49v473q0 184 -34 257q-40 92 -153 92q-84 0 -147 -65t-88 -155v-602q77 -23 121 -49v-51h-441v51q58 28 136 49v805l-136 17v53q105 46 269 74h51zM1067 1571q32 4 99 -10q66 -14 89 -35v-39l-383 -309l-45 36z" />
    <glyph glyph-name="uni1E54" unicode="&#x1e54;" horiz-adv-x="1220" 
d="M546 659q178 0 277 88t99 259q0 170 -96 254t-263 83q-92 0 -139 -10v-663q27 -11 122 -11zM621 0h-562v59q49 24 168 50v1214q-75 13 -168 51v60h185l362 16q365 0 489 -230q46 -85 46 -209q0 -229 -163 -344q-163 -114 -396 -114h-32q-86 0 -126 8v-452q94 -10 197 -50
v-59zM762 1829q75 8 161 -38q26 -13 38 -28v-41l-463 -186l-35 39z" />
    <glyph glyph-name="uni1E55" unicode="&#x1e55;" horiz-adv-x="1159" 
d="M627 922q-190 0 -244 -238v-573q72 -45 205 -45t211 130t80 339q0 276 -135 358q-47 29 -117 29zM518 -410h-455v52q70 33 136 49v1214l-136 17v53q105 46 269 74h51v-230h2q90 228 307 230q383 0 383 -514q0 -259 -130 -410q-130 -150 -349 -150q-118 0 -213 41v-325
q68 -8 135 -49v-52zM723 1571q32 4 97 -10t91 -35v-39l-383 -309l-45 36z" />
    <glyph glyph-name="uni1E9E" unicode="&#x1e9e;" horiz-adv-x="1308" 
d="M1032 305q0 150 -114.5 259.5t-374.5 158.5v88l370 360q-31 76 -96 128.5t-135 52.5q-138 0 -214.5 -80t-76.5 -277v-995h-332v63q70 39 136 52v917q0 229 141 327.5t317 98.5q366 0 451 -266l-385 -342q362 -74 436 -232t74 -246q0 -164 -117.5 -280.5t-281.5 -116.5
t-326 60q9 112 49 190h51l131 -129q32 -14 85 -14q95 0 153.5 65t58.5 158z" />
    <glyph glyph-name="uni2011" unicode="&#x2011;" horiz-adv-x="870" 
d="M145 641h578v-129h-578v129z" />
    <glyph glyph-name="endash" unicode="&#x2013;" horiz-adv-x="1282" 
d="M147 641h988v-129h-988v129z" />
    <glyph glyph-name="emdash" unicode="&#x2014;" horiz-adv-x="1814" 
d="M147 641h1520v-129h-1520v129z" />
    <glyph glyph-name="quoteleft" unicode="&#x2018;" horiz-adv-x="598" 
d="M150 1364q0 176 105 242.5t179 81.5l33 -70q-78 -25 -124 -74t-36 -127q49 -38 135 -67q16 -65 -25 -117t-89 -57q-72 6 -125 53t-53 135z" />
    <glyph glyph-name="quoteright" unicode="&#x2019;" horiz-adv-x="598" 
d="M117 971q80 25 132 84t42 137q-27 21 -135 68q-18 60 24 115t90 57q68 -6 123 -52t55 -144q0 -97 -82 -199q-83 -101 -214 -136z" />
    <glyph glyph-name="quotesinglbase" unicode="&#x201a;" horiz-adv-x="598" 
d="M449 37q0 -98 -83 -198.5t-214 -135.5l-35 70q80 25 132 84t42 137q-34 27 -135 67q-19 61 25 116.5t89 55.5q68 -6 123.5 -52t55.5 -144z" />
    <glyph glyph-name="quotedblleft" unicode="&#x201c;" horiz-adv-x="970" 
d="M522 1374q0 98 74 192t211 122l33 -70q-78 -25 -124 -74t-36 -127q51 -40 135 -67q16 -66 -27 -118q-38 -51 -88 -56q-72 6 -125 53t-53 145zM150 1375q0 99 74 192t210 121l33 -70q-78 -25 -124 -74t-36 -127q49 -38 135 -67q16 -65 -24 -117t-90 -57q-72 6 -125 53
t-53 146z" />
    </font>
</defs>
</svg>
