<?xml version="1.0" encoding="UTF-8"?>
<svg width="36px" height="36px" viewBox="0 0 36 36" version="1.1" xmlns="http://www.w3.org/2000/svg" xmlns:xlink="http://www.w3.org/1999/xlink">
    <!-- Generator: Sketch 48.2 (47327) - http://www.bohemiancoding.com/sketch -->
    <title>bist</title>
    <desc>Created with Sketch.</desc>
    <defs></defs>
    <g id="Page-1" stroke="none" stroke-width="1" fill="none" fill-rule="evenodd">
        <g id="bist" fill-rule="nonzero">
            <path d="M18,0 C8.07157895,0 0,8.07157895 0,18 C0,27.928421 8.07157895,36 18,36 C27.928421,36 36,27.928421 36,18 C36,8.07157895 27.928421,0 18,0 Z" id="Shape" fill="#608D5A"></path>
            <g id="Group" transform="translate(3.000000, 3.000000)">
                <rect id="Rectangle" fill="#FFFFFF" x="0.882352941" y="3.54285714" width="27.3529412" height="27.4571429" rx="13.6764706"></rect>
                <path d="M0.51468983,12.0466991 C-1.31700622,18.9084193 1.88318288,25.933401 7.84439432,29.1756309 C5.22826331,27.2061194 3.76407459,23.9526146 4.13427757,20.594027 C4.19066164,19.8322902 4.33308196,19.1009958 4.52874142,18.3978887 C5.07146618,16.8525416 4.95285746,16.5954723 8.62837999,11.7506185 C11.1339892,8.44885677 11.9417865,5.84118212 12.1419387,4.09987603 C12.3962286,4.70353783 13.8952362,7.89999132 15.4108669,11.3528376 C15.5925989,11.8638191 15.6359539,12.4755989 15.4746641,13.2120798 C14.5484827,17.4074955 7.03929269,18.0569337 11.1207356,21.0082694 C15.4510771,24.139779 15.0195481,27.3118786 11.7849894,30.6465632 C12.6848881,30.8454537 13.5856854,30.9593308 14.4781711,30.9911262 C19.2007301,27.6528336 18.5110923,23.7183207 14.1803015,20.5863601 C10.09796,17.6341224 17.5390849,17.3411987 18.4645923,13.145332 C18.6402589,12.3486427 18.4769473,11.587357 18.12494,10.8865049 C20.7662305,8.96750534 23.0557382,7.36894031 23.4075209,7.09338009 C22.7077744,8.69893556 22.0960858,11.371103 22.6253323,15.5157813 C23.3026151,20.8276444 23.2057962,21.5943422 22.9679049,22.7971558 C22.7787599,23.6847213 22.5011076,24.5747673 22.0844046,25.4377533 C20.7302884,28.5246141 17.8448168,30.6023653 14.6046422,30.9945087 C21.3821871,31.1789672 27.6531739,26.7012263 29.4855439,19.8388296 C31.6285879,11.8085718 26.8806448,3.55416757 18.8812953,1.40245264 C10.8812718,-0.749487796 2.65795841,4.01621577 0.51468983,12.0466991 Z" id="Fill-1" fill="#5F8E58"></path>
                <polygon id="Fill-1" fill="#FFFFFF" points="21.803619 4.4472991 17.8534181 7.34805263 15.8823529 2.90540217 15.9053696 2.91121298 15.8835486 2.9013346 19.832554 0 21.8048147 4.442941 21.7806024 4.44119776"></polygon>
            </g>
        </g>
    </g>
</svg>