<?xml version="1.0" encoding="UTF-8"?>
<svg width="36px" height="36px" viewBox="0 0 36 36" version="1.1" xmlns="http://www.w3.org/2000/svg" xmlns:xlink="http://www.w3.org/1999/xlink">
    <!-- Generator: Sketch 47.1 (45422) - http://www.bohemiancoding.com/sketch -->
    <title>Shape</title>
    <desc>Created with Sketch.</desc>
    <defs></defs>
    <g id="Page-2" stroke="none" stroke-width="1" fill="none" fill-rule="evenodd">
        <g id="Haber7---Ana-Sayfa-Alternatif-Copy-5" transform="translate(-802.000000, -754.000000)" fill-rule="nonzero" fill="#618C5C">
            <g id="Ads-&amp;-Currency-//-SECTION" transform="translate(147.000000, 742.000000)">
                <g id="Group-4-Copy" transform="translate(640.000000, 0.000000)">
                    <g id="Rectangle-7">
                        <g id="Dolar-/-Euro" transform="translate(8.000000, 6.000000)">
                            <g id="Dolar" transform="translate(7.000000, 6.000000)">
                                <path d="M18,0 C8.07157895,0 0,8.07157895 0,18 C0,27.9284211 8.07157895,36 18,36 C27.9284211,36 36,27.9284211 36,18 C36,8.07157895 27.9284211,0 18,0 Z M19.3590583,27.0473836 L19.3590583,28.693929 C19.3590583,29.0712624 19.0483827,29.3799896 18.6686681,29.3799896 L16.8736534,29.3799896 C16.4939388,29.3799896 16.1832632,29.0712624 16.1832632,28.693929 L16.1832632,26.9101715 C14.6644046,26.4642321 13.3871827,25.6066564 12.6277534,24.9892019 C12.2480387,24.6804746 12.2135192,24.1316261 12.5587144,23.7542928 L13.8014168,22.4850807 C14.1120924,22.1763535 14.5608461,22.1420504 14.9060412,22.4164747 C15.6654705,22.9996262 16.9426925,23.7542928 18.0473169,23.7542928 C20.2565657,23.7542928 20.2565657,22.4850807 20.2565657,21.9705353 C20.2565657,21.2158686 20.0494486,20.5641111 17.5985632,19.7065353 C14.1466119,18.4716263 12.3861168,16.5506566 12.3861168,13.9779294 C12.3861168,11.6453234 13.8704558,9.82726288 16.1832632,9.17550532 L16.1832632,7.42605082 C16.1832632,7.0487175 16.4939388,6.73999023 16.8736534,6.73999023 L18.6686681,6.73999023 C19.0483827,6.73999023 19.3590583,7.0487175 19.3590583,7.42605082 L19.3590583,9.0382932 C20.6362803,9.31271744 21.7063852,9.89586894 22.3967755,10.3761113 C22.8110096,10.6505356 22.8800486,11.2336871 22.5348535,11.6110204 L21.2921511,12.9145355 C21.015995,13.2232628 20.5672413,13.2575658 20.2220462,13.0517476 C19.669734,12.7087173 18.8412657,12.297081 18.0473169,12.331384 C17.5295242,12.331384 15.769029,12.5028992 15.769029,14.0122325 C15.769029,14.4581718 15.769029,15.4872627 18.7031876,16.5163536 C20.1875267,17.030899 23.6394779,18.2658081 23.6394779,22.0048383 C23.6739974,24.7147776 22.0170608,26.6014442 19.3590583,27.0473836 Z" id="Shape"></path>
                            </g>
                        </g>
                    </g>
                </g>
            </g>
        </g>
    </g>
</svg>