<?xml version="1.0" encoding="UTF-8"?>
<svg width="36px" height="36px" viewBox="0 0 36 36" version="1.1" xmlns="http://www.w3.org/2000/svg" xmlns:xlink="http://www.w3.org/1999/xlink">
    <!-- Generator: Sketch 47.1 (45422) - http://www.bohemiancoding.com/sketch -->
    <title>Shape</title>
    <desc>Created with Sketch.</desc>
    <defs></defs>
    <g id="Page-2" stroke="none" stroke-width="1" fill="none" fill-rule="evenodd">
        <g id="Haber7---Ana-Sayfa-Alternatif-Copy-5" transform="translate(-955.000000, -754.000000)" fill-rule="nonzero" fill="#618C5C">
            <g id="Ads-&amp;-Currency-//-SECTION" transform="translate(147.000000, 742.000000)">
                <g id="Group-4-Copy" transform="translate(640.000000, 0.000000)">
                    <g id="Rectangle-7">
                        <g id="Dolar-/-Euro" transform="translate(8.000000, 6.000000)">
                            <g id="Euro" transform="translate(145.000000, 0.000000)">
                                <path d="M33,6 C23.0715789,6 15,14.0715789 15,24 C15,33.9284211 23.0715789,42 33,42 C42.9284211,42 51,33.9284211 51,24 C51,14.0715789 42.9284211,6 33,6 Z M34.6673684,33.0568421 L34.5157895,33.0568421 C34.4778947,33.0568421 34.4021053,33.0568421 34.4021053,33.0568421 C33.2652632,33.0189474 32.2421053,32.7536842 31.3326316,32.2989474 C30.3473684,31.8063158 29.5136842,31.1621053 28.8315789,30.2526316 C28.2631579,29.5326316 27.8463158,28.6610526 27.5431579,27.7515789 L25.1936842,27.7515789 L25.1936842,24.8715789 L26.9747368,24.8715789 C26.9747368,24.5684211 26.9368421,24.3031579 26.9368421,24 C26.9368421,23.6589474 26.9747368,23.3557895 26.9747368,23.0147368 L25.1557895,23.0147368 L25.1557895,20.1726316 L27.5052632,20.1726316 C27.8084211,19.2252632 28.2631579,18.4294737 28.7936842,17.7094737 C29.4757895,16.8378947 30.3094737,16.1178947 31.2947368,15.6631579 C32.2042105,15.2084211 33.2273684,14.9431579 34.3642105,14.9431579 L34.6294737,14.9431579 C36.1073684,14.9810526 37.5094737,15.3978947 38.76,16.1178947 L37.4336842,18.7705263 C36.5621053,18.2021053 35.5768421,17.8989474 34.4778947,17.8231579 C33.0378947,17.8610526 31.56,18.5431579 30.6884211,20.1726316 L35.1221053,20.1726316 L35.1221053,23.0147368 L29.8926316,23.0147368 C29.8547368,23.3557895 29.8547368,23.6589474 29.8547368,24 C29.8547368,24.3031579 29.8926316,24.6063158 29.8926316,24.8715789 L35.1221053,24.8715789 L35.1221053,27.7515789 L30.6126316,27.7515789 C31.4842105,29.4189474 33,30.1010526 34.44,30.1389474 C35.5010526,30.1010526 36.5242105,29.7978947 37.3957895,29.2294737 L38.7221053,31.8442105 C37.5852632,32.6021053 36.1452632,33.0189474 34.6673684,33.0568421 Z" id="Shape"></path>
                            </g>
                        </g>
                    </g>
                </g>
            </g>
        </g>
    </g>
</svg>