<?xml version="1.0" encoding="UTF-8"?>
<svg width="34px" height="184px" viewBox="0 0 34 184" version="1.1" xmlns="http://www.w3.org/2000/svg" xmlns:xlink="http://www.w3.org/1999/xlink">
    <g id="Page-1" stroke="none" stroke-width="1" fill="none" fill-rule="evenodd">
        <g id="exchange-icon@yekim">
            <g id="Group-43" fill-rule="nonzero">
                <path d="M17,0 C7.62315789,0 0,7.62315789 0,17 C0,26.3768421 7.62315789,34 17,34 C26.3768421,34 34,26.3768421 34,17 C34,7.62315789 26.3768421,0 17,0 Z" id="Shape" fill="#0F72A5"></path>
                <path d="M19.2740301,27.4419359 L19.2740301,29.2993905 C19.2740301,29.7250572 18.9235594,30.0733299 18.4952064,30.0733299 L16.4702648,30.0733299 C16.0419118,30.0733299 15.6914411,29.7250572 15.6914411,29.2993905 L15.6914411,27.287148 C13.978029,26.7840874 12.5372052,25.8166631 11.6804992,25.1201176 C11.2521461,24.7718449 11.213205,24.1526933 11.6026168,23.7270267 L13.0044994,22.2952387 C13.3549701,21.946966 13.8612055,21.908269 14.2506173,22.2178448 C15.1073234,22.8756933 16.5481472,23.7270267 17.7942651,23.7270267 C20.2865009,23.7270267 20.2865009,22.2952387 20.2865009,21.7147842 C20.2865009,20.8634508 20.0528538,20.1282084 17.2880297,19.1607841 C13.3939113,17.7676931 11.4079109,15.6006627 11.4079109,12.6983899 C11.4079109,10.0669959 13.0823818,8.01605641 15.6914411,7.28081396 L15.6914411,5.30726843 C15.6914411,4.88160175 16.0419118,4.53332901 16.4702648,4.53332901 L18.4952064,4.53332901 C18.9235594,4.53332901 19.2740301,4.88160175 19.2740301,5.30726843 L19.2740301,7.12602607 C20.7148539,7.43560184 21.9220306,8.09345035 22.7008543,8.63520794 C23.1681485,8.94478371 23.2460309,9.60263222 22.856619,10.0282989 L21.4547364,11.4987838 C21.1432069,11.8470565 20.6369715,11.8857535 20.2475597,11.6535717 C19.6245007,11.266602 18.6899123,10.8022383 17.7942651,10.8409353 C17.2101473,10.8409353 15.2241469,11.0344202 15.2241469,12.7370869 C15.2241469,13.2401475 15.2241469,14.4010566 18.5341476,15.5619658 C20.2086185,16.1424203 24.1027369,17.5355113 24.1027369,21.7534811 C24.1416781,24.8105419 22.2725013,26.9388753 19.2740301,27.4419359 Z" id="Path" fill="#FFFFFF"></path>
            </g>
            <g id="Group-46" transform="translate(0.000000, 50.000000)" fill-rule="nonzero">
                <path d="M17,0 C7.62315789,0 0,7.62315789 0,17 C0,26.3768421 7.62315789,34 17,34 C26.3768421,34 34,26.3768421 34,17 C34,7.62315789 26.3768421,0 17,0 Z" id="Shape" fill="#0F72A5"></path>
                <path d="M18.3724984,28.8816923 L18.1847547,28.8816923 C18.1378188,28.8816923 18.0439469,28.8816923 18.0439469,28.8816923 C16.6358689,28.8347564 15.3685986,28.5062049 14.2421362,27.9429737 C13.0218019,27.3328065 11.9892114,26.5348956 11.1443646,25.4084332 C10.4403256,24.5166505 9.92403028,23.437124 9.5485428,22.3106616 L6.63851488,22.3106616 L6.63851488,18.7435306 L8.84450379,18.7435306 C8.84450379,18.3680431 8.79756786,18.0394915 8.79756786,17.6640041 C8.79756786,17.2415807 8.84450379,16.8660932 8.84450379,16.4436698 L6.59157895,16.4436698 L6.59157895,12.9234747 L9.50160687,12.9234747 C9.87709434,11.7500764 10.4403256,10.7644217 11.0974286,9.87263899 C11.9422754,8.7931125 12.974866,7.90132975 14.1952003,7.33809854 C15.3216627,6.77486733 16.5889329,6.44631579 17.997011,6.44631579 L18.3255625,6.44631579 C20.1560639,6.49325172 21.8926935,7.009547 23.4415793,7.90132975 L21.7988216,11.1868451 C20.7192951,10.4828061 19.4989609,10.1073187 18.1378188,10.0134468 C16.3542533,10.0603827 14.5237518,10.9052295 13.4442253,12.9234747 L18.9357296,12.9234747 L18.9357296,16.4436698 L12.4585707,16.4436698 C12.4116348,16.8660932 12.4116348,17.2415807 12.4116348,17.6640041 C12.4116348,18.0394915 12.4585707,18.414979 12.4585707,18.7435306 L18.9357296,18.7435306 L18.9357296,22.3106616 L13.3503535,22.3106616 C14.42988,24.3758427 16.3073173,25.2206895 18.0908828,25.2676254 C19.405089,25.2206895 20.6723592,24.845202 21.7518857,24.141163 L23.3946434,27.3797424 C21.9865654,28.3184611 20.2029999,28.8347564 18.3724984,28.8816923 Z" id="Path" fill="#FFFFFF"></path>
            </g>
            <g id="Group-47" transform="translate(0.000000, 100.000000)" fill-rule="nonzero">
                <path d="M17,0 C7.62315789,0 0,7.62315789 0,17 C0,26.3768421 7.62315789,34 17,34 C26.3768421,34 34,26.3768421 34,17 C34,7.62315789 26.3768421,0 17,0 Z" id="Shape-Copy-2" fill="#0F72A5"></path>
                <g id="Group-41">
                    <path d="M21.6083052,1.82861412 C20.4528425,1.38145063 17.7361416,2.2438684 17.7361416,2.2438684 L11.6748915,2.55563621 C11.6748915,2.55563621 7.26121462,5.43189265 7.26121462,5.74366046 C7.26121462,6.05542826 3.96666667,15.109012 3.96666667,15.460743 C3.96666667,15.8124741 4.10165681,24.3284608 4.10165681,24.7442424 C4.10165681,25.0249392 5.26206056,28.6065152 7.50915179,31.0591226 C8.59056053,32.2394356 9.79563272,32.893679 11.1255252,33.1784504 C11.1637298,33.1866312 13.8267918,34.2065707 14.2167362,34.0189045 C14.3754791,33.9425073 16.2561935,34.6286821 18.1537967,34.392163 C20.0513999,34.1556439 19.7889946,33.3282906 20.9597375,33.1784504 C23.9415114,32.7968213 27.8236546,24.7442428 27.8236546,24.7442428 C27.8236546,24.7442428 26.8818649,18.3274675 26.4841852,17.3921641 C26.2154425,16.7601079 28.0017899,11.4482666 27.8236546,8.07190852 C27.738189,6.45200324 25.5803576,5.27957621 25.5803576,5.27957621 C25.5803576,5.27957621 23.0675812,2.39335324 21.6083052,1.82861412 Z" id="Path-3" fill="#FFFFFF"></path>
                    <path d="M0.583315141,12.6011119 C-1.49260705,20.3482153 2.13427393,28.2796463 8.89031356,31.9402284 C5.92536509,29.7165864 4.2659512,26.0432745 4.68551458,22.2513208 C4.74941653,21.3912954 4.91082622,20.5656404 5.13257361,19.7718098 C5.74766167,18.0270631 5.61323845,17.7368236 9.77883066,12.2668273 C12.6185211,8.53903184 13.5340247,5.59488304 13.7608639,3.62889229 C14.0490591,4.31044594 15.7479344,7.91934504 17.4656492,11.8177199 C17.6716121,12.3946345 17.7207478,13.0853536 17.5379526,13.9168643 C16.4882804,18.653624 7.97786505,19.3868606 12.6035004,22.7190138 C17.5112207,26.2545892 17.0221545,29.835992 13.3563213,33.6009584 C14.3762065,33.8255122 15.3971101,33.9540832 16.4085939,33.9899812 C21.7608275,30.2209412 20.9792379,25.7787492 16.0710084,22.2426646 C11.4443547,18.909493 19.8776295,18.5787727 20.9265379,13.8415039 C21.1256268,12.942016 20.9405403,12.0824998 20.5415987,11.2912152 C23.5350612,9.12460277 26.1298366,7.31977132 26.5285237,7.00865494 C25.7354776,8.82137886 25.0422306,11.8383421 25.6420433,16.5178176 C26.4096304,22.5150824 26.2999024,23.3807089 26.0302922,24.7387243 C25.8159279,25.7408144 25.5012553,26.745705 25.0289919,27.7200441 C23.4943269,31.2052095 20.2241257,33.5510576 16.5519278,33.9938002 C24.2331454,34.2020597 31.3402638,29.1465458 33.4169498,21.3986786 C35.8457329,12.3322585 30.4647308,3.01276984 21.3988013,0.583414268 C12.332108,-1.8461959 3.01235287,3.53443716 0.583315141,12.6011119 Z" id="Path" fill="#0071A7"></path>
                    <polygon id="Fill-1" fill="#FFFFFF" points="23.3112282 6.14088129 19.8569458 8.66784012 18.1333333 4.79767511 18.1534604 4.80273713 18.1343789 4.7941317 21.5876158 2.26666667 23.3122738 6.13708478 23.2911011 6.13556617"></polygon>
                </g>
            </g>
            <g id="Group-48" transform="translate(0.000000, 150.000000)">
                <path d="M17,0 C7.62315789,0 0,7.62315789 0,17 C0,26.3768421 7.62315789,34 17,34 C26.3768421,34 34,26.3768421 34,17 C34,7.62315789 26.3768421,0 17,0 Z" id="Shape-Copy-3" fill="#0F72A5" fill-rule="nonzero"></path>
                <g id="Gold@yekim" transform="translate(4.857143, 4.317460)" fill="#FFFFFF">
                    <path d="M17.1121275,8.9047619 C20.7944741,8.9047619 24.2857143,6.74603175 24.2857143,4.58730159 C24.2857143,2.42857143 20.9853364,0.26984127 17.1121275,0.26984127 C13.2389185,0.26984127 9.17460317,2.42857143 9.17460317,4.58730159 C9.17460317,6.74603175 13.4297808,8.9047619 17.1121275,8.9047619 Z" id="Oval"></path>
                    <path d="M7.93752428,19.1587302 C11.6198709,19.1587302 15.1111111,17 15.1111111,14.8412698 C15.1111111,12.6825397 11.8107332,10.5238095 7.93752428,10.5238095 C4.06431534,10.5238095 0,12.6825397 0,14.8412698 C0,17 4.25517767,19.1587302 7.93752428,19.1587302 Z" id="Oval-Copy-3"></path>
                    <path d="M9.25814912,6.14851697 C9.87005336,8.19179707 13.7310791,10.0798817 17.1097204,10.0798817 C20.6049504,10.0798817 23.9279501,8.05924241 24.254824,5.93650794 C24.3019601,6.48700969 24.2811286,7.04501871 24.2811286,7.39018055 C24.2811286,9.63159821 20.7909487,11.8730159 17.1097204,11.8730159 C13.4284921,11.8730159 9.17460317,9.63159821 9.17460317,7.39018055 C9.17460317,7.05748912 9.18422599,6.60762677 9.25814912,6.14851697 Z" id="Combined-Shape"></path>
                    <path d="M0.0835459466,16.4024852 C0.695450185,18.4457653 4.55647594,20.33385 7.93511723,20.33385 C11.4303472,20.33385 14.7533469,18.3132107 15.0802208,16.1904762 C15.127357,16.7409779 15.1065254,17.298987 15.1065254,17.6441488 C15.1065254,19.8855665 11.6163455,22.1269841 7.93511723,22.1269841 C4.25388897,22.1269841 0,19.8855665 0,17.6441488 C0,17.3114574 0.00962281989,16.861595 0.0835459466,16.4024852 Z" id="Combined-Shape-Copy-4"></path>
                    <path d="M0.0835459466,19.1008979 C0.695450185,21.144178 4.55647594,23.0322627 7.93511723,23.0322627 C11.4303472,23.0322627 14.7533469,21.0116234 15.0802208,18.8888889 C15.127357,19.4393906 15.1065254,19.9973997 15.1065254,20.3425615 C15.1065254,22.5839792 11.6163455,24.8253968 7.93511723,24.8253968 C4.25388897,24.8253968 0,22.5839792 0,20.3425615 C0,20.0098701 0.00962281989,19.5600077 0.0835459466,19.1008979 Z" id="Combined-Shape-Copy-5"></path>
                    <path d="M15.6945311,14.3055736 C15.6531637,14.0311929 15.5787113,13.7636572 15.471174,13.5029665 C15.32918,13.1587466 15.1545233,12.8313028 14.9472036,12.5206349 C15.4911053,12.6180068 15.8677148,12.6786179 16.0770322,12.7024681 C16.8247764,12.7876684 17.2198485,12.7782944 17.2680118,12.7782944 C20.6861423,12.7782944 23.9358418,10.7576551 24.2555054,8.63492063 C24.3016018,9.18542239 24.2812297,9.74343141 24.2812297,10.0885932 C24.2812297,12.3300109 20.8680378,14.5714286 17.2680118,14.5714286 C16.7177954,14.5714286 16.1939545,14.4727886 15.6945311,14.3055736 Z" id="Combined-Shape-Copy"></path>
                    <path d="M15.8001165,17.0381917 C15.7348351,16.2932669 15.5254013,15.3441538 16.2894304,15.4242521 C16.6178585,15.4586834 16.9451868,15.4767071 17.2680118,15.4767071 C20.6861423,15.4767071 23.9358418,13.4560678 24.2555054,11.3333333 C24.3016018,11.8838351 24.2812297,12.4418441 24.2812297,12.7870059 C24.2812297,15.0284236 20.8680378,17.2698413 17.2680118,17.2698413 C16.756437,17.2698413 16.2676632,17.1845697 15.8001165,17.0381917 Z" id="Combined-Shape-Copy-2"></path>
                    <path d="M15.8001165,19.787398 C15.7348351,19.0424732 15.5254013,18.0933601 16.2894304,18.1734584 C16.6178585,18.2078897 16.9451868,18.2259135 17.2680118,18.2259135 C20.6861423,18.2259135 23.9358418,16.2052742 24.2555054,14.0825397 C24.3016018,14.6330414 24.2812297,15.1910505 24.2812297,15.5362123 C24.2812297,17.77763 20.8680378,20.0190476 17.2680118,20.0190476 C16.756437,20.0190476 16.2676632,19.9337761 15.8001165,19.787398 Z" id="Combined-Shape-Copy-3"></path>
                </g>
            </g>
        </g>
    </g>
</svg>