<?xml version="1.0" encoding="UTF-8"?>
<svg width="36px" height="36px" viewBox="0 0 36 36" version="1.1" xmlns="http://www.w3.org/2000/svg" xmlns:xlink="http://www.w3.org/1999/xlink">
    <g id="Page-1" stroke="none" stroke-width="1" fill="none" fill-rule="evenodd">
        <g id="Gold@yekim" transform="translate(-0.857143, -0.428572)" fill-rule="nonzero">
            <path d="M18.8571427,0.428571765 C8.92872165,0.428571765 0.857142706,8.50015071 0.857142706,18.4285718 C0.857142706,28.3569928 8.92872165,36.4285718 18.8571427,36.4285718 C28.7855638,36.4285718 36.8571427,28.3569928 36.8571427,18.4285718 C36.8571427,8.50015071 28.7855638,0.428571765 18.8571427,0.428571765 Z" id="Shape-Copy-3" fill="#618C5C"></path>
            <path d="M24.1187232,14.4285714 C28.0176785,14.4285714 31.7142857,12.1428571 31.7142857,9.85714286 C31.7142857,7.57142857 28.219768,5.28571429 24.1187232,5.28571429 C20.0176784,5.28571429 15.7142857,7.57142857 15.7142857,9.85714286 C15.7142857,12.1428571 20.2197679,14.4285714 24.1187232,14.4285714 Z" id="Oval" fill="#FFFFFF"></path>
            <path d="M14.4044375,25.2857143 C18.3033927,25.2857143 22,23 22,20.7142857 C22,18.4285714 18.5054822,16.1428571 14.4044375,16.1428571 C10.3033927,16.1428571 6,18.4285714 6,20.7142857 C6,23 10.5054822,25.2857143 14.4044375,25.2857143 Z" id="Oval-Copy-3" fill="#FFFFFF"></path>
            <path d="M15.8027461,11.5101944 C16.4506447,13.6736675 20.5387896,15.6728159 24.1161745,15.6728159 C27.8170063,15.6728159 31.3354766,13.5333155 31.6815784,11.2857143 C31.7314872,11.8685985 31.7094303,12.4594316 31.7094303,12.8248971 C31.7094303,15.1981628 28.0139457,17.5714286 24.1161745,17.5714286 C20.2184034,17.5714286 15.7142857,15.1981628 15.7142857,12.8248971 C15.7142857,12.4726355 15.7244746,11.9963107 15.8027461,11.5101944 Z" id="Combined-Shape" fill="#FFFFFF"></path>
            <path d="M6.08846041,22.3673373 C6.73635902,24.5308103 10.8245039,26.5299588 14.4018888,26.5299588 C18.1027206,26.5299588 21.6211908,24.3904584 21.9672926,22.1428572 C22.0172015,22.7257413 21.9951445,23.3165745 21.9951445,23.6820399 C21.9951445,26.0553057 18.2996599,28.4285714 14.4018888,28.4285714 C10.5041177,28.4285714 6,26.0553057 6,23.6820399 C6,23.3297784 6.01018887,22.8534535 6.08846041,22.3673373 Z" id="Combined-Shape-Copy-4" fill="#FFFFFF"></path>
            <path d="M6.08846041,25.2244801 C6.73635902,27.3879532 10.8245039,29.3871017 14.4018888,29.3871017 C18.1027206,29.3871017 21.6211908,27.2476012 21.9672926,25 C22.0172015,25.5828842 21.9951445,26.1737173 21.9951445,26.5391828 C21.9951445,28.9124486 18.2996599,31.2857143 14.4018888,31.2857143 C10.5041177,31.2857143 6,28.9124486 6,26.5391828 C6,26.1869213 6.01018887,25.7105964 6.08846041,25.2244801 Z" id="Combined-Shape-Copy-5" fill="#FFFFFF"></path>
            <path d="M22.6177388,20.1470779 C22.573938,19.8565572 22.4951061,19.5732841 22.3812431,19.2972586 C22.2308965,18.9327905 22.0459658,18.5860853 21.8264509,18.2571428 C22.4023468,18.3602425 22.8011098,18.424419 23.02274,18.4496721 C23.8144691,18.5398842 24.2327808,18.5299588 24.2837772,18.5299588 C27.9029742,18.5299588 31.3438325,16.3904583 31.6822998,14.1428571 C31.7311078,14.7257414 31.7095373,15.3165744 31.7095373,15.6820399 C31.7095373,18.0553057 28.0955694,20.4285715 24.2837772,20.4285715 C23.7011951,20.4285715 23.1465401,20.3241291 22.6177388,20.1470779 Z" id="Combined-Shape-Copy" fill="#FFFFFF"></path>
            <path d="M22.7295351,23.0404383 C22.6604136,22.2516944 22.4386602,21.2467511 23.2476322,21.331561 C23.5953796,21.3680177 23.9419625,21.3871016 24.2837772,21.3871016 C27.9029742,21.3871016 31.3438325,19.2476012 31.6822998,17 C31.7311078,17.5828842 31.7095373,18.1737173 31.7095373,18.5391827 C31.7095373,20.9124485 28.0955694,23.2857143 24.2837772,23.2857143 C23.7421098,23.2857143 23.2245846,23.1954267 22.7295351,23.0404383 Z" id="Combined-Shape-Copy-2" fill="#FFFFFF"></path>
            <path d="M22.7295351,25.9513626 C22.6604136,25.1626187 22.4386602,24.1576754 23.2476322,24.2424854 C23.5953796,24.278942 23.9419625,24.2980261 24.2837772,24.2980261 C27.9029742,24.2980261 31.3438325,22.1585256 31.6822998,19.9109244 C31.7311078,20.4938085 31.7095373,21.0846417 31.7095373,21.4501071 C31.7095373,23.8233729 28.0955694,26.1966386 24.2837772,26.1966386 C23.7421098,26.1966386 23.2245846,26.1063512 22.7295351,25.9513626 Z" id="Combined-Shape-Copy-3" fill="#FFFFFF"></path>
        </g>
    </g>
</svg>