<svg height="55" viewBox="0 0 498 55" width="498" xmlns="http://www.w3.org/2000/svg"><path d="m848.858 196.792h-.168l-.294-.126c-.084-.112-.112-.203-.084-.273s.07-.133.126-.189l.462.546c0 .028-.014.042-.042.042zm4.797-22.861-.004333-.005667-.004667-.023333-.003-.019.00825.01375c.035.049.077.091.126.126l.07875.04725c.14.056.343.119.609.189s.427.105.483.105.245-.042.567-.126.525-.154.609-.21l-.126.042c.084-.056.196-.133.336-.231s.238-.217.294-.357l.294-.294c.112-.14.182-.266.21-.378s.07-.182.126-.21l1.806-4.326c0-.056.028-.196.084-.42s.112-.476.168-.756.105-.56.147-.84.077-.49.105-.63v-1.764c-.056-.084-.112-.21-.168-.378v.084l-.084-.378-2.394-2.604-.966-.462c-.112-.056-.28-.126-.504-.21s-.406-.154-.546-.21c-.168-.084-.462-.154-.882-.21s-.714-.084-.882-.084h-.84l-.084.084c-.028.028-.028.042 0 .042h-.714c-.112 0-.322.049-.63.147s-.504.175-.588.231h.084c-.14.056-.252.126-.336.21l.042-.042-3.36 1.47-3.948 3.234c-.028.056-.077.147-.147.273s-.119.217-.147.273l-2.016 2.016c-.224.224-.378.392-.462.504-.112.112-.266.364-.462.756-.084.14-.182.273-.294.399s-.182.203-.21.231l-.252.336v-.042c-.028.056-.07.112-.126.168l-.084.084-6.93 12.306-2.016 8.82c0 .224-.007.469-.021.735s-.035.511-.063.735c-.056.392-.084.798-.084 1.218s.056.854.168 1.302c.028.14.077.336.147.588s.147.511.231.777.168.518.252.756.14.399.168.483l.02184.0588c.03584.0896.09856.224.18816.4032.112.224.238.455.378.693s.273.469.399.693.231.378.315.462c.056.084.203.252.441.504s.483.49.735.714l.252.252c.084.084.168.154.252.21s.154.098.21.126l1.512.588h-.042l1.26.462.084.084.114187.038063c.123375.034125.274313.056437.452813.066937.238.014.455.035.651.063.084 0 .154.014.21.042-.336-.084-.588.028-.756.336-.056.084-.14.224-.252.42s-.231.413-.357.651-.245.462-.357.672-.182.357-.21.441l-.252.84c.028 0 .056.028.084.084s.042.098.042.126c.028.028.049.091.063.189s.035.147.063.147c.196.308.385.49.567.546s.371.056.567 0 .399-.133.609-.231.441-.161.693-.189v.126c-.056.056-.133.14-.231.252s-.175.182-.231.21l-.588.336c-.084.056-.21.119-.378.189s-.35.14-.546.21-.371.133-.525.189-.245.098-.273.126c-.084.028-.224.063-.42.105s-.406.091-.63.147-.434.105-.63.147-.336.063-.42.063v.21c0 .056.105.189.315.399s.371.357.483.441c.028 0 .105.014.231.042s.203.042.231.042l.126.126c.084.084.168.126.252.126s.259-.014.525-.042.441-.056.525-.084l2.898-.924c.084-.056.273-.203.567-.441s.483-.399.567-.483c.28-.28.406-.588.378-.924-.14-.588-.413-1.099-.819-1.533s-.875-.777-1.407-1.029c.14-.224.301-.49.483-.798s.133-.588-.147-.84c-.168-.168-.434-.308-.798-.42h.462c.028 0 .063-.007.105-.021s.091-.021.147-.021c.112-.028.224-.042.336-.042h1.008c.084 0 .294-.042.63-.126h-.042l.714-.126.042-.042s.00175-.00175.00525-.00525l.07875-.07875c.084 0 .21-.021.378-.063s.294-.091.378-.147l.21-.126c.056-.056.14-.105.252-.147s.196-.049.252-.021c.084.056.196.042.336-.042l.714-.378h-.042l.63-.294.168-.168.21-.126-.126.084.336-.168 6.846-6.888 2.73-4.074-.252.168c.056-.112.119-.266.189-.462s.105-.364.105-.504l.042.084c0-.084-.042-.196-.126-.336s-.168-.252-.252-.336l.21.126c-.056-.112-.161-.224-.315-.336s-.287-.196-.399-.252c-.168-.028-.413-.021-.735.021s-.539.091-.651.147l-.084.042c-.084 0-.14.042-.168.126-.476.728-.994 1.491-1.554 2.289s-1.078 1.561-1.554 2.289l-3.822 3.738-3.738 1.974-3.318.924-1.89-.504.084.042c-.084 0-.182-.028-.294-.084l-.294-.126c-.028-.056-.049-.084-.063-.084s-.035-.014-.063-.042l-.168-.252-.042-.042c-.084-.14-.168-.287-.252-.441s-.126-.259-.126-.315c-.308-.644-.462-1.302-.462-1.974 0-.308.028-.637.084-.987s.112-.721.168-1.113l.126-1.05v-.378l.084-.168c0-.084.021-.252.063-.504s.077-.511.105-.777.056-.525.084-.777.042-.434.042-.546v-.126l.03024-.06048c.01344-.02688.03136-.06272.05376-.10752 0-.056.014-.126.042-.21 0-.112.014-.245.042-.399s.042-.301.042-.441c.028-.112.063-.259.105-.441s.063-.343.063-.483l-.042.042.84-2.058.21-.63.378-.336 4.62-8.61.462-.462.126-.21c.028-.084.112-.217.252-.399s.287-.385.441-.609.308-.434.462-.63.273-.336.357-.42c.056-.14.07-.266.042-.378l1.764-1.68.084-.084c.028-.028.049-.056.063-.084s.035-.056.063-.084l.252-.21c.336-.336.665-.7.987-1.092s.651-.784.987-1.176l.336-.252 1.638-1.512h.042c.028 0 .056-.014.084-.042l.084-.084c.028 0 .056-.014.084-.042.084-.028.21-.091.378-.189s.329-.203.483-.315.294-.21.42-.294.203-.154.231-.21l.294-.294v.042c.168-.14.364-.301.588-.483s.308-.259.252-.231l.798-.504-.042.042.42-.294c.056-.028.161-.042.315-.042s.287.014.399.042l.042.126c.084.14.154.28.21.42s.182.21.378.21v.21c-.028.196-.063.427-.105.693l-.126.798c-.042.266-.084.497-.126.693s-.063.322-.063.378l-2.562 5.25c0 .056.028.168.084.336.028.084.056.154.084.21v-.042c.056.14.119.294.189.462s.175.308.315.42c0 .028.07.084.21.168.056.056.126.098.21.126zm8.328 21.013c.238 0 .385-.014.441-.042l.069562-.022312c.076125-.023625.171938-.051188.287438-.082688.154-.042.315-.098.483-.168s.329-.133.483-.189.259-.098.315-.126c.084-.028.203-.098.357-.21s.315-.231.483-.357.329-.238.483-.336.259-.175.315-.231l4.158-4.074.126.126c-.056.56-.042 1.05.042 1.47s.224.896.42 1.428c0 .028.028.07.084.126.028.028.042.056.042.084.112.14.315.357.609.651.03675.03675.071641.071641.104672.104672l.39375.39375.026578.026578c.252.196.532.343.84.441s.616.063.924-.105c0-.056.042-.189.126-.399s.154-.343.21-.399c.028-.028.105-.091.231-.189s.203-.147.231-.147c.308-.28.616-.546.924-.798s.616-.532.924-.84c.028-.028.07-.091.126-.189s.098-.147.126-.147c.056-.056.21-.217.462-.483s.406-.427.462-.483c.028 0 .056-.028.084-.084s.042-.098.042-.126l1.134-.798 2.226-2.814.21-1.134c.056-.168.133-.336.231-.504s.105-.35.021-.546c-.028-.056-.098-.105-.21-.147s-.196-.035-.252.021l-6.048 6.384-.21.126c-.028-.056-.042-.175-.042-.357s.014-.301.042-.357c0-.084.028-.245.084-.483s.112-.497.168-.777.119-.539.189-.777c.042-.1428.07644-.26292.10332-.36036l.04368-.16464c-.028-.028-.042-.084-.042-.168s.014-.14.042-.168l.336-2.184c0-.196.112-.322.336-.378l1.302-6.384-.252-.21c-.084.056-.14.133-.168.231s-.042.175-.042.231c-.028-.056-.056-.189-.084-.399s-.042-.343-.042-.399v-.252c-.084-.084-.168-.126-.252-.126l-1.596-2.058c-.028-.028-.161-.07-.399-.126s-.427-.098-.567-.126c-.056-.028-.126.014-.21.126l-.798 1.386c-.028.028-.056.119-.084.273s-.042.259-.042.315c-.028.084-.07.203-.126.357s-.098.231-.126.231h-.084c.056-.28.007-.546-.147-.798s-.273-.49-.357-.714c0-.028-.007-.056-.021-.084s-.021-.056-.021-.084c-.028-.028-.042-.056-.042-.084l-.924-.672-.252-.378c-.028-.028-.14-.049-.336-.063s-.308-.021-.336-.021l-.714-.378c-.056 0-.21.007-.462.021s-.406.007-.462-.021c-.056 0-.161-.021-.315-.063s-.245-.063-.273-.063l-.714.378c-.056 0-.112.014-.168.042l-.168.084c-.112.056-.252.133-.42.231l-.504.294c-.168.098-.322.189-.462.273s-.21.126-.21.126l-3.486 3.57c-.056.056-.161.203-.315.441s-.315.504-.483.798-.329.588-.483.882-.273.525-.357.693-.21.455-.378.861-.343.847-.525 1.323-.35.924-.504 1.344-.259.714-.315.882c-.056.084-.112.287-.168.609s-.084.539-.084.651c-.056 1.176.014 2.303.21 3.381s.672 2.079 1.428 3.003c.056.056.133.14.231.252s.175.182.231.21l1.596.924c.084.028.245.042.483.042zm1.028143-1.75875-.104143-.00525c-.238-.028-.511-.112-.819-.252-.224-.084-.385-.21-.483-.378s-.203-.35-.315-.546c-.112-.616-.189-1.267-.231-1.953s.035-1.351.231-1.995c.028-.084.084-.203.168-.357s.098-.301.042-.441l.84-1.89c-.028 0-.042-.028-.042-.084s.014-.098.042-.126l.084-.126.504-.798c0-.028.014-.105.042-.231s.042-.203.042-.231l.588-.924c0-.084.042-.126.126-.126l1.176-2.1.084-.126 2.814-3.822h.042c.028 0 .056-.014.084-.042.028 0 .056-.014.084-.042l.462-.714c.084-.112.189-.182.315-.21s.259-.042.399-.042l1.134.252c.196.112.294.252.294.42s.028.336.084.504c0 .084.021.21.063.378s.091.35.147.546.105.385.147.567.077.301.105.357c.084.084.189.168.315.252s.175.196.147.336c-.028.112-.07.301-.126.567s-.098.427-.126.483c0 .028-.014.07-.042.126s-.056.084-.084.084l-1.008 4.536c.028.252 0 .497-.084.735s-.098.497-.042.777l-5.208 5.586-1.176.798c-.308.196-.581.28-.819.252zm10.632107-2.344125-.04725-.013125v-.462c0-.056.014-.21.042-.462s.042-.406.042-.462v-.462c.056-.392.189-.756.399-1.092s.273-.7.189-1.092l1.764-7.77c0-.028.014-.042.042-.042s.042.014.042.042c.028.028.056.049.084.063s.056.035.084.063l.084.084c.028.056.042.154.042.294s-.014.238-.042.294l-.588 3.234v-1.05h-.126l-.798 4.41v.126l-.798 4.074c-.028.056-.098.112-.21.168s-.196.07-.252.042zm7.42875 2.590875c.28.056.63.028 1.05-.084.028 0 .07-.028.126-.084l.126-.126c.112-.14.308-.399.588-.777s.476-.623.588-.735c.112-.168.077-.238-.105-.21s-.301.056-.357.084c-.056-.224-.07-.42-.042-.588l-.294.126c-.196-.56-.238-1.176-.126-1.848s.28-1.288.504-1.848c.056-.028.105-.105.147-.231s.07-.266.084-.42.042-.301.084-.441.091-.252.147-.336l2.226-2.394c-.056-.056-.119-.056-.189 0s-.14.126-.21.21-.14.154-.21.21-.133.056-.189 0l-.042-.084 1.764-1.932c0-.028.035-.07.105-.126s.105-.098.105-.126l.63-.672 5.67-5.04 1.596-1.008-.252.462c-.476.756-.896 1.407-1.26 1.953s-.686 1.071-.966 1.575-.49 1.057-.63 1.659-.21 1.351-.21 2.247c0 .308.126.609.378.903s.476.511.672.651c0 0 .14.056.42.168.112.056.266.098.462.126.308.112.546.154.714.126s.406-.042.714-.042c.588-.028 1.274-.147 2.058-.357s1.589-.511 2.415-.903 1.638-.896 2.436-1.512 1.505-1.358 2.121-2.226c.028-.028.021-.084-.021-.168s-.091-.161-.147-.231-.112-.119-.168-.147-.098 0-.126.084c-.168.476-.553.994-1.155 1.554s-1.281 1.071-2.037 1.533-1.533.84-2.331 1.134-1.47.434-2.016.42-.896-.231-1.05-.651.007-1.106.483-2.058l2.268-4.452c.028-.056.084-.133.168-.231s.126-.175.126-.231c.056-.084.133-.238.231-.462s.203-.462.315-.714.217-.49.315-.714.175-.378.231-.462c.028-.084.042-.203.042-.357s-.028-.259-.084-.315c-.084-.336-.203-.658-.357-.966s-.441-.434-.861-.378c-.644.084-1.155.175-1.533.273s-.756.259-1.134.483-.798.539-1.26.945-1.071.945-1.827 1.617l-4.704 4.2c-.056.14-.14.238-.252.294s-.224.154-.336.294c-.28.252-.553.525-.819.819s-.539.581-.819.861c-.028 0-.042.014-.042.042-.007.014-.013125.02625-.018375.03675l-.021.042-.002625.00525-.336.462c-.084.084-.168.084-.252 0 0-.308.063-.504.189-.588s.217-.238.273-.462c0-.056.028-.21.084-.462s.084-.406.084-.462c.008-.024.019429-.057143.034286-.099429l.09-.252c.025143-.069714.053714-.148571.085714-.236571.112-.308.196-.504.252-.588-.084-.14-.091-.294-.021-.462s.175-.322.315-.462c0-.056-.035-.168-.105-.336s-.105-.28-.105-.336l-.588-.882c-.196-.336-.413-.567-.651-.693s-.581-.119-1.029.021c-.028 0-.049.014-.063.042s-.035.028-.063 0l-2.142 4.2-2.1 5.964c-.028.056-.056.147-.084.273s-.056.273-.084.441-.056.322-.084.462-.042.252-.042.336-.007.21-.021.378-.028.35-.042.546-.021.371-.021.525l.00084.35532c.00224.06272.00896.16128.02016.29568.014.168.028.357.042.567s.035.406.063.588.042.315.042.399c.056.224.119.42.189.588s.175.322.315.462c.056.028.182.119.378.273s.308.259.336.315l.126.126h.126c.308.112.602.196.882.252zm17.913 16.38c.154 0 .259-.014.315-.042s.14-.084.252-.168.182-.154.21-.21v-.504c-.028-.112-.105-.203-.231-.273s-.203-.189-.231-.357c-.056-.056-.091-.21-.105-.462s-.007-.406.021-.462l.966-3.108c-.056-.28-.021-.567.105-.861s.217-.553.273-.777c0-.056.014-.161.042-.315s.042-.245.042-.273c.028 0 .042-.014.042-.042s.014-.056.042-.084.042-.056.042-.084c.028-.056.07-.182.126-.378s.112-.399.168-.609.112-.406.168-.588.084-.301.084-.357c0-.028.014-.056.042-.084s.042-.049.042-.063.014-.035.042-.063l1.26-4.41c.056-.28.161-.476.315-.588s.329-.175.525-.189.399-.014.609 0 .427-.007.651-.063c.084-.028.217-.063.399-.105s.378-.091.588-.147.413-.112.609-.168.322-.098.378-.126c.14-.112.322-.21.546-.294l.672-.252c.224-.084.441-.182.651-.294s.371-.252.483-.42l4.956-3.15c.056-.056.098-.112.126-.168l.084-.168.924-.924c.112-.112.182-.196.21-.252.028-.028.077-.063.147-.105s.133-.063.189-.063l1.806-2.226 1.47-3.696v-.21c0-.056.014-.217.042-.483s.042-.427.042-.483c.028-.224.014-.462-.042-.714s-.07-.504-.042-.756c-.056-.056-.126-.168-.21-.336s-.182-.35-.294-.546-.21-.378-.294-.546-.14-.294-.168-.378c-.028-.056-.063-.168-.105-.336s-.077-.266-.105-.294c-.056-.056-.154-.168-.294-.336s-.266-.266-.378-.294c-.112-.056-.336-.189-.672-.399s-.56-.343-.672-.399l-.84-.294c-.028 0-.217-.014-.567-.042s-.609-.056-.777-.084c-.14 0-.294.007-.462.021s-.294.049-.378.105l-3.276 2.1v-.168c.224-.476.434-.973.63-1.491s.196-1.029 0-1.533c-.028-.084-.126-.231-.294-.441s-.364-.406-.588-.588-.455-.308-.693-.378-.427-.021-.567.147l-.924.966-5.292 10.164-5.376 20.496c-.028.056-.042.252-.042.588s.014.588.042.756c0 .056.028.231.084.525s.112.525.168.693v.21c0 .028.014.042.042.042.056.252.091.546.105.882s.133.616.357.84c.112.056.266.175.462.357s.308.287.336.315c.056 0 .168.035.336.105s.28.119.336.147.161.042.315.042zm4.58325-16.450875-.11025-.013125v-.126l1.134-4.326v-.21l1.26-3.57c.084-.084.196-.266.336-.546s.238-.448.294-.504c.028-.056.063-.182.105-.378s.063-.322.063-.378c.028-.056.098-.196.21-.42l.053667-.105c.085555-.163333.151666-.268333.198333-.315 0-.084.056-.126.168-.126l1.764-2.604c.112-.224.28-.378.504-.462s.434-.182.63-.294c.252-.168.525-.364.819-.588s.553-.448.777-.672l1.89-.882h.924c.028 0 .112.077.252.231s.238.259.294.315l.084.084c.028.028.042.056.042.084v1.806l-1.092 3.528c0 .028-.063.14-.189.336s-.266.427-.42.693-.315.539-.483.819-.294.504-.378.672c-.056.14-.14.259-.252.357s-.196.217-.252.357l-4.326 5.082-2.142 1.386c-.168.028-.35.091-.546.189s-.399.196-.609.294-.413.175-.609.231-.364.07-.504.042zm20.995078 1.974.146672-.013125c.028-.028.105-.056.231-.084s.217-.042.273-.042.112.014.168.042l.10752.05376.05376.02688.00672.00336h.294c.112-.028.238-.056.378-.084s.224-.042.252-.042c.056-.028.154-.119.294-.273s.196-.259.168-.315l.168-.168c.084-.084.154-.14.21-.168.112-.056.238-.098.378-.126s.238-.084.294-.168c0-.028.049-.084.147-.168s.147-.14.147-.168c.028 0 .091-.028.189-.084s.161-.098.189-.126c.028 0 .042-.042.042-.126.028 0 .07-.077.126-.231s.098-.245.126-.273.091-.098.189-.21.21-.231.336-.357.238-.238.336-.336.147-.175.147-.231c.028-.056.119-.168.273-.336s.322-.336.504-.504.35-.336.504-.504.231-.28.231-.336l.126-.252c.028 0 .077-.028.147-.084s.105-.098.105-.126c.168-.196.329-.455.483-.777s.294-.665.42-1.029.245-.721.357-1.071.196-.651.252-.903c.056-.14.105-.294.147-.462s.063-.322.063-.462c.028-.196-.056-.42-.252-.672-.056 0-.182.021-.378.063s-.322.091-.378.147c-.028 0-.07.021-.126.063s-.084.077-.084.105c-.084.168-.189.399-.315.693s-.252.595-.378.903-.245.609-.357.903-.21.525-.294.693c0 .028-.014.063-.042.105s-.042.077-.042.105l-3.906 3.99c0 .196-.042.322-.126.378-.056-.028-.196-.049-.42-.063s-.364-.007-.42.021c-.028 0-.098.028-.21.084l-.168.084h-.336l-.168-.966.588-3.822c0-.028-.035-.084-.105-.168s-.112-.161-.126-.231 0-.119.042-.147.175-.028.399 0l1.302-5.376-.084-.42.21-1.848h-.42c.028-.028.049-.077.063-.147s.021-.119.021-.147c-.056-.112-.105-.308-.147-.588s-.077-.448-.105-.504c0-.028-.056-.119-.168-.273s-.196-.259-.252-.315l-.84-.672c-.056-.056-.168-.189-.336-.399s-.28-.329-.336-.357c0-.084-.042-.126-.126-.126h-1.176l-2.814 9.996-.042.84v.21c.056.168.07.308.042.42s-.028.252 0 .42c0 .056.007.196.021.42s.021.469.021.735.007.518.021.756.021.385.021.441c.028.308.091.644.189 1.008s.231.728.399 1.092.35.714.546 1.05.42.63.672.882c.224.252.525.518.903.798s.763.392 1.155.336zm1.406672-11.101125c-.028 0-.049-.056-.063-.168s-.035-.196-.063-.252c.056-.224.154-.434.294-.63s.224-.406.252-.63c-.028-.028-.042-.133-.042-.315v-.315c-.028-.028-.007-.063.063-.105s.105-.077.105-.105c.112-.28.147-.616.105-1.008s.063-.7.315-.924c.056.084.056.154 0 .21.028.14.042.322.042.546s.014.364.042.42c-.028.084-.07.238-.126.462s-.112.462-.168.714-.119.49-.189.714-.119.378-.147.462c-.028 0-.063.028-.105.084s-.049.098-.021.126zm0 1.764c-.056.028-.126.014-.21-.042.028-.056.077-.14.147-.252s.105-.196.105-.252v-.084c0-.028.014-.042.042-.042.028.056.049.133.063.231s.007.189-.021.273-.07.14-.126.168zm-1.113 6.93c-.042.056-.133.07-.273.042l-.065333-.130667-.039667-.079333c-.042-.084-.063-.154-.063-.21-.224-.644-.28-1.267-.168-1.869s.238-1.183.378-1.743c.028-.084.056-.175.084-.273s.098-.161.21-.189l.084.21c-.028.084-.056.245-.084.483s-.049.49-.063.756-.028.518-.042.756-.021.399-.021.483c-.028.112-.014.371.042.777s.112.679.168.819c-.056.056-.105.112-.147.168zm9.177 2.352c.364.14.77.182 1.218.126.56-.028 1.183-.119 1.869-.273s1.379-.35 2.079-.588 1.372-.504 2.016-.798 1.19-.595 1.638-.903c.756-.476 1.526-1.057 2.31-1.743s1.456-1.351 2.016-1.995c0-.028.07-.098.21-.21s.21-.182.21-.21l.504-.756c.028-.112.084-.287.168-.525s.126-.385.126-.441c.028-.112.014-.252-.042-.42s-.14-.28-.252-.336l-.798.756-3.738 3.36-3.528 2.394c-.084.056-.203.126-.357.21s-.329.161-.525.231-.371.14-.525.21-.273.133-.357.189-.287.119-.609.189l-.129857.028714c-.243429.054857-.389143.094286-.437143.118286-.056.028-.259.056-.609.084l-.141.011143c-.264.020571-.42.030857-.468.030857-.224.028-.476.07-.756.126s-.532.014-.756-.126c-.028 0-.063-.049-.105-.147s-.077-.161-.105-.189-.07-.07-.126-.126-.084-.098-.084-.126l-.21-1.26 1.638-6.174 1.47-2.814c.14-.056.266-.154.378-.294s.168-.28.168-.42l2.268-2.52c.448-.196.749-.462.903-.798s.385-.644.693-.924c.084-.056.189-.14.315-.252s.259-.224.399-.336.266-.217.378-.315.196-.161.252-.189c.028-.028.147-.077.357-.147s.343-.119.399-.147l.378-.378c.196-.196.308-.322.336-.378h.126v.294c-.028.168-.063.399-.105.693s-.063.455-.063.483l-2.31 4.116c0 .028.042.084.126.168s.154.14.21.168l.756.336c.084.028.259.028.525 0s.455-.07.567-.126l.42-.42c.084-.112.231-.315.441-.609l.085286-.119571c.161143-.226286.265714-.375429.313714-.447429 0-.028.014-.084.042-.168s.056-.14.084-.168c0-.028.014-.133.042-.315s.049-.378.063-.588.035-.406.063-.588.042-.301.042-.357c0-.028.035-.112.105-.252.035-.07.06475-.1295.08925-.1785l.05775-.1155c.112-.504.14-.994.084-1.47s-.168-.952-.336-1.428c-.028-.056-.063-.126-.105-.21s-.077-.126-.105-.126l-1.638-.63c-.14 0-.294-.028-.462-.084s-.336-.07-.504-.042c-.364.056-.728.105-1.092.147s-.714.105-1.05.189c-.084.028-.224.091-.42.189s-.406.203-.63.315-.427.224-.609.336-.315.182-.399.21c-.084.056-.21.154-.378.294s-.35.294-.546.462-.385.322-.567.462-.301.252-.357.336c-.168 0-.28.098-.336.294l-1.722 1.848-1.848 3.024c-.028 0-.056.042-.084.126s-.07.168-.126.252c-.056.112-.126.238-.21.378l-.546 1.512c-.14.028-.175.098-.105.21s.035.196-.105.252l-.42 1.26c-.112.028-.161.098-.147.21s.021.196.021.252l-.42 2.268c0 .084-.007.224-.021.42s-.021.413-.021.651.007.455.021.651.021.336.021.42c.112.14.161.266.147.378s.021.238.105.378c.028.084.091.224.189.42s.203.399.315.609.217.413.315.609.175.336.231.42c.056.112.161.245.315.399s.336.315.546.483.427.322.651.462.434.224.63.252zm.798-2.688c-.028-.14-.042-.399-.042-.777l.000857-.153c.003429-.288.017143-.468.041143-.54.028-.392.077-.77.147-1.134s.077-.728.021-1.092l.546-1.722.126-.084v.336c-.028.084-.07.259-.126.525s-.084.441-.084.525h.084l.084-.084c.028-.028.042-.056.042-.084l1.05-3.486v-.084c-.056.028-.119.126-.189.294s-.147.35-.231.546-.161.364-.231.504-.133.182-.189.126c-.056.056-.14.182-.252.378s-.168.336-.168.42c-.028.084-.077.224-.147.42s-.14.406-.21.63-.133.441-.189.651-.084.357-.084.441c.028.476-.021.959-.147 1.449s-.161.973-.105 1.449c0 .112.014.231.042.357s.056.189.084.189zm16.149328 2.743125.146672-.013125c.028-.028.105-.056.231-.084s.217-.042.273-.042.112.014.168.042l.10752.05376.05376.02688.00672.00336h.294c.112-.028.238-.056.378-.084s.224-.042.252-.042c.056-.028.154-.119.294-.273s.196-.259.168-.315l.168-.168c.084-.084.154-.14.21-.168.112-.056.238-.098.378-.126s.238-.084.294-.168c0-.028.049-.084.147-.168s.147-.14.147-.168c.028 0 .091-.028.189-.084s.161-.098.189-.126c.028 0 .042-.042.042-.126.028 0 .07-.077.126-.231s.098-.245.126-.273.091-.098.189-.21.21-.231.336-.357l.336-.336c.098-.098.147-.175.147-.231.028-.056.119-.168.273-.336s.322-.336.504-.504.35-.336.504-.504.231-.28.231-.336l.126-.252c.028 0 .077-.028.147-.084s.105-.098.105-.126c.168-.196.329-.455.483-.777s.294-.665.42-1.029.245-.721.357-1.071.196-.651.252-.903c.056-.14.105-.294.147-.462s.063-.322.063-.462c.028-.196-.056-.42-.252-.672-.056 0-.182.021-.378.063s-.322.091-.378.147c-.028 0-.07.021-.126.063s-.084.077-.084.105c-.084.168-.189.399-.315.693s-.252.595-.378.903-.245.609-.357.903-.21.525-.294.693c0 .028-.014.063-.042.105s-.042.077-.042.105l-3.906 3.99c0 .196-.042.322-.126.378-.056-.028-.196-.049-.42-.063s-.364-.007-.42.021c-.028 0-.098.028-.21.084l-.168.084h-.336l-.168-.966.588-3.822c0-.028-.035-.084-.105-.168s-.112-.161-.126-.231 0-.119.042-.147.175-.028.399 0l1.302-5.376-.084-.42.21-1.848h-.42c.028-.028.049-.077.063-.147s.021-.119.021-.147c-.056-.112-.105-.308-.147-.588s-.077-.448-.105-.504c0-.028-.056-.119-.168-.273s-.196-.259-.252-.315l-.84-.672c-.056-.056-.168-.189-.336-.399s-.28-.329-.336-.357c0-.084-.042-.126-.126-.126h-1.176l-2.814 9.996-.042.84v.21c.056.168.07.308.042.42s-.028.252 0 .42c0 .056.007.196.021.42s.021.469.021.735.007.518.021.756.021.385.021.441c.028.308.091.644.189 1.008s.231.728.399 1.092.35.714.546 1.05.42.63.672.882c.224.252.525.518.903.798s.763.392 1.155.336zm1.406672-11.101125c-.028 0-.049-.056-.063-.168s-.035-.196-.063-.252c.056-.224.154-.434.294-.63s.224-.406.252-.63c-.028-.028-.042-.133-.042-.315v-.315c-.028-.028-.007-.063.063-.105s.105-.077.105-.105c.112-.28.147-.616.105-1.008s.063-.7.315-.924c.056.084.056.154 0 .21.028.14.042.322.042.546s.014.364.042.42c-.028.084-.07.238-.126.462s-.112.462-.168.714-.119.49-.189.714-.119.378-.147.462c-.028 0-.063.028-.105.084s-.049.098-.021.126zm0 1.764c-.056.028-.126.014-.21-.042.028-.056.077-.14.147-.252s.105-.196.105-.252v-.084c0-.028.014-.042.042-.042.028.056.049.133.063.231s.007.189-.021.273-.07.14-.126.168zm-1.113 6.93c-.042.056-.133.07-.273.042-.028-.056-.063-.126-.105-.21s-.063-.154-.063-.21c-.224-.644-.28-1.267-.168-1.869s.238-1.183.378-1.743c.028-.084.056-.175.084-.273s.098-.161.21-.189l.084.21c-.028.084-.056.245-.084.483s-.049.49-.063.756-.028.518-.042.756-.021.399-.021.483c-.028.112-.014.371.042.777s.112.679.168.819c-.056.056-.105.112-.147.168zm45.675 18.354c.084 0 .224-.014.42-.042s.322-.042.378-.042c.14-.056.259-.105.357-.147s.175-.147.231-.315v-.63c-.112-.28-.336-.483-.672-.609s-.504-.259-.504-.399l-.336-2.058v-3.36l-.126-.126c-.028-.14-.056-.266-.084-.378l-.084-.336c-.028-.112-.056-.196-.084-.252v-.588c.056 0 .091-.077.105-.231s.021-.259.021-.315v-.462l.252-.252c.028-.028.056-.105.084-.231s.042-.203.042-.231v-1.428c0-.056.014-.098.042-.126 0-.056.014-.112.042-.168v-.462c.028-.028.063-.133.105-.315s.091-.364.147-.546.105-.357.147-.525.077-.28.105-.336v-.126c0-.028.014-.112.042-.252s.042-.238.042-.294v-.84c0-.028.035-.084.105-.168s.119-.14.147-.168h.126v.336c-.028.028-.063.14-.105.336s-.084.406-.126.63-.077.434-.105.63-.042.308-.042.336v.252c0 .028-.014.112-.042.252s-.042.224-.042.252v1.596l-.588 3.444v.252c.14 0 .21-.042.21-.126.056-.392.098-.728.126-1.008s.112-.602.252-.966l.336-3.57v-.378l1.932-10.248v-.126c-.084-.084-.161-.007-.231.231s-.105.385-.105.441l-.966 4.074-.084.126v-1.05c.028-.084.063-.259.105-.525s.098-.539.168-.819.133-.553.189-.819.098-.441.126-.525c.364-.56.476-1.092.336-1.596l1.722-5.838v-.168c.0112-.0224.028-.056.0504-.1008l.1386-.2772c.098-.196.147-.308.147-.336l.588-2.058c0-.028.028-.105.084-.231s.112-.203.168-.231l.63-2.562c0-.056.028-.119.084-.189s.112-.133.168-.189c.028 0 .056-.021.084-.063s.07-.049.126-.021c0 .056-.021.175-.063.357s-.084.371-.126.567-.091.385-.147.567-.098.301-.126.357c0 .112-.042.182-.126.21l-1.344 4.914c-.14.14-.238.357-.294.651s-.112.525-.168.693c-.028.084-.056.154-.084.21-.056.112-.112.168-.168.168 0 .056-.007.21-.021.462s-.049.406-.105.462c0 .056-.028.182-.084.378s-.119.399-.189.609-.14.406-.21.588-.119.301-.147.357c.028.168-.021.329-.147.483s-.161.315-.105.483l.252-.168c0-.028.056-.196.168-.504s.196-.546.252-.714c.028 0 .042-.021.042-.063s-.014-.063-.042-.063l2.184-7.518c.224-.252.329-.532.315-.84s.077-.602.273-.882l1.344-4.578c.028-.028.07-.098.126-.21s.084-.196.084-.252c.028-.028.056-.112.084-.252s.063-.287.105-.441.077-.301.105-.441.056-.224.084-.252c0-.028.042-.112.126-.252s.154-.238.21-.294c.056-.084.119-.119.189-.105s.133-.021.189-.105c0-.056.028-.189.084-.399s.098-.385.126-.525v-.042l-.21.042v-.168c0-.084.042-.259.126-.525s.154-.469.21-.609c0-.056.021-.105.063-.147s.077-.091.105-.147v.882l.126-.126.588-1.848c-.056-.14-.021-.287.105-.441s.203-.301.231-.441c.056-.308.119-.588.189-.84s.175-.518.315-.798c.028-.056.112-.217.252-.483s.224-.427.252-.483c-.224-.084-.371-.049-.441.105s-.133.301-.189.441c-.028.056-.07.168-.126.336s-.119.35-.189.546-.133.378-.189.546-.084.28-.084.336c-.056.14-.147.336-.273.588s-.245.497-.357.735-.217.448-.315.63-.161.287-.189.315l-.126.084 1.722-4.41c.028-.084.056-.301.084-.651s.042-.595.042-.735l-.462-1.176-.714-.798c-.056-.028-.133-.077-.231-.147s-.161-.105-.189-.105c-.14-.084-.322-.175-.546-.273s-.35-.119-.378-.063l-.714.42-7.308 18.942c0 .056-.028.126-.084.21s-.098.126-.126.126c-.056.056-.203.154-.441.294s-.385.224-.441.252l-7.14 2.52h-.126c-.028 0-.105.021-.231.063s-.273.091-.441.147-.329.105-.483.147-.259.063-.315.063c-.028.028-.098.042-.21.042s-.196-.014-.252-.042c-.028-.224-.021-.343.021-.357s.077-.105.105-.273l.336-1.848c.028-.056.084-.196.168-.42s.175-.462.273-.714.189-.497.273-.735.126-.385.126-.441.021-.196.063-.42.063-.378.063-.462l.126-.126c.14-.364.266-.7.378-1.008.112-.28.217-.567.315-.861s.189-.539.273-.735c0-.028.021-.112.063-.252s.063-.238.063-.294c0-.028.042-.098.126-.21s.126-.196.126-.252l.462-1.596c0-.056.014-.098.042-.126 0-.028.028-.07.084-.126l2.184-6.384c.056-.224.042-.469-.042-.735s-.196-.497-.336-.693c-.014-.014-.030139-.030139-.048417-.048417l-.322-.322-.112583-.112583c-.238-.238-.385-.371-.441-.399-.224-.196-.567-.315-1.029-.357s-.805.077-1.029.357l-.462.714c-.028.056-.084.175-.168.357s-.175.378-.273.588-.189.406-.273.588-.14.315-.168.399c-.056.028-.091.112-.105.252s-.021.224-.021.252l-3.066 7.266v.126c-.028.056-.056.119-.084.189s-.042.133-.042.189c-.028.028-.091.133-.189.315s-.147.287-.147.315c-.028.056-.077.182-.147.378s-.147.399-.231.609-.161.413-.231.609-.105.322-.105.378l-.252.672c-.084.224-.196.434-.336.63l-1.134 3.948v.084c0 .056-.084.322-.252.798s-.308.868-.42 1.176c0 .056-.084.168-.252.336-1.26.112-2.52.161-3.78.147s-2.548.007-3.864.063c-.056 0-.189.014-.399.042s-.329.056-.357.084c-.056 0-.112.028-.168.084l-.084.084v1.344c-.196.14-.266.308-.21.504s.161.392.315.588.322.385.504.567.315.329.399.441c.056.084.147.231.273.441s.189.343.189.399l2.52 12.474v1.26c0 .056.014.168.042.336s.056.266.084.294c0 .056.028.105.084.147s.112.063.168.063c0 .112.042.182.126.21 0 .14.028.266.084.378 0 .056.035.133.105.231s.105.161.105.189c.196.308.455.609.777.903s.679.497 1.071.609h.21c.476.112.854.189 1.134.231s.658-.063 1.134-.315c.364-.224.595-.49.693-.798s.259-.602.483-.882l-.126-.042c0-.056.014-.154.042-.294s.056-.238.084-.294v-.252c-.028-.028-.049-.077-.063-.147s-.035-.133-.063-.189l-.084-.252h-.21v-.462h-.294l-.084-.084c-.14-.056-.28-.042-.42.042l-.084.042c-.112.0448-.224.0448-.336 0 .112-.168.154-.364.126-.588l1.302-4.284c.084-.14.119-.252.105-.336s.021-.238.105-.462c.056-.084.168-.28.336-.588s.28-.504.336-.588l1.554-5.88c.084-.084.126-.168.126-.252.056-.056.133-.231.231-.525s.147-.469.147-.525.014-.105.042-.147.056-.091.084-.147l.084-.168 3.528-.882.252-.252c-.28-.028-.532.014-.756.126s-.462.196-.714.252h-.252l-1.596.336h-.21c-.056-.14.007-.231.189-.273s.315-.063.399-.063l9.324-2.73-1.932 8.274v.126l-1.47 8.82v.084c0 .028-.007.098-.021.21s-.028.231-.042.357-.028.245-.042.357-.021.182-.021.21c0 .224-.007.546-.021.966s-.021.847-.021 1.281.007.819.021 1.155.021.546.021.63c.028.224.07.518.126.882s.112.728.168 1.092.112.693.168.987.084.469.084.525l.924 1.764c.056.028.21.147.462.357s.434.371.546.483c.056.028.14.063.252.105s.182.063.21.063c.084.028.203.07.357.126s.315.105.483.147.322.084.462.126.238.063.294.063zm6.762-39.102 1.554-4.998.126-.126v.63l-1.218 3.444v.126c-.028.056-.056.133-.084.231s-.056.189-.084.273c-.028.112-.056.21-.084.294zm-.378 1.176v-.252c0-.084.014-.168.042-.252.028-.056.056-.126.084-.21 0-.084.042-.126.126-.126.028.252-.056.532-.252.84zm-12.222 10.836c.084-.028.231-.07.441-.126s.343-.084.399-.084c.056-.056.168-.119.336-.189s.266-.133.294-.189h-.168c-.196.056-.455.14-.777.252s-.497.182-.525.21l-.126.126zm-13.23 8.148c-.056.028-.098-.014-.126-.126l-1.806-6.006c-.056-.084-.119-.196-.189-.336s-.091-.28-.063-.42c.224-.084.511-.133.861-.147s.637.035.861.147c-.224.028-.378.084-.462.168s-.119.168-.105.252.049.14.105.168.126 0 .21-.084h1.554l.294-.126h.084c.112.028.238.063.378.105s.21.077.21.105v.168l-1.47 5.418c.028.056.021.14-.021.252s-.091.21-.147.294-.112.14-.168.168zm.777-6.636h-.315c-.084 0-.21-.028-.378-.084-.084-.028-.154-.042-.21-.042v-.126h.966c.028 0 .084.014.168.042s.126.056.126.084c-.112.084-.231.126-.357.126zm19.278 8.526c-.042 0-.063-.028-.063-.084-.028 0-.056-.042-.084-.126s-.042-.14-.042-.168c-.028-.14-.021-.329.021-.567s.161-.413.357-.525v-.756l.21-.126c.056.364.042.756-.042 1.176s-.182.784-.294 1.092c0 .056-.021.084-.063.084zm11.865-20.748c.112 0 .196-.014.252-.042l1.008-.168c.28-.084.441-.238.483-.462s.189-.406.441-.546l1.428-2.436-.168-1.764c-.112-.028-.175-.077-.189-.147s-.077-.147-.189-.231c-.28-.336-.7-.504-1.26-.504-.028-.028-.091-.028-.189 0s-.133.056-.105.084l-1.722 1.008-2.478 4.368.042.084c0 .028.133.098.399.21s.497.21.693.294c0 .028.042.042.126.042h.126c.14.056.343.098.609.126s.427.042.483.042c.028.028.098.042.21.042zm-2.58267 21.853125.14667-.013125c.028-.028.105-.056.231-.084s.217-.042.273-.042.112.014.168.042l.10752.05376.05376.02688.00672.00336h.294c.112-.028.238-.056.378-.084s.224-.042.252-.042c.056-.028.154-.119.294-.273s.196-.259.168-.315l.168-.168c.084-.084.154-.14.21-.168.112-.056.238-.098.378-.126s.238-.084.294-.168c0-.028.049-.084.147-.168s.147-.14.147-.168c.028 0 .091-.028.189-.084s.161-.098.189-.126c.028 0 .042-.042.042-.126.028 0 .07-.077.126-.231s.098-.245.126-.273.091-.098.189-.21.21-.231.336-.357l.336-.336c.098-.098.147-.175.147-.231.028-.056.119-.168.273-.336s.322-.336.504-.504.35-.336.504-.504.231-.28.231-.336l.126-.252c.028 0 .077-.028.147-.084s.105-.098.105-.126c.168-.196.329-.455.483-.777s.294-.665.42-1.029.245-.721.357-1.071.196-.651.252-.903c.056-.14.105-.294.147-.462s.063-.322.063-.462c.028-.196-.056-.42-.252-.672-.056 0-.182.021-.378.063s-.322.091-.378.147c-.028 0-.07.021-.126.063s-.084.077-.084.105c-.084.168-.189.399-.315.693s-.252.595-.378.903-.245.609-.357.903-.21.525-.294.693c0 .028-.014.063-.042.105s-.042.077-.042.105l-3.906 3.99c0 .196-.042.322-.126.378-.056-.028-.196-.049-.42-.063s-.364-.007-.42.021c-.028 0-.098.028-.21.084l-.168.084h-.336l-.168-.966.588-3.822c0-.028-.035-.084-.105-.168s-.112-.161-.126-.231 0-.119.042-.147.175-.028.399 0l1.302-5.376-.084-.42.21-1.848h-.42c.028-.028.049-.077.063-.147s.021-.119.021-.147c-.056-.112-.105-.308-.147-.588s-.077-.448-.105-.504c0-.028-.056-.119-.168-.273s-.196-.259-.252-.315l-.84-.672c-.056-.056-.168-.189-.336-.399s-.28-.329-.336-.357c0-.084-.042-.126-.126-.126h-1.176l-2.814 9.996-.042.84v.21c.056.168.07.308.042.42s-.028.252 0 .42c0 .056.007.196.021.42s.021.469.021.735.007.518.021.756.021.385.021.441c.028.308.091.644.189 1.008s.231.728.399 1.092.35.714.546 1.05.42.63.672.882c.224.252.525.518.903.798s.763.392 1.155.336zm1.40667-11.101125c-.028 0-.049-.056-.063-.168s-.035-.196-.063-.252c.056-.224.154-.434.294-.63s.224-.406.252-.63c-.028-.028-.042-.133-.042-.315v-.315c-.028-.028-.007-.063.063-.105s.105-.077.105-.105c.112-.28.147-.616.105-1.008s.063-.7.315-.924c.056.084.056.154 0 .21.028.14.042.322.042.546s.014.364.042.42c-.028.084-.07.238-.126.462s-.112.462-.168.714-.119.49-.189.714-.119.378-.147.462c-.028 0-.063.028-.105.084s-.049.098-.021.126zm0 1.764c-.056.028-.126.014-.21-.042.028-.056.077-.14.147-.252s.105-.196.105-.252v-.084c0-.028.014-.042.042-.042.028.056.049.133.063.231s.007.189-.021.273-.07.14-.126.168zm-1.113 6.93c-.042.056-.133.07-.273.042-.028-.056-.063-.126-.105-.21s-.063-.154-.063-.21c-.224-.644-.28-1.267-.168-1.869s.238-1.183.378-1.743c.028-.084.056-.175.084-.273s.098-.161.21-.189l.084.21c-.028.084-.056.245-.084.483s-.049.49-.063.756-.028.518-.042.756-.021.399-.021.483c-.028.112-.014.371.042.777s.112.679.168.819c-.056.056-.105.112-.147.168zm6.783 6.51c.336.224.644.28.924.168s.56-.28.84-.504c.056-.336-.007-.658-.189-.966s-.273-.49-.273-.546l2.562-9.87c-.028-.056-.042-.168-.042-.336s.014-.28.042-.336c0-.028.028-.07.084-.126l.126-.126h.126l1.176 2.898c.056.056.098.133.126.231s.056.175.084.231c.084.112.217.287.399.525s.378.483.588.735.406.49.588.714.315.378.399.462c.014.014.03019.030188.04856.048563l.60244.602437c.126.126.245.238.357.336s.196.161.252.189c.084.056.21.126.378.21s.357.175.567.273.399.189.567.273.294.14.378.168l.60396-.00084c.08736-.00224.21504-.00896.38304-.02016.21-.014.434-.028.672-.042s.462-.028.672-.042.357-.021.441-.021c.056-.028.154-.084.294-.168s.238-.14.294-.168h.672c.196-.028.385-.098.567-.21s.343-.238.483-.378l1.974-.672c.028 0 .098-.049.21-.147s.196-.175.252-.231c.112-.112.266-.259.462-.441s.385-.364.567-.546l.735-.735 3.108-4.284c.028-.028.056-.119.084-.273s.042-.259.042-.315-.042-.126-.126-.21c-.308-.448-.63-.658-.966-.63s-.588.308-.756.84l-2.226 3.15-.126.21c0 .056-.063.147-.189.273s-.266.259-.42.399-.315.28-.483.42-.294.238-.378.294-.252.161-.504.315-.511.315-.777.483-.525.322-.777.462-.42.224-.504.252c-.14.056-.35.105-.63.147s-.567.077-.861.105-.574.028-.84 0-.455-.07-.567-.126l-1.848-1.05-2.226-2.772-.126-.252-2.016-2.814 5.292-2.394h.21c.056 0 .231-.091.525-.273s.511-.329.651-.441c.056-.056.168-.161.336-.315s.343-.322.525-.504l.525-.525c.168-.168.28-.294.336-.378.084-.028.189-.07.315-.126s.217-.126.273-.21l.798-2.226c.028-.028.042-.231.042-.609s-.014-.679-.042-.903c0-.14-.014-.357-.042-.651s-.042-.455-.042-.483c-.028-.084-.07-.196-.126-.336s-.126-.28-.21-.42-.161-.273-.231-.399-.119-.203-.147-.231c-.056-.056-.154-.147-.294-.273s-.287-.259-.441-.399-.308-.266-.462-.378-.259-.196-.315-.252c-.476-.14-.987-.231-1.533-.273s-1.043.091-1.491.399c-.028.028-.133.126-.315.294s-.301.266-.357.294-.21.063-.462.105-.406.077-.462.105-.154.084-.294.168-.238.154-.294.21v-.252l1.26-3.696v-.126c0-.028.021-.07.063-.126s.063-.098.063-.126l.336-1.386v-.126c-.14.112-.259.266-.357.462s-.175.35-.231.462l-.84 2.814h.042c.056 0 .084.035.084.105s-.028.105-.084.105-.084-.014-.084-.042l-.714 2.478c-.028.056-.098.126-.21.21s-.196.14-.252.168v-.126c.056-.224.119-.539.189-.945s.119-.637.147-.693l.462-1.134c.028-.056.07-.231.126-.525s.098-.469.126-.525c0-.028.014-.07.042-.126s.042-.098.042-.126l1.05-3.486c.084-.084.14-.217.168-.399s.056-.315.084-.399v-2.1c-.028-.028-.049-.084-.063-.168s-.035-.14-.063-.168c-.056-.14-.175-.357-.357-.651s-.301-.469-.357-.525c-.028-.056-.098-.126-.21-.21s-.196-.126-.252-.126c-.056-.028-.189-.028-.399 0s-.343.07-.399.126c-.14.084-.252.196-.336.336-.056.084-.14.238-.252.462s-.231.455-.357.693-.245.469-.357.693-.182.378-.21.462c-.028.056-.07.168-.126.336s-.112.35-.168.546-.112.385-.168.567-.098.287-.126.315c0 .028-.014.063-.042.105s-.042.077-.042.105l-7.14 27.846.84 3.486c.028.056.154.182.378.378s.406.336.546.42zm5.376-16.002h-.252l.126-.21v-.252c.028-.112.07-.28.126-.504s.084-.364.084-.42l.714-1.386c0-.028.035-.07.105-.126s.105-.098.105-.126c.196-.308.273-.616.231-.924s.077-.616.357-.924c.056-.028.133-.07.231-.126s.175-.084.231-.084l1.974-2.1.336-.798.126-.126 1.512-.924.21-.21c.084-.084.168-.098.252-.042.056.028.154.084.294.168s.238.154.294.21c.028.028.056.042.084.042l.042.042v1.05c-.028.112-.07.28-.126.504s-.112.455-.168.693-.112.455-.168.651-.098.322-.126.378c-.056.112-.147.28-.273.504s-.266.441-.42.651-.294.406-.42.588-.217.287-.273.315l-3.024 2.436zm17.619 11.508c.238 0 .385-.014.441-.042l.06956-.022312c.07613-.023625.17194-.051188.28744-.082688.154-.042.315-.098.483-.168s.329-.133.483-.189.259-.098.315-.126c.084-.028.203-.098.357-.21s.315-.231.483-.357.329-.238.483-.336.259-.175.315-.231l4.158-4.074.126.126c-.056.56-.042 1.05.042 1.47s.224.896.42 1.428c0 .028.028.07.084.126.028.028.042.056.042.084.112.14.315.357.609.651.03675.03675.07164.071641.10467.104672l.39375.39375.02658.026578c.252.196.532.343.84.441s.616.063.924-.105c0-.056.042-.189.126-.399s.154-.343.21-.399c.028-.028.105-.091.231-.189s.203-.147.231-.147c.308-.28.616-.546.924-.798s.616-.532.924-.84c.028-.028.07-.091.126-.189s.098-.147.126-.147c.056-.056.21-.217.462-.483s.406-.427.462-.483c.028 0 .056-.028.084-.084s.042-.098.042-.126l1.134-.798 2.226-2.814.21-1.134c.056-.168.133-.336.231-.504s.105-.35.021-.546c-.028-.056-.098-.105-.21-.147s-.196-.035-.252.021l-6.048 6.384-.21.126c-.028-.056-.042-.175-.042-.357s.014-.301.042-.357c0-.084.028-.245.084-.483s.112-.497.168-.777.119-.539.189-.777c.042-.1428.07644-.26292.10332-.36036l.04368-.16464c-.028-.028-.042-.084-.042-.168s.014-.14.042-.168l.336-2.184c0-.196.112-.322.336-.378l1.302-6.384-.252-.21c-.084.056-.14.133-.168.231s-.042.175-.042.231c-.028-.056-.056-.189-.084-.399s-.042-.343-.042-.399v-.252c-.084-.084-.168-.126-.252-.126l-1.596-2.058c-.028-.028-.161-.07-.399-.126s-.427-.098-.567-.126c-.056-.028-.126.014-.21.126l-.798 1.386c-.028.028-.056.119-.084.273s-.042.259-.042.315c-.028.084-.07.203-.126.357s-.098.231-.126.231h-.084c.056-.28.007-.546-.147-.798s-.273-.49-.357-.714c0-.028-.007-.056-.021-.084s-.021-.056-.021-.084c-.028-.028-.042-.056-.042-.084l-.924-.672-.252-.378c-.028-.028-.14-.049-.336-.063s-.308-.021-.336-.021l-.714-.378c-.056 0-.21.007-.462.021s-.406.007-.462-.021c-.056 0-.161-.021-.315-.063s-.245-.063-.273-.063l-.714.378c-.056 0-.112.014-.168.042l-.168.084c-.112.056-.252.133-.42.231l-.504.294c-.168.098-.322.189-.462.273s-.21.126-.21.126l-3.486 3.57c-.056.056-.161.203-.315.441s-.315.504-.483.798-.329.588-.483.882-.273.525-.357.693-.21.455-.378.861-.343.847-.525 1.323-.35.924-.504 1.344-.259.714-.315.882c-.056.084-.112.287-.168.609s-.084.539-.084.651c-.056 1.176.014 2.303.21 3.381s.672 2.079 1.428 3.003c.056.056.133.14.231.252s.175.182.231.21l1.596.924c.084.028.245.042.483.042zm1.02814-1.75875-.10414-.00525c-.238-.028-.511-.112-.819-.252-.224-.084-.385-.21-.483-.378s-.203-.35-.315-.546c-.112-.616-.189-1.267-.231-1.953s.035-1.351.231-1.995c.028-.084.084-.203.168-.357s.098-.301.042-.441l.84-1.89c-.028 0-.042-.028-.042-.084s.014-.098.042-.126l.084-.126.504-.798c0-.028.014-.105.042-.231s.042-.203.042-.231l.588-.924c0-.084.042-.126.126-.126l1.176-2.1.084-.126 2.814-3.822h.042c.028 0 .056-.014.084-.042.028 0 .056-.014.084-.042l.462-.714c.084-.112.189-.182.315-.21s.259-.042.399-.042l1.134.252c.196.112.294.252.294.42s.028.336.084.504c0 .084.021.21.063.378s.091.35.147.546.105.385.147.567.077.301.105.357c.084.084.189.168.315.252s.175.196.147.336c-.028.112-.07.301-.126.567s-.098.427-.126.483c0 .028-.014.07-.042.126s-.056.084-.084.084l-1.008 4.536c.028.252 0 .497-.084.735s-.098.497-.042.777l-5.208 5.586-1.176.798c-.308.196-.581.28-.819.252zm10.63211-2.344125-.04725-.013125v-.462c0-.056.014-.21.042-.462s.042-.406.042-.462v-.462c.056-.392.189-.756.399-1.092s.273-.7.189-1.092l1.764-7.77c0-.028.014-.042.042-.042s.042.014.042.042c.028.028.056.049.084.063s.056.035.084.063l.084.084c.028.056.042.154.042.294s-.014.238-.042.294l-.588 3.234v-1.05h-.126l-.798 4.41v.126l-.798 4.074c-.028.056-.098.112-.21.168s-.196.07-.252.042zm13.47675 17.836875c.14-.028.385-.063.735-.105s.553-.091.609-.147c.056 0 .14-.028.252-.084s.231-.119.357-.189.238-.14.336-.21.161-.119.189-.147l1.008-1.26.21-.378c.084-.14.189-.287.315-.441s.217-.343.273-.567l3.276-11.34-.042-.126 1.428-5.922v-.126l1.26-6.678c-.084-.14-.098-.301-.042-.483s.07-.329.042-.441c.028-.112.014-.301-.042-.567s-.098-.427-.126-.483c-.028-.028-.077-.098-.147-.21s-.147-.231-.231-.357-.168-.245-.252-.357-.14-.182-.168-.21c.056-.224-.021-.427-.231-.609s-.413-.287-.609-.315c-.112-.028-.273-.049-.483-.063s-.329-.007-.357.021l-.21.21-6.678 13.356c-.028 0-.112.084-.252.252s-.308.371-.504.609l-.588.714c-.196.238-.364.427-.504.567 0 .028-.056.084-.168.168-.028.021-.05338.04025-.07613.05775l-.105.084-.02887.02625c0 .028-.007.042-.021.042s-.021.014-.021.042v.042c-.14.112-.357.259-.651.441-.147.091-.26075.16275-.34125.21525l-.09581.064313c-.02363.016625-.03894.028437-.04594.035437-.28.196-.546.196-.798 0-.056-.028-.14-.091-.252-.189s-.182-.189-.21-.273c-.056-.308-.077-.672-.063-1.092s.021-.784.021-1.092c0-.028-.014-.07-.042-.126s-.042-.098-.042-.126l1.26-6.258.21.042v.126c.028.056.035.119.021.189s-.021.119-.021.147l-.588 1.806c-.028.056-.056.231-.084.525s-.056.469-.084.525v.126c0 .056-.014.098-.042.126-.028.084-.056.224-.084.42s-.056.406-.084.63-.056.434-.084.63-.042.336-.042.42c.084.14.098.301.042.483s-.098.357-.126.525c0 .028.007.105.021.231s.021.266.021.42v.42c0 .126.014.203.042.231-.028.112.014.182.126.21l.084-.084c0-.084.007-.224.021-.42s.035-.399.063-.609.056-.406.084-.588.042-.301.042-.357c0-.028.014-.07.042-.126s.028-.098 0-.126c0-.028-.007-.105-.021-.231s-.035-.203-.063-.231c0-.056.014-.189.042-.399s.042-.343.042-.399c.028-.112.07-.224.126-.336s.056-.238 0-.378c.028-.084.063-.231.105-.441s.091-.427.147-.651.105-.441.147-.651.077-.343.105-.399l.462-1.176c0-.028.007-.084.021-.168s.021-.14.021-.168l1.68-5.208v-.126c0-.056.007-.098.021-.126s.021-.056.021-.084v-.126h-.378l.462-1.26c-.14-.168-.203-.343-.189-.525s.007-.357-.021-.525c0-.056-.014-.161-.042-.315s-.042-.245-.042-.273l-1.092-1.554c-.168-.224-.427-.343-.777-.357s-.623.035-.819.147c-.056.028-.133.112-.231.252s-.175.238-.231.294l-3.486 7.728-.882 6.342v.084c.028.056.056.252.084.588s.042.532.042.588c.196.84.504 1.673.924 2.499s1.036 1.519 1.848 2.079l.672.462c.196.112.434.161.714.147s.49-.091.63-.231c.7.112 1.267.063 1.701-.147s.875-.497 1.323-.861c.028 0 .063-.035.105-.105s.077-.105.105-.105c.056-.056.231-.147.525-.273s.469-.217.525-.273.14-.154.252-.294.182-.238.21-.294.084-.203.168-.441.126-.399.126-.483l1.554-2.646c.112-.168.126-.322.042-.462l.672-1.512v.126l-3.696 15.204-1.344 2.1c-.028.056-.126.14-.294.252-.042.028-.08138.05425-.11813.07875l-.189.126-.07087.04725-.798.252-1.134.546c-.364.14-.742.161-1.134.063s-.784-.259-1.176-.483c-.084-.028-.14-.091-.168-.189s-.07-.189-.126-.273c.028 0 0-.042-.084-.126l-.084-.084-.882-.924c-.056-.056-.126-.154-.21-.294s-.175-.294-.273-.462-.189-.322-.273-.462-.14-.238-.168-.294c-.14-.084-.224-.175-.252-.273s-.042-.189-.042-.273.007-.182.021-.294-.021-.238-.105-.378c-.084-.168-.217-.315-.399-.441s-.364-.21-.546-.252-.329-.028-.441.042-.112.245 0 .525c.028.14.091.315.189.525s.189.42.273.63.168.392.252.546.126.245.126.273c.056.084.154.224.294.42s.294.399.462.609.322.413.462.609.252.322.336.378c.028.112.091.259.189.441s.224.371.378.567.301.378.441.546.266.28.378.336l2.016 1.05c.308-.028.602-.014.882.042s.574.098.882.126c.056.028.203.056.441.084s.385.042.441.042c.14 0 .399.007.777.021s.609.021.693.021zm-1.848-27.216c-.056-.028-.084-.07-.084-.126s.014-.098.042-.126c0-.084.021-.224.063-.42s.077-.322.105-.378c.028-.028.084-.098.168-.21s.154-.196.21-.252c.028-.028.07-.063.126-.105s.112-.049.168-.021c.028.252-.035.574-.189.966s-.357.616-.609.672zm13.398 13.314c.364.252.728.329 1.092.231s.742-.175 1.134-.231c.028 0 .119-.014.273-.042s.315-.049.483-.063.322-.035.462-.063.238-.042.294-.042h.672c.056 0 .14-.014.252-.042s.182-.056.21-.084l2.562-1.134 5.208-3.738.126-.21 3.612-3.864v-.21c.056-.112.147-.252.273-.42s.252-.35.378-.546.231-.378.315-.546.112-.322.084-.462c-.028-.112-.07-.259-.126-.441s-.098-.273-.126-.273h-.672l-5.25 5.922c-.112.084-.231.175-.357.273s-.231.203-.315.315l-4.872 3.15c-.028 0-.154.021-.378.063s-.483.091-.777.147-.595.105-.903.147-.56.077-.756.105c-.308.056-.595.063-.861.021s-.511-.175-.735-.399l-.126.252c-.14-.056-.182-.105-.126-.147s.056-.105 0-.189c0-.028-.014-.042-.042-.042-.056 0-.084-.014-.084-.042-.028-.028-.056-.042-.084-.042-.084 0-.126-.042-.126-.126-.056-.112-.126-.343-.21-.693s-.126-.581-.126-.693c-.028-.056-.042-.175-.042-.357s.014-.301.042-.357l.672-3.444c0-.056.028-.133.084-.231s.112-.175.168-.231c.14-.224.35-.315.63-.273s.532.007.756-.105c.084-.056.273-.168.567-.336s.483-.28.567-.336c.008-.008.01771-.017714.02914-.029143l.81086-.810857c.028-.028.14-.063.336-.105s.308-.077.336-.105c.112-.056.273-.147.483-.273l.63-.378c.21-.126.399-.238.567-.336s.266-.161.294-.189c.084-.056.21-.175.378-.357s.35-.371.546-.567.371-.378.525-.546.259-.294.315-.378c0-.084.042-.168.126-.252.028-.056.112-.147.252-.273s.238-.217.294-.273l1.764-2.688c.028-.196.07-.378.126-.546.084-.336.154-.616.21-.84v-.126l-.714-1.848c-.056-.14-.203-.266-.441-.378s-.427-.182-.567-.21c-.056 0-.231-.014-.525-.042s-.511-.056-.651-.084h-.252c-.084.028-.231.056-.441.084s-.441.063-.693.105-.49.077-.714.105-.378.056-.462.084c-.028 0-.063.014-.105.042s-.077.042-.105.042c-.028.028-.091.056-.189.084s-.161.042-.189.042l-1.974 1.176c-.056.056-.182.168-.378.336s-.406.364-.63.588l-1.176 1.176c-.056.028-.154.154-.294.378s-.238.364-.294.42l-.126.126c0 .028-.049.105-.147.231s-.161.203-.189.231c0 .028-.014.042-.042.042-.056.028-.084.042-.084.042l-1.05 1.89-.084.084c-.168.336-.322.672-.462 1.008s-.294.658-.462.966l-.252.462v.252c0 .028-.014.084-.042.168s-.056.14-.084.168c-.056.112-.119.245-.189.399s-.119.301-.147.441v.336c-.112.532-.231 1.05-.357 1.554s-.161 1.022-.105 1.554c0 .056.007.161.021.315s.028.322.042.504.028.357.042.525.021.266.021.294c.028.448.077.889.147 1.323s.217.847.441 1.239c.056.112.133.259.231.441s.203.364.315.546.21.343.294.483.14.224.168.252c.056.084.224.245.504.483s.462.385.546.441zm1.974-10.29v-.588c.028-.056.063-.133.105-.231s.091-.175.147-.231l2.562-3.486c.028-.028.147-.175.357-.441s.469-.595.777-.987.623-.798.945-1.218.595-.784.819-1.092l.09408-.09408.05292-.05292c.03267-.032667.06689-.066889.10267-.102667l.23333-.233333c.126-.126.266-.245.42-.357s.273-.21.357-.294c.056-.056.189-.14.399-.252s.343-.182.399-.21c.196-.084.357-.021.483.189s.203.371.231.483c.084.56.028 1.078-.168 1.554s-.448.924-.756 1.344c.028.084.028.196 0 .336s-.112.182-.252.126l-2.772 3.15-4.158 2.562zm3.024-5.334.252-.504c.028-.056.091-.147.189-.273s.21-.252.336-.378.259-.224.399-.294.252-.091.336-.063c-.028.084-.105.21-.231.378s-.273.329-.441.483-.329.294-.483.42-.273.203-.357.231zm3.15 13.104c-.084-.084-.084-.126 0-.126.056-.112.196-.21.42-.294s.392-.098.504-.042zm11.12829 9.328286.14871-.004286c.35-.028.679-.154.987-.378l.714-.714.168-.084c.056-.028.112-.07.168-.126s.14-.196.252-.42.182-.364.21-.42c.028-.028.126-.119.294-.273s.266-.259.294-.315c.224-.224.392-.49.504-.798l.336-.924v-.126l1.26-1.512c.056-.28.161-.532.315-.756s.273-.476.357-.756c.028 0 .042-.014.042-.042s.014-.056.042-.084.042-.056.042-.084c.196-.224.406-.455.63-.693s.364-.511.42-.819c.056-.056.147-.175.273-.357s.259-.371.399-.567.266-.378.378-.546.182-.294.21-.378c.028-.056.07-.161.126-.315s.119-.329.189-.525.126-.378.168-.546.077-.294.105-.378c0-.196.014-.364.042-.504s.042-.273.042-.399.014-.245.042-.357c.028-.14-.028-.28-.168-.42s-.28-.238-.42-.294c-.14-.028-.252.014-.336.126l-.714 1.302c0 .028-.014.077-.042.147s-.042.133-.042.189l-3.024 6.006-3.15 4.074-.798.588h-.126c-.028 0-.098-.196-.21-.588s-.196-.7-.252-.924c0-.028-.007-.112-.021-.252s-.028-.294-.042-.462-.028-.343-.042-.525-.021-.315-.021-.399v-2.184c0-.056.021-.189.063-.399s.063-.343.063-.399v-3.024c.252-.672.336-1.372.252-2.1l.672-4.746c-.028-.196-.028-.42 0-.672s.07-.462.126-.63l.084-.168c.028-.056.056-.091.084-.105s.042-.035.042-.063c.028-.028.056-.084.084-.168s.042-.14.042-.168v-.84l.378-.798v-.462c0-.056.014-.154.042-.294s.042-.238.042-.294c.056-.168.126-.315.21-.441s.098-.287.042-.483c0-.084.028-.245.084-.483s.119-.49.189-.756.14-.525.21-.777.119-.434.147-.546c-.028.056.021-.063.147-.357s.294-.672.504-1.134.441-.98.693-1.554.497-1.12.735-1.638.455-.966.651-1.344.35-.609.462-.693c.056-.28.007-.609-.147-.987s-.406-.686-.756-.924-.791-.329-1.323-.273-1.148.364-1.848.924c-.168.14-.413.35-.735.63s-.672.7-1.05 1.26-.777 1.295-1.197 2.205-.812 2.051-1.176 3.423l-2.1 7.896v.126l-.924 7.56c-.056.392-.063.833-.021 1.323s.091.931.147 1.323v.126c.028.224.07.511.126.861s.112.693.168 1.029c.056.392.112.798.168 1.218.028.14.098.35.21.63s.238.581.378.903.273.623.399.903.217.476.273.588c.392.476.833.903 1.323 1.281s.973.721 1.449 1.029c.308.224.637.322.987.294zm.67371-20.710286v-.462l.714-2.646c.056-.14.14-.182.252-.126.056.196.042.336-.042.42s-.154.21-.21.378c-.14.392-.238.812-.294 1.26s-.196.84-.42 1.176zm-.546 3.276c-.028-.112-.042-.35-.042-.714l.00086-.148286c.00343-.281143.01714-.469714.04114-.565714.028-.14.084-.329.168-.567s.14-.357.168-.357h.126v.378c-.056.28-.105.602-.147.966s-.147.7-.315 1.008zm-.378 1.974v-.126l.252-1.302c.028.224.028.462 0 .714s-.112.49-.252.714zm-.798 9.492v-1.386c0-.028.021-.084.063-.168s.063-.14.063-.168v-1.512c.028-.392.063-.763.105-1.113s.077-.721.105-1.113v-.672c.028-.196.056-.462.084-.798s.063-.658.105-.966.084-.574.126-.798.063-.336.063-.336l.084-.126c.056.728.042 1.442-.042 2.142s-.14 1.414-.168 2.142v.714c0 .056-.007.189-.021.399s-.028.441-.042.693-.028.483-.042.693-.021.343-.021.399c-.028.336-.035.693-.021 1.071s-.133.679-.441.903zm.21 2.436h-.084c-.028 0-.07-.063-.126-.189s-.098-.217-.126-.273v-.798c.168-.056.21-.175.126-.357s-.042-.301.126-.357c.028.028.049.084.063.168s.021.14.021.168c.028.14.042.413.042.819l-.00086.165857c-.00343.315429-.01714.533143-.04114.653143zm.714 1.386h-.336l-.084-.252c-.028-.056-.056-.126-.084-.21s-.056-.154-.084-.21v-.252c.056.112.161.168.315.168s.245.056.273.168zm8.61-4.662c.364.252.728.329 1.092.231s.742-.175 1.134-.231c.028 0 .119-.014.273-.042s.315-.049.483-.063.322-.035.462-.063.238-.042.294-.042h.672c.056 0 .14-.014.252-.042s.182-.056.21-.084l2.562-1.134 5.208-3.738.126-.21 3.612-3.864v-.21c.056-.112.147-.252.273-.42s.252-.35.378-.546.231-.378.315-.546.112-.322.084-.462c-.028-.112-.07-.259-.126-.441s-.098-.273-.126-.273h-.672l-5.25 5.922c-.112.084-.231.175-.357.273s-.231.203-.315.315l-4.872 3.15c-.028 0-.154.021-.378.063s-.483.091-.777.147-.595.105-.903.147-.56.077-.756.105c-.308.056-.595.063-.861.021s-.511-.175-.735-.399l-.126.252c-.14-.056-.182-.105-.126-.147s.056-.105 0-.189c0-.028-.014-.042-.042-.042-.056 0-.084-.014-.084-.042-.028-.028-.056-.042-.084-.042-.084 0-.126-.042-.126-.126-.056-.112-.126-.343-.21-.693s-.126-.581-.126-.693c-.028-.056-.042-.175-.042-.357s.014-.301.042-.357l.672-3.444c0-.056.028-.133.084-.231s.112-.175.168-.231c.14-.224.35-.315.63-.273s.532.007.756-.105c.084-.056.273-.168.567-.336s.483-.28.567-.336l.84-.84c.028-.028.14-.063.336-.105s.308-.077.336-.105c.112-.056.273-.147.483-.273l.63-.378c.21-.126.399-.238.567-.336s.266-.161.294-.189c.084-.056.21-.175.378-.357s.35-.371.546-.567.371-.378.525-.546.259-.294.315-.378c0-.084.042-.168.126-.252.028-.056.112-.147.252-.273s.238-.217.294-.273l1.764-2.688c.028-.196.07-.378.126-.546.084-.336.154-.616.21-.84v-.126l-.714-1.848c-.056-.14-.203-.266-.441-.378s-.427-.182-.567-.21c-.056 0-.231-.014-.525-.042s-.511-.056-.651-.084h-.252c-.084.028-.231.056-.441.084s-.441.063-.693.105-.49.077-.714.105-.378.056-.462.084c-.028 0-.063.014-.105.042s-.077.042-.105.042c-.028.028-.091.056-.189.084s-.161.042-.189.042l-1.974 1.176c-.056.056-.182.168-.378.336s-.406.364-.63.588l-1.176 1.176c-.056.028-.154.154-.294.378s-.238.364-.294.42l-.126.126c0 .028-.049.105-.147.231s-.161.203-.189.231c0 .028-.014.042-.042.042-.014.007-.02625.013125-.03675.018375l-.042.021-.00525.002625-1.05 1.89-.084.084c-.168.336-.322.672-.462 1.008s-.294.658-.462.966l-.252.462v.252c0 .028-.014.084-.042.168s-.056.14-.084.168c-.056.112-.119.245-.189.399s-.119.301-.147.441v.336c-.112.532-.231 1.05-.357 1.554s-.161 1.022-.105 1.554c0 .056.007.161.021.315s.028.322.042.504.028.357.042.525.021.266.021.294c.028.448.077.889.147 1.323s.217.847.441 1.239c.056.112.133.259.231.441s.203.364.315.546.21.343.294.483.14.224.168.252c.056.084.224.245.504.483l.114.096429c.216.181714.36.296571.432.344571zm1.974-10.29v-.588c.028-.056.063-.133.105-.231s.091-.175.147-.231l2.562-3.486c.028-.028.147-.175.357-.441s.469-.595.777-.987.623-.798.945-1.218.595-.784.819-1.092l.483-.483c.126-.126.266-.245.42-.357s.273-.21.357-.294c.056-.056.189-.14.399-.252s.343-.182.399-.21c.196-.084.357-.021.483.189s.203.371.231.483c.084.56.028 1.078-.168 1.554s-.448.924-.756 1.344c.028.084.028.196 0 .336s-.112.182-.252.126l-2.772 3.15-4.158 2.562zm3.024-5.334.252-.504c.028-.056.091-.147.189-.273s.21-.252.336-.378.259-.224.399-.294.252-.091.336-.063c-.028.084-.105.21-.231.378s-.273.329-.441.483-.329.294-.483.42-.273.203-.357.231zm3.15 13.104c-.084-.084-.084-.126 0-.126.056-.112.196-.21.42-.294s.392-.098.504-.042zm7.728 1.176c.28.056.63.028 1.05-.084.028 0 .07-.028.126-.084l.09333-.093333.03267-.032667c.112-.14.308-.399.588-.777s.476-.623.588-.735c.112-.168.077-.238-.105-.21s-.301.056-.357.084c-.056-.224-.07-.42-.042-.588l-.294.126c-.196-.56-.238-1.176-.126-1.848s.28-1.288.504-1.848c.056-.028.105-.105.147-.231s.07-.266.084-.42.042-.301.084-.441.091-.252.147-.336l2.226-2.394c-.056-.056-.119-.056-.189 0s-.14.126-.21.21-.14.154-.21.21-.133.056-.189 0l-.042-.084 1.764-1.932c0-.028.035-.07.105-.126s.105-.098.105-.126l.63-.672 5.67-5.04 1.596-1.008-.252.462c-.476.756-.896 1.407-1.26 1.953s-.686 1.071-.966 1.575-.49 1.057-.63 1.659-.21 1.351-.21 2.247c0 .308.126.609.378.903s.476.511.672.651c0 0 .14.056.42.168.112.056.266.098.462.126.308.112.546.154.714.126s.406-.042.714-.042c.588-.028 1.274-.147 2.058-.357s1.589-.511 2.415-.903 1.638-.896 2.436-1.512 1.505-1.358 2.121-2.226c.028-.028.021-.084-.021-.168s-.091-.161-.147-.231-.112-.119-.168-.147-.098 0-.126.084c-.168.476-.553.994-1.155 1.554s-1.281 1.071-2.037 1.533-1.533.84-2.331 1.134-1.47.434-2.016.42-.896-.231-1.05-.651.007-1.106.483-2.058l2.268-4.452c.028-.056.084-.133.168-.231s.126-.175.126-.231c.056-.084.133-.238.231-.462s.203-.462.315-.714.217-.49.315-.714.175-.378.231-.462c.028-.084.042-.203.042-.357s-.028-.259-.084-.315c-.084-.336-.203-.658-.357-.966s-.441-.434-.861-.378c-.644.084-1.155.175-1.533.273s-.756.259-1.134.483-.798.539-1.26.945-1.071.945-1.827 1.617l-4.704 4.2c-.056.14-.14.238-.252.294s-.224.154-.336.294c-.28.252-.553.525-.819.819s-.539.581-.819.861c-.028 0-.042.014-.042.042-.007.014-.01313.02625-.01838.03675l-.02099.042-.00263.00525-.336.462c-.084.084-.168.084-.252 0 0-.308.063-.504.189-.588s.217-.238.273-.462c0-.056.028-.21.084-.462s.084-.406.084-.462c.008-.024.01943-.057143.03429-.099429l.09-.252c.02514-.069714.05371-.148571.08571-.236571.112-.308.196-.504.252-.588-.084-.14-.091-.294-.021-.462s.175-.322.315-.462c0-.056-.035-.168-.105-.336s-.105-.28-.105-.336l-.588-.882c-.196-.336-.413-.567-.651-.693s-.581-.119-1.029.021c-.028 0-.049.014-.063.042s-.035.028-.063 0l-2.142 4.2-2.1 5.964c-.028.056-.056.147-.084.273s-.056.273-.084.441-.056.322-.084.462-.042.252-.042.336-.007.21-.021.378-.028.35-.042.546-.021.371-.021.525v.315c0 .056.007.168.021.336s.028.357.042.567.035.406.063.588.042.315.042.399c.056.224.119.42.189.588s.175.322.315.462c.056.028.182.119.378.273s.308.259.336.315l.126.126h.126c.308.112.602.196.882.252zm22.218 1.554c.224.14.455.168.693.084s.469-.154.693-.21l1.302-.924.084-.084c.084-.112.245-.35.483-.714s.385-.602.441-.714c.056-.28.063-.574.021-.882s-.161-.588-.357-.84c-.112-.14-.28-.329-.504-.567s-.364-.357-.42-.357h-.336l-3.024 3.36v.462c.056.364.147.644.273.84s.343.378.651.546zm42 16.296c.084 0 .224-.014.42-.042s.322-.042.378-.042c.14-.056.259-.105.357-.147s.175-.147.231-.315v-.63c-.112-.28-.336-.483-.672-.609s-.504-.259-.504-.399l-.336-2.058v-3.36l-.126-.126c-.028-.14-.056-.266-.084-.378s-.056-.224-.084-.336-.056-.196-.084-.252v-.588c.056 0 .091-.077.105-.231s.021-.259.021-.315v-.462l.252-.252c.028-.028.056-.105.084-.231s.042-.203.042-.231v-1.428c0-.056.014-.098.042-.126 0-.056.014-.112.042-.168v-.462c.028-.028.063-.133.105-.315s.091-.364.147-.546.105-.357.147-.525.077-.28.105-.336v-.126c0-.028.014-.112.042-.252s.042-.238.042-.294v-.84c0-.028.035-.084.105-.168s.119-.14.147-.168h.126v.336c-.028.028-.063.14-.105.336s-.084.406-.126.63-.077.434-.105.63-.042.308-.042.336v.252c0 .028-.014.112-.042.252s-.042.224-.042.252v1.596l-.588 3.444v.252c.14 0 .21-.042.21-.126.056-.392.098-.728.126-1.008s.112-.602.252-.966l.336-3.57v-.378l1.932-10.248v-.126c-.084-.084-.161-.007-.231.231s-.105.385-.105.441l-.966 4.074-.084.126v-1.05c.028-.084.063-.259.105-.525s.098-.539.168-.819.133-.553.189-.819.098-.441.126-.525c.364-.56.476-1.092.336-1.596l1.722-5.838v-.168c.0112-.0224.028-.056.0504-.1008l.084-.168.0546-.1092c.098-.196.147-.308.147-.336l.588-2.058c0-.028.028-.105.084-.231s.112-.203.168-.231l.63-2.562c0-.056.028-.119.084-.189s.112-.133.168-.189c.028 0 .056-.021.084-.063s.07-.049.126-.021c0 .056-.021.175-.063.357s-.084.371-.126.567-.091.385-.147.567-.098.301-.126.357c0 .112-.042.182-.126.21l-1.344 4.914c-.14.14-.238.357-.294.651s-.112.525-.168.693c-.028.084-.056.154-.084.21-.056.112-.112.168-.168.168 0 .056-.007.21-.021.462s-.049.406-.105.462c0 .056-.028.182-.084.378s-.119.399-.189.609-.14.406-.21.588-.119.301-.147.357c.028.168-.021.329-.147.483s-.161.315-.105.483l.252-.168c0-.028.056-.196.168-.504s.196-.546.252-.714c.028 0 .042-.021.042-.063s-.014-.063-.042-.063l2.184-7.518c.224-.252.329-.532.315-.84s.077-.602.273-.882l1.344-4.578c.028-.028.07-.098.126-.21s.084-.196.084-.252c.028-.028.056-.112.084-.252s.063-.287.105-.441.077-.301.105-.441.056-.224.084-.252c0-.028.042-.112.126-.252s.154-.238.21-.294c.056-.084.119-.119.189-.105s.133-.021.189-.105c0-.056.028-.189.084-.399s.098-.385.126-.525v-.042l-.21.042v-.168c0-.084.042-.259.126-.525s.154-.469.21-.609c0-.056.021-.105.063-.147s.077-.091.105-.147v.882l.126-.126.588-1.848c-.056-.14-.021-.287.105-.441s.203-.301.231-.441c.056-.308.119-.588.189-.84s.175-.518.315-.798c.028-.056.112-.217.252-.483s.224-.427.252-.483c-.224-.084-.371-.049-.441.105s-.133.301-.189.441c-.028.056-.07.168-.126.336s-.119.35-.189.546-.133.378-.189.546-.084.28-.084.336c-.056.14-.147.336-.273.588s-.245.497-.357.735-.217.448-.315.63-.161.287-.189.315l-.126.084 1.722-4.41c.028-.084.056-.301.084-.651s.042-.595.042-.735l-.462-1.176-.714-.798c-.056-.028-.133-.077-.231-.147s-.161-.105-.189-.105c-.14-.084-.322-.175-.546-.273s-.35-.119-.378-.063l-.714.42-7.308 18.942c0 .056-.028.126-.084.21s-.098.126-.126.126c-.056.056-.203.154-.441.294s-.385.224-.441.252l-7.14 2.52h-.126c-.028 0-.105.021-.231.063s-.273.091-.441.147-.329.105-.483.147-.259.063-.315.063c-.028.028-.098.042-.21.042s-.196-.014-.252-.042c-.028-.224-.021-.343.021-.357s.077-.105.105-.273l.336-1.848c.028-.056.084-.196.168-.42s.175-.462.273-.714.189-.497.273-.735.126-.385.126-.441.021-.196.063-.42.063-.378.063-.462l.126-.126c.14-.364.266-.7.378-1.008.112-.28.217-.567.315-.861s.189-.539.273-.735c0-.028.021-.112.063-.252s.063-.238.063-.294c0-.028.042-.098.126-.21s.126-.196.126-.252l.462-1.596c0-.056.014-.098.042-.126 0-.028.028-.07.084-.126l2.184-6.384c.056-.224.042-.469-.042-.735s-.196-.497-.336-.693c-.014-.014-.03014-.030139-.04842-.048417l-.322-.322-.11258-.112583c-.238-.238-.385-.371-.441-.399-.224-.196-.567-.315-1.029-.357s-.805.077-1.029.357l-.462.714c-.028.056-.084.175-.168.357s-.175.378-.273.588-.189.406-.273.588-.14.315-.168.399c-.056.028-.091.112-.105.252s-.021.224-.021.252l-3.066 7.266v.126c-.028.056-.056.119-.084.189s-.042.133-.042.189c-.028.028-.091.133-.189.315s-.147.287-.147.315c-.028.056-.077.182-.147.378s-.147.399-.231.609-.161.413-.231.609-.105.322-.105.378c-.084.224-.168.448-.252.672s-.196.434-.336.63l-1.134 3.948v.084c0 .056-.084.322-.252.798s-.308.868-.42 1.176c0 .056-.084.168-.252.336-1.26.112-2.52.161-3.78.147s-2.548.007-3.864.063c-.056 0-.189.014-.399.042s-.329.056-.357.084c-.056 0-.112.028-.168.084l-.084.084v1.344c-.196.14-.266.308-.21.504s.161.392.315.588.322.385.504.567.315.329.399.441c.056.084.147.231.273.441s.189.343.189.399l2.52 12.474v1.26c0 .056.014.168.042.336s.056.266.084.294c0 .056.028.105.084.147s.112.063.168.063c0 .112.042.182.126.21 0 .14.028.266.084.378 0 .056.035.133.105.231s.105.161.105.189c.196.308.455.609.777.903s.679.497 1.071.609h.21c.476.112.854.189 1.134.231s.658-.063 1.134-.315c.364-.224.595-.49.693-.798s.259-.602.483-.882l-.126-.042c0-.056.014-.154.042-.294s.056-.238.084-.294v-.252c-.028-.028-.049-.077-.063-.147s-.035-.133-.063-.189l-.084-.252h-.21v-.462h-.294l-.084-.084c-.14-.056-.28-.042-.42.042l-.084.042c-.112.0448-.224.0448-.336 0 .112-.168.154-.364.126-.588l1.302-4.284c.084-.14.119-.252.105-.336s.021-.238.105-.462c.056-.084.168-.28.336-.588s.28-.504.336-.588l1.554-5.88c.084-.084.126-.168.126-.252.056-.056.133-.231.231-.525s.147-.469.147-.525.014-.105.042-.147.056-.091.084-.147l.084-.168 3.528-.882.252-.252c-.28-.028-.532.014-.756.126s-.462.196-.714.252h-.252l-1.596.336h-.21c-.056-.14.007-.231.189-.273s.315-.063.399-.063l9.324-2.73-1.932 8.274v.126l-1.47 8.82v.084c0 .028-.007.098-.021.21s-.028.231-.042.357-.028.245-.042.357-.021.182-.021.21c0 .224-.007.546-.021.966s-.021.847-.021 1.281.007.819.021 1.155.021.546.021.63c.028.224.07.518.126.882s.112.728.168 1.092.112.693.168.987.084.469.084.525l.924 1.764c.056.028.21.147.462.357s.434.371.546.483c.056.028.14.063.252.105s.182.063.21.063c.084.028.203.07.357.126s.315.105.483.147.322.084.462.126.238.063.294.063zm6.762-39.102 1.554-4.998.126-.126v.63l-1.218 3.444v.126c-.028.056-.056.133-.084.231s-.056.189-.084.273c-.028.112-.056.21-.084.294zm-.378 1.176v-.252c0-.084.014-.168.042-.252.028-.056.056-.126.084-.21 0-.084.042-.126.126-.126.028.252-.056.532-.252.84zm-12.222 10.836c.084-.028.231-.07.441-.126s.343-.084.399-.084c.056-.056.168-.119.336-.189s.266-.133.294-.189h-.168c-.196.056-.455.14-.777.252s-.497.182-.525.21l-.126.126zm-13.23 8.148c-.056.028-.098-.014-.126-.126l-1.806-6.006c-.056-.084-.119-.196-.189-.336s-.091-.28-.063-.42c.224-.084.511-.133.861-.147s.637.035.861.147c-.224.028-.378.084-.462.168s-.119.168-.105.252.049.14.105.168.126 0 .21-.084h1.554l.294-.126h.084c.112.028.238.063.378.105s.21.077.21.105v.168l-1.47 5.418c.028.056.021.14-.021.252s-.091.21-.147.294-.112.14-.168.168zm.777-6.636h-.315c-.084 0-.21-.028-.378-.084-.084-.028-.154-.042-.21-.042v-.126h.966c.028 0 .084.014.168.042s.126.056.126.084c-.112.084-.231.126-.357.126zm19.278 8.526c-.042 0-.063-.028-.063-.084-.028 0-.056-.042-.084-.126s-.042-.14-.042-.168c-.028-.14-.021-.329.021-.567s.161-.413.357-.525v-.756l.21-.126c.056.364.042.756-.042 1.176s-.182.784-.294 1.092c0 .056-.021.084-.063.084zm7.854.714c.238 0 .385-.014.441-.042l.06956-.022312c.07613-.023625.17194-.051188.28744-.082688.154-.042.315-.098.483-.168s.329-.133.483-.189.259-.098.315-.126c.084-.028.203-.098.357-.21s.315-.231.483-.357.329-.238.483-.336.259-.175.315-.231l4.158-4.074.126.126c-.056.56-.042 1.05.042 1.47s.224.896.42 1.428c0 .028.028.07.084.126.028.028.042.056.042.084.112.14.315.357.609.651.03675.03675.07164.071641.10467.104672l.42033.420328c.252.196.532.343.84.441s.616.063.924-.105c0-.056.042-.189.126-.399s.154-.343.21-.399c.028-.028.105-.091.231-.189s.203-.147.231-.147c.308-.28.616-.546.924-.798s.616-.532.924-.84c.028-.028.07-.091.126-.189s.098-.147.126-.147c.056-.056.21-.217.462-.483s.406-.427.462-.483c.028 0 .056-.028.084-.084s.042-.098.042-.126l1.134-.798 2.226-2.814.21-1.134c.056-.168.133-.336.231-.504s.105-.35.021-.546c-.028-.056-.098-.105-.21-.147s-.196-.035-.252.021l-6.048 6.384-.21.126c-.028-.056-.042-.175-.042-.357s.014-.301.042-.357c0-.084.028-.245.084-.483s.112-.497.168-.777.119-.539.189-.777.119-.413.147-.525c-.028-.028-.042-.084-.042-.168s.014-.14.042-.168l.336-2.184c0-.196.112-.322.336-.378l1.302-6.384-.252-.21c-.084.056-.14.133-.168.231s-.042.175-.042.231c-.028-.056-.056-.189-.084-.399s-.042-.343-.042-.399v-.252c-.084-.084-.168-.126-.252-.126l-1.596-2.058c-.028-.028-.161-.07-.399-.126s-.427-.098-.567-.126c-.056-.028-.126.014-.21.126l-.798 1.386c-.028.028-.056.119-.084.273s-.042.259-.042.315c-.028.084-.07.203-.126.357s-.098.231-.126.231h-.084c.056-.28.007-.546-.147-.798s-.273-.49-.357-.714c0-.028-.007-.056-.021-.084s-.021-.056-.021-.084c-.028-.028-.042-.056-.042-.084l-.924-.672-.252-.378c-.028-.028-.14-.049-.336-.063s-.308-.021-.336-.021l-.714-.378c-.056 0-.21.007-.462.021s-.406.007-.462-.021c-.056 0-.161-.021-.315-.063s-.245-.063-.273-.063l-.714.378c-.056 0-.112.014-.168.042l-.168.084c-.112.056-.252.133-.42.231s-.336.196-.504.294-.322.189-.462.273-.21.126-.21.126l-3.486 3.57c-.056.056-.161.203-.315.441s-.315.504-.483.798-.329.588-.483.882-.273.525-.357.693-.21.455-.378.861-.343.847-.525 1.323-.35.924-.504 1.344-.259.714-.315.882c-.056.084-.112.287-.168.609s-.084.539-.084.651c-.056 1.176.014 2.303.21 3.381s.672 2.079 1.428 3.003c.056.056.133.14.231.252s.175.182.231.21l1.596.924c.084.028.245.042.483.042zm1.02814-1.75875-.10414-.00525c-.238-.028-.511-.112-.819-.252-.224-.084-.385-.21-.483-.378s-.203-.35-.315-.546c-.112-.616-.189-1.267-.231-1.953s.035-1.351.231-1.995c.028-.084.084-.203.168-.357s.098-.301.042-.441l.84-1.89c-.028 0-.042-.028-.042-.084s.014-.098.042-.126l.084-.126.504-.798c0-.028.014-.105.042-.231s.042-.203.042-.231l.588-.924c0-.084.042-.126.126-.126l1.176-2.1.084-.126 2.814-3.822h.042c.028 0 .056-.014.084-.042.028 0 .056-.014.084-.042l.462-.714c.084-.112.189-.182.315-.21s.259-.042.399-.042l1.134.252c.196.112.294.252.294.42s.028.336.084.504c0 .084.021.21.063.378s.091.35.147.546.105.385.147.567.077.301.105.357c.084.084.189.168.315.252s.175.196.147.336c-.028.112-.07.301-.126.567s-.098.427-.126.483c0 .028-.014.07-.042.126s-.056.084-.084.084l-1.008 4.536c.028.252 0 .497-.084.735s-.098.497-.042.777l-5.208 5.586-1.176.798c-.308.196-.581.28-.819.252zm10.63211-2.344125-.04725-.013125v-.462c0-.056.014-.21.042-.462s.042-.406.042-.462v-.462c.056-.392.189-.756.399-1.092s.273-.7.189-1.092l1.764-7.77c0-.028.014-.042.042-.042s.042.014.042.042c.028.028.056.049.084.063s.056.035.084.063l.084.084c.028.056.042.154.042.294s-.014.238-.042.294l-.588 3.234v-1.05h-.126l-.798 4.41v.126l-.798 4.074c-.028.056-.098.112-.21.168s-.196.07-.252.042zm13.47675 17.836875c.14-.028.385-.063.735-.105s.553-.091.609-.147c.056 0 .14-.028.252-.084s.231-.119.357-.189.238-.14.336-.21.161-.119.189-.147l1.008-1.26.21-.378c.084-.14.189-.287.315-.441s.217-.343.273-.567l3.276-11.34-.042-.126 1.428-5.922v-.126l1.26-6.678c-.084-.14-.098-.301-.042-.483s.07-.329.042-.441c.028-.112.014-.301-.042-.567s-.098-.427-.126-.483c-.028-.028-.077-.098-.147-.21s-.147-.231-.231-.357-.168-.245-.252-.357-.14-.182-.168-.21c.056-.224-.021-.427-.231-.609s-.413-.287-.609-.315c-.112-.028-.273-.049-.483-.063s-.329-.007-.357.021l-.21.21-6.678 13.356c-.028 0-.112.084-.252.252s-.308.371-.504.609-.392.476-.588.714-.364.427-.504.567c0 .028-.056.084-.168.168-.028.021-.05338.04025-.07613.05775l-.105.084-.02887.02625c0 .028-.007.042-.021.042s-.021.014-.021.042v.042c-.14.112-.357.259-.651.441-.147.091-.26075.16275-.34125.21525l-.09581.064313c-.02363.016625-.03894.028437-.04594.035437-.28.196-.546.196-.798 0-.056-.028-.14-.091-.252-.189s-.182-.189-.21-.273c-.056-.308-.077-.672-.063-1.092s.021-.784.021-1.092c0-.028-.014-.07-.042-.126s-.042-.098-.042-.126l1.26-6.258.21.042v.126c.028.056.035.119.021.189s-.021.119-.021.147l-.588 1.806c-.028.056-.056.231-.084.525s-.056.469-.084.525v.126c0 .056-.014.098-.042.126-.028.084-.056.224-.084.42s-.056.406-.084.63-.056.434-.084.63-.042.336-.042.42c.084.14.098.301.042.483s-.098.357-.126.525c0 .028.007.105.021.231s.021.266.021.42v.42c0 .126.014.203.042.231-.028.112.014.182.126.21l.084-.084c0-.084.007-.224.021-.42s.035-.399.063-.609.056-.406.084-.588.042-.301.042-.357c0-.028.014-.07.042-.126s.028-.098 0-.126c0-.028-.007-.105-.021-.231s-.035-.203-.063-.231c0-.056.014-.189.042-.399s.042-.343.042-.399c.028-.112.07-.224.126-.336s.056-.238 0-.378c.028-.084.063-.231.105-.441s.091-.427.147-.651.105-.441.147-.651.077-.343.105-.399l.462-1.176c0-.028.007-.084.021-.168s.021-.14.021-.168l1.68-5.208v-.126c0-.056.007-.098.021-.126s.021-.056.021-.084v-.126h-.378l.462-1.26c-.14-.168-.203-.343-.189-.525s.007-.357-.021-.525c0-.056-.014-.161-.042-.315s-.042-.245-.042-.273l-1.092-1.554c-.168-.224-.427-.343-.777-.357s-.623.035-.819.147c-.056.028-.133.112-.231.252s-.175.238-.231.294l-3.486 7.728-.882 6.342v.084c.028.056.056.252.084.588s.042.532.042.588c.196.84.504 1.673.924 2.499s1.036 1.519 1.848 2.079l.672.462c.196.112.434.161.714.147s.49-.091.63-.231c.7.112 1.267.063 1.701-.147s.875-.497 1.323-.861c.028 0 .063-.035.105-.105s.077-.105.105-.105c.056-.056.231-.147.525-.273s.469-.217.525-.273.14-.154.252-.294.182-.238.21-.294.084-.203.168-.441.126-.399.126-.483l1.554-2.646c.112-.168.126-.322.042-.462l.672-1.512v.126l-3.696 15.204-1.344 2.1c-.028.056-.126.14-.294.252-.042.028-.08138.05425-.11813.07875l-.189.126-.07087.04725-.798.252-1.134.546c-.364.14-.742.161-1.134.063s-.784-.259-1.176-.483c-.084-.028-.14-.091-.168-.189s-.07-.189-.126-.273c.028 0 0-.042-.084-.126l-.084-.084-.882-.924c-.056-.056-.126-.154-.21-.294s-.175-.294-.273-.462-.189-.322-.273-.462-.14-.238-.168-.294c-.14-.084-.224-.175-.252-.273s-.042-.189-.042-.273.007-.182.021-.294-.021-.238-.105-.378c-.084-.168-.217-.315-.399-.441s-.364-.21-.546-.252-.329-.028-.441.042-.112.245 0 .525c.028.14.091.315.189.525s.189.42.273.63.168.392.252.546.126.245.126.273c.056.084.154.224.294.42s.294.399.462.609.322.413.462.609.252.322.336.378c.028.112.091.259.189.441s.224.371.378.567.301.378.441.546.266.28.378.336l2.016 1.05c.308-.028.602-.014.882.042s.574.098.882.126c.056.028.203.056.441.084s.385.042.441.042c.14 0 .399.007.777.021s.609.021.693.021zm-1.848-27.216c-.056-.028-.084-.07-.084-.126s.014-.098.042-.126c0-.084.021-.224.063-.42s.077-.322.105-.378c.007-.007.01575-.016625.02625-.028875l.084-.105.05775-.076125c.084-.112.154-.196.21-.252.028-.028.07-.063.126-.105s.112-.049.168-.021c.028.252-.035.574-.189.966s-.357.616-.609.672zm14.385 13.482c.238 0 .385-.014.441-.042l.06956-.022312c.07613-.023625.17194-.051188.28744-.082688.154-.042.315-.098.483-.168s.329-.133.483-.189.259-.098.315-.126c.084-.028.203-.098.357-.21s.315-.231.483-.357.329-.238.483-.336.259-.175.315-.231l4.158-4.074.126.126c-.056.56-.042 1.05.042 1.47s.224.896.42 1.428c0 .028.028.07.084.126.028.028.042.056.042.084.112.14.315.357.609.651.03675.03675.07164.071641.10467.104672l.39375.39375.02658.026578c.252.196.532.343.84.441s.616.063.924-.105c0-.056.042-.189.126-.399s.154-.343.21-.399c.028-.028.105-.091.231-.189s.203-.147.231-.147c.308-.28.616-.546.924-.798s.616-.532.924-.84c.028-.028.07-.091.126-.189s.098-.147.126-.147c.056-.056.21-.217.462-.483s.406-.427.462-.483c.028 0 .056-.028.084-.084s.042-.098.042-.126l1.134-.798 2.226-2.814.21-1.134c.056-.168.133-.336.231-.504s.105-.35.021-.546c-.028-.056-.098-.105-.21-.147s-.196-.035-.252.021l-6.048 6.384-.21.126c-.028-.056-.042-.175-.042-.357s.014-.301.042-.357c0-.084.028-.245.084-.483s.112-.497.168-.777.119-.539.189-.777c.042-.1428.07644-.26292.10332-.36036l.04368-.16464c-.028-.028-.042-.084-.042-.168s.014-.14.042-.168l.336-2.184c0-.196.112-.322.336-.378l1.302-6.384-.252-.21c-.084.056-.14.133-.168.231s-.042.175-.042.231c-.028-.056-.056-.189-.084-.399s-.042-.343-.042-.399v-.252c-.084-.084-.168-.126-.252-.126l-1.596-2.058c-.028-.028-.161-.07-.399-.126s-.427-.098-.567-.126c-.056-.028-.126.014-.21.126l-.798 1.386c-.028.028-.056.119-.084.273s-.042.259-.042.315c-.028.084-.07.203-.126.357s-.098.231-.126.231h-.084c.056-.28.007-.546-.147-.798s-.273-.49-.357-.714c0-.028-.007-.056-.021-.084s-.021-.056-.021-.084c-.028-.028-.042-.056-.042-.084l-.924-.672-.252-.378c-.028-.028-.14-.049-.336-.063s-.308-.021-.336-.021l-.714-.378c-.056 0-.21.007-.462.021s-.406.007-.462-.021c-.056 0-.161-.021-.315-.063s-.245-.063-.273-.063l-.714.378c-.056 0-.112.014-.168.042l-.168.084c-.112.056-.252.133-.42.231l-.504.294c-.168.098-.322.189-.462.273s-.21.126-.21.126l-3.486 3.57c-.056.056-.161.203-.315.441s-.315.504-.483.798-.329.588-.483.882-.273.525-.357.693-.21.455-.378.861-.343.847-.525 1.323-.35.924-.504 1.344-.259.714-.315.882c-.056.084-.112.287-.168.609s-.084.539-.084.651c-.056 1.176.014 2.303.21 3.381s.672 2.079 1.428 3.003c.056.056.133.14.231.252s.175.182.231.21l1.596.924c.084.028.245.042.483.042zm1.02814-1.75875-.10414-.00525c-.238-.028-.511-.112-.819-.252-.224-.084-.385-.21-.483-.378s-.203-.35-.315-.546c-.112-.616-.189-1.267-.231-1.953s.035-1.351.231-1.995c.028-.084.084-.203.168-.357s.098-.301.042-.441l.84-1.89c-.028 0-.042-.028-.042-.084s.014-.098.042-.126l.084-.126.504-.798c0-.028.014-.105.042-.231s.042-.203.042-.231l.588-.924c0-.084.042-.126.126-.126l1.176-2.1.084-.126 2.814-3.822h.042c.028 0 .056-.014.084-.042.028 0 .056-.014.084-.042l.462-.714c.084-.112.189-.182.315-.21s.259-.042.399-.042l1.134.252c.196.112.294.252.294.42s.028.336.084.504c0 .084.021.21.063.378s.091.35.147.546.105.385.147.567.077.301.105.357c.084.084.189.168.315.252s.175.196.147.336c-.028.112-.07.301-.126.567s-.098.427-.126.483c0 .028-.014.07-.042.126s-.056.084-.084.084l-1.008 4.536c.028.252 0 .497-.084.735s-.098.497-.042.777l-5.208 5.586-1.176.798c-.308.196-.581.28-.819.252zm10.63211-2.344125-.04725-.013125v-.462c0-.056.014-.21.042-.462s.042-.406.042-.462v-.462c.056-.392.189-.756.399-1.092s.273-.7.189-1.092l1.764-7.77c0-.028.014-.042.042-.042s.042.014.042.042c.028.028.056.049.084.063s.056.035.084.063l.084.084c.028.056.042.154.042.294s-.014.238-.042.294l-.588 3.234v-1.05h-.126l-.798 4.41v.126l-.798 4.074c-.028.056-.098.112-.21.168s-.196.07-.252.042zm7.95433 7.654875.12542-.003c.238-.014.553-.091.945-.231.252-.084.469-.245.651-.483s.469-.301.861-.189l3.36-3.36c-.028-.028-.07-.063-.126-.105s-.056-.091 0-.147l2.562-3.108c.056-.308.189-.658.399-1.05s.385-.742.525-1.05l.084-.126.252-.924c.14-.392.329-.798.567-1.218s.469-.784.693-1.092c.084-.084.084-.168 0-.252 0-.028-.021-.091-.063-.189s-.091-.203-.147-.315l-.168-.336c-.056-.112-.084-.182-.084-.21s.007-.133.021-.315.007-.301-.021-.357c0-.084-.07-.133-.21-.147s-.224-.007-.252.021l-8.568 11.508-.462.336-1.386.672-.126.126c0 .084-.042.084-.126 0-.028-.252.014-.539.126-.861s.028-.567-.252-.735c.028-.056.056-.196.084-.42s.042-.364.042-.42v-.126c.028-.14.056-.315.084-.525s.07-.413.126-.609c.056-.224.098-.462.126-.714h.126c.056.308.042.63-.042.966s-.112.672-.084 1.008c.056-.056.105-.168.147-.336s.077-.28.105-.336c0-.028.021-.154.063-.378s.091-.483.147-.777.105-.581.147-.861.077-.504.105-.672v-.126c-.14-.056-.231.014-.273.21s-.105.322-.189.378c-.028-.14-.042-.336-.042-.588s.084-.434.252-.546l.126.21c.168-.14.28-.336.336-.588s.07-.476.042-.672c-.056.028-.105.091-.147.189s-.084.203-.126.315-.084.203-.126.273-.077.077-.105.021c-.028-.28-.014-.56.042-.84s.126-.546.21-.798l.336.378c-.056-.392-.028-.756.084-1.092s.21-.672.294-1.008c0-.028.014-.112.042-.252s.063-.287.105-.441.084-.301.126-.441.063-.224.063-.252v-.126c-.084.056-.147.175-.189.357s-.091.217-.147.105v-.126c0-.028.014-.119.042-.273s.063-.315.105-.483.084-.322.126-.462.063-.238.063-.294c.056-.28.098-.574.126-.882s.14-.588.336-.84l1.638-4.872c-.084-.084-.084-.168 0-.252.14-.476.301-.938.483-1.386s.357-.91.525-1.386c.084 0 .084-.042 0-.126l2.1-5.46.252-.336h.084v.252l-1.596 4.284v.126c-.028.056-.056.14-.084.252s-.042.182-.042.21l-.924 2.058c0 .056-.021.147-.063.273s-.084.273-.126.441-.077.322-.105.462-.042.224-.042.252c.028 0 0 .042-.084.126-.028.028-.042.056-.042.084l-.462 1.512c-.028.084.014.168.126.252.007-.014.01488-.02975.02363-.04725l.06299-.126.03938-.07875c.056-.112.084-.182.084-.21v-.252l.462-1.26v-.252l.252-.798c0-.028.014-.056.042-.084 0-.028.014-.042.042-.042l3.024-7.56c.028 0 .056-.014.084-.042.028 0 .042-.014.042-.042l.798-.252h.126l17.178-3.696c.084.056.147.063.189.021s.084-.098.126-.168.098-.133.168-.189.175-.07.315-.042v.126c.14.056.301.028.483-.084s.329-.196.441-.252c.084-.028.224-.077.42-.147s.406-.14.63-.21.434-.14.63-.21.336-.119.42-.147h-1.848c-.168.028-.462.063-.882.105s-.861.098-1.323.168-.903.133-1.323.189-.714.098-.882.126h-.336l3.822-.798h1.26c.112-.028.294-.063.546-.105s.518-.098.798-.168.546-.133.798-.189.434-.098.546-.126l-.126-.126h-.924l-.126-.126h-.924l-2.646.588h-.378c.112-.056.224-.098.336-.126s.238-.056.378-.084c.14-.056.455-.133.945-.231s.847-.175 1.071-.231h-.882l-18.564 3.486h-.336c-.056-.336.021-.658.231-.966s.287-.616.231-.924l-.126.126-.798 1.764c-.084.112-.196.14-.336.084 0-.028.014-.098.042-.21s.056-.196.084-.252c0-.028.035-.105.105-.231s.105-.203.105-.231l.462-1.596v-.378c0-.028-.035-.119-.105-.273s-.105-.259-.105-.315c-.028 0-.035-.028-.021-.084s.021-.098.021-.126l-.252-.336-.126-.126c0-.028.007-.105.021-.231s.007-.203-.021-.231c0-.056-.042-.119-.126-.189s-.154-.119-.21-.147c-.14-.084-.336-.133-.588-.147s-.448-.007-.588.021c-.084 0-.182.028-.294.084s-.196.14-.252.252l-1.428 3.486c-.084.056-.126.133-.126.231s-.028.175-.084.231c-.056.112-.126.259-.21.441s-.168.357-.252.525l-.2688.5376c-.0448.0896-.0672.1344-.0672.1344l-.126.084s-.056.021-.168.063-.252.084-.42.126-.336.077-.504.105-.308.056-.42.084h-.126c-.056 0-.21.035-.462.105s-.406.105-.462.105c-.028.028-.07.042-.126.042s-.084-.014-.084-.042l-2.688.714c-.196.056-.315.21-.357.462s-.007.448.105.588l1.428 1.386h.546c.392-.056.763-.161 1.113-.315s.721-.203 1.113-.147l-4.074 12.768-.126.21-.672 3.276v.084l-.588 2.562-.126.126v.462l-.798 4.536v.21c.056.588.112 1.141.168 1.659s.196 1.057.42 1.617c.196.14.35.308.462.504s.266.364.462.504c.308.252.658.469 1.05.651s.77.315 1.134.399c.392.084.707.119.945.105zm2.79242-18.21.126-.084c.028-.056.098-.245.21-.567s.196-.567.252-.735v-.336l-.126.126-.168.588-.168.504c-.056.168-.098.308-.126.42zm-.798 2.436.21-.084c.028-.028.084-.189.168-.483s.154-.525.21-.693v-.462c-.14.224-.259.497-.357.819s-.175.595-.231.819zm2.646 12.306v-.126l.588-.546h.252zm-2.058 1.386c-.056 0-.112-.028-.168-.084s-.084-.098-.084-.126c.028-.112.119-.168.273-.168s.259.056.315.168c-.028.028-.084.07-.168.126s-.14.084-.168.084zm11.92629 5.170286.14871-.004286c.35-.028.679-.154.987-.378l.714-.714.168-.084c.056-.028.112-.07.168-.126s.14-.196.252-.42.182-.364.21-.42c.028-.028.126-.119.294-.273s.266-.259.294-.315c.224-.224.392-.49.504-.798l.336-.924v-.126l1.26-1.512c.056-.28.161-.532.315-.756s.273-.476.357-.756c.028 0 .042-.014.042-.042s.014-.056.042-.084.042-.056.042-.084c.196-.224.406-.455.63-.693s.364-.511.42-.819c.056-.056.147-.175.273-.357s.259-.371.399-.567.266-.378.378-.546.182-.294.21-.378c.028-.056.07-.161.126-.315s.119-.329.189-.525.126-.378.168-.546.077-.294.105-.378c0-.196.014-.364.042-.504s.042-.273.042-.399.014-.245.042-.357c.028-.14-.028-.28-.168-.42s-.28-.238-.42-.294c-.14-.028-.252.014-.336.126l-.714 1.302c0 .028-.014.077-.042.147s-.042.133-.042.189l-3.024 6.006-3.15 4.074-.798.588h-.126c-.028 0-.098-.196-.21-.588s-.196-.7-.252-.924c0-.028-.007-.112-.021-.252s-.028-.294-.042-.462-.028-.343-.042-.525-.021-.315-.021-.399v-2.184c0-.056.021-.189.063-.399s.063-.343.063-.399v-3.024c.252-.672.336-1.372.252-2.1l.672-4.746c-.028-.196-.028-.42 0-.672s.07-.462.126-.63l.084-.168c.028-.056.056-.091.084-.105s.042-.035.042-.063c.028-.028.056-.084.084-.168s.042-.14.042-.168v-.84l.378-.798v-.462c0-.056.014-.154.042-.294s.042-.238.042-.294c.056-.168.126-.315.21-.441s.098-.287.042-.483c0-.084.028-.245.084-.483s.119-.49.189-.756.14-.525.21-.777.119-.434.147-.546c-.028.056.021-.063.147-.357s.294-.672.504-1.134.441-.98.693-1.554.497-1.12.735-1.638.455-.966.651-1.344.35-.609.462-.693c.056-.28.007-.609-.147-.987s-.406-.686-.756-.924-.791-.329-1.323-.273-1.148.364-1.848.924c-.168.14-.413.35-.735.63s-.672.7-1.05 1.26-.777 1.295-1.197 2.205-.812 2.051-1.176 3.423l-2.1 7.896v.126l-.924 7.56c-.056.392-.063.833-.021 1.323s.091.931.147 1.323v.126c.028.224.07.511.126.861s.112.693.168 1.029c.056.392.112.798.168 1.218.028.14.098.35.21.63s.238.581.378.903.273.623.399.903.217.476.273.588c.392.476.833.903 1.323 1.281s.973.721 1.449 1.029c.308.224.637.322.987.294zm.67371-20.710286v-.462l.714-2.646c.056-.14.14-.182.252-.126.056.196.042.336-.042.42s-.154.21-.21.378c-.14.392-.238.812-.294 1.26s-.196.84-.42 1.176zm-.546 3.276c-.028-.112-.042-.35-.042-.714l.00086-.148286c.00343-.281143.01714-.469714.04114-.565714.028-.14.084-.329.168-.567s.14-.357.168-.357h.126v.378c-.056.28-.105.602-.147.966s-.147.7-.315 1.008zm-.378 1.974v-.126l.252-1.302c.028.224.028.462 0 .714s-.112.49-.252.714zm-.798 9.492v-1.386c0-.028.021-.084.063-.168s.063-.14.063-.168v-1.512c.028-.392.063-.763.105-1.113s.077-.721.105-1.113v-.672c.028-.196.056-.462.084-.798s.063-.658.105-.966.084-.574.126-.798.063-.336.063-.336l.084-.126c.056.728.042 1.442-.042 2.142s-.14 1.414-.168 2.142v.714c0 .056-.007.189-.021.399s-.028.441-.042.693l-.014.245c-.00933.158667-.01867.308-.028.448-.014.21-.021.343-.021.399-.028.336-.035.693-.021 1.071s-.133.679-.441.903zm.21 2.436h-.084c-.028 0-.07-.063-.126-.189s-.098-.217-.126-.273v-.798c.168-.056.21-.175.126-.357s-.042-.301.126-.357c.028.028.049.084.063.168s.021.14.021.168c.028.14.042.413.042.819s-.014.679-.042.819zm.714 1.386h-.336l-.084-.252c-.028-.056-.056-.126-.084-.21s-.056-.154-.084-.21v-.252c.056.112.161.168.315.168s.245.056.273.168zm9.597-4.494c.238 0 .385-.014.441-.042l.06956-.022312c.07613-.023625.17194-.051188.28744-.082688.154-.042.315-.098.483-.168s.329-.133.483-.189.259-.098.315-.126c.084-.028.203-.098.357-.21s.315-.231.483-.357.329-.238.483-.336.259-.175.315-.231l4.158-4.074.126.126c-.056.56-.042 1.05.042 1.47s.224.896.42 1.428c0 .028.028.07.084.126.028.028.042.056.042.084.112.14.315.357.609.651.03675.03675.07164.071641.10467.104672l.39375.39375.02658.026578c.252.196.532.343.84.441s.616.063.924-.105c0-.056.042-.189.126-.399s.154-.343.21-.399c.028-.028.105-.091.231-.189s.203-.147.231-.147c.308-.28.616-.546.924-.798s.616-.532.924-.84c.028-.028.07-.091.126-.189s.098-.147.126-.147c.056-.056.21-.217.462-.483s.406-.427.462-.483c.028 0 .056-.028.084-.084s.042-.098.042-.126l1.134-.798 2.226-2.814.21-1.134c.056-.168.133-.336.231-.504s.105-.35.021-.546c-.028-.056-.098-.105-.21-.147s-.196-.035-.252.021l-6.048 6.384-.21.126c-.028-.056-.042-.175-.042-.357s.014-.301.042-.357c0-.084.028-.245.084-.483s.112-.497.168-.777.119-.539.189-.777c.042-.1428.07644-.26292.10332-.36036l.04368-.16464c-.028-.028-.042-.084-.042-.168s.014-.14.042-.168l.336-2.184c0-.196.112-.322.336-.378l1.302-6.384-.252-.21c-.084.056-.14.133-.168.231s-.042.175-.042.231c-.028-.056-.056-.189-.084-.399s-.042-.343-.042-.399v-.252c-.084-.084-.168-.126-.252-.126l-1.596-2.058c-.028-.028-.161-.07-.399-.126s-.427-.098-.567-.126c-.056-.028-.126.014-.21.126l-.798 1.386c-.028.028-.056.119-.084.273s-.042.259-.042.315c-.028.084-.07.203-.126.357s-.098.231-.126.231h-.084c.056-.28.007-.546-.147-.798s-.273-.49-.357-.714c0-.028-.007-.056-.021-.084s-.021-.056-.021-.084c-.028-.028-.042-.056-.042-.084l-.924-.672-.252-.378c-.028-.028-.14-.049-.336-.063s-.308-.021-.336-.021l-.714-.378c-.056 0-.21.007-.462.021s-.406.007-.462-.021c-.056 0-.161-.021-.315-.063s-.245-.063-.273-.063l-.714.378c-.056 0-.112.014-.168.042l-.168.084c-.112.056-.252.133-.42.231l-.504.294c-.168.098-.322.189-.462.273s-.21.126-.21.126l-3.486 3.57c-.056.056-.161.203-.315.441s-.315.504-.483.798-.329.588-.483.882-.273.525-.357.693-.21.455-.378.861-.343.847-.525 1.323-.35.924-.504 1.344-.259.714-.315.882c-.056.084-.112.287-.168.609s-.084.539-.084.651c-.056 1.176.014 2.303.21 3.381s.672 2.079 1.428 3.003c.056.056.133.14.231.252s.175.182.231.21l1.596.924c.084.028.245.042.483.042zm1.02814-1.75875-.10414-.00525c-.238-.028-.511-.112-.819-.252-.224-.084-.385-.21-.483-.378s-.203-.35-.315-.546c-.112-.616-.189-1.267-.231-1.953s.035-1.351.231-1.995c.028-.084.084-.203.168-.357s.098-.301.042-.441l.84-1.89c-.028 0-.042-.028-.042-.084s.014-.098.042-.126l.084-.126.504-.798c0-.028.014-.105.042-.231s.042-.203.042-.231l.588-.924c0-.084.042-.126.126-.126l1.176-2.1.084-.126 2.814-3.822h.042c.028 0 .056-.014.084-.042.028 0 .056-.014.084-.042l.462-.714c.084-.112.189-.182.315-.21s.259-.042.399-.042l1.134.252c.196.112.294.252.294.42s.028.336.084.504c0 .084.021.21.063.378s.091.35.147.546.105.385.147.567.077.301.105.357c.084.084.189.168.315.252s.175.196.147.336c-.028.112-.07.301-.126.567s-.098.427-.126.483c0 .028-.014.07-.042.126s-.056.084-.084.084l-1.008 4.536c.028.252 0 .497-.084.735s-.098.497-.042.777l-5.208 5.586-1.176.798c-.308.196-.581.28-.819.252zm10.63211-2.344125-.04725-.013125v-.462c0-.056.014-.21.042-.462s.042-.406.042-.462v-.462c.056-.392.189-.756.399-1.092s.273-.7.189-1.092l1.764-7.77c0-.028.014-.042.042-.042s.042.014.042.042c.028.028.056.049.084.063s.056.035.084.063l.084.084c.028.056.042.154.042.294s-.014.238-.042.294l-.588 3.234v-1.05h-.126l-.798 4.41v.126l-.798 4.074c-.028.056-.098.112-.21.168s-.196.07-.252.042zm7.42875 2.590875c.28.056.63.028 1.05-.084.028 0 .07-.028.126-.084l.126-.126c.112-.14.308-.399.588-.777s.476-.623.588-.735c.112-.168.077-.238-.105-.21s-.301.056-.357.084c-.056-.224-.07-.42-.042-.588l-.294.126c-.196-.56-.238-1.176-.126-1.848s.28-1.288.504-1.848c.056-.028.105-.105.147-.231s.07-.266.084-.42.042-.301.084-.441.091-.252.147-.336l2.226-2.394c-.056-.056-.119-.056-.189 0s-.14.126-.21.21-.14.154-.21.21-.133.056-.189 0l-.042-.084 1.764-1.932c0-.028.035-.07.105-.126s.105-.098.105-.126l.63-.672 5.67-5.04 1.596-1.008-.252.462c-.476.756-.896 1.407-1.26 1.953s-.686 1.071-.966 1.575-.49 1.057-.63 1.659-.21 1.351-.21 2.247c0 .308.126.609.378.903s.476.511.672.651c0 0 .14.056.42.168.112.056.266.098.462.126.308.112.546.154.714.126s.406-.042.714-.042c.588-.028 1.274-.147 2.058-.357s1.589-.511 2.415-.903 1.638-.896 2.436-1.512 1.505-1.358 2.121-2.226c.028-.028.021-.084-.021-.168s-.091-.161-.147-.231-.112-.119-.168-.147-.098 0-.126.084c-.168.476-.553.994-1.155 1.554s-1.281 1.071-2.037 1.533-1.533.84-2.331 1.134-1.47.434-2.016.42-.896-.231-1.05-.651.007-1.106.483-2.058l2.268-4.452c.028-.056.084-.133.168-.231s.126-.175.126-.231c.056-.084.133-.238.231-.462s.203-.462.315-.714.217-.49.315-.714.175-.378.231-.462c.028-.084.042-.203.042-.357s-.028-.259-.084-.315c-.084-.336-.203-.658-.357-.966s-.441-.434-.861-.378c-.644.084-1.155.175-1.533.273s-.756.259-1.134.483-.798.539-1.26.945-1.071.945-1.827 1.617l-4.704 4.2c-.056.14-.14.238-.252.294s-.224.154-.336.294c-.28.252-.553.525-.819.819s-.539.581-.819.861c-.028 0-.042.014-.042.042-.007.014-.01312.02625-.01838.03675l-.02099.042-.00263.00525-.336.462c-.084.084-.168.084-.252 0 0-.308.063-.504.189-.588s.217-.238.273-.462c0-.056.028-.21.084-.462s.084-.406.084-.462c.008-.024.01943-.057143.03429-.099429l.09-.252c.02514-.069714.05371-.148571.08571-.236571.112-.308.196-.504.252-.588-.084-.14-.091-.294-.021-.462s.175-.322.315-.462c0-.056-.035-.168-.105-.336s-.105-.28-.105-.336l-.588-.882c-.196-.336-.413-.567-.651-.693s-.581-.119-1.029.021c-.028 0-.049.014-.063.042s-.035.028-.063 0l-2.142 4.2-2.1 5.964c-.028.056-.056.147-.084.273s-.056.273-.084.441-.056.322-.084.462-.042.252-.042.336-.007.21-.021.378-.028.35-.042.546-.021.371-.021.525l.00084.35532c.00224.06272.00896.16128.02016.29568.014.168.028.357.042.567s.035.406.063.588.042.315.042.399c.056.224.119.42.189.588s.175.322.315.462c.056.028.182.119.378.273s.308.259.336.315l.126.126h.126c.308.112.602.196.882.252zm26.852-1.115333.112-.018667c.224-.056.406-.182.546-.378l-.336-1.974c-.028-.336-.035-.749-.021-1.239s.133-.847.357-1.071l1.722-5.586.126-.126 3.402-8.82.084-.126c.364-1.288.938-2.52 1.722-3.696.028-.028.049-.084.063-.168s.021-.14.021-.168c-.028-.084-.091-.245-.189-.483s-.175-.385-.231-.441c0-.028-.042-.098-.126-.21s-.182-.238-.294-.378-.21-.266-.294-.378-.14-.182-.168-.21l-.378-.798v-.126c0-.056-.014-.098-.042-.126 0-.028-.035-.07-.105-.126s-.119-.084-.147-.084c-.028-.028-.098-.056-.21-.084s-.196-.042-.252-.042h-.126c-.056.028-.133.07-.231.126s-.161.084-.189.084l-1.848 2.814-5.628 14.616-.672 4.158c0 .028.007.098.021.21s.028.238.042.378.035.273.063.399.056.231.084.315l.63 1.848c.028.056.105.168.231.336s.217.28.273.336c.028.056.112.133.252.231s.287.203.441.315.301.217.441.315.238.161.294.189c.224.168.448.224.672.168zm6.454-19.338667c.028 0 .07-.028.126-.084l.126-.126c0-.028.035-.126.105-.294s.14-.343.21-.525.133-.35.189-.504.098-.259.126-.315c.112-.224.238-.336.378-.336s.252-.084.336-.252l.252-.546c-.084-.084-.168-.126-.252-.126-.056-.028-.126-.042-.21-.042s-.14.014-.168.042l-1.134 2.646c0 .028-.007.084-.021.168s-.035.154-.063.21zm-2.058 4.998c.028-.056.049-.154.063-.294s.049-.238.105-.294c-.028-.056-.021-.091.021-.105s.091-.007.147.021c0 .084-.014.189-.042.315s-.014.245.042.357c.084-.056.133-.133.147-.231s.021-.175.021-.231l1.092-3.108-.042-.336-1.638 3.444c0 .028-.007.084-.021.168s-.021.14-.021.168v.126zm-2.856 9.282c.112.056.196.007.252-.147s.098-.259.126-.315c0-.056.021-.189.063-.399s.084-.427.126-.651.077-.441.105-.651.056-.343.084-.399c-.028-.028.014-.154.126-.378s.168-.364.168-.42c.028-.056.049-.189.063-.399s.021-.343.021-.399c.056-.056.112-.196.168-.42s.112-.364.168-.42l-.084-.084c-.056 0-.105.028-.147.084s-.077.098-.105.126c-.056.112-.133.301-.231.567s-.147.427-.147.483l-.42 2.436c0 .056-.07.21-.21.462s-.21.406-.21.462c-.028.056-.035.14-.021.252s.049.182.105.21zm-2.709 15.204c.322.056.595-.042.819-.294.056-.084.14-.308.252-.672s.196-.602.252-.714c.028 0 .042-.014.042-.042s.014-.042.042-.042c0-.056.035-.175.105-.357s.119-.301.147-.357c-.028-.028-.007-.07.063-.126s.105-.098.105-.126c.056-.14.091-.294.105-.462s.049-.322.105-.462c.056-.168.133-.329.231-.483s.161-.329.189-.525c-.028-.308-.14-.602-.336-.882s-.406-.532-.63-.756c-.224-.168-.511-.35-.861-.546s-.651-.252-.903-.168c-.224.056-.406.175-.546.357s-.266.371-.378.567c-.056.112-.133.315-.231.609s-.21.595-.336.903-.238.609-.336.903-.161.497-.189.609c-.056.504.042 1.001.294 1.491s.616.889 1.092 1.197c.28.196.581.322.903.378z" fill="#eee" transform="translate(-829 -157)"/></svg>