<?xml version="1.0" encoding="UTF-8"?>
<svg width="19px" height="48px" viewBox="0 0 19 48" version="1.1" xmlns="http://www.w3.org/2000/svg" xmlns:xlink="http://www.w3.org/1999/xlink">
    <title>multimedia@1x@yekim</title>
    <g id="Artboard" stroke="none" stroke-width="1" fill="none" fill-rule="evenodd">
        <path d="M9.5,0 C14.7467051,-9.63804095e-16 19,4.25329488 19,9.5 C19,14.7467051 14.7467051,19 9.5,19 C4.25329488,19 6.42536064e-16,14.7467051 0,9.5 C-6.42536064e-16,4.25329488 4.25329488,9.63804095e-16 9.5,0 Z M7,5 L7,13.3125 L14.125,9.15625 L7,5 Z" id="Combined-Shape" fill="#FFFFFF"></path>
        <path d="M9.5,29 C14.7467051,29 19,33.2532949 19,38.5 C19,43.7467051 14.7467051,48 9.5,48 C4.25329488,48 6.42536064e-16,43.7467051 0,38.5 C-6.42536064e-16,33.2532949 4.25329488,29 9.5,29 Z M6.75,36.990566 L4,41 L15,41 L11.3476562,36 L8.59765625,39.7264151 L6.75,36.990566 Z" id="" fill="#FFFFFF" fill-rule="nonzero"></path>
    </g>
</svg>