<svg height="94" viewBox="0 0 175 94" width="175" xmlns="http://www.w3.org/2000/svg"><g fill="#fff" fill-rule="evenodd"><g transform="translate(59 20)"><path d="m31.0667749 21.1097588 2.1570248 5.1689381c1.2342016 2.8734124 2.0383405 4.4827217 2.4112661 4.8269742.252324.2618609.6708826.3967011 1.2572099.4039485.4941025-.015067.7548628.0295618.7811306.1325515.0356628.1386547-.2427372.3320464-.8338579.5801753-.474162.2059794-.8578248.3465412-1.1513719.4211134-.8812165.2231443-1.6272595-.0265103-2.2390876-.750299-.4847074-.6124072-2.1322909-4.1514381-4.9427504-10.6163299-2.9425653 5.3459279-5.3613091 9.9303042-7.2569983 13.7516031-.4793389.9715361-.8601257 1.4927784-1.1414017 1.5644897-.4693686.1186289-.9147702-.0873505-1.3362049-.6175567-.1507042-.6988041 2.3410909-5.8307423 7.4750016-15.3961959 5.1341025-9.5654536 7.699524-14.35428347 7.6960727-14.36801543l-.055795-.04958763c-.4396496.12549485-1.6993521 1.39703608-3.7794909 3.81595876l-3.0407339 3.606165c-.2139769.0543556-.3533686-.0446289-.4179835-.2971444-.0887735-.3461598 1.2064-1.9913247 3.885329-4.93644843 2.7249454-2.98536598 4.4287074-4.56415979 5.1110942-4.73733505.2538578-.0642732.596681.00839175 1.0277024.21723196.4312133.20979381.6775934.43389175.7387571.67324742.0375801.14666495-.3186645.89543814-1.0685422 2.24631959l-1.3546115 2.38306701-5.5283108 10.430567.2931636-.0957423c.3382215-.1142422.5972562.0682784.776529.546799l16.6319074-14.85988659c3.6427835-3.23139691 5.7315504-4.91585051 6.2663008-5.05107216.2273984-.05797939.3940166.12015464.4992794.53192268.1673851.65169587-.2329587 1.36919072-1.1996893 2.15267525l-3.1007471 2.4851031z"/><path d="m53.9795359 12.009132c-.6415471.1628762-1.0461091-.0814382-1.212919-.7331341-.1397752-.5452732.0615471-1.1208711.6043504-1.72545872.4860496-.54832475 1.0234843-.89696392 1.6115372-1.04591753.6950413-.17603608 1.1402512.11424227 1.3344793.87274227.1397752.54527319-.089157 1.09893818-.6854545 1.66042268-.5130843.4985464-1.0639405.8223918-1.6519934.9713454m-5.3271802 16.052469c.0916496.358366.5305322.4382784 1.3172231.239165.1760133-.0444382.292205.0423402.3483835.2609072.066724.2599536-.3445487.5027423-1.2326678.7276031-1.0102545.2561392-1.6376132-.0951701-1.8834181-1.0522114-.2860695-1.1170567.6066512-3.8287371 2.6787372-8.1359948l-4.3353323 5.8362732c-2.5606281 3.4541598-4.5698248 5.3653814-6.0273983 5.7353814-.1604827.040433-.2634447-.0282268-.3086942-.2065515-.063081-.2462217.0320198-.4300773.2853024-.5521392.8014546-.3732422 1.5005224-.8399381 2.0972033-1.4016134.7466182-.6976598 2.2461819-2.5123763 4.4992662-5.4447216l4.8265586-6.6723969c.2433124-.1609691.5920794-.2986701 1.0470678-.413866.4540298-.1151959.7483438.0862062.8808331.6030618.1430347.5580516-.5485554 2.3342423-2.0738116 5.3281908-1.5252562 2.9952835-2.2314182 4.7115876-2.1192529 5.1489123"/><path d="m60.9784582 16.7357294-5.0483967 6.8884845c-2.5982083 3.2502784-4.5462413 5.0400103-5.8433322 5.3690052-.160291.0408144-.2630612-.0278454-.3085025-.2063609-.0596298-.2324896.0356628-.4163453.2854942-.5521391.9147702-.4869124 1.6021421-.9435 2.0621157-1.371098.7301289-.6516958 2.1666116-2.3798247 4.3098314-5.1855309.9753587-1.2509433 2.3420496-3.1947783 4.1016066-5.8318866.6275504-1.1058041 1.1289389-1.7063866 1.5035901-1.8015567.7481521-.189768 1.1841587-.0446289 1.3066777.4329382.1568396.6129793-.2734149 2.0742886-1.2899967 4.3852628 2.2331438-3.3986598 3.9043107-5.238933 5.0142678-5.5198659.3742677-.0951701.7450843-.0642732 1.1122578.0896391.3669818.1550567.5970645.4113866.6890975.7708969.136324.5321134-.026076 1.4014227-.4852826 2.6081186 2.0224264-3.3303814 3.8094016-5.1927784 5.3605421-5.5860464.895405-.2271495 1.4353323.0186907 1.6197818.7369485.2383273.9307216-.4526876 2.7906391-2.0730446 5.5818505-1.6201653 2.790067-2.3723438 4.4108196-2.2567273 4.8628299.0887736.3457783.3677488.4628814.8375009.3505464.469752-.1117629.7320463-.0608402.7864991.1510515.0682579.2668196-.2885619.498165-1.0695008.6963248-1.0507107.2662474-1.6936-.0593145-1.9282843-.9768763-.2661289-1.0375258.2799339-2.8783712 1.6385719-5.5252062 1.3578711-2.6455 2.0047868-4.0946031 1.9399802-4.3476907-.0406479-.1588712-.1614413-.2136083-.3621884-.1626856-.8018381.2035-2.23161 1.9039742-4.2883571 5.1016134-1.7014611 2.6416856-2.9147636 4.740768-3.6404826 6.298201-.437157.960665-.8098909 1.48-1.1176265 1.5580052-.5207537.1323608-.8432528-.0413866-.9659636-.5199072-.1257785-.4922526.5621686-2.167933 2.0651835-5.0270413 1.5028231-2.8592989 2.184443-4.5618711 2.0448595-5.1071443-.0613554-.2397371-.2258645-.3257526-.4929521-.2580464-.6956165.1766082-1.9835041 1.735567-3.864238 4.6761134-1.6144132 2.5343093-2.7132496 4.4691804-3.2959339 5.8069021-.4572892 1.0503041-.9398876 1.6407783-1.447795 1.769134-.454605.115768-.7328132-.0265103-.8350083-.4251186-.1294215-.5056031.4402248-2.143902 1.7091306-4.9162319z"/><path d="m12.3774301 58.3677098 2.1572165 5.168366c1.2343934 2.8734123 2.0381488 4.4829123 2.4110744 4.8269742.2519405.2618608.6710744.3972732 1.2570182.4041392.4944859-.0152578.7552463.0299433.7817058.132933.035471.1386546-.2427372.3314742-.8338579.5796031-.474162.2065515-.8582083.3467319-1.1519471.4213041-.8810248.2231443-1.626876-.0265103-2.2387041-.7499175-.4845157-.6129794-2.1324827-4.1518196-4.94332565-10.6161392-2.94218182 5.3457371-5.36054215 9.9301134-7.25642314 13.7512216-.47933885.9711547-.86031736 1.4925877-1.14140166 1.5641083-.46936859.1186288-.91496198-.0867784-1.33639669-.6169846-.15070413-.6986134 2.34109091-5.8307422 7.47538512-15.3965773 5.13371902-9.5650721 7.69894872-14.3544742 7.69568922-14.3680154l-.0556033-.0495877c-.4396496.1254949-1.699352 1.3974176-3.7796826 3.8153866l-3.04035042 3.6071186c-.21436033.0543557-.35356033-.0446289-.41836695-.2975258-.08858181-.3457783 1.20659174-1.9909433 3.88552067-4.9364484 2.7249455-2.9849846 4.4288992-4.5637784 5.1110942-4.7369537.2538579-.0646546.5964893.0078196 1.0278942.2170413.4310215.2096031.6772099.4340825.7387571.6734381.0373884.1460928-.3186645.894866-1.0691174 2.2463196l-1.3540364 2.3826856-5.5286942 10.4309484.2933554-.0955515c.3382215-.114433.5968727.0680876.7763372.5462268l16.6322909-14.8593144c3.6424-3.2321598 5.7313587-4.9160413 6.2663008-5.0514536.2272066-.057598.3936331.1197732.4990876.5321134.1671934.6516958-.2331504 1.3686185-1.199881 2.1522938l-3.1007471 2.4851031z"/><path d="m35.2905745 49.267083c-.6419305.1628763-1.046109-.0814382-1.2133024-.7335155-.1397752-.544701.0615471-1.1204897.6043504-1.725268.4862413-.5487062 1.0234843-.8973454 1.6115372-1.046299.6950413-.1760361 1.1402512.1148144 1.3344793.8727423.1397752.5460361-.089157 1.0995103-.6852628 1.6604227-.513276.4991185-1.0637488.8229639-1.6518017.9719175m-5.3275636 16.0524691c.0918413.3579845.5309157.438469 1.3172231.2393556.1760133-.0446288.2925885.0421495.3483835.2603351.066724.2597629-.3445487.5031237-1.2326677.7279845-1.0102546.2561392-1.637805-.0949794-1.8832265-1.0525928-.2858777-1.1170567.606843-3.8287371 2.6787372-8.1356134l-4.335524 5.8366547c-2.5606281 3.4532062-4.5698248 5.3646185-6.0270148 5.7344278-.1608662.0402423-.2634447-.0280361-.3092695-.2059794-.063081-.2460309.0324033-.4300773.2854942-.5527113.8016463-.3726701 1.5007141-.8399382 2.0972034-1.4014227.7468099-.6972783 2.2465652-2.512567 4.4996495-5.4443402l4.8259835-6.6729691c.2435041-.1607783.5924628-.2980979 1.0472595-.413866.4542215-.1146237.7483438.0867784.8810248.6036341.142843.5580515-.5487471 2.3348144-2.0738116 5.3283814-1.5252562 2.9945206-2.2312264 4.7108248-2.1194446 5.1487217"/><path d="m42.2894777 53.9937758-5.0487802 6.8879123c-2.5980165 3.2506598-4.5462413 5.0400104-5.8431405 5.3690052-.1602909.0406237-.2630611-.0280361-.3086942-.2057887-.0596297-.2324897.0356628-.416536.2854942-.5527113.914962-.4865309 1.6021422-.9435 2.0621157-1.3710979.7299372-.6511238 2.1666116-2.3798248 4.3100232-5.1851495.9747834-1.2509433 2.3422413-3.1945877 4.1014148-5.8316959.6275505-1.1058041 1.1289389-1.7063866 1.5035901-1.8015567.7481521-.189768 1.1843504-.045201 1.3066777.4333196.1570314.6120258-.2734149 2.073335-1.2899967 4.3848814 2.2331438-3.3992319 3.9043108-5.238933 5.0144595-5.5204381.3740761-.094598.7448926-.0642732 1.1122579.0902113.3671735.154866.5968727.4113866.6889058.7703248.1363239.5324948-.0256926 1.4018041-.4852827 2.6086907 2.0224265-3.3303815 3.8094017-5.1927784 5.3605422-5.5862371.8955967-.2269588 1.4357157.0181185 1.6197818.7371392.238519.9307216-.4524959 2.7904484-2.0728529 5.5810876-1.6201653 2.7896855-2.3723438 4.4113917-2.2565355 4.8630206.08839.3461598.3673652.4628814.8375008.3511186.4693686-.1119537.7316628-.0617939.7861157.1510515.0684496.2662474-.288562.498165-1.0695008.6963247-1.0503273.2662475-1.6932166-.0598866-1.9282843-.9772577-.2657455-1.0371443.2799338-2.8783711 1.6385719-5.5248247 1.3580628-2.6455 2.0049785-4.0946031 1.9403636-4.3476908-.0410314-.1592525-.1618248-.2132268-.3623802-.1628762-.8020297.2036907-2.2318016 1.9041649-4.288357 5.1021855-1.7016529 2.6411134-2.9151471 4.7403866-3.6404826 6.2978196-.4373488.960665-.8100827 1.48-1.1174348 1.5578144-.5211371.1323609-.8434446-.0415773-.9659636-.5197164-.126162-.4924433.5619769-2.167933 2.0651835-5.0276134 1.5024397-2.859299 2.1842512-4.561299 2.0446678-5.1071444-.0615472-.2391649-.2260562-.3251804-.4931439-.2574742-.6956165.1766082-1.9835041 1.7349948-3.8638545 4.675732-1.6147967 2.5341185-2.7136331 4.4693711-3.2963174 5.8072835-.4569057 1.0503041-.9396958 1.6400154-1.4476033 1.7685618-.4546049.1157681-.7326214-.0263196-.8350082-.4249278-.1294215-.5057938.440033-2.1435206 1.7089388-4.9160413z"/><path d="m62.7724126 56.9168139c.7621487-.1933917 1.9817785-1.7124897 3.659081-4.557866 1.6767272-2.8461391 2.418552-4.6486494 2.2239404-5.4088659-.0991272-.3862114-.3290181-.5340207-.6902479-.442665-.9360529.2372577-2.1832925 1.7319433-3.7422942 4.483866-1.5584264 2.7523041-2.2116694 4.6209948-1.9587702 5.6072165.0715173.2799794.2410115.3858299.5082909.3183144m-2.1179108-3.1810464-3.0487868 3.8531495c-1.5482644 1.7384278-2.8371107 2.7372371-3.8669223 2.9981443-.1602909.0406238-.2613355-.0205979-.3031339-.1844278-.0630809-.2462216.0301025-.4373247.2799339-.5740722.9648133-.5130412 1.803848-1.1288814 2.5167207-1.8467577 1.0798545-1.0649897 2.5109686-2.8837113 4.2937256-5.4555928 1.7829488-2.5726443 3.2025587-4.3814484 4.2590215-5.4266031.7498777-.7417165 1.4790479-1.2021185 2.187319-1.3817783 1.1901025-.3015309 1.9378711.0329948 2.2434975 1.003768 1.3617058-3.0219845 2.9465918-6.2842783 4.7540827-9.787835 2.7726876-5.4048609 4.5402975-8.2042732 5.3024463-8.3974743.4275702-.1085206.7030942.0768609.8256132.5553815.102195.3991804-.242929 1.3016752-1.0365223 2.7065309-1.4838414 2.5997268-3.6268695 6.7393402-6.4283174 12.4211289-3.4414612 6.9649639-5.0666116 10.8192577-4.8762182 11.5623093.0780364.3053453.3428232.4079536.7939769.3078247.4515372-.1005103.7050116-.0411959.7609983.1769897.0701752.2736856-.218195.4924433-.864919.6566546-1.0648992.2696804-1.7074049-.0274639-1.9290512-.8923866-.1771637-.6913659-.0118876-1.8807062.4958281-3.567067-1.9186975 3.4606444-3.4324496 5.3312423-4.5420232 5.6127474-1.0298115.2609073-1.6842049-.154103-1.9633719-1.2444587-.1568396-.6114536-.1081388-1.6436392.1461025-3.0961753"/><path d="m83.5429507 37.0352072c-.6419305.1628763-1.046109-.0814381-1.2131107-.7337062-.1397752-.544701.0615471-1.1199175.6043504-1.7250773.4862413-.5483247 1.0232926-.8969639 1.6113455-1.0459175.6950413-.1760361 1.1404429.114433 1.3344793.8723608.1399669.5462268-.0889653 1.0995103-.6850711 1.6608041-.513276.4991186-1.0639405.8223918-1.6519934.9715361m-5.3273719 16.0528505c.0918414.3579846.530724.4384691 1.3172232.2387835.1758215-.0446288.2923967.0421495.3483835.2609073.0665322.2597628-.3445488.5025515-1.2328595.7279845-1.0100629.2561392-1.6376133-.0949794-1.8832265-1.0525928-.2858777-1.1172474.606843-3.8293093 2.6789289-8.1356134l-4.3357157 5.8362732c-2.5604363 3.4535876-4.569633 5.365-6.0270148 5.7342371-.1606744.0408144-.2634447-.0280361-.3090777-.2057886-.063081-.2462217.0324033-.4300774.2854942-.5529021.8016463-.3720979 1.5005223-.8399382 2.0970116-1.4008505.7468099-.6978505 2.2465652-2.512567 4.4996495-5.4449124l4.8261752-6.6723969c.2435042-.1609691.5924629-.2984794 1.0470678-.413866.4544132-.1151959.7485355.0862062.8810248.6030619.1430347.5580515-.5485554 2.3348144-2.0738116 5.3289536-1.5250644 2.9945206-2.2312264 4.7108247-2.1192529 5.1487216"/><path d="m88.7226288 42.3290299c-.1796562-.4216856-.2810843-.6795412-.305243-.7728041-.0916496-.3585567.1955702-1.0297062.8616595-2.0128763.6668562-.9831701 1.1605752-1.5158557 1.4809653-1.5971031.3075438-.0780052.4975537.0230773.5688793.3021031.0611637.2391649-.0040264.6804948-.194995 1.3239897 1.5110677-.3831598 2.4197025.0228866 2.7259041 1.217567.241395.9417835-.3466578 2.6914639-1.7628165 5.2492319-1.4167339 2.5566238-2.0926017 3.9616701-2.0281785 4.2136134.0611636.2387836.2204958.3402475.4776132.3030567l.6465322-.1848092c.1842579-.0467268.3042843.0390979.3602711.256902.0699835.2734949-.2824265.5096083-1.0579967.7060516-.9897388.2506082-1.5963901-.0631289-1.8212959-.9410206-.2214545-.8639691-.0042181-2.0662784.6509422-3.6065464.4049454-.9660052 1.0601058-2.2022629 1.9662479-3.7062938.7370314-1.2198557 1.0938513-1.8772732 1.0698843-1.9707269-.0510016-.1993041-.1894347-.2704433-.414724-.2137989-.1992132.0507319-.5571834.2237165-1.0754446.5174278-.5180694.2942835-.817752.5012165-.9000066.6213711-4.7142016 7.4411959-8.1547041 11.4356702-10.3207405 11.9843763-.1600992.0406237-.2628694-.0276546-.3086942-.2054072-.0596298-.2324897.0820628-.4285515.4256529-.588567.4208595-.1916752.9496661-.5448917 1.5866116-1.0596495.9607867-.751634 2.2875967-2.2959072 3.9817719-4.6330103 1.507233-2.0628453 2.6363636-3.797268 3.3872-5.2030773"/><path d="m99.0334565 43.6456387c-.294314.0745721-.4908429-.080866-.5895867-.4666959-.2078414-.8111392 1.1540562-2.6363454 4.0860762-5.4754279l8.241752-7.7619896c2.917831-2.8926753 4.258063-4.8044691 4.019735-5.7351908-.153388-.5982938-1.005844-.7012835-2.556601-.3080154-1.524106.386402-3.192205 1.1563453-5.003914 2.3096391-1.61844 1.0190258-3.000853 2.0992732-4.146281 3.2394073-.226823.2269587-.413574.3593196-.560443.396701-.280509.0711392-.465534-.065799-.554308-.4119588-.326717-1.2765.825614-2.8078041 3.457375-4.5941031 2.212245-1.4815257 4.160662-2.435134 5.845058-2.8623505 2.419895-.6133608 3.892423.1035619 4.417012 2.1517217.231616.9047835.134023 1.8854742-.29278 2.9420721-.674909 1.700665-2.749296 4.0539794-6.22201 7.058799l-7.489957 6.444866-1.43284 1.6588969c-.7853486.9354897-1.191828 1.4067629-1.2182875 1.4136289m-2.2854876 6.2514742c-.6417388.1628763-1.0463008-.0812474-1.2131107-.7329433-.1401587-.5452732-.020324-1.1632114.3579702-1.8545773.3782942-.6904124.8348166-1.1033248 1.3697587-1.2391186.6818116-.1726031 1.1063141.0663711 1.2729322.718067.1332562.5185722-.0013421 1.1340309-.4028363 1.8444691-.4020694.7106289-.8635769 1.1317423-1.3847141 1.2641031"/></g><path d="m70.6410954 28.4425797c-12.7846294 12.4710156-20.6959949 29.7253083-20.6959949 48.7830185 0 .4243787.0049511.8485655.0150439 1.267956l-.0150439.0353009-13.6367985-.0049882c-.0601755-1.1467049-.0352293-2.3083744 0-3.4702357.5463403-18.6030187 7.6005856-34.5542464 19.2670171-46.8485654h-32.6181723v-12.1325871h47.6839486zm-24.6266363-28.4425797c-25.4136786 0-46.0144591 20.5982892-46.0144591 46 0 25.406699 20.6007805 46 46.0144591 46 1.293583 0 2.5768829-.0556373 3.8403781-.161732l35.1451628-70.2703542c-8.1370236-12.9558279-22.5561037-21.5679138-38.9855409-21.5679138z"/></g></svg>